<svg xmlns="http://www.w3.org/2000/svg" xmlns:xlink="http://www.w3.org/1999/xlink" xmlns:s="https://github.com/nturley/netlistsvg" width="682" height="601.5">
  <style>svg {
    stroke:#000;
    fill:none;
  }
  text {
    fill:#000;
    stroke:none;
    font-size:10px;
    font-weight: bold;
    font-family: "Courier New", monospace;
  }
  .nodelabel {
    text-anchor: middle;
  }
  .inputPortLabel {
    text-anchor: end;
  }
  .splitjoinBody {
    fill:#000;
  }</style>
  <g s:type="generic" transform="translate(268,31.5)" s:width="30" s:height="40" id="cell_$auto$proc_rom.cc:150:do_switch$202">
    <text x="15" y="-4" class="nodelabel cell_$auto$proc_rom.cc:150:do_switch$202" s:attribute="ref">$mem_v2</text>
    <rect width="30" height="180" s:generic="body" class="cell_$auto$proc_rom.cc:150:do_switch$202"/>
    <g transform="translate(0,10)" s:x="0" s:y="10" s:pid="in0" id="port_$auto$proc_rom.cc:150:do_switch$202~RD_ADDR">
      <text x="-3" y="-4" class="inputPortLabel cell_$auto$proc_rom.cc:150:do_switch$202">RD_ADDR</text>
    </g>
    <g transform="translate(0,30)" s:x="0" s:y="10" s:pid="in0" id="port_$auto$proc_rom.cc:150:do_switch$202~RD_ARST">
      <text x="-3" y="-4" class="inputPortLabel cell_$auto$proc_rom.cc:150:do_switch$202">RD_ARST</text>
    </g>
    <g transform="translate(0,50)" s:x="0" s:y="10" s:pid="in0" id="port_$auto$proc_rom.cc:150:do_switch$202~RD_CLK">
      <text x="-3" y="-4" class="inputPortLabel cell_$auto$proc_rom.cc:150:do_switch$202">RD_CLK</text>
    </g>
    <g transform="translate(0,70)" s:x="0" s:y="10" s:pid="in0" id="port_$auto$proc_rom.cc:150:do_switch$202~RD_EN">
      <text x="-3" y="-4" class="inputPortLabel cell_$auto$proc_rom.cc:150:do_switch$202">RD_EN</text>
    </g>
    <g transform="translate(0,90)" s:x="0" s:y="10" s:pid="in0" id="port_$auto$proc_rom.cc:150:do_switch$202~RD_SRST">
      <text x="-3" y="-4" class="inputPortLabel cell_$auto$proc_rom.cc:150:do_switch$202">RD_SRST</text>
    </g>
    <g transform="translate(0,110)" s:x="0" s:y="10" s:pid="in0" id="port_$auto$proc_rom.cc:150:do_switch$202~WR_ADDR">
      <text x="-3" y="-4" class="inputPortLabel cell_$auto$proc_rom.cc:150:do_switch$202">WR_ADDR</text>
    </g>
    <g transform="translate(0,130)" s:x="0" s:y="10" s:pid="in0" id="port_$auto$proc_rom.cc:150:do_switch$202~WR_CLK">
      <text x="-3" y="-4" class="inputPortLabel cell_$auto$proc_rom.cc:150:do_switch$202">WR_CLK</text>
    </g>
    <g transform="translate(0,150)" s:x="0" s:y="10" s:pid="in0" id="port_$auto$proc_rom.cc:150:do_switch$202~WR_DATA">
      <text x="-3" y="-4" class="inputPortLabel cell_$auto$proc_rom.cc:150:do_switch$202">WR_DATA</text>
    </g>
    <g transform="translate(0,170)" s:x="0" s:y="10" s:pid="in0" id="port_$auto$proc_rom.cc:150:do_switch$202~WR_EN">
      <text x="-3" y="-4" class="inputPortLabel cell_$auto$proc_rom.cc:150:do_switch$202">WR_EN</text>
    </g>
    <g transform="translate(30,10)" s:x="30" s:y="10" s:pid="out0" id="port_$auto$proc_rom.cc:150:do_switch$202~RD_DATA">
      <text x="5" y="-4" style="fill:#000; stroke:none" class="cell_$auto$proc_rom.cc:150:do_switch$202">RD_DATA</text>
    </g>
  </g>
  <g s:type="eq" transform="translate(315.33333333333337,314.5)" s:width="25" s:height="25" id="cell_$procmux$207_CMP0">
    <s:alias val="$eq"/>
    <circle r="12.5" cx="12.5" cy="12.5" class="cell_$procmux$207_CMP0"/>
    <line x1="7.5" x2="17.5" y1="10" y2="10" class="cell_$procmux$207_CMP0"/>
    <line x1="7.5" x2="17.5" y1="15" y2="15" class="cell_$procmux$207_CMP0"/>
    <g s:x="3" s:y="5" s:pid="A"/>
    <g s:x="3" s:y="20" s:pid="B"/>
    <g s:x="25" s:y="12.5" s:pid="Y"/>
  </g>
  <g s:type="mux" transform="translate(573,22)" s:width="20" s:height="40" id="cell_$procmux$208">
    <s:alias val="$pmux"/>
    <s:alias val="$mux"/>
    <s:alias val="$_MUX_"/>
    <path d="M0,0 L20,10 L20,30 L0,40 Z" class="cell_$procmux$208"/>
    <g s:x="0" s:y="10" s:pid="A"/>
    <g s:x="0" s:y="30" s:pid="B"/>
    <g s:x="10" s:y="35" s:pid="S"/>
    <g s:x="20" s:y="20" s:pid="Y"/>
  </g>
  <g s:type="eq" transform="translate(315.33333333333337,394.5)" s:width="25" s:height="25" id="cell_$procmux$210_CMP0">
    <s:alias val="$eq"/>
    <circle r="12.5" cx="12.5" cy="12.5" class="cell_$procmux$210_CMP0"/>
    <line x1="7.5" x2="17.5" y1="10" y2="10" class="cell_$procmux$210_CMP0"/>
    <line x1="7.5" x2="17.5" y1="15" y2="15" class="cell_$procmux$210_CMP0"/>
    <g s:x="3" s:y="5" s:pid="A"/>
    <g s:x="3" s:y="20" s:pid="B"/>
    <g s:x="25" s:y="12.5" s:pid="Y"/>
  </g>
  <g s:type="eq" transform="translate(315.33333333333337,509.5)" s:width="25" s:height="25" id="cell_$procmux$211_CMP0">
    <s:alias val="$eq"/>
    <circle r="12.5" cx="12.5" cy="12.5" class="cell_$procmux$211_CMP0"/>
    <line x1="7.5" x2="17.5" y1="10" y2="10" class="cell_$procmux$211_CMP0"/>
    <line x1="7.5" x2="17.5" y1="15" y2="15" class="cell_$procmux$211_CMP0"/>
    <g s:x="3" s:y="5" s:pid="A"/>
    <g s:x="3" s:y="20" s:pid="B"/>
    <g s:x="25" s:y="12.5" s:pid="Y"/>
  </g>
  <g s:type="not" transform="translate(336.5,569.5)" s:width="30" s:height="20" id="cell_$procmux$212_CMP0">
    <s:alias val="$_NOT_"/>
    <s:alias val="$not"/>
    <s:alias val="$logic_not"/>
    <path d="M0,0 L0,20 L20,10 Z" class="cell_$procmux$212_CMP0"/>
    <circle cx="23" cy="10" r="3" class="cell_$procmux$212_CMP0"/>
    <g s:x="0" s:y="10" s:pid="A"/>
    <g s:x="25" s:y="10" s:pid="Y"/>
  </g>
  <g s:type="inputExt" transform="translate(155,389.5)" s:width="30" s:height="20" id="cell_ALUOp">
    <text x="15" y="-4" class="nodelabel cell_ALUOp" s:attribute="ref">ALUOp</text>
    <s:alias val="$_inputExt_"/>
    <path d="M0,0 L0,20 L15,20 L30,10 L15,0 Z" class="cell_ALUOp"/>
    <g s:x="28" s:y="10" s:pid="Y"/>
  </g>
  <g s:type="inputExt" transform="translate(72,22)" s:width="30" s:height="20" id="cell_funct3">
    <text x="15" y="-4" class="nodelabel cell_funct3" s:attribute="ref">funct3</text>
    <s:alias val="$_inputExt_"/>
    <path d="M0,0 L0,20 L15,20 L30,10 L15,0 Z" class="cell_funct3"/>
    <g s:x="28" s:y="10" s:pid="Y"/>
  </g>
  <g s:type="inputExt" transform="translate(72,87)" s:width="30" s:height="20" id="cell_funct7_5">
    <text x="15" y="-4" class="nodelabel cell_funct7_5" s:attribute="ref">funct7_5</text>
    <s:alias val="$_inputExt_"/>
    <path d="M0,0 L0,20 L15,20 L30,10 L15,0 Z" class="cell_funct7_5"/>
    <g s:x="28" s:y="10" s:pid="Y"/>
  </g>
  <g s:type="outputExt" transform="translate(628,32)" s:width="30" s:height="20" id="cell_ALUCtrl">
    <text x="15" y="-4" class="nodelabel cell_ALUCtrl" s:attribute="ref">ALUCtrl</text>
    <s:alias val="$_outputExt_"/>
    <path d="M30,0 L30,20 L15,20 L0,10 L15,0 Z" class="cell_ALUCtrl"/>
    <g s:x="0" s:y="10" s:pid="A"/>
  </g>
  <g s:type="constant" transform="translate(155,106.5)" s:width="30" s:height="20" id="cell_0">
    <text x="15" y="-4" class="nodelabel cell_0" s:attribute="ref">0</text>
    <s:alias val="$_constant_"/>
    <rect width="30" height="20" class="cell_0"/>
    <g s:x="30" s:y="10" s:pid="Y"/>
  </g>
  <g s:type="constant" transform="translate(155,171.5)" s:width="30" s:height="20" id="cell_1">
    <text x="15" y="-4" class="nodelabel cell_1" s:attribute="ref">1</text>
    <s:alias val="$_constant_"/>
    <rect width="30" height="20" class="cell_1"/>
    <g s:x="30" s:y="10" s:pid="Y"/>
  </g>
  <g s:type="constant" transform="translate(155,324.5)" s:width="30" s:height="20" id="cell_10">
    <text x="15" y="-4" class="nodelabel cell_10" s:attribute="ref">10</text>
    <s:alias val="$_constant_"/>
    <rect width="30" height="20" class="cell_10"/>
    <g s:x="30" s:y="10" s:pid="Y"/>
  </g>
  <g s:type="constant" transform="translate(268,259.5)" s:width="30" s:height="20" id="cell_000000011010">
    <text x="15" y="-4" class="nodelabel cell_000000011010" s:attribute="ref">0x1a</text>
    <s:alias val="$_constant_"/>
    <rect width="30" height="20" class="cell_000000011010"/>
    <g s:x="30" s:y="10" s:pid="Y"/>
  </g>
  <g s:type="constant" transform="translate(155,454.5)" s:width="30" s:height="20" id="cell_11">
    <text x="15" y="-4" class="nodelabel cell_11" s:attribute="ref">11</text>
    <s:alias val="$_constant_"/>
    <rect width="30" height="20" class="cell_11"/>
    <g s:x="30" s:y="10" s:pid="Y"/>
  </g>
  <g s:type="constant" transform="translate(155,519.5)" s:width="30" s:height="20" id="cell_01">
    <text x="15" y="-4" class="nodelabel cell_01" s:attribute="ref">01</text>
    <s:alias val="$_constant_"/>
    <rect width="30" height="20" class="cell_01"/>
    <g s:x="30" s:y="10" s:pid="Y"/>
  </g>
  <g s:type="join" transform="translate(174,21.5)" s:width="4" s:height="40" id="cell_$join$,4,5,6,7,">
    <rect width="5" height="40" class="splitjoinBody" s:generic="body"/>
    <s:alias val="$_join_"/>
    <g s:x="5" s:y="20" s:pid="out"/>
    <g transform="translate(0,10)" s:x="0" s:y="10" s:pid="in0">
      <text x="-3" y="-4" class="inputPortLabel">0:2</text>
    </g>
    <g transform="translate(0,30)" s:x="0" s:y="10" s:pid="in0">
      <text x="-3" y="-4" class="inputPortLabel">3</text>
    </g>
  </g>
  <g s:type="join" transform="translate(54,12)" s:width="4" s:height="40" id="cell_$join$,x,x,x,x,">
    <rect width="5" height="80" class="splitjoinBody" s:generic="body"/>
    <s:alias val="$_join_"/>
    <g s:x="5" s:y="20" s:pid="out"/>
    <g transform="translate(0,10)" s:x="0" s:y="10" s:pid="in0">
      <text x="-3" y="-4" class="inputPortLabel">0</text>
    </g>
    <g transform="translate(0,30)" s:x="0" s:y="10" s:pid="in0">
      <text x="-3" y="-4" class="inputPortLabel">1</text>
    </g>
    <g transform="translate(0,50)" s:x="0" s:y="10" s:pid="in0">
      <text x="-3" y="-4" class="inputPortLabel">2</text>
    </g>
    <g transform="translate(0,70)" s:x="0" s:y="10" s:pid="in0">
      <text x="-3" y="-4" class="inputPortLabel">3</text>
    </g>
  </g>
  <g s:type="join" transform="translate(532,31.5)" s:width="4" s:height="40" id="cell_$join$,12,13,14,15,25,26,27,28,29,30,31,32,33,34,35,36,">
    <rect width="5" height="40" class="splitjoinBody" s:generic="body"/>
    <s:alias val="$_join_"/>
    <g s:x="5" s:y="20" s:pid="out"/>
    <g transform="translate(0,10)" s:x="0" s:y="10" s:pid="in0">
      <text x="-3" y="-4" class="inputPortLabel">0:3</text>
    </g>
    <g transform="translate(0,30)" s:x="0" s:y="10" s:pid="in0">
      <text x="-3" y="-4" class="inputPortLabel">4:15</text>
    </g>
  </g>
  <g s:type="join" transform="translate(527.75,316.5)" s:width="4" s:height="40" id="cell_$join$,16,17,18,19,">
    <rect width="5" height="80" class="splitjoinBody" s:generic="body"/>
    <s:alias val="$_join_"/>
    <g s:x="5" s:y="20" s:pid="out"/>
    <g transform="translate(0,10)" s:x="0" s:y="10" s:pid="in0">
      <text x="-3" y="-4" class="inputPortLabel">0</text>
    </g>
    <g transform="translate(0,30)" s:x="0" s:y="10" s:pid="in0">
      <text x="-3" y="-4" class="inputPortLabel">1</text>
    </g>
    <g transform="translate(0,50)" s:x="0" s:y="10" s:pid="in0">
      <text x="-3" y="-4" class="inputPortLabel">2</text>
    </g>
    <g transform="translate(0,70)" s:x="0" s:y="10" s:pid="in0">
      <text x="-3" y="-4" class="inputPortLabel">3</text>
    </g>
  </g>
  <line x1="180" x2="268" y1="42" y2="42" class="net_4,5,6,7"/>
  <line x1="185" x2="195" y1="116.5" y2="116.5" class="net_20"/>
  <line x1="195" x2="195" y1="116.5" y2="62" class="net_20"/>
  <circle cx="195" cy="116.5" r="2" style="fill:#000" class="net_20"/>
  <line x1="195" x2="268" y1="62" y2="62" class="net_20"/>
  <line x1="185" x2="195" y1="116.5" y2="116.5" class="net_20"/>
  <line x1="195" x2="195" y1="116.5" y2="122" class="net_20"/>
  <line x1="195" x2="268" y1="122" y2="122" class="net_20"/>
  <line x1="185" x2="205" y1="181.5" y2="181.5" class="net_21"/>
  <line x1="205" x2="205" y1="181.5" y2="102" class="net_21"/>
  <line x1="205" x2="268" y1="102" y2="102" class="net_21"/>
  <line x1="215" x2="215" y1="226.5" y2="142" class="net_"/>
  <line x1="215" x2="268" y1="142" y2="142" class="net_"/>
  <line x1="215" x2="215" y1="226.5" y2="162" class="net_"/>
  <circle cx="215" cy="162" r="2" style="fill:#000" class="net_"/>
  <line x1="215" x2="268" y1="162" y2="162" class="net_"/>
  <line x1="215" x2="215" y1="226.5" y2="182" class="net_"/>
  <circle cx="215" cy="182" r="2" style="fill:#000" class="net_"/>
  <line x1="215" x2="268" y1="182" y2="182" class="net_"/>
  <line x1="215" x2="215" y1="226.5" y2="202" class="net_"/>
  <circle cx="215" cy="202" r="2" style="fill:#000" class="net_"/>
  <line x1="215" x2="268" y1="202" y2="202" class="net_"/>
  <line x1="183" x2="205" y1="399.5" y2="399.5" class="net_2,3"/>
  <line x1="205" x2="205" y1="399.5" y2="319.5" class="net_2,3"/>
  <circle cx="205" cy="399.5" r="2" style="fill:#000" class="net_2,3"/>
  <line x1="205" x2="318.33333333333337" y1="319.5" y2="319.5" class="net_2,3"/>
  <line x1="183" x2="318.33333333333337" y1="399.5" y2="399.5" class="net_2,3"/>
  <line x1="183" x2="205" y1="399.5" y2="399.5" class="net_2,3"/>
  <line x1="205" x2="205" y1="399.5" y2="514.5" class="net_2,3"/>
  <circle cx="205" cy="514.5" r="2" style="fill:#000" class="net_2,3"/>
  <line x1="205" x2="318.33333333333337" y1="514.5" y2="514.5" class="net_2,3"/>
  <line x1="183" x2="205" y1="399.5" y2="399.5" class="net_2,3"/>
  <line x1="205" x2="205" y1="399.5" y2="579.5" class="net_2,3"/>
  <line x1="205" x2="336.5" y1="579.5" y2="579.5" class="net_2,3"/>
  <line x1="185" x2="318.33333333333337" y1="334.5" y2="334.5" class="net_23,24"/>
  <line x1="538" x2="573" y1="52" y2="52" class="net_12,13,14,15,25,26,27,28,29,30,31,32,33,34,35,36"/>
  <line x1="533.75" x2="583" y1="337" y2="337" class="net_16,17,18,19"/>
  <line x1="583" x2="583" y1="337" y2="57" class="net_16,17,18,19"/>
  <line x1="185" x2="195" y1="464.5" y2="464.5" class="net_37,38"/>
  <line x1="195" x2="195" y1="464.5" y2="414.5" class="net_37,38"/>
  <line x1="195" x2="318.33333333333337" y1="414.5" y2="414.5" class="net_37,38"/>
  <line x1="185" x2="318.33333333333337" y1="529.5" y2="529.5" class="net_39,40"/>
  <line x1="593" x2="628" y1="42" y2="42" class="net_8,9,10,11"/>
  <line x1="100" x2="174" y1="32" y2="32" class="net_4,5,6"/>
  <line x1="100" x2="130" y1="97" y2="97" class="net_7"/>
  <line x1="130" x2="130" y1="97" y2="52" class="net_7"/>
  <line x1="130" x2="174" y1="52" y2="52" class="net_7"/>
  <line x1="22" x2="54" y1="22.5" y2="22.5" class="net_NaN"/>
  <line x1="22" x2="22" y1="22.5" y2="42.5" class="net_NaN"/>
  <circle cx="22" cy="42.5" r="2" style="fill:#000" class="net_NaN"/>
  <line x1="22" x2="54" y1="42.5" y2="42.5" class="net_NaN"/>
  <line x1="22" x2="22" y1="22.5" y2="62.5" class="net_NaN"/>
  <circle cx="22" cy="62.5" r="2" style="fill:#000" class="net_NaN"/>
  <line x1="22" x2="54" y1="62.5" y2="62.5" class="net_NaN"/>
  <line x1="22" x2="22" y1="22.5" y2="102" class="net_NaN"/>
  <line x1="22" x2="54.5" y1="102" y2="102" class="net_NaN"/>
  <line x1="54.5" x2="54.5" y1="102" y2="83" class="net_NaN"/>
  <line x1="299" x2="532" y1="42" y2="42" class="net_12,13,14,15"/>
  <line x1="298" x2="488" y1="269.5" y2="269.5" class="net_25,26,27,28,29,30,31,32,33,34,35,36"/>
  <line x1="488" x2="488" y1="269.5" y2="62" class="net_25,26,27,28,29,30,31,32,33,34,35,36"/>
  <line x1="488" x2="532" y1="62" y2="62" class="net_25,26,27,28,29,30,31,32,33,34,35,36"/>
  <line x1="340.33333333333337" x2="527.75" y1="327" y2="327" class="net_16"/>
  <line x1="340.33333333333337" x2="488" y1="407" y2="407" class="net_17"/>
  <line x1="488" x2="488" y1="407" y2="347" class="net_17"/>
  <line x1="488" x2="527.75" y1="347" y2="347" class="net_17"/>
  <line x1="340.33333333333337" x2="498" y1="522" y2="522" class="net_18"/>
  <line x1="498" x2="498" y1="522" y2="367" class="net_18"/>
  <line x1="498" x2="527.75" y1="367" y2="367" class="net_18"/>
  <line x1="361.5" x2="528.25" y1="579.5" y2="579.5" class="net_19"/>
  <line x1="528.25" x2="528.25" y1="579.5" y2="387.5" class="net_19"/>
</svg>
