<svg xmlns="http://www.w3.org/2000/svg" xmlns:xlink="http://www.w3.org/1999/xlink" xmlns:s="https://github.com/nturley/netlistsvg" width="521" height="844.5">
  <style>svg {
    stroke:#000;
    fill:none;
  }
  text {
    fill:#000;
    stroke:none;
    font-size:10px;
    font-weight: bold;
    font-family: "Courier New", monospace;
  }
  .nodelabel {
    text-anchor: middle;
  }
  .inputPortLabel {
    text-anchor: end;
  }
  .splitjoinBody {
    fill:#000;
  }</style>
  <g s:type="eq" transform="translate(143.33333333333334,367.5)" s:width="25" s:height="25" id="cell_$eq$src/leaf/branch_comp.v:21$52">
    <s:alias val="$eq"/>
    <circle r="12.5" cx="12.5" cy="12.5" class="cell_$eq$src/leaf/branch_comp.v:21$52"/>
    <line x1="7.5" x2="17.5" y1="10" y2="10" class="cell_$eq$src/leaf/branch_comp.v:21$52"/>
    <line x1="7.5" x2="17.5" y1="15" y2="15" class="cell_$eq$src/leaf/branch_comp.v:21$52"/>
    <g s:x="3" s:y="5" s:pid="A"/>
    <g s:x="3" s:y="20" s:pid="B"/>
    <g s:x="25" s:y="12.5" s:pid="Y"/>
  </g>
  <g s:type="ge" transform="translate(143.33333333333334,159.5)" s:width="25" s:height="25" id="cell_$ge$src/leaf/branch_comp.v:24$55">
    <s:alias val="$ge"/>
    <circle r="12.5" cx="12.5" cy="12.5" class="cell_$ge$src/leaf/branch_comp.v:24$55"/>
    <line x1="7.5" x2="17.5" y1="7.5" y2="12.5" class="cell_$ge$src/leaf/branch_comp.v:24$55"/>
    <line x1="7.5" x2="17.5" y1="17.5" y2="12.5" class="cell_$ge$src/leaf/branch_comp.v:24$55"/>
    <line x1="7.5" x2="17.5" y1="20" y2="15" class="cell_$ge$src/leaf/branch_comp.v:24$55"/>
    <g s:x="3" s:y="5" s:pid="A"/>
    <g s:x="3" s:y="20" s:pid="B"/>
    <g s:x="25" s:y="12.5" s:pid="Y"/>
  </g>
  <g s:type="ge" transform="translate(143.33333333333334,39.5)" s:width="25" s:height="25" id="cell_$ge$src/leaf/branch_comp.v:26$57">
    <s:alias val="$ge"/>
    <circle r="12.5" cx="12.5" cy="12.5" class="cell_$ge$src/leaf/branch_comp.v:26$57"/>
    <line x1="7.5" x2="17.5" y1="7.5" y2="12.5" class="cell_$ge$src/leaf/branch_comp.v:26$57"/>
    <line x1="7.5" x2="17.5" y1="17.5" y2="12.5" class="cell_$ge$src/leaf/branch_comp.v:26$57"/>
    <line x1="7.5" x2="17.5" y1="20" y2="15" class="cell_$ge$src/leaf/branch_comp.v:26$57"/>
    <g s:x="3" s:y="5" s:pid="A"/>
    <g s:x="3" s:y="20" s:pid="B"/>
    <g s:x="25" s:y="12.5" s:pid="Y"/>
  </g>
  <g s:type="lt" transform="translate(143.33333333333334,219.5)" s:width="25" s:height="25" id="cell_$lt$src/leaf/branch_comp.v:23$54">
    <s:alias val="$lt"/>
    <circle r="12.5" cx="12.5" cy="12.5" class="cell_$lt$src/leaf/branch_comp.v:23$54"/>
    <line x1="7.5" x2="17.5" y1="12.5" y2="7.5" class="cell_$lt$src/leaf/branch_comp.v:23$54"/>
    <line x1="7.5" x2="17.5" y1="12.5" y2="17.5" class="cell_$lt$src/leaf/branch_comp.v:23$54"/>
    <g s:x="3" s:y="5" s:pid="A"/>
    <g s:x="3" s:y="20" s:pid="B"/>
    <g s:x="25" s:y="12.5" s:pid="Y"/>
  </g>
  <g s:type="lt" transform="translate(143.33333333333334,99.5)" s:width="25" s:height="25" id="cell_$lt$src/leaf/branch_comp.v:25$56">
    <s:alias val="$lt"/>
    <circle r="12.5" cx="12.5" cy="12.5" class="cell_$lt$src/leaf/branch_comp.v:25$56"/>
    <line x1="7.5" x2="17.5" y1="12.5" y2="7.5" class="cell_$lt$src/leaf/branch_comp.v:25$56"/>
    <line x1="7.5" x2="17.5" y1="12.5" y2="17.5" class="cell_$lt$src/leaf/branch_comp.v:25$56"/>
    <g s:x="3" s:y="5" s:pid="A"/>
    <g s:x="3" s:y="20" s:pid="B"/>
    <g s:x="25" s:y="12.5" s:pid="Y"/>
  </g>
  <g s:type="generic" transform="translate(90,289.5)" s:width="30" s:height="40" id="cell_$ne$src/leaf/branch_comp.v:22$53">
    <text x="15" y="-4" class="nodelabel cell_$ne$src/leaf/branch_comp.v:22$53" s:attribute="ref">$ne</text>
    <rect width="30" height="40" s:generic="body" class="cell_$ne$src/leaf/branch_comp.v:22$53"/>
    <g transform="translate(0,10)" s:x="0" s:y="10" s:pid="in0" id="port_$ne$src/leaf/branch_comp.v:22$53~A">
      <text x="-3" y="-4" class="inputPortLabel cell_$ne$src/leaf/branch_comp.v:22$53">A</text>
    </g>
    <g transform="translate(0,30)" s:x="0" s:y="10" s:pid="in0" id="port_$ne$src/leaf/branch_comp.v:22$53~B">
      <text x="-3" y="-4" class="inputPortLabel cell_$ne$src/leaf/branch_comp.v:22$53">B</text>
    </g>
    <g transform="translate(30,10)" s:x="30" s:y="10" s:pid="out0" id="port_$ne$src/leaf/branch_comp.v:22$53~Y">
      <text x="5" y="-4" style="fill:#000; stroke:none" class="cell_$ne$src/leaf/branch_comp.v:22$53">Y</text>
    </g>
  </g>
  <g s:type="mux" transform="translate(382,22)" s:width="20" s:height="40" id="cell_$procmux$227">
    <s:alias val="$pmux"/>
    <s:alias val="$mux"/>
    <s:alias val="$_MUX_"/>
    <path d="M0,0 L20,10 L20,30 L0,40 Z" class="cell_$procmux$227"/>
    <g s:x="0" s:y="10" s:pid="A"/>
    <g s:x="0" s:y="30" s:pid="B"/>
    <g s:x="10" s:y="35" s:pid="S"/>
    <g s:x="20" s:y="20" s:pid="Y"/>
  </g>
  <g s:type="eq" transform="translate(143.33333333333334,427.5)" s:width="25" s:height="25" id="cell_$procmux$228_CMP0">
    <s:alias val="$eq"/>
    <circle r="12.5" cx="12.5" cy="12.5" class="cell_$procmux$228_CMP0"/>
    <line x1="7.5" x2="17.5" y1="10" y2="10" class="cell_$procmux$228_CMP0"/>
    <line x1="7.5" x2="17.5" y1="15" y2="15" class="cell_$procmux$228_CMP0"/>
    <g s:x="3" s:y="5" s:pid="A"/>
    <g s:x="3" s:y="20" s:pid="B"/>
    <g s:x="25" s:y="12.5" s:pid="Y"/>
  </g>
  <g s:type="eq" transform="translate(143.33333333333334,492.5)" s:width="25" s:height="25" id="cell_$procmux$229_CMP0">
    <s:alias val="$eq"/>
    <circle r="12.5" cx="12.5" cy="12.5" class="cell_$procmux$229_CMP0"/>
    <line x1="7.5" x2="17.5" y1="10" y2="10" class="cell_$procmux$229_CMP0"/>
    <line x1="7.5" x2="17.5" y1="15" y2="15" class="cell_$procmux$229_CMP0"/>
    <g s:x="3" s:y="5" s:pid="A"/>
    <g s:x="3" s:y="20" s:pid="B"/>
    <g s:x="25" s:y="12.5" s:pid="Y"/>
  </g>
  <g s:type="eq" transform="translate(143.33333333333334,572.5)" s:width="25" s:height="25" id="cell_$procmux$230_CMP0">
    <s:alias val="$eq"/>
    <circle r="12.5" cx="12.5" cy="12.5" class="cell_$procmux$230_CMP0"/>
    <line x1="7.5" x2="17.5" y1="10" y2="10" class="cell_$procmux$230_CMP0"/>
    <line x1="7.5" x2="17.5" y1="15" y2="15" class="cell_$procmux$230_CMP0"/>
    <g s:x="3" s:y="5" s:pid="A"/>
    <g s:x="3" s:y="20" s:pid="B"/>
    <g s:x="25" s:y="12.5" s:pid="Y"/>
  </g>
  <g s:type="eq" transform="translate(143.33333333333334,687.5)" s:width="25" s:height="25" id="cell_$procmux$231_CMP0">
    <s:alias val="$eq"/>
    <circle r="12.5" cx="12.5" cy="12.5" class="cell_$procmux$231_CMP0"/>
    <line x1="7.5" x2="17.5" y1="10" y2="10" class="cell_$procmux$231_CMP0"/>
    <line x1="7.5" x2="17.5" y1="15" y2="15" class="cell_$procmux$231_CMP0"/>
    <g s:x="3" s:y="5" s:pid="A"/>
    <g s:x="3" s:y="20" s:pid="B"/>
    <g s:x="25" s:y="12.5" s:pid="Y"/>
  </g>
  <g s:type="eq" transform="translate(143.33333333333334,752.5)" s:width="25" s:height="25" id="cell_$procmux$232_CMP0">
    <s:alias val="$eq"/>
    <circle r="12.5" cx="12.5" cy="12.5" class="cell_$procmux$232_CMP0"/>
    <line x1="7.5" x2="17.5" y1="10" y2="10" class="cell_$procmux$232_CMP0"/>
    <line x1="7.5" x2="17.5" y1="15" y2="15" class="cell_$procmux$232_CMP0"/>
    <g s:x="3" s:y="5" s:pid="A"/>
    <g s:x="3" s:y="20" s:pid="B"/>
    <g s:x="25" s:y="12.5" s:pid="Y"/>
  </g>
  <g s:type="not" transform="translate(167.5,812.5)" s:width="30" s:height="20" id="cell_$procmux$233_CMP0">
    <s:alias val="$_NOT_"/>
    <s:alias val="$not"/>
    <s:alias val="$logic_not"/>
    <path d="M0,0 L0,20 L20,10 Z" class="cell_$procmux$233_CMP0"/>
    <circle cx="23" cy="10" r="3" class="cell_$procmux$233_CMP0"/>
    <g s:x="0" s:y="10" s:pid="A"/>
    <g s:x="25" s:y="10" s:pid="Y"/>
  </g>
  <g s:type="inputExt" transform="translate(12,34.5)" s:width="30" s:height="20" id="cell_op1">
    <text x="15" y="-4" class="nodelabel cell_op1" s:attribute="ref">op1</text>
    <s:alias val="$_inputExt_"/>
    <path d="M0,0 L0,20 L15,20 L30,10 L15,0 Z" class="cell_op1"/>
    <g s:x="28" s:y="10" s:pid="Y"/>
  </g>
  <g s:type="inputExt" transform="translate(12,109.5)" s:width="30" s:height="20" id="cell_op2">
    <text x="15" y="-4" class="nodelabel cell_op2" s:attribute="ref">op2</text>
    <s:alias val="$_inputExt_"/>
    <path d="M0,0 L0,20 L15,20 L30,10 L15,0 Z" class="cell_op2"/>
    <g s:x="28" s:y="10" s:pid="Y"/>
  </g>
  <g s:type="inputExt" transform="translate(12,567.5)" s:width="30" s:height="20" id="cell_funct3">
    <text x="15" y="-4" class="nodelabel cell_funct3" s:attribute="ref">funct3</text>
    <s:alias val="$_inputExt_"/>
    <path d="M0,0 L0,20 L15,20 L30,10 L15,0 Z" class="cell_funct3"/>
    <g s:x="28" s:y="10" s:pid="Y"/>
  </g>
  <g s:type="outputExt" transform="translate(437,32)" s:width="30" s:height="20" id="cell_branch_taken">
    <text x="15" y="-4" class="nodelabel cell_branch_taken" s:attribute="ref">branch_taken</text>
    <s:alias val="$_outputExt_"/>
    <path d="M30,0 L30,20 L15,20 L0,10 L15,0 Z" class="cell_branch_taken"/>
    <g s:x="0" s:y="10" s:pid="A"/>
  </g>
  <g s:type="constant" transform="translate(317,22)" s:width="30" s:height="20" id="cell_0">
    <text x="15" y="-4" class="nodelabel cell_0" s:attribute="ref">0</text>
    <s:alias val="$_constant_"/>
    <rect width="30" height="20" class="cell_0"/>
    <g s:x="30" s:y="10" s:pid="Y"/>
  </g>
  <g s:type="constant" transform="translate(12,437.5)" s:width="30" s:height="20" id="cell_111">
    <text x="15" y="-4" class="nodelabel cell_111" s:attribute="ref">111</text>
    <s:alias val="$_constant_"/>
    <rect width="30" height="20" class="cell_111"/>
    <g s:x="30" s:y="10" s:pid="Y"/>
  </g>
  <g s:type="constant" transform="translate(12,502.5)" s:width="30" s:height="20" id="cell_110">
    <text x="15" y="-4" class="nodelabel cell_110" s:attribute="ref">110</text>
    <s:alias val="$_constant_"/>
    <rect width="30" height="20" class="cell_110"/>
    <g s:x="30" s:y="10" s:pid="Y"/>
  </g>
  <g s:type="constant" transform="translate(12,632.5)" s:width="30" s:height="20" id="cell_101">
    <text x="15" y="-4" class="nodelabel cell_101" s:attribute="ref">101</text>
    <s:alias val="$_constant_"/>
    <rect width="30" height="20" class="cell_101"/>
    <g s:x="30" s:y="10" s:pid="Y"/>
  </g>
  <g s:type="constant" transform="translate(12,697.5)" s:width="30" s:height="20" id="cell_100">
    <text x="15" y="-4" class="nodelabel cell_100" s:attribute="ref">100</text>
    <s:alias val="$_constant_"/>
    <rect width="30" height="20" class="cell_100"/>
    <g s:x="30" s:y="10" s:pid="Y"/>
  </g>
  <g s:type="constant" transform="translate(12,762.5)" s:width="30" s:height="20" id="cell_001">
    <text x="15" y="-4" class="nodelabel cell_001" s:attribute="ref">001</text>
    <s:alias val="$_constant_"/>
    <rect width="30" height="20" class="cell_001"/>
    <g s:x="30" s:y="10" s:pid="Y"/>
  </g>
  <g s:type="join" transform="translate(322.2,121.5)" s:width="4" s:height="40" id="cell_$join$,72,74,71,73,75,70,">
    <rect width="5" height="120" class="splitjoinBody" s:generic="body"/>
    <s:alias val="$_join_"/>
    <g s:x="5" s:y="20" s:pid="out"/>
    <g transform="translate(0,10)" s:x="0" s:y="10" s:pid="in0">
      <text x="-3" y="-4" class="inputPortLabel">0</text>
    </g>
    <g transform="translate(0,30)" s:x="0" s:y="10" s:pid="in0">
      <text x="-3" y="-4" class="inputPortLabel">1</text>
    </g>
    <g transform="translate(0,50)" s:x="0" s:y="10" s:pid="in0">
      <text x="-3" y="-4" class="inputPortLabel">2</text>
    </g>
    <g transform="translate(0,70)" s:x="0" s:y="10" s:pid="in0">
      <text x="-3" y="-4" class="inputPortLabel">3</text>
    </g>
    <g transform="translate(0,90)" s:x="0" s:y="10" s:pid="in0">
      <text x="-3" y="-4" class="inputPortLabel">4</text>
    </g>
    <g transform="translate(0,110)" s:x="0" s:y="10" s:pid="in0">
      <text x="-3" y="-4" class="inputPortLabel">5</text>
    </g>
  </g>
  <g s:type="join" transform="translate(322.2,534.5)" s:width="4" s:height="40" id="cell_$join$,76,77,78,79,80,81,">
    <rect width="5" height="120" class="splitjoinBody" s:generic="body"/>
    <s:alias val="$_join_"/>
    <g s:x="5" s:y="20" s:pid="out"/>
    <g transform="translate(0,10)" s:x="0" s:y="10" s:pid="in0">
      <text x="-3" y="-4" class="inputPortLabel">0</text>
    </g>
    <g transform="translate(0,30)" s:x="0" s:y="10" s:pid="in0">
      <text x="-3" y="-4" class="inputPortLabel">1</text>
    </g>
    <g transform="translate(0,50)" s:x="0" s:y="10" s:pid="in0">
      <text x="-3" y="-4" class="inputPortLabel">2</text>
    </g>
    <g transform="translate(0,70)" s:x="0" s:y="10" s:pid="in0">
      <text x="-3" y="-4" class="inputPortLabel">3</text>
    </g>
    <g transform="translate(0,90)" s:x="0" s:y="10" s:pid="in0">
      <text x="-3" y="-4" class="inputPortLabel">4</text>
    </g>
    <g transform="translate(0,110)" s:x="0" s:y="10" s:pid="in0">
      <text x="-3" y="-4" class="inputPortLabel">5</text>
    </g>
  </g>
  <line x1="40" x2="68" y1="44.5" y2="44.5" class="net_2,3,4,5,6,7,8,9,10,11,12,13,14,15,16,17,18,19,20,21,22,23,24,25,26,27,28,29,30,31,32,33"/>
  <line x1="68" x2="68" y1="44.5" y2="372.5" class="net_2,3,4,5,6,7,8,9,10,11,12,13,14,15,16,17,18,19,20,21,22,23,24,25,26,27,28,29,30,31,32,33"/>
  <circle cx="68" cy="44.5" r="2" style="fill:#000" class="net_2,3,4,5,6,7,8,9,10,11,12,13,14,15,16,17,18,19,20,21,22,23,24,25,26,27,28,29,30,31,32,33"/>
  <line x1="68" x2="146.33333333333334" y1="372.5" y2="372.5" class="net_2,3,4,5,6,7,8,9,10,11,12,13,14,15,16,17,18,19,20,21,22,23,24,25,26,27,28,29,30,31,32,33"/>
  <line x1="40" x2="68" y1="44.5" y2="44.5" class="net_2,3,4,5,6,7,8,9,10,11,12,13,14,15,16,17,18,19,20,21,22,23,24,25,26,27,28,29,30,31,32,33"/>
  <line x1="68" x2="68" y1="44.5" y2="164.5" class="net_2,3,4,5,6,7,8,9,10,11,12,13,14,15,16,17,18,19,20,21,22,23,24,25,26,27,28,29,30,31,32,33"/>
  <circle cx="68" cy="164.5" r="2" style="fill:#000" class="net_2,3,4,5,6,7,8,9,10,11,12,13,14,15,16,17,18,19,20,21,22,23,24,25,26,27,28,29,30,31,32,33"/>
  <line x1="68" x2="146.33333333333334" y1="164.5" y2="164.5" class="net_2,3,4,5,6,7,8,9,10,11,12,13,14,15,16,17,18,19,20,21,22,23,24,25,26,27,28,29,30,31,32,33"/>
  <line x1="40" x2="146.33333333333334" y1="44.5" y2="44.5" class="net_2,3,4,5,6,7,8,9,10,11,12,13,14,15,16,17,18,19,20,21,22,23,24,25,26,27,28,29,30,31,32,33"/>
  <line x1="40" x2="68" y1="44.5" y2="44.5" class="net_2,3,4,5,6,7,8,9,10,11,12,13,14,15,16,17,18,19,20,21,22,23,24,25,26,27,28,29,30,31,32,33"/>
  <line x1="68" x2="68" y1="44.5" y2="224.5" class="net_2,3,4,5,6,7,8,9,10,11,12,13,14,15,16,17,18,19,20,21,22,23,24,25,26,27,28,29,30,31,32,33"/>
  <circle cx="68" cy="224.5" r="2" style="fill:#000" class="net_2,3,4,5,6,7,8,9,10,11,12,13,14,15,16,17,18,19,20,21,22,23,24,25,26,27,28,29,30,31,32,33"/>
  <line x1="68" x2="146.33333333333334" y1="224.5" y2="224.5" class="net_2,3,4,5,6,7,8,9,10,11,12,13,14,15,16,17,18,19,20,21,22,23,24,25,26,27,28,29,30,31,32,33"/>
  <line x1="40" x2="68" y1="44.5" y2="44.5" class="net_2,3,4,5,6,7,8,9,10,11,12,13,14,15,16,17,18,19,20,21,22,23,24,25,26,27,28,29,30,31,32,33"/>
  <line x1="68" x2="68" y1="44.5" y2="104.5" class="net_2,3,4,5,6,7,8,9,10,11,12,13,14,15,16,17,18,19,20,21,22,23,24,25,26,27,28,29,30,31,32,33"/>
  <circle cx="68" cy="104.5" r="2" style="fill:#000" class="net_2,3,4,5,6,7,8,9,10,11,12,13,14,15,16,17,18,19,20,21,22,23,24,25,26,27,28,29,30,31,32,33"/>
  <line x1="68" x2="146.33333333333334" y1="104.5" y2="104.5" class="net_2,3,4,5,6,7,8,9,10,11,12,13,14,15,16,17,18,19,20,21,22,23,24,25,26,27,28,29,30,31,32,33"/>
  <line x1="40" x2="68" y1="44.5" y2="44.5" class="net_2,3,4,5,6,7,8,9,10,11,12,13,14,15,16,17,18,19,20,21,22,23,24,25,26,27,28,29,30,31,32,33"/>
  <line x1="68" x2="68" y1="44.5" y2="300" class="net_2,3,4,5,6,7,8,9,10,11,12,13,14,15,16,17,18,19,20,21,22,23,24,25,26,27,28,29,30,31,32,33"/>
  <circle cx="68" cy="300" r="2" style="fill:#000" class="net_2,3,4,5,6,7,8,9,10,11,12,13,14,15,16,17,18,19,20,21,22,23,24,25,26,27,28,29,30,31,32,33"/>
  <line x1="68" x2="90" y1="300" y2="300" class="net_2,3,4,5,6,7,8,9,10,11,12,13,14,15,16,17,18,19,20,21,22,23,24,25,26,27,28,29,30,31,32,33"/>
  <line x1="40" x2="58" y1="119.5" y2="119.5" class="net_34,35,36,37,38,39,40,41,42,43,44,45,46,47,48,49,50,51,52,53,54,55,56,57,58,59,60,61,62,63,64,65"/>
  <line x1="58" x2="58" y1="119.5" y2="387.5" class="net_34,35,36,37,38,39,40,41,42,43,44,45,46,47,48,49,50,51,52,53,54,55,56,57,58,59,60,61,62,63,64,65"/>
  <circle cx="58" cy="119.5" r="2" style="fill:#000" class="net_34,35,36,37,38,39,40,41,42,43,44,45,46,47,48,49,50,51,52,53,54,55,56,57,58,59,60,61,62,63,64,65"/>
  <line x1="58" x2="146.33333333333334" y1="387.5" y2="387.5" class="net_34,35,36,37,38,39,40,41,42,43,44,45,46,47,48,49,50,51,52,53,54,55,56,57,58,59,60,61,62,63,64,65"/>
  <line x1="40" x2="58" y1="119.5" y2="119.5" class="net_34,35,36,37,38,39,40,41,42,43,44,45,46,47,48,49,50,51,52,53,54,55,56,57,58,59,60,61,62,63,64,65"/>
  <line x1="58" x2="58" y1="119.5" y2="179.5" class="net_34,35,36,37,38,39,40,41,42,43,44,45,46,47,48,49,50,51,52,53,54,55,56,57,58,59,60,61,62,63,64,65"/>
  <circle cx="58" cy="179.5" r="2" style="fill:#000" class="net_34,35,36,37,38,39,40,41,42,43,44,45,46,47,48,49,50,51,52,53,54,55,56,57,58,59,60,61,62,63,64,65"/>
  <line x1="58" x2="146.33333333333334" y1="179.5" y2="179.5" class="net_34,35,36,37,38,39,40,41,42,43,44,45,46,47,48,49,50,51,52,53,54,55,56,57,58,59,60,61,62,63,64,65"/>
  <line x1="40" x2="58" y1="119.5" y2="119.5" class="net_34,35,36,37,38,39,40,41,42,43,44,45,46,47,48,49,50,51,52,53,54,55,56,57,58,59,60,61,62,63,64,65"/>
  <line x1="58" x2="58" y1="119.5" y2="59.5" class="net_34,35,36,37,38,39,40,41,42,43,44,45,46,47,48,49,50,51,52,53,54,55,56,57,58,59,60,61,62,63,64,65"/>
  <line x1="58" x2="146.33333333333334" y1="59.5" y2="59.5" class="net_34,35,36,37,38,39,40,41,42,43,44,45,46,47,48,49,50,51,52,53,54,55,56,57,58,59,60,61,62,63,64,65"/>
  <line x1="40" x2="58" y1="119.5" y2="119.5" class="net_34,35,36,37,38,39,40,41,42,43,44,45,46,47,48,49,50,51,52,53,54,55,56,57,58,59,60,61,62,63,64,65"/>
  <line x1="58" x2="58" y1="119.5" y2="239.5" class="net_34,35,36,37,38,39,40,41,42,43,44,45,46,47,48,49,50,51,52,53,54,55,56,57,58,59,60,61,62,63,64,65"/>
  <circle cx="58" cy="239.5" r="2" style="fill:#000" class="net_34,35,36,37,38,39,40,41,42,43,44,45,46,47,48,49,50,51,52,53,54,55,56,57,58,59,60,61,62,63,64,65"/>
  <line x1="58" x2="146.33333333333334" y1="239.5" y2="239.5" class="net_34,35,36,37,38,39,40,41,42,43,44,45,46,47,48,49,50,51,52,53,54,55,56,57,58,59,60,61,62,63,64,65"/>
  <line x1="40" x2="146.33333333333334" y1="119.5" y2="119.5" class="net_34,35,36,37,38,39,40,41,42,43,44,45,46,47,48,49,50,51,52,53,54,55,56,57,58,59,60,61,62,63,64,65"/>
  <line x1="40" x2="58" y1="119.5" y2="119.5" class="net_34,35,36,37,38,39,40,41,42,43,44,45,46,47,48,49,50,51,52,53,54,55,56,57,58,59,60,61,62,63,64,65"/>
  <line x1="58" x2="58" y1="119.5" y2="320" class="net_34,35,36,37,38,39,40,41,42,43,44,45,46,47,48,49,50,51,52,53,54,55,56,57,58,59,60,61,62,63,64,65"/>
  <circle cx="58" cy="320" r="2" style="fill:#000" class="net_34,35,36,37,38,39,40,41,42,43,44,45,46,47,48,49,50,51,52,53,54,55,56,57,58,59,60,61,62,63,64,65"/>
  <line x1="58" x2="90" y1="320" y2="320" class="net_34,35,36,37,38,39,40,41,42,43,44,45,46,47,48,49,50,51,52,53,54,55,56,57,58,59,60,61,62,63,64,65"/>
  <line x1="347" x2="382" y1="32" y2="32" class="net_82"/>
  <line x1="328.2" x2="357" y1="142" y2="142" class="net_72,74,71,73,75,70"/>
  <line x1="357" x2="357" y1="142" y2="52" class="net_72,74,71,73,75,70"/>
  <line x1="357" x2="382" y1="52" y2="52" class="net_72,74,71,73,75,70"/>
  <line x1="328.2" x2="392" y1="555" y2="555" class="net_76,77,78,79,80,81"/>
  <line x1="392" x2="392" y1="555" y2="57" class="net_76,77,78,79,80,81"/>
  <line x1="40" x2="68" y1="577.5" y2="577.5" class="net_66,67,68"/>
  <line x1="68" x2="68" y1="577.5" y2="432.5" class="net_66,67,68"/>
  <circle cx="68" cy="577.5" r="2" style="fill:#000" class="net_66,67,68"/>
  <line x1="68" x2="146.33333333333334" y1="432.5" y2="432.5" class="net_66,67,68"/>
  <line x1="40" x2="68" y1="577.5" y2="577.5" class="net_66,67,68"/>
  <line x1="68" x2="68" y1="577.5" y2="497.5" class="net_66,67,68"/>
  <circle cx="68" cy="497.5" r="2" style="fill:#000" class="net_66,67,68"/>
  <line x1="68" x2="146.33333333333334" y1="497.5" y2="497.5" class="net_66,67,68"/>
  <line x1="40" x2="146.33333333333334" y1="577.5" y2="577.5" class="net_66,67,68"/>
  <line x1="40" x2="68" y1="577.5" y2="577.5" class="net_66,67,68"/>
  <line x1="68" x2="68" y1="577.5" y2="692.5" class="net_66,67,68"/>
  <circle cx="68" cy="692.5" r="2" style="fill:#000" class="net_66,67,68"/>
  <line x1="68" x2="146.33333333333334" y1="692.5" y2="692.5" class="net_66,67,68"/>
  <line x1="40" x2="68" y1="577.5" y2="577.5" class="net_66,67,68"/>
  <line x1="68" x2="68" y1="577.5" y2="757.5" class="net_66,67,68"/>
  <circle cx="68" cy="757.5" r="2" style="fill:#000" class="net_66,67,68"/>
  <line x1="68" x2="146.33333333333334" y1="757.5" y2="757.5" class="net_66,67,68"/>
  <line x1="40" x2="68" y1="577.5" y2="577.5" class="net_66,67,68"/>
  <line x1="68" x2="68" y1="577.5" y2="822.5" class="net_66,67,68"/>
  <line x1="68" x2="167.5" y1="822.5" y2="822.5" class="net_66,67,68"/>
  <line x1="42" x2="146.33333333333334" y1="447.5" y2="447.5" class="net_83,84,85"/>
  <line x1="42" x2="146.33333333333334" y1="512.5" y2="512.5" class="net_86,87,88"/>
  <line x1="42" x2="58" y1="642.5" y2="642.5" class="net_89,90,91"/>
  <line x1="58" x2="58" y1="642.5" y2="592.5" class="net_89,90,91"/>
  <line x1="58" x2="146.33333333333334" y1="592.5" y2="592.5" class="net_89,90,91"/>
  <line x1="42" x2="146.33333333333334" y1="707.5" y2="707.5" class="net_92,93,94"/>
  <line x1="42" x2="146.33333333333334" y1="772.5" y2="772.5" class="net_95,96,97"/>
  <line x1="402" x2="437" y1="42" y2="42" class="net_69"/>
  <line x1="168.33333333333334" x2="322.7" y1="52" y2="52" class="net_72"/>
  <line x1="322.7" x2="322.7" y1="52" y2="131.5" class="net_72"/>
  <line x1="168.33333333333334" x2="292" y1="112" y2="112" class="net_74"/>
  <line x1="292" x2="292" y1="112" y2="152" class="net_74"/>
  <line x1="292" x2="322.2" y1="152" y2="152" class="net_74"/>
  <line x1="168.33333333333334" x2="322.2" y1="172" y2="172" class="net_71"/>
  <line x1="168.33333333333334" x2="292" y1="232" y2="232" class="net_73"/>
  <line x1="292" x2="292" y1="232" y2="192" class="net_73"/>
  <line x1="292" x2="322.2" y1="192" y2="192" class="net_73"/>
  <line x1="121" x2="302" y1="300" y2="300" class="net_75"/>
  <line x1="302" x2="302" y1="300" y2="212" class="net_75"/>
  <line x1="302" x2="322.2" y1="212" y2="212" class="net_75"/>
  <line x1="168.33333333333334" x2="322.7" y1="380" y2="380" class="net_70"/>
  <line x1="322.7" x2="322.7" y1="380" y2="232.5" class="net_70"/>
  <line x1="168.33333333333334" x2="322.7" y1="440" y2="440" class="net_76"/>
  <line x1="322.7" x2="322.7" y1="440" y2="544.5" class="net_76"/>
  <line x1="168.33333333333334" x2="292" y1="505" y2="505" class="net_77"/>
  <line x1="292" x2="292" y1="505" y2="565" class="net_77"/>
  <line x1="292" x2="322.2" y1="565" y2="565" class="net_77"/>
  <line x1="168.33333333333334" x2="322.2" y1="585" y2="585" class="net_78"/>
  <line x1="168.33333333333334" x2="292" y1="700" y2="700" class="net_79"/>
  <line x1="292" x2="292" y1="700" y2="605" class="net_79"/>
  <line x1="292" x2="322.2" y1="605" y2="605" class="net_79"/>
  <line x1="168.33333333333334" x2="302" y1="765" y2="765" class="net_80"/>
  <line x1="302" x2="302" y1="765" y2="625" class="net_80"/>
  <line x1="302" x2="322.2" y1="625" y2="625" class="net_80"/>
  <line x1="192.5" x2="322.7" y1="822.5" y2="822.5" class="net_81"/>
  <line x1="322.7" x2="322.7" y1="822.5" y2="645.5" class="net_81"/>
</svg>
