<svg xmlns="http://www.w3.org/2000/svg" xmlns:xlink="http://www.w3.org/1999/xlink" xmlns:s="https://github.com/nturley/netlistsvg" width="881" height="1338">
  <style>svg {
    stroke:#000;
    fill:none;
  }
  text {
    fill:#000;
    stroke:none;
    font-size:10px;
    font-weight: bold;
    font-family: "Courier New", monospace;
  }
  .nodelabel {
    text-anchor: middle;
  }
  .inputPortLabel {
    text-anchor: end;
  }
  .splitjoinBody {
    fill:#000;
  }</style>
  <g s:type="mux" transform="translate(760,184)" s:width="20" s:height="40" id="cell_$procmux$202">
    <s:alias val="$pmux"/>
    <s:alias val="$mux"/>
    <s:alias val="$_MUX_"/>
    <path d="M0,0 L20,10 L20,30 L0,40 Z" class="cell_$procmux$202"/>
    <g s:x="0" s:y="10" s:pid="A"/>
    <g s:x="0" s:y="30" s:pid="B"/>
    <g s:x="10" s:y="35" s:pid="S"/>
    <g s:x="20" s:y="20" s:pid="Y"/>
  </g>
  <g s:type="mux" transform="translate(760,1145)" s:width="20" s:height="40" id="cell_$procmux$205">
    <s:alias val="$pmux"/>
    <s:alias val="$mux"/>
    <s:alias val="$_MUX_"/>
    <path d="M0,0 L20,10 L20,30 L0,40 Z" class="cell_$procmux$205"/>
    <g s:x="0" s:y="10" s:pid="A"/>
    <g s:x="0" s:y="30" s:pid="B"/>
    <g s:x="10" s:y="35" s:pid="S"/>
    <g s:x="20" s:y="20" s:pid="Y"/>
  </g>
  <g s:type="mux" transform="translate(760,309)" s:width="20" s:height="40" id="cell_$procmux$208">
    <s:alias val="$pmux"/>
    <s:alias val="$mux"/>
    <s:alias val="$_MUX_"/>
    <path d="M0,0 L20,10 L20,30 L0,40 Z" class="cell_$procmux$208"/>
    <g s:x="0" s:y="10" s:pid="A"/>
    <g s:x="0" s:y="30" s:pid="B"/>
    <g s:x="10" s:y="35" s:pid="S"/>
    <g s:x="20" s:y="20" s:pid="Y"/>
  </g>
  <g s:type="mux" transform="translate(693.3333333333334,174)" s:width="20" s:height="40" id="cell_$procmux$211">
    <s:alias val="$pmux"/>
    <s:alias val="$mux"/>
    <s:alias val="$_MUX_"/>
    <path d="M0,0 L20,10 L20,30 L0,40 Z" class="cell_$procmux$211"/>
    <g s:x="0" s:y="10" s:pid="A"/>
    <g s:x="0" s:y="30" s:pid="B"/>
    <g s:x="10" s:y="35" s:pid="S"/>
    <g s:x="20" s:y="20" s:pid="Y"/>
  </g>
  <g s:type="mux" transform="translate(693.3333333333334,1135)" s:width="20" s:height="40" id="cell_$procmux$214">
    <s:alias val="$pmux"/>
    <s:alias val="$mux"/>
    <s:alias val="$_MUX_"/>
    <path d="M0,0 L20,10 L20,30 L0,40 Z" class="cell_$procmux$214"/>
    <g s:x="0" s:y="10" s:pid="A"/>
    <g s:x="0" s:y="30" s:pid="B"/>
    <g s:x="10" s:y="35" s:pid="S"/>
    <g s:x="20" s:y="20" s:pid="Y"/>
  </g>
  <g s:type="mux" transform="translate(693.3333333333334,299)" s:width="20" s:height="40" id="cell_$procmux$217">
    <s:alias val="$pmux"/>
    <s:alias val="$mux"/>
    <s:alias val="$_MUX_"/>
    <path d="M0,0 L20,10 L20,30 L0,40 Z" class="cell_$procmux$217"/>
    <g s:x="0" s:y="10" s:pid="A"/>
    <g s:x="0" s:y="30" s:pid="B"/>
    <g s:x="10" s:y="35" s:pid="S"/>
    <g s:x="20" s:y="20" s:pid="Y"/>
  </g>
  <g s:type="mux" transform="translate(623.3333333333334,164)" s:width="20" s:height="40" id="cell_$procmux$220">
    <s:alias val="$pmux"/>
    <s:alias val="$mux"/>
    <s:alias val="$_MUX_"/>
    <path d="M0,0 L20,10 L20,30 L0,40 Z" class="cell_$procmux$220"/>
    <g s:x="0" s:y="10" s:pid="A"/>
    <g s:x="0" s:y="30" s:pid="B"/>
    <g s:x="10" s:y="35" s:pid="S"/>
    <g s:x="20" s:y="20" s:pid="Y"/>
  </g>
  <g s:type="mux" transform="translate(623.3333333333334,973)" s:width="20" s:height="40" id="cell_$procmux$223">
    <s:alias val="$pmux"/>
    <s:alias val="$mux"/>
    <s:alias val="$_MUX_"/>
    <path d="M0,0 L20,10 L20,30 L0,40 Z" class="cell_$procmux$223"/>
    <g s:x="0" s:y="10" s:pid="A"/>
    <g s:x="0" s:y="30" s:pid="B"/>
    <g s:x="10" s:y="35" s:pid="S"/>
    <g s:x="20" s:y="20" s:pid="Y"/>
  </g>
  <g s:type="mux" transform="translate(760,83)" s:width="20" s:height="40" id="cell_$procmux$226">
    <s:alias val="$pmux"/>
    <s:alias val="$mux"/>
    <s:alias val="$_MUX_"/>
    <path d="M0,0 L20,10 L20,30 L0,40 Z" class="cell_$procmux$226"/>
    <g s:x="0" s:y="10" s:pid="A"/>
    <g s:x="0" s:y="30" s:pid="B"/>
    <g s:x="10" s:y="35" s:pid="S"/>
    <g s:x="20" s:y="20" s:pid="Y"/>
  </g>
  <g s:type="mux" transform="translate(623.3333333333334,289)" s:width="20" s:height="40" id="cell_$procmux$229">
    <s:alias val="$pmux"/>
    <s:alias val="$mux"/>
    <s:alias val="$_MUX_"/>
    <path d="M0,0 L20,10 L20,30 L0,40 Z" class="cell_$procmux$229"/>
    <g s:x="0" s:y="10" s:pid="A"/>
    <g s:x="0" s:y="30" s:pid="B"/>
    <g s:x="10" s:y="35" s:pid="S"/>
    <g s:x="20" s:y="20" s:pid="Y"/>
  </g>
  <g s:type="mux" transform="translate(553.3333333333333,154)" s:width="20" s:height="40" id="cell_$procmux$232">
    <s:alias val="$pmux"/>
    <s:alias val="$mux"/>
    <s:alias val="$_MUX_"/>
    <path d="M0,0 L20,10 L20,30 L0,40 Z" class="cell_$procmux$232"/>
    <g s:x="0" s:y="10" s:pid="A"/>
    <g s:x="0" s:y="30" s:pid="B"/>
    <g s:x="10" s:y="35" s:pid="S"/>
    <g s:x="20" s:y="20" s:pid="Y"/>
  </g>
  <g s:type="mux" transform="translate(553.3333333333333,806)" s:width="20" s:height="40" id="cell_$procmux$235">
    <s:alias val="$pmux"/>
    <s:alias val="$mux"/>
    <s:alias val="$_MUX_"/>
    <path d="M0,0 L20,10 L20,30 L0,40 Z" class="cell_$procmux$235"/>
    <g s:x="0" s:y="10" s:pid="A"/>
    <g s:x="0" s:y="30" s:pid="B"/>
    <g s:x="10" s:y="35" s:pid="S"/>
    <g s:x="20" s:y="20" s:pid="Y"/>
  </g>
  <g s:type="mux" transform="translate(693.3333333333334,73)" s:width="20" s:height="40" id="cell_$procmux$238">
    <s:alias val="$pmux"/>
    <s:alias val="$mux"/>
    <s:alias val="$_MUX_"/>
    <path d="M0,0 L20,10 L20,30 L0,40 Z" class="cell_$procmux$238"/>
    <g s:x="0" s:y="10" s:pid="A"/>
    <g s:x="0" s:y="30" s:pid="B"/>
    <g s:x="10" s:y="35" s:pid="S"/>
    <g s:x="20" s:y="20" s:pid="Y"/>
  </g>
  <g s:type="mux" transform="translate(553.3333333333333,279)" s:width="20" s:height="40" id="cell_$procmux$241">
    <s:alias val="$pmux"/>
    <s:alias val="$mux"/>
    <s:alias val="$_MUX_"/>
    <path d="M0,0 L20,10 L20,30 L0,40 Z" class="cell_$procmux$241"/>
    <g s:x="0" s:y="10" s:pid="A"/>
    <g s:x="0" s:y="30" s:pid="B"/>
    <g s:x="10" s:y="35" s:pid="S"/>
    <g s:x="20" s:y="20" s:pid="Y"/>
  </g>
  <g s:type="mux" transform="translate(483.3333333333333,144)" s:width="20" s:height="40" id="cell_$procmux$244">
    <s:alias val="$pmux"/>
    <s:alias val="$mux"/>
    <s:alias val="$_MUX_"/>
    <path d="M0,0 L20,10 L20,30 L0,40 Z" class="cell_$procmux$244"/>
    <g s:x="0" s:y="10" s:pid="A"/>
    <g s:x="0" s:y="30" s:pid="B"/>
    <g s:x="10" s:y="35" s:pid="S"/>
    <g s:x="20" s:y="20" s:pid="Y"/>
  </g>
  <g s:type="mux" transform="translate(483.3333333333333,670)" s:width="20" s:height="40" id="cell_$procmux$247">
    <s:alias val="$pmux"/>
    <s:alias val="$mux"/>
    <s:alias val="$_MUX_"/>
    <path d="M0,0 L20,10 L20,30 L0,40 Z" class="cell_$procmux$247"/>
    <g s:x="0" s:y="10" s:pid="A"/>
    <g s:x="0" s:y="30" s:pid="B"/>
    <g s:x="10" s:y="35" s:pid="S"/>
    <g s:x="20" s:y="20" s:pid="Y"/>
  </g>
  <g s:type="mux" transform="translate(760,1275)" s:width="20" s:height="40" id="cell_$procmux$250">
    <s:alias val="$pmux"/>
    <s:alias val="$mux"/>
    <s:alias val="$_MUX_"/>
    <path d="M0,0 L20,10 L20,30 L0,40 Z" class="cell_$procmux$250"/>
    <g s:x="0" s:y="10" s:pid="A"/>
    <g s:x="0" s:y="30" s:pid="B"/>
    <g s:x="10" s:y="35" s:pid="S"/>
    <g s:x="20" s:y="20" s:pid="Y"/>
  </g>
  <g s:type="mux" transform="translate(409.3333333333333,134)" s:width="20" s:height="40" id="cell_$procmux$253">
    <s:alias val="$pmux"/>
    <s:alias val="$mux"/>
    <s:alias val="$_MUX_"/>
    <path d="M0,0 L20,10 L20,30 L0,40 Z" class="cell_$procmux$253"/>
    <g s:x="0" s:y="10" s:pid="A"/>
    <g s:x="0" s:y="30" s:pid="B"/>
    <g s:x="10" s:y="35" s:pid="S"/>
    <g s:x="20" s:y="20" s:pid="Y"/>
  </g>
  <g s:type="mux" transform="translate(409.3333333333333,492)" s:width="20" s:height="40" id="cell_$procmux$256">
    <s:alias val="$pmux"/>
    <s:alias val="$mux"/>
    <s:alias val="$_MUX_"/>
    <path d="M0,0 L20,10 L20,30 L0,40 Z" class="cell_$procmux$256"/>
    <g s:x="0" s:y="10" s:pid="A"/>
    <g s:x="0" s:y="30" s:pid="B"/>
    <g s:x="10" s:y="35" s:pid="S"/>
    <g s:x="20" s:y="20" s:pid="Y"/>
  </g>
  <g s:type="mux" transform="translate(483.3333333333333,269)" s:width="20" s:height="40" id="cell_$procmux$259">
    <s:alias val="$pmux"/>
    <s:alias val="$mux"/>
    <s:alias val="$_MUX_"/>
    <path d="M0,0 L20,10 L20,30 L0,40 Z" class="cell_$procmux$259"/>
    <g s:x="0" s:y="10" s:pid="A"/>
    <g s:x="0" s:y="30" s:pid="B"/>
    <g s:x="10" s:y="35" s:pid="S"/>
    <g s:x="20" s:y="20" s:pid="Y"/>
  </g>
  <g s:type="mux" transform="translate(760,12)" s:width="20" s:height="40" id="cell_$procmux$262">
    <s:alias val="$pmux"/>
    <s:alias val="$mux"/>
    <s:alias val="$_MUX_"/>
    <path d="M0,0 L20,10 L20,30 L0,40 Z" class="cell_$procmux$262"/>
    <g s:x="0" s:y="10" s:pid="A"/>
    <g s:x="0" s:y="30" s:pid="B"/>
    <g s:x="10" s:y="35" s:pid="S"/>
    <g s:x="20" s:y="20" s:pid="Y"/>
  </g>
  <g s:type="mux" transform="translate(337.33333333333337,482)" s:width="20" s:height="40" id="cell_$procmux$268">
    <s:alias val="$pmux"/>
    <s:alias val="$mux"/>
    <s:alias val="$_MUX_"/>
    <path d="M0,0 L20,10 L20,30 L0,40 Z" class="cell_$procmux$268"/>
    <g s:x="0" s:y="10" s:pid="A"/>
    <g s:x="0" s:y="30" s:pid="B"/>
    <g s:x="10" s:y="35" s:pid="S"/>
    <g s:x="20" s:y="20" s:pid="Y"/>
  </g>
  <g s:type="mux" transform="translate(409.3333333333333,259)" s:width="20" s:height="40" id="cell_$procmux$271">
    <s:alias val="$pmux"/>
    <s:alias val="$mux"/>
    <s:alias val="$_MUX_"/>
    <path d="M0,0 L20,10 L20,30 L0,40 Z" class="cell_$procmux$271"/>
    <g s:x="0" s:y="10" s:pid="A"/>
    <g s:x="0" s:y="30" s:pid="B"/>
    <g s:x="10" s:y="35" s:pid="S"/>
    <g s:x="20" s:y="20" s:pid="Y"/>
  </g>
  <g s:type="mux" transform="translate(760,1074)" s:width="20" s:height="40" id="cell_$procmux$274">
    <s:alias val="$pmux"/>
    <s:alias val="$mux"/>
    <s:alias val="$_MUX_"/>
    <path d="M0,0 L20,10 L20,30 L0,40 Z" class="cell_$procmux$274"/>
    <g s:x="0" s:y="10" s:pid="A"/>
    <g s:x="0" s:y="30" s:pid="B"/>
    <g s:x="10" s:y="35" s:pid="S"/>
    <g s:x="20" s:y="20" s:pid="Y"/>
  </g>
  <g s:type="mux" transform="translate(247.33333333333334,472)" s:width="20" s:height="40" id="cell_$procmux$282">
    <s:alias val="$pmux"/>
    <s:alias val="$mux"/>
    <s:alias val="$_MUX_"/>
    <path d="M0,0 L20,10 L20,30 L0,40 Z" class="cell_$procmux$282"/>
    <g s:x="0" s:y="10" s:pid="A"/>
    <g s:x="0" s:y="30" s:pid="B"/>
    <g s:x="10" s:y="35" s:pid="S"/>
    <g s:x="20" s:y="20" s:pid="Y"/>
  </g>
  <g s:type="mux" transform="translate(337.33333333333337,249)" s:width="20" s:height="40" id="cell_$procmux$285">
    <s:alias val="$pmux"/>
    <s:alias val="$mux"/>
    <s:alias val="$_MUX_"/>
    <path d="M0,0 L20,10 L20,30 L0,40 Z" class="cell_$procmux$285"/>
    <g s:x="0" s:y="10" s:pid="A"/>
    <g s:x="0" s:y="30" s:pid="B"/>
    <g s:x="10" s:y="35" s:pid="S"/>
    <g s:x="20" s:y="20" s:pid="Y"/>
  </g>
  <g s:type="mux" transform="translate(178.33333333333331,462)" s:width="20" s:height="40" id="cell_$procmux$288">
    <s:alias val="$pmux"/>
    <s:alias val="$mux"/>
    <s:alias val="$_MUX_"/>
    <path d="M0,0 L20,10 L20,30 L0,40 Z" class="cell_$procmux$288"/>
    <g s:x="0" s:y="10" s:pid="A"/>
    <g s:x="0" s:y="30" s:pid="B"/>
    <g s:x="10" s:y="35" s:pid="S"/>
    <g s:x="20" s:y="20" s:pid="Y"/>
  </g>
  <g s:type="inputExt" transform="translate(12,22)" s:width="30" s:height="20" id="cell_instr">
    <text x="15" y="-4" class="nodelabel cell_instr" s:attribute="ref">instr</text>
    <s:alias val="$_inputExt_"/>
    <path d="M0,0 L0,20 L15,20 L30,10 L15,0 Z" class="cell_instr"/>
    <g s:x="28" s:y="10" s:pid="Y"/>
  </g>
  <g s:type="inputExt" transform="translate(102,547)" s:width="30" s:height="20" id="cell_ALUreg">
    <text x="15" y="-4" class="nodelabel cell_ALUreg" s:attribute="ref">ALUreg</text>
    <s:alias val="$_inputExt_"/>
    <path d="M0,0 L0,20 L15,20 L30,10 L15,0 Z" class="cell_ALUreg"/>
    <g s:x="28" s:y="10" s:pid="Y"/>
  </g>
  <g s:type="inputExt" transform="translate(173,577)" s:width="30" s:height="20" id="cell_ALUimm">
    <text x="15" y="-4" class="nodelabel cell_ALUimm" s:attribute="ref">ALUimm</text>
    <s:alias val="$_inputExt_"/>
    <path d="M0,0 L0,20 L15,20 L30,10 L15,0 Z" class="cell_ALUimm"/>
    <g s:x="28" s:y="10" s:pid="Y"/>
  </g>
  <g s:type="inputExt" transform="translate(404,857)" s:width="30" s:height="20" id="cell_Branch">
    <text x="15" y="-4" class="nodelabel cell_Branch" s:attribute="ref">Branch</text>
    <s:alias val="$_inputExt_"/>
    <path d="M0,0 L0,20 L15,20 L30,10 L15,0 Z" class="cell_Branch"/>
    <g s:x="28" s:y="10" s:pid="Y"/>
  </g>
  <g s:type="inputExt" transform="translate(480,340)" s:width="30" s:height="20" id="cell_JAL">
    <text x="15" y="-4" class="nodelabel cell_JAL" s:attribute="ref">JAL</text>
    <s:alias val="$_inputExt_"/>
    <path d="M0,0 L0,20 L15,20 L30,10 L15,0 Z" class="cell_JAL"/>
    <g s:x="28" s:y="10" s:pid="Y"/>
  </g>
  <g s:type="inputExt" transform="translate(550,751)" s:width="30" s:height="20" id="cell_JALR">
    <text x="15" y="-4" class="nodelabel cell_JALR" s:attribute="ref">JALR</text>
    <s:alias val="$_inputExt_"/>
    <path d="M0,0 L0,20 L15,20 L30,10 L15,0 Z" class="cell_JALR"/>
    <g s:x="28" s:y="10" s:pid="Y"/>
  </g>
  <g s:type="inputExt" transform="translate(620,918)" s:width="30" s:height="20" id="cell_LUI">
    <text x="15" y="-4" class="nodelabel cell_LUI" s:attribute="ref">LUI</text>
    <s:alias val="$_inputExt_"/>
    <path d="M0,0 L0,20 L15,20 L30,10 L15,0 Z" class="cell_LUI"/>
    <g s:x="28" s:y="10" s:pid="Y"/>
  </g>
  <g s:type="inputExt" transform="translate(690,1054)" s:width="30" s:height="20" id="cell_AUIPC">
    <text x="15" y="-4" class="nodelabel cell_AUIPC" s:attribute="ref">AUIPC</text>
    <s:alias val="$_inputExt_"/>
    <path d="M0,0 L0,20 L15,20 L30,10 L15,0 Z" class="cell_AUIPC"/>
    <g s:x="28" s:y="10" s:pid="Y"/>
  </g>
  <g s:type="inputExt" transform="translate(244,1114)" s:width="30" s:height="20" id="cell_Load">
    <text x="15" y="-4" class="nodelabel cell_Load" s:attribute="ref">Load</text>
    <s:alias val="$_inputExt_"/>
    <path d="M0,0 L0,20 L15,20 L30,10 L15,0 Z" class="cell_Load"/>
    <g s:x="28" s:y="10" s:pid="Y"/>
  </g>
  <g s:type="inputExt" transform="translate(334,362)" s:width="30" s:height="20" id="cell_Store">
    <text x="15" y="-4" class="nodelabel cell_Store" s:attribute="ref">Store</text>
    <s:alias val="$_inputExt_"/>
    <path d="M0,0 L0,20 L15,20 L30,10 L15,0 Z" class="cell_Store"/>
    <g s:x="28" s:y="10" s:pid="Y"/>
  </g>
  <g s:type="inputExt" transform="translate(54,22)" s:width="30" s:height="20" id="cell_SYSTEM">
    <text x="15" y="-4" class="nodelabel cell_SYSTEM" s:attribute="ref">SYSTEM</text>
    <s:alias val="$_inputExt_"/>
    <path d="M0,0 L0,20 L15,20 L30,10 L15,0 Z" class="cell_SYSTEM"/>
    <g s:x="28" s:y="10" s:pid="Y"/>
  </g>
  <g s:type="outputExt" transform="translate(815,1084)" s:width="30" s:height="20" id="cell_MemRead">
    <text x="15" y="-4" class="nodelabel cell_MemRead" s:attribute="ref">MemRead</text>
    <s:alias val="$_outputExt_"/>
    <path d="M30,0 L30,20 L15,20 L0,10 L15,0 Z" class="cell_MemRead"/>
    <g s:x="0" s:y="10" s:pid="A"/>
  </g>
  <g s:type="outputExt" transform="translate(815,22)" s:width="30" s:height="20" id="cell_MemWrite">
    <text x="15" y="-4" class="nodelabel cell_MemWrite" s:attribute="ref">MemWrite</text>
    <s:alias val="$_outputExt_"/>
    <path d="M30,0 L30,20 L15,20 L0,10 L15,0 Z" class="cell_MemWrite"/>
    <g s:x="0" s:y="10" s:pid="A"/>
  </g>
  <g s:type="outputExt" transform="translate(815,1220)" s:width="30" s:height="20" id="cell_MemtoReg">
    <text x="15" y="-4" class="nodelabel cell_MemtoReg" s:attribute="ref">MemtoReg</text>
    <s:alias val="$_outputExt_"/>
    <path d="M30,0 L30,20 L15,20 L0,10 L15,0 Z" class="cell_MemtoReg"/>
    <g s:x="0" s:y="10" s:pid="A"/>
  </g>
  <g s:type="outputExt" transform="translate(815,319)" s:width="30" s:height="20" id="cell_ALUSrc">
    <text x="15" y="-4" class="nodelabel cell_ALUSrc" s:attribute="ref">ALUSrc</text>
    <s:alias val="$_outputExt_"/>
    <path d="M30,0 L30,20 L15,20 L0,10 L15,0 Z" class="cell_ALUSrc"/>
    <g s:x="0" s:y="10" s:pid="A"/>
  </g>
  <g s:type="outputExt" transform="translate(815,1285)" s:width="30" s:height="20" id="cell_BranchSig">
    <text x="15" y="-4" class="nodelabel cell_BranchSig" s:attribute="ref">BranchSig</text>
    <s:alias val="$_outputExt_"/>
    <path d="M30,0 L30,20 L15,20 L0,10 L15,0 Z" class="cell_BranchSig"/>
    <g s:x="0" s:y="10" s:pid="A"/>
  </g>
  <g s:type="outputExt" transform="translate(815,93)" s:width="30" s:height="20" id="cell_Jump">
    <text x="15" y="-4" class="nodelabel cell_Jump" s:attribute="ref">Jump</text>
    <s:alias val="$_outputExt_"/>
    <path d="M30,0 L30,20 L15,20 L0,10 L15,0 Z" class="cell_Jump"/>
    <g s:x="0" s:y="10" s:pid="A"/>
  </g>
  <g s:type="outputExt" transform="translate(815,1155)" s:width="30" s:height="20" id="cell_ALUOp">
    <text x="15" y="-4" class="nodelabel cell_ALUOp" s:attribute="ref">ALUOp</text>
    <s:alias val="$_outputExt_"/>
    <path d="M30,0 L30,20 L15,20 L0,10 L15,0 Z" class="cell_ALUOp"/>
    <g s:x="0" s:y="10" s:pid="A"/>
  </g>
  <g s:type="outputExt" transform="translate(815,194)" s:width="30" s:height="20" id="cell_ImmSrc">
    <text x="15" y="-4" class="nodelabel cell_ImmSrc" s:attribute="ref">ImmSrc</text>
    <s:alias val="$_outputExt_"/>
    <path d="M30,0 L30,20 L15,20 L0,10 L15,0 Z" class="cell_ImmSrc"/>
    <g s:x="0" s:y="10" s:pid="A"/>
  </g>
  <g s:type="constant" transform="translate(620,234)" s:width="30" s:height="20" id="cell_011">
    <text x="15" y="-4" class="nodelabel cell_011" s:attribute="ref">011</text>
    <s:alias val="$_constant_"/>
    <rect width="30" height="20" class="cell_011"/>
    <g s:x="30" s:y="10" s:pid="Y"/>
  </g>
  <g s:type="constant" transform="translate(102,638)" s:width="30" s:height="20" id="cell_00">
    <text x="15" y="-4" class="nodelabel cell_00" s:attribute="ref">00</text>
    <s:alias val="$_constant_"/>
    <rect width="30" height="20" class="cell_00"/>
    <g s:x="30" s:y="10" s:pid="Y"/>
  </g>
  <g s:type="constant" transform="translate(244,618)" s:width="30" s:height="20" id="cell_1">
    <text x="15" y="-4" class="nodelabel cell_1" s:attribute="ref">1</text>
    <s:alias val="$_constant_"/>
    <rect width="30" height="20" class="cell_1"/>
    <g s:x="30" s:y="10" s:pid="Y"/>
  </g>
  <g s:type="constant" transform="translate(620,1155)" s:width="30" s:height="20" id="cell_11">
    <text x="15" y="-4" class="nodelabel cell_11" s:attribute="ref">11</text>
    <s:alias val="$_constant_"/>
    <rect width="30" height="20" class="cell_11"/>
    <g s:x="30" s:y="10" s:pid="Y"/>
  </g>
  <g s:type="constant" transform="translate(334,427)" s:width="30" s:height="20" id="cell_000">
    <text x="15" y="-4" class="nodelabel cell_000" s:attribute="ref">000</text>
    <s:alias val="$_constant_"/>
    <rect width="30" height="20" class="cell_000"/>
    <g s:x="30" s:y="10" s:pid="Y"/>
  </g>
  <g s:type="constant" transform="translate(480,214)" s:width="30" s:height="20" id="cell_100">
    <text x="15" y="-4" class="nodelabel cell_100" s:attribute="ref">100</text>
    <s:alias val="$_constant_"/>
    <rect width="30" height="20" class="cell_100"/>
    <g s:x="30" s:y="10" s:pid="Y"/>
  </g>
  <g s:type="constant" transform="translate(244,249)" s:width="30" s:height="20" id="cell_0">
    <text x="15" y="-4" class="nodelabel cell_0" s:attribute="ref">0</text>
    <s:alias val="$_constant_"/>
    <rect width="30" height="20" class="cell_0"/>
    <g s:x="30" s:y="10" s:pid="Y"/>
  </g>
  <g s:type="constant" transform="translate(404,204)" s:width="30" s:height="20" id="cell_010">
    <text x="15" y="-4" class="nodelabel cell_010" s:attribute="ref">010</text>
    <s:alias val="$_constant_"/>
    <rect width="30" height="20" class="cell_010"/>
    <g s:x="30" s:y="10" s:pid="Y"/>
  </g>
  <g s:type="constant" transform="translate(404,690)" s:width="30" s:height="20" id="cell_01">
    <text x="15" y="-4" class="nodelabel cell_01" s:attribute="ref">01</text>
    <s:alias val="$_constant_"/>
    <rect width="30" height="20" class="cell_01"/>
    <g s:x="30" s:y="10" s:pid="Y"/>
  </g>
  <g s:type="constant" transform="translate(334,154)" s:width="30" s:height="20" id="cell_001">
    <text x="15" y="-4" class="nodelabel cell_001" s:attribute="ref">001</text>
    <s:alias val="$_constant_"/>
    <rect width="30" height="20" class="cell_001"/>
    <g s:x="30" s:y="10" s:pid="Y"/>
  </g>
  <g s:type="constant" transform="translate(102,482)" s:width="30" s:height="20" id="cell_10">
    <text x="15" y="-4" class="nodelabel cell_10" s:attribute="ref">10</text>
    <s:alias val="$_constant_"/>
    <rect width="30" height="20" class="cell_10"/>
    <g s:x="30" s:y="10" s:pid="Y"/>
  </g>
  <line x1="713.3333333333334" x2="760" y1="194" y2="194" class="net_54,55,56"/>
  <line x1="650" x2="680" y1="244" y2="244" class="net_92,93,94"/>
  <line x1="680" x2="680" y1="244" y2="275" class="net_92,93,94"/>
  <line x1="680" x2="740" y1="275" y2="275" class="net_92,93,94"/>
  <line x1="740" x2="740" y1="275" y2="214" class="net_92,93,94"/>
  <circle cx="680" cy="244" r="2" style="fill:#000" class="net_92,93,94"/>
  <line x1="740" x2="760" y1="214" y2="214" class="net_92,93,94"/>
  <line x1="650" x2="680" y1="244" y2="244" class="net_92,93,94"/>
  <line x1="680" x2="680" y1="244" y2="204" class="net_92,93,94"/>
  <line x1="680" x2="693.3333333333334" y1="204" y2="204" class="net_92,93,94"/>
  <line x1="718" x2="740" y1="1064" y2="1064" class="net_40"/>
  <line x1="740" x2="740" y1="1064" y2="299" class="net_40"/>
  <line x1="740" x2="770" y1="299" y2="299" class="net_40"/>
  <circle cx="740" cy="1064" r="2" style="fill:#000" class="net_40"/>
  <line x1="770" x2="770" y1="299" y2="219" class="net_40"/>
  <line x1="718" x2="740" y1="1064" y2="1064" class="net_40"/>
  <line x1="740" x2="740" y1="1064" y2="1195" class="net_40"/>
  <line x1="740" x2="770" y1="1195" y2="1195" class="net_40"/>
  <line x1="770" x2="770" y1="1195" y2="1180" class="net_40"/>
  <line x1="718" x2="770" y1="1064" y2="1064" class="net_40"/>
  <line x1="770" x2="770" y1="1064" y2="344" class="net_40"/>
  <line x1="713.3333333333334" x2="760" y1="1155" y2="1155" class="net_57,58"/>
  <line x1="132" x2="219" y1="648" y2="648" class="net_95,96"/>
  <line x1="219" x2="219" y1="648" y2="1185" class="net_95,96"/>
  <line x1="219" x2="730" y1="1185" y2="1185" class="net_95,96"/>
  <line x1="730" x2="730" y1="1185" y2="1175" class="net_95,96"/>
  <circle cx="219" cy="648" r="2" style="fill:#000" class="net_95,96"/>
  <line x1="730" x2="760" y1="1175" y2="1175" class="net_95,96"/>
  <line x1="132" x2="324" y1="648" y2="648" class="net_95,96"/>
  <line x1="324" x2="324" y1="648" y2="1003" class="net_95,96"/>
  <line x1="324" x2="623.3333333333334" y1="1003" y2="1003" class="net_95,96"/>
  <line x1="132" x2="324" y1="648" y2="648" class="net_95,96"/>
  <line x1="324" x2="324" y1="648" y2="836" class="net_95,96"/>
  <circle cx="324" cy="836" r="2" style="fill:#000" class="net_95,96"/>
  <line x1="324" x2="553.3333333333333" y1="836" y2="836" class="net_95,96"/>
  <line x1="132" x2="394" y1="648" y2="648" class="net_95,96"/>
  <line x1="394" x2="394" y1="648" y2="522" class="net_95,96"/>
  <line x1="394" x2="409.3333333333333" y1="522" y2="522" class="net_95,96"/>
  <line x1="132" x2="324" y1="648" y2="648" class="net_95,96"/>
  <line x1="324" x2="324" y1="648" y2="512" class="net_95,96"/>
  <circle cx="324" cy="648" r="2" style="fill:#000" class="net_95,96"/>
  <line x1="324" x2="337.33333333333337" y1="512" y2="512" class="net_95,96"/>
  <line x1="132" x2="148" y1="648" y2="648" class="net_95,96"/>
  <line x1="148" x2="148" y1="648" y2="472" class="net_95,96"/>
  <circle cx="148" cy="648" r="2" style="fill:#000" class="net_95,96"/>
  <line x1="148" x2="178.33333333333331" y1="472" y2="472" class="net_95,96"/>
  <line x1="713.3333333333334" x2="760" y1="319" y2="319" class="net_59"/>
  <line x1="274" x2="314" y1="628" y2="628" class="net_97"/>
  <line x1="314" x2="314" y1="628" y2="1033" class="net_97"/>
  <line x1="314" x2="750" y1="1033" y2="1033" class="net_97"/>
  <line x1="750" x2="750" y1="1033" y2="339" class="net_97"/>
  <circle cx="314" cy="628" r="2" style="fill:#000" class="net_97"/>
  <circle cx="314" cy="1033" r="2" style="fill:#000" class="net_97"/>
  <line x1="750" x2="760" y1="339" y2="339" class="net_97"/>
  <line x1="274" x2="314" y1="628" y2="628" class="net_97"/>
  <line x1="314" x2="314" y1="628" y2="887" class="net_97"/>
  <line x1="314" x2="680" y1="887" y2="887" class="net_97"/>
  <line x1="680" x2="680" y1="887" y2="329" class="net_97"/>
  <circle cx="314" cy="887" r="2" style="fill:#000" class="net_97"/>
  <line x1="680" x2="693.3333333333334" y1="329" y2="329" class="net_97"/>
  <line x1="274" x2="314" y1="628" y2="628" class="net_97"/>
  <line x1="314" x2="314" y1="628" y2="123" class="net_97"/>
  <line x1="314" x2="730" y1="123" y2="123" class="net_97"/>
  <line x1="730" x2="730" y1="123" y2="113" class="net_97"/>
  <circle cx="314" cy="123" r="2" style="fill:#000" class="net_97"/>
  <line x1="730" x2="760" y1="113" y2="113" class="net_97"/>
  <line x1="274" x2="314" y1="628" y2="628" class="net_97"/>
  <line x1="314" x2="314" y1="628" y2="887" class="net_97"/>
  <line x1="314" x2="610" y1="887" y2="887" class="net_97"/>
  <line x1="610" x2="610" y1="887" y2="319" class="net_97"/>
  <circle cx="610" cy="887" r="2" style="fill:#000" class="net_97"/>
  <line x1="610" x2="623.3333333333334" y1="319" y2="319" class="net_97"/>
  <line x1="274" x2="314" y1="628" y2="628" class="net_97"/>
  <line x1="314" x2="314" y1="628" y2="123" class="net_97"/>
  <line x1="314" x2="660" y1="123" y2="123" class="net_97"/>
  <line x1="660" x2="660" y1="123" y2="103" class="net_97"/>
  <circle cx="660" cy="123" r="2" style="fill:#000" class="net_97"/>
  <line x1="660" x2="693.3333333333334" y1="103" y2="103" class="net_97"/>
  <line x1="274" x2="314" y1="628" y2="628" class="net_97"/>
  <line x1="314" x2="314" y1="628" y2="659" class="net_97"/>
  <line x1="314" x2="520" y1="659" y2="659" class="net_97"/>
  <line x1="520" x2="520" y1="659" y2="309" class="net_97"/>
  <circle cx="314" cy="659" r="2" style="fill:#000" class="net_97"/>
  <line x1="520" x2="553.3333333333333" y1="309" y2="309" class="net_97"/>
  <line x1="274" x2="314" y1="628" y2="628" class="net_97"/>
  <line x1="314" x2="314" y1="628" y2="1306" class="net_97"/>
  <line x1="314" x2="730" y1="1306" y2="1306" class="net_97"/>
  <line x1="730" x2="730" y1="1306" y2="1305" class="net_97"/>
  <line x1="730" x2="760" y1="1305" y2="1305" class="net_97"/>
  <line x1="274" x2="314" y1="628" y2="628" class="net_97"/>
  <line x1="314" x2="314" y1="628" y2="309" class="net_97"/>
  <line x1="314" x2="470" y1="309" y2="309" class="net_97"/>
  <line x1="470" x2="470" y1="309" y2="299" class="net_97"/>
  <circle cx="314" cy="309" r="2" style="fill:#000" class="net_97"/>
  <line x1="470" x2="483.3333333333333" y1="299" y2="299" class="net_97"/>
  <line x1="274" x2="314" y1="628" y2="628" class="net_97"/>
  <line x1="314" x2="314" y1="628" y2="42" class="net_97"/>
  <line x1="314" x2="760" y1="42" y2="42" class="net_97"/>
  <line x1="274" x2="314" y1="628" y2="628" class="net_97"/>
  <line x1="314" x2="314" y1="628" y2="309" class="net_97"/>
  <line x1="314" x2="394" y1="309" y2="309" class="net_97"/>
  <line x1="394" x2="394" y1="309" y2="289" class="net_97"/>
  <circle cx="394" cy="309" r="2" style="fill:#000" class="net_97"/>
  <line x1="394" x2="409.3333333333333" y1="289" y2="289" class="net_97"/>
  <line x1="274" x2="314" y1="628" y2="628" class="net_97"/>
  <line x1="314" x2="314" y1="628" y2="1104" class="net_97"/>
  <circle cx="314" cy="1104" r="2" style="fill:#000" class="net_97"/>
  <line x1="314" x2="760" y1="1104" y2="1104" class="net_97"/>
  <line x1="274" x2="314" y1="628" y2="628" class="net_97"/>
  <line x1="314" x2="314" y1="628" y2="279" class="net_97"/>
  <circle cx="314" cy="279" r="2" style="fill:#000" class="net_97"/>
  <line x1="314" x2="337.33333333333337" y1="279" y2="279" class="net_97"/>
  <line x1="643.3333333333334" x2="693.3333333333334" y1="184" y2="184" class="net_60,61,62"/>
  <line x1="648" x2="670" y1="928" y2="928" class="net_39"/>
  <line x1="670" x2="670" y1="928" y2="254" class="net_39"/>
  <line x1="670" x2="703.3333333333334" y1="254" y2="254" class="net_39"/>
  <circle cx="670" cy="928" r="2" style="fill:#000" class="net_39"/>
  <line x1="703.3333333333334" x2="703.3333333333334" y1="254" y2="209" class="net_39"/>
  <line x1="648" x2="670" y1="928" y2="928" class="net_39"/>
  <line x1="670" x2="670" y1="928" y2="1196" class="net_39"/>
  <line x1="670" x2="703.3333333333334" y1="1196" y2="1196" class="net_39"/>
  <line x1="703.3333333333334" x2="703.3333333333334" y1="1196" y2="1170" class="net_39"/>
  <line x1="648" x2="703.3333333333334" y1="928" y2="928" class="net_39"/>
  <line x1="703.3333333333334" x2="703.3333333333334" y1="928" y2="334" class="net_39"/>
  <line x1="643.3333333333334" x2="660" y1="993" y2="993" class="net_63,64"/>
  <line x1="660" x2="660" y1="993" y2="1145" class="net_63,64"/>
  <line x1="660" x2="693.3333333333334" y1="1145" y2="1145" class="net_63,64"/>
  <line x1="650" x2="693.3333333333334" y1="1165" y2="1165" class="net_101,102"/>
  <line x1="643.3333333333334" x2="693.3333333333334" y1="309" y2="309" class="net_65"/>
  <line x1="573.3333333333333" x2="623.3333333333334" y1="174" y2="174" class="net_66,67,68"/>
  <line x1="364" x2="374" y1="437" y2="437" class="net_104,105,106"/>
  <line x1="374" x2="374" y1="437" y2="730" class="net_104,105,106"/>
  <line x1="374" x2="590" y1="730" y2="730" class="net_104,105,106"/>
  <line x1="590" x2="590" y1="730" y2="194" class="net_104,105,106"/>
  <circle cx="374" cy="437" r="2" style="fill:#000" class="net_104,105,106"/>
  <line x1="590" x2="623.3333333333334" y1="194" y2="194" class="net_104,105,106"/>
  <line x1="364" x2="374" y1="437" y2="437" class="net_104,105,106"/>
  <line x1="374" x2="374" y1="437" y2="144" class="net_104,105,106"/>
  <line x1="374" x2="409.3333333333333" y1="144" y2="144" class="net_104,105,106"/>
  <line x1="578" x2="600" y1="761" y2="761" class="net_38"/>
  <line x1="600" x2="600" y1="761" y2="214" class="net_38"/>
  <line x1="600" x2="633.3333333333334" y1="214" y2="214" class="net_38"/>
  <circle cx="600" cy="761" r="2" style="fill:#000" class="net_38"/>
  <line x1="633.3333333333334" x2="633.3333333333334" y1="214" y2="199" class="net_38"/>
  <line x1="578" x2="600" y1="761" y2="761" class="net_38"/>
  <line x1="600" x2="600" y1="761" y2="1023" class="net_38"/>
  <line x1="600" x2="633.3333333333334" y1="1023" y2="1023" class="net_38"/>
  <line x1="633.3333333333334" x2="633.3333333333334" y1="1023" y2="1008" class="net_38"/>
  <line x1="578" x2="600" y1="761" y2="761" class="net_38"/>
  <line x1="600" x2="600" y1="761" y2="264" class="net_38"/>
  <line x1="600" x2="730" y1="264" y2="264" class="net_38"/>
  <line x1="730" x2="730" y1="264" y2="133" class="net_38"/>
  <line x1="730" x2="770" y1="133" y2="133" class="net_38"/>
  <circle cx="600" cy="264" r="2" style="fill:#000" class="net_38"/>
  <line x1="770" x2="770" y1="133" y2="118" class="net_38"/>
  <line x1="578" x2="600" y1="761" y2="761" class="net_38"/>
  <line x1="600" x2="600" y1="761" y2="898" class="net_38"/>
  <line x1="600" x2="633.3333333333334" y1="898" y2="898" class="net_38"/>
  <circle cx="600" cy="898" r="2" style="fill:#000" class="net_38"/>
  <line x1="633.3333333333334" x2="633.3333333333334" y1="898" y2="324" class="net_38"/>
  <line x1="573.3333333333333" x2="590" y1="826" y2="826" class="net_69,70"/>
  <line x1="590" x2="590" y1="826" y2="983" class="net_69,70"/>
  <line x1="590" x2="623.3333333333334" y1="983" y2="983" class="net_69,70"/>
  <line x1="713.3333333333334" x2="760" y1="93" y2="93" class="net_71"/>
  <line x1="573.3333333333333" x2="623.3333333333334" y1="299" y2="299" class="net_72"/>
  <line x1="503.3333333333333" x2="553.3333333333333" y1="164" y2="164" class="net_73,74,75"/>
  <line x1="510" x2="540" y1="224" y2="224" class="net_111,112,113"/>
  <line x1="540" x2="540" y1="224" y2="184" class="net_111,112,113"/>
  <line x1="540" x2="553.3333333333333" y1="184" y2="184" class="net_111,112,113"/>
  <line x1="508" x2="530" y1="350" y2="350" class="net_37"/>
  <line x1="530" x2="530" y1="350" y2="269" class="net_37"/>
  <line x1="530" x2="563.3333333333333" y1="269" y2="269" class="net_37"/>
  <circle cx="530" cy="350" r="2" style="fill:#000" class="net_37"/>
  <circle cx="530" cy="269" r="2" style="fill:#000" class="net_37"/>
  <line x1="563.3333333333333" x2="563.3333333333333" y1="269" y2="189" class="net_37"/>
  <line x1="508" x2="530" y1="350" y2="350" class="net_37"/>
  <line x1="530" x2="530" y1="350" y2="856" class="net_37"/>
  <line x1="530" x2="563.3333333333333" y1="856" y2="856" class="net_37"/>
  <line x1="563.3333333333333" x2="563.3333333333333" y1="856" y2="841" class="net_37"/>
  <line x1="508" x2="530" y1="350" y2="350" class="net_37"/>
  <line x1="530" x2="530" y1="350" y2="143" class="net_37"/>
  <line x1="530" x2="703.3333333333334" y1="143" y2="143" class="net_37"/>
  <line x1="703.3333333333334" x2="703.3333333333334" y1="143" y2="108" class="net_37"/>
  <line x1="508" x2="563.3333333333333" y1="350" y2="350" class="net_37"/>
  <line x1="563.3333333333333" x2="563.3333333333333" y1="350" y2="314" class="net_37"/>
  <line x1="503.3333333333333" x2="520" y1="690" y2="690" class="net_76,77"/>
  <line x1="520" x2="520" y1="690" y2="816" class="net_76,77"/>
  <line x1="520" x2="553.3333333333333" y1="816" y2="816" class="net_76,77"/>
  <line x1="274" x2="304" y1="259" y2="259" class="net_116"/>
  <line x1="304" x2="304" y1="259" y2="83" class="net_116"/>
  <circle cx="304" cy="259" r="2" style="fill:#000" class="net_116"/>
  <circle cx="304" cy="83" r="2" style="fill:#000" class="net_116"/>
  <line x1="304" x2="693.3333333333334" y1="83" y2="83" class="net_116"/>
  <line x1="274" x2="304" y1="259" y2="259" class="net_116"/>
  <line x1="304" x2="304" y1="259" y2="1285" class="net_116"/>
  <line x1="304" x2="760" y1="1285" y2="1285" class="net_116"/>
  <line x1="274" x2="304" y1="259" y2="259" class="net_116"/>
  <line x1="304" x2="304" y1="259" y2="22" class="net_116"/>
  <line x1="304" x2="760" y1="22" y2="22" class="net_116"/>
  <line x1="274" x2="304" y1="259" y2="259" class="net_116"/>
  <line x1="304" x2="304" y1="259" y2="1084" class="net_116"/>
  <circle cx="304" cy="1084" r="2" style="fill:#000" class="net_116"/>
  <line x1="304" x2="760" y1="1084" y2="1084" class="net_116"/>
  <line x1="274" x2="337.33333333333337" y1="259" y2="259" class="net_116"/>
  <line x1="503.3333333333333" x2="553.3333333333333" y1="289" y2="289" class="net_78"/>
  <line x1="429.3333333333333" x2="483.3333333333333" y1="154" y2="154" class="net_79,80,81"/>
  <line x1="434" x2="450" y1="214" y2="214" class="net_119,120,121"/>
  <line x1="450" x2="450" y1="214" y2="174" class="net_119,120,121"/>
  <line x1="450" x2="483.3333333333333" y1="174" y2="174" class="net_119,120,121"/>
  <line x1="432" x2="460" y1="867" y2="867" class="net_36"/>
  <line x1="460" x2="460" y1="867" y2="194" class="net_36"/>
  <line x1="460" x2="493.3333333333333" y1="194" y2="194" class="net_36"/>
  <circle cx="460" cy="867" r="2" style="fill:#000" class="net_36"/>
  <line x1="493.3333333333333" x2="493.3333333333333" y1="194" y2="179" class="net_36"/>
  <line x1="432" x2="460" y1="867" y2="867" class="net_36"/>
  <line x1="460" x2="460" y1="867" y2="720" class="net_36"/>
  <line x1="460" x2="493.3333333333333" y1="720" y2="720" class="net_36"/>
  <circle cx="460" cy="720" r="2" style="fill:#000" class="net_36"/>
  <line x1="493.3333333333333" x2="493.3333333333333" y1="720" y2="705" class="net_36"/>
  <line x1="432" x2="460" y1="867" y2="867" class="net_36"/>
  <line x1="460" x2="460" y1="867" y2="1325" class="net_36"/>
  <line x1="460" x2="770" y1="1325" y2="1325" class="net_36"/>
  <line x1="770" x2="770" y1="1325" y2="1310" class="net_36"/>
  <line x1="429.3333333333333" x2="470" y1="512" y2="512" class="net_82,83"/>
  <line x1="470" x2="470" y1="512" y2="680" class="net_82,83"/>
  <line x1="470" x2="483.3333333333333" y1="680" y2="680" class="net_82,83"/>
  <line x1="434" x2="483.3333333333333" y1="700" y2="700" class="net_122,123"/>
  <line x1="364" x2="409.3333333333333" y1="164" y2="164" class="net_129,130,131"/>
  <line x1="362" x2="384" y1="372" y2="372" class="net_42"/>
  <line x1="384" x2="384" y1="372" y2="184" class="net_42"/>
  <line x1="384" x2="419.3333333333333" y1="184" y2="184" class="net_42"/>
  <circle cx="384" cy="372" r="2" style="fill:#000" class="net_42"/>
  <circle cx="384" cy="184" r="2" style="fill:#000" class="net_42"/>
  <line x1="419.3333333333333" x2="419.3333333333333" y1="184" y2="169" class="net_42"/>
  <line x1="362" x2="384" y1="372" y2="372" class="net_42"/>
  <line x1="384" x2="384" y1="372" y2="542" class="net_42"/>
  <line x1="384" x2="419.3333333333333" y1="542" y2="542" class="net_42"/>
  <line x1="419.3333333333333" x2="419.3333333333333" y1="542" y2="527" class="net_42"/>
  <line x1="362" x2="384" y1="372" y2="372" class="net_42"/>
  <line x1="384" x2="384" y1="372" y2="320" class="net_42"/>
  <line x1="384" x2="493.3333333333333" y1="320" y2="320" class="net_42"/>
  <circle cx="384" cy="320" r="2" style="fill:#000" class="net_42"/>
  <line x1="493.3333333333333" x2="493.3333333333333" y1="320" y2="304" class="net_42"/>
  <line x1="362" x2="384" y1="372" y2="372" class="net_42"/>
  <line x1="384" x2="384" y1="372" y2="62" class="net_42"/>
  <line x1="384" x2="770" y1="62" y2="62" class="net_42"/>
  <line x1="770" x2="770" y1="62" y2="47" class="net_42"/>
  <line x1="357.33333333333337" x2="409.3333333333333" y1="502" y2="502" class="net_84,85"/>
  <line x1="429.3333333333333" x2="483.3333333333333" y1="279" y2="279" class="net_86"/>
  <line x1="267.33333333333337" x2="337.33333333333337" y1="492" y2="492" class="net_87,88"/>
  <line x1="272" x2="294" y1="1124" y2="1124" class="net_41"/>
  <line x1="294" x2="294" y1="1124" y2="1296" class="net_41"/>
  <line x1="294" x2="347.33333333333337" y1="1296" y2="1296" class="net_41"/>
  <circle cx="294" cy="1124" r="2" style="fill:#000" class="net_41"/>
  <line x1="347.33333333333337" x2="347.33333333333337" y1="1296" y2="517" class="net_41"/>
  <line x1="272" x2="294" y1="1124" y2="1124" class="net_41"/>
  <line x1="294" x2="294" y1="1124" y2="331" class="net_41"/>
  <line x1="294" x2="419.3333333333333" y1="331" y2="331" class="net_41"/>
  <line x1="419.3333333333333" x2="419.3333333333333" y1="331" y2="294" class="net_41"/>
  <line x1="272" x2="770" y1="1124" y2="1124" class="net_41"/>
  <line x1="770" x2="770" y1="1124" y2="1109" class="net_41"/>
  <line x1="357.33333333333337" x2="409.3333333333333" y1="269" y2="269" class="net_89"/>
  <line x1="198.33333333333331" x2="247.33333333333334" y1="482" y2="482" class="net_90,91"/>
  <line x1="132" x2="158" y1="492" y2="492" class="net_142,143"/>
  <line x1="158" x2="158" y1="492" y2="512" class="net_142,143"/>
  <line x1="158" x2="219" y1="512" y2="512" class="net_142,143"/>
  <line x1="219" x2="219" y1="512" y2="502" class="net_142,143"/>
  <circle cx="158" cy="492" r="2" style="fill:#000" class="net_142,143"/>
  <line x1="219" x2="247.33333333333334" y1="502" y2="502" class="net_142,143"/>
  <line x1="132" x2="178.33333333333331" y1="492" y2="492" class="net_142,143"/>
  <line x1="201" x2="257.33333333333337" y1="587" y2="587" class="net_35"/>
  <line x1="257.33333333333337" x2="257.33333333333337" y1="587" y2="507" class="net_35"/>
  <line x1="201" x2="219" y1="587" y2="587" class="net_35"/>
  <line x1="219" x2="219" y1="587" y2="597" class="net_35"/>
  <line x1="219" x2="284" y1="597" y2="597" class="net_35"/>
  <line x1="284" x2="284" y1="597" y2="342" class="net_35"/>
  <line x1="284" x2="347.33333333333337" y1="342" y2="342" class="net_35"/>
  <circle cx="219" cy="587" r="2" style="fill:#000" class="net_35"/>
  <line x1="347.33333333333337" x2="347.33333333333337" y1="342" y2="284" class="net_35"/>
  <line x1="130" x2="188.33333333333331" y1="557" y2="557" class="net_34"/>
  <line x1="188.33333333333331" x2="188.33333333333331" y1="557" y2="497" class="net_34"/>
  <line x1="780" x2="815" y1="1094" y2="1094" class="net_44"/>
  <line x1="780" x2="790" y1="1094" y2="1094" class="net_44"/>
  <line x1="790" x2="790" y1="1094" y2="1230" class="net_44"/>
  <circle cx="790" cy="1094" r="2" style="fill:#000" class="net_44"/>
  <line x1="790" x2="815" y1="1230" y2="1230" class="net_44"/>
  <line x1="780" x2="815" y1="32" y2="32" class="net_45"/>
  <line x1="780" x2="815" y1="329" y2="329" class="net_46"/>
  <line x1="780" x2="815" y1="1295" y2="1295" class="net_47"/>
  <line x1="780" x2="815" y1="103" y2="103" class="net_48"/>
  <line x1="780" x2="815" y1="1165" y2="1165" class="net_49,50"/>
  <line x1="780" x2="815" y1="204" y2="204" class="net_51,52,53"/>
</svg>
