<svg xmlns="http://www.w3.org/2000/svg" xmlns:xlink="http://www.w3.org/1999/xlink" xmlns:s="https://github.com/nturley/netlistsvg" width="784" height="1258.5">
  <style>svg {
    stroke:#000;
    fill:none;
  }
  text {
    fill:#000;
    stroke:none;
    font-size:10px;
    font-weight: bold;
    font-family: "Courier New", monospace;
  }
  .nodelabel {
    text-anchor: middle;
  }
  .inputPortLabel {
    text-anchor: end;
  }
  .splitjoinBody {
    fill:#000;
  }</style>
  <g s:type="eq" transform="translate(238.66666666666666,741.5)" s:width="25" s:height="25" id="cell_$eq$src/core/controller.v:58$1">
    <s:alias val="$eq"/>
    <circle r="12.5" cx="12.5" cy="12.5" class="cell_$eq$src/core/controller.v:58$1"/>
    <line x1="7.5" x2="17.5" y1="10" y2="10" class="cell_$eq$src/core/controller.v:58$1"/>
    <line x1="7.5" x2="17.5" y1="15" y2="15" class="cell_$eq$src/core/controller.v:58$1"/>
    <g s:x="3" s:y="5" s:pid="A"/>
    <g s:x="3" s:y="20" s:pid="B"/>
    <g s:x="25" s:y="12.5" s:pid="Y"/>
  </g>
  <g s:type="not" transform="translate(157,796.5)" s:width="30" s:height="20" id="cell_$eq$src/core/controller.v:58$2">
    <s:alias val="$_NOT_"/>
    <s:alias val="$not"/>
    <s:alias val="$logic_not"/>
    <path d="M0,0 L0,20 L20,10 Z" class="cell_$eq$src/core/controller.v:58$2"/>
    <circle cx="23" cy="10" r="3" class="cell_$eq$src/core/controller.v:58$2"/>
    <g s:x="0" s:y="10" s:pid="A"/>
    <g s:x="25" s:y="10" s:pid="Y"/>
  </g>
  <g s:type="eq" transform="translate(158.66666666666666,689)" s:width="25" s:height="25" id="cell_$eq$src/core/controller.v:58$3">
    <s:alias val="$eq"/>
    <circle r="12.5" cx="12.5" cy="12.5" class="cell_$eq$src/core/controller.v:58$3"/>
    <line x1="7.5" x2="17.5" y1="10" y2="10" class="cell_$eq$src/core/controller.v:58$3"/>
    <line x1="7.5" x2="17.5" y1="15" y2="15" class="cell_$eq$src/core/controller.v:58$3"/>
    <g s:x="3" s:y="5" s:pid="A"/>
    <g s:x="3" s:y="20" s:pid="B"/>
    <g s:x="25" s:y="12.5" s:pid="Y"/>
  </g>
  <g s:type="eq" transform="translate(158.66666666666666,496)" s:width="25" s:height="25" id="cell_$eq$src/core/controller.v:59$6">
    <s:alias val="$eq"/>
    <circle r="12.5" cx="12.5" cy="12.5" class="cell_$eq$src/core/controller.v:59$6"/>
    <line x1="7.5" x2="17.5" y1="10" y2="10" class="cell_$eq$src/core/controller.v:59$6"/>
    <line x1="7.5" x2="17.5" y1="15" y2="15" class="cell_$eq$src/core/controller.v:59$6"/>
    <g s:x="3" s:y="5" s:pid="A"/>
    <g s:x="3" s:y="20" s:pid="B"/>
    <g s:x="25" s:y="12.5" s:pid="Y"/>
  </g>
  <g s:type="and" transform="translate(302,794)" s:width="30" s:height="25" id="cell_$logic_and$src/core/controller.v:58$5">
    <s:alias val="$and"/>
    <s:alias val="$logic_and"/>
    <s:alias val="$_AND_"/>
    <path d="M0,0 L0,25 L15,25 A15 12.5 0 0 0 15,0 Z" class="cell_$logic_and$src/core/controller.v:58$5"/>
    <g s:x="0" s:y="5" s:pid="A"/>
    <g s:x="0" s:y="20" s:pid="B"/>
    <g s:x="30" s:y="12.5" s:pid="Y"/>
  </g>
  <g s:type="and" transform="translate(237,681.5)" s:width="30" s:height="25" id="cell_$logic_and$src/core/controller.v:59$8">
    <s:alias val="$and"/>
    <s:alias val="$logic_and"/>
    <s:alias val="$_AND_"/>
    <path d="M0,0 L0,25 L15,25 A15 12.5 0 0 0 15,0 Z" class="cell_$logic_and$src/core/controller.v:59$8"/>
    <g s:x="0" s:y="5" s:pid="A"/>
    <g s:x="0" s:y="20" s:pid="B"/>
    <g s:x="30" s:y="12.5" s:pid="Y"/>
  </g>
  <g s:type="or" transform="translate(237,801.5)" s:width="30" s:height="25" id="cell_$logic_or$src/core/controller.v:58$4">
    <s:alias val="$or"/>
    <s:alias val="$logic_or"/>
    <s:alias val="$_OR_"/>
    <path d="M0,25 L0,25 L15,25 A15 12.5 0 0 0 15,0 L0,0" class="cell_$logic_or$src/core/controller.v:58$4"/>
    <path d="M0,0 A30 25 0 0 1 0,25" class="cell_$logic_or$src/core/controller.v:58$4"/>
    <g s:x="3" s:y="5" s:pid="A"/>
    <g s:x="3" s:y="20" s:pid="B"/>
    <g s:x="30" s:y="12.5" s:pid="Y"/>
  </g>
  <g s:type="mux" transform="translate(409.6666666666667,572)" s:width="20" s:height="40" id="cell_$ternary$src/core/controller.v:58$10">
    <s:alias val="$pmux"/>
    <s:alias val="$mux"/>
    <s:alias val="$_MUX_"/>
    <path d="M0,0 L20,10 L20,30 L0,40 Z" class="cell_$ternary$src/core/controller.v:58$10"/>
    <g s:x="0" s:y="10" s:pid="A"/>
    <g s:x="0" s:y="30" s:pid="B"/>
    <g s:x="10" s:y="35" s:pid="S"/>
    <g s:x="20" s:y="20" s:pid="Y"/>
  </g>
  <g s:type="mux" transform="translate(305.3333333333333,552)" s:width="20" s:height="40" id="cell_$ternary$src/core/controller.v:59$9">
    <s:alias val="$pmux"/>
    <s:alias val="$mux"/>
    <s:alias val="$_MUX_"/>
    <path d="M0,0 L20,10 L20,30 L0,40 Z" class="cell_$ternary$src/core/controller.v:59$9"/>
    <g s:x="0" s:y="10" s:pid="A"/>
    <g s:x="0" s:y="30" s:pid="B"/>
    <g s:x="10" s:y="35" s:pid="S"/>
    <g s:x="20" s:y="20" s:pid="Y"/>
  </g>
  <g s:type="generic" transform="translate(603,541.5)" s:width="30" s:height="40" id="cell_u_alu_control">
    <text x="15" y="-4" class="nodelabel cell_u_alu_control" s:attribute="ref">alu_control</text>
    <rect width="30" height="60" s:generic="body" class="cell_u_alu_control"/>
    <g transform="translate(0,10)" s:x="0" s:y="10" s:pid="in0" id="port_u_alu_control~alu_op">
      <text x="-3" y="-4" class="inputPortLabel cell_u_alu_control">alu_op</text>
    </g>
    <g transform="translate(0,30)" s:x="0" s:y="10" s:pid="in0" id="port_u_alu_control~funct3">
      <text x="-3" y="-4" class="inputPortLabel cell_u_alu_control">funct3</text>
    </g>
    <g transform="translate(0,50)" s:x="0" s:y="10" s:pid="in0" id="port_u_alu_control~funct7_5">
      <text x="-3" y="-4" class="inputPortLabel cell_u_alu_control">funct7_5</text>
    </g>
    <g transform="translate(30,10)" s:x="30" s:y="10" s:pid="out0" id="port_u_alu_control~alu_ctrl">
      <text x="5" y="-4" style="fill:#000; stroke:none" class="cell_u_alu_control">alu_ctrl</text>
    </g>
  </g>
  <g s:type="generic" transform="translate(398,206.5)" s:width="30" s:height="40" id="cell_u_decoder_glue">
    <text x="15" y="-4" class="nodelabel cell_u_decoder_glue" s:attribute="ref">decoder_glue</text>
    <rect width="30" height="240" s:generic="body" class="cell_u_decoder_glue"/>
    <g transform="translate(0,10)" s:x="0" s:y="10" s:pid="in0" id="port_u_decoder_glue~instr">
      <text x="-3" y="-4" class="inputPortLabel cell_u_decoder_glue">instr</text>
    </g>
    <g transform="translate(30,10)" s:x="30" s:y="10" s:pid="out0" id="port_u_decoder_glue~alu_op">
      <text x="5" y="-4" style="fill:#000; stroke:none" class="cell_u_decoder_glue">alu_op</text>
    </g>
    <g transform="translate(30,30)" s:x="30" s:y="10" s:pid="out0" id="port_u_decoder_glue~alu_src">
      <text x="5" y="-4" style="fill:#000; stroke:none" class="cell_u_decoder_glue">alu_src</text>
    </g>
    <g transform="translate(30,50)" s:x="30" s:y="10" s:pid="out0" id="port_u_decoder_glue~imm_out">
      <text x="5" y="-4" style="fill:#000; stroke:none" class="cell_u_decoder_glue">imm_out</text>
    </g>
    <g transform="translate(30,70)" s:x="30" s:y="10" s:pid="out0" id="port_u_decoder_glue~imm_sel">
      <text x="5" y="-4" style="fill:#000; stroke:none" class="cell_u_decoder_glue">imm_sel</text>
    </g>
    <g transform="translate(30,90)" s:x="30" s:y="10" s:pid="out0" id="port_u_decoder_glue~is_branch">
      <text x="5" y="-4" style="fill:#000; stroke:none" class="cell_u_decoder_glue">is_branch</text>
    </g>
    <g transform="translate(30,110)" s:x="30" s:y="10" s:pid="out0" id="port_u_decoder_glue~is_jal">
      <text x="5" y="-4" style="fill:#000; stroke:none" class="cell_u_decoder_glue">is_jal</text>
    </g>
    <g transform="translate(30,130)" s:x="30" s:y="10" s:pid="out0" id="port_u_decoder_glue~is_jalr">
      <text x="5" y="-4" style="fill:#000; stroke:none" class="cell_u_decoder_glue">is_jalr</text>
    </g>
    <g transform="translate(30,150)" s:x="30" s:y="10" s:pid="out0" id="port_u_decoder_glue~mem_read">
      <text x="5" y="-4" style="fill:#000; stroke:none" class="cell_u_decoder_glue">mem_read</text>
    </g>
    <g transform="translate(30,170)" s:x="30" s:y="10" s:pid="out0" id="port_u_decoder_glue~mem_write">
      <text x="5" y="-4" style="fill:#000; stroke:none" class="cell_u_decoder_glue">mem_write</text>
    </g>
    <g transform="translate(30,190)" s:x="30" s:y="10" s:pid="out0" id="port_u_decoder_glue~op1_sel">
      <text x="5" y="-4" style="fill:#000; stroke:none" class="cell_u_decoder_glue">op1_sel</text>
    </g>
    <g transform="translate(30,210)" s:x="30" s:y="10" s:pid="out0" id="port_u_decoder_glue~reg_write">
      <text x="5" y="-4" style="fill:#000; stroke:none" class="cell_u_decoder_glue">reg_write</text>
    </g>
    <g transform="translate(30,230)" s:x="30" s:y="10" s:pid="out0" id="port_u_decoder_glue~wb_sel">
      <text x="5" y="-4" style="fill:#000; stroke:none" class="cell_u_decoder_glue">wb_sel</text>
    </g>
  </g>
  <g s:type="inputExt" transform="translate(12,881.5)" s:width="30" s:height="20" id="cell_instr">
    <text x="15" y="-4" class="nodelabel cell_instr" s:attribute="ref">instr</text>
    <s:alias val="$_inputExt_"/>
    <path d="M0,0 L0,20 L15,20 L30,10 L15,0 Z" class="cell_instr"/>
    <g s:x="28" s:y="10" s:pid="Y"/>
  </g>
  <g s:type="outputExt" transform="translate(718,826.5)" s:width="30" s:height="20" id="cell_opcode">
    <text x="15" y="-4" class="nodelabel cell_opcode" s:attribute="ref">opcode</text>
    <s:alias val="$_outputExt_"/>
    <path d="M30,0 L30,20 L15,20 L0,10 L15,0 Z" class="cell_opcode"/>
    <g s:x="0" s:y="10" s:pid="A"/>
  </g>
  <g s:type="outputExt" transform="translate(718,956.5)" s:width="30" s:height="20" id="cell_rd">
    <text x="15" y="-4" class="nodelabel cell_rd" s:attribute="ref">rd</text>
    <s:alias val="$_outputExt_"/>
    <path d="M30,0 L30,20 L15,20 L0,10 L15,0 Z" class="cell_rd"/>
    <g s:x="0" s:y="10" s:pid="A"/>
  </g>
  <g s:type="outputExt" transform="translate(718,891.5)" s:width="30" s:height="20" id="cell_funct3">
    <text x="15" y="-4" class="nodelabel cell_funct3" s:attribute="ref">funct3</text>
    <s:alias val="$_outputExt_"/>
    <path d="M30,0 L30,20 L15,20 L0,10 L15,0 Z" class="cell_funct3"/>
    <g s:x="0" s:y="10" s:pid="A"/>
  </g>
  <g s:type="outputExt" transform="translate(718,1021.5)" s:width="30" s:height="20" id="cell_rs1">
    <text x="15" y="-4" class="nodelabel cell_rs1" s:attribute="ref">rs1</text>
    <s:alias val="$_outputExt_"/>
    <path d="M30,0 L30,20 L15,20 L0,10 L15,0 Z" class="cell_rs1"/>
    <g s:x="0" s:y="10" s:pid="A"/>
  </g>
  <g s:type="outputExt" transform="translate(718,1086.5)" s:width="30" s:height="20" id="cell_rs2">
    <text x="15" y="-4" class="nodelabel cell_rs2" s:attribute="ref">rs2</text>
    <s:alias val="$_outputExt_"/>
    <path d="M30,0 L30,20 L15,20 L0,10 L15,0 Z" class="cell_rs2"/>
    <g s:x="0" s:y="10" s:pid="A"/>
  </g>
  <g s:type="outputExt" transform="translate(718,1151.5)" s:width="30" s:height="20" id="cell_funct7">
    <text x="15" y="-4" class="nodelabel cell_funct7" s:attribute="ref">funct7</text>
    <s:alias val="$_outputExt_"/>
    <path d="M30,0 L30,20 L15,20 L0,10 L15,0 Z" class="cell_funct7"/>
    <g s:x="0" s:y="10" s:pid="A"/>
  </g>
  <g s:type="outputExt" transform="translate(718,1216.5)" s:width="30" s:height="20" id="cell_csr">
    <text x="15" y="-4" class="nodelabel cell_csr" s:attribute="ref">csr</text>
    <s:alias val="$_outputExt_"/>
    <path d="M30,0 L30,20 L15,20 L0,10 L15,0 Z" class="cell_csr"/>
    <g s:x="0" s:y="10" s:pid="A"/>
  </g>
  <g s:type="outputExt" transform="translate(718,542)" s:width="30" s:height="20" id="cell_alu_ctrl">
    <text x="15" y="-4" class="nodelabel cell_alu_ctrl" s:attribute="ref">alu_ctrl</text>
    <s:alias val="$_outputExt_"/>
    <path d="M30,0 L30,20 L15,20 L0,10 L15,0 Z" class="cell_alu_ctrl"/>
    <g s:x="0" s:y="10" s:pid="A"/>
  </g>
  <g s:type="outputExt" transform="translate(718,87)" s:width="30" s:height="20" id="cell_imm_out">
    <text x="15" y="-4" class="nodelabel cell_imm_out" s:attribute="ref">imm_out</text>
    <s:alias val="$_outputExt_"/>
    <path d="M30,0 L30,20 L15,20 L0,10 L15,0 Z" class="cell_imm_out"/>
    <g s:x="0" s:y="10" s:pid="A"/>
  </g>
  <g s:type="outputExt" transform="translate(718,607)" s:width="30" s:height="20" id="cell_reg_write">
    <text x="15" y="-4" class="nodelabel cell_reg_write" s:attribute="ref">reg_write</text>
    <s:alias val="$_outputExt_"/>
    <path d="M30,0 L30,20 L15,20 L0,10 L15,0 Z" class="cell_reg_write"/>
    <g s:x="0" s:y="10" s:pid="A"/>
  </g>
  <g s:type="outputExt" transform="translate(718,347)" s:width="30" s:height="20" id="cell_mem_read">
    <text x="15" y="-4" class="nodelabel cell_mem_read" s:attribute="ref">mem_read</text>
    <s:alias val="$_outputExt_"/>
    <path d="M30,0 L30,20 L15,20 L0,10 L15,0 Z" class="cell_mem_read"/>
    <g s:x="0" s:y="10" s:pid="A"/>
  </g>
  <g s:type="outputExt" transform="translate(718,412)" s:width="30" s:height="20" id="cell_mem_write">
    <text x="15" y="-4" class="nodelabel cell_mem_write" s:attribute="ref">mem_write</text>
    <s:alias val="$_outputExt_"/>
    <path d="M30,0 L30,20 L15,20 L0,10 L15,0 Z" class="cell_mem_write"/>
    <g s:x="0" s:y="10" s:pid="A"/>
  </g>
  <g s:type="outputExt" transform="translate(718,22)" s:width="30" s:height="20" id="cell_alu_src">
    <text x="15" y="-4" class="nodelabel cell_alu_src" s:attribute="ref">alu_src</text>
    <s:alias val="$_outputExt_"/>
    <path d="M30,0 L30,20 L15,20 L0,10 L15,0 Z" class="cell_alu_src"/>
    <g s:x="0" s:y="10" s:pid="A"/>
  </g>
  <g s:type="outputExt" transform="translate(718,477)" s:width="30" s:height="20" id="cell_op1_sel">
    <text x="15" y="-4" class="nodelabel cell_op1_sel" s:attribute="ref">op1_sel</text>
    <s:alias val="$_outputExt_"/>
    <path d="M30,0 L30,20 L15,20 L0,10 L15,0 Z" class="cell_op1_sel"/>
    <g s:x="0" s:y="10" s:pid="A"/>
  </g>
  <g s:type="outputExt" transform="translate(718,672)" s:width="30" s:height="20" id="cell_wb_sel">
    <text x="15" y="-4" class="nodelabel cell_wb_sel" s:attribute="ref">wb_sel</text>
    <s:alias val="$_outputExt_"/>
    <path d="M30,0 L30,20 L15,20 L0,10 L15,0 Z" class="cell_wb_sel"/>
    <g s:x="0" s:y="10" s:pid="A"/>
  </g>
  <g s:type="outputExt" transform="translate(718,152)" s:width="30" s:height="20" id="cell_is_branch">
    <text x="15" y="-4" class="nodelabel cell_is_branch" s:attribute="ref">is_branch</text>
    <s:alias val="$_outputExt_"/>
    <path d="M30,0 L30,20 L15,20 L0,10 L15,0 Z" class="cell_is_branch"/>
    <g s:x="0" s:y="10" s:pid="A"/>
  </g>
  <g s:type="outputExt" transform="translate(718,217)" s:width="30" s:height="20" id="cell_is_jal">
    <text x="15" y="-4" class="nodelabel cell_is_jal" s:attribute="ref">is_jal</text>
    <s:alias val="$_outputExt_"/>
    <path d="M30,0 L30,20 L15,20 L0,10 L15,0 Z" class="cell_is_jal"/>
    <g s:x="0" s:y="10" s:pid="A"/>
  </g>
  <g s:type="outputExt" transform="translate(718,282)" s:width="30" s:height="20" id="cell_is_jalr">
    <text x="15" y="-4" class="nodelabel cell_is_jalr" s:attribute="ref">is_jalr</text>
    <s:alias val="$_outputExt_"/>
    <path d="M30,0 L30,20 L15,20 L0,10 L15,0 Z" class="cell_is_jalr"/>
    <g s:x="0" s:y="10" s:pid="A"/>
  </g>
  <g s:type="constant" transform="translate(157,634)" s:width="30" s:height="20" id="cell_0110011">
    <text x="15" y="-4" class="nodelabel cell_0110011" s:attribute="ref">0x33</text>
    <s:alias val="$_constant_"/>
    <rect width="30" height="20" class="cell_0110011"/>
    <g s:x="30" s:y="10" s:pid="Y"/>
  </g>
  <g s:type="constant" transform="translate(77,583)" s:width="30" s:height="20" id="cell_101">
    <text x="15" y="-4" class="nodelabel cell_101" s:attribute="ref">101</text>
    <s:alias val="$_constant_"/>
    <rect width="30" height="20" class="cell_101"/>
    <g s:x="30" s:y="10" s:pid="Y"/>
  </g>
  <g s:type="constant" transform="translate(77,506)" s:width="30" s:height="20" id="cell_0010011">
    <text x="15" y="-4" class="nodelabel cell_0010011" s:attribute="ref">0x13</text>
    <s:alias val="$_constant_"/>
    <rect width="30" height="20" class="cell_0010011"/>
    <g s:x="30" s:y="10" s:pid="Y"/>
  </g>
  <g s:type="constant" transform="translate(237,552)" s:width="30" s:height="20" id="cell_0">
    <text x="15" y="-4" class="nodelabel cell_0" s:attribute="ref">0</text>
    <s:alias val="$_constant_"/>
    <rect width="30" height="20" class="cell_0"/>
    <g s:x="30" s:y="10" s:pid="Y"/>
  </g>
  <g s:type="constant" transform="translate(398,1226.5)" s:width="30" s:height="20" id="cell_00000000">
    <text x="15" y="-4" class="nodelabel cell_00000000" s:attribute="ref">0x0</text>
    <s:alias val="$_constant_"/>
    <rect width="30" height="20" class="cell_00000000"/>
    <g s:x="30" s:y="10" s:pid="Y"/>
  </g>
  <g s:type="join" transform="translate(612,1206)" s:width="4" s:height="40" id="cell_$join$,22,23,24,25,26,27,28,29,30,31,32,33,113,114,115,116,117,118,119,120,">
    <rect width="5" height="40" class="splitjoinBody" s:generic="body"/>
    <s:alias val="$_join_"/>
    <g s:x="5" s:y="20" s:pid="out"/>
    <g transform="translate(0,10)" s:x="0" s:y="10" s:pid="in0">
      <text x="-3" y="-4" class="inputPortLabel">0:11</text>
    </g>
    <g transform="translate(0,30)" s:x="0" s:y="10" s:pid="in0">
      <text x="-3" y="-4" class="inputPortLabel">12:19</text>
    </g>
  </g>
  <g s:type="split" transform="translate(83,871)" s:width="5" s:height="40" id="cell_$split$,2,3,4,5,6,7,8,9,10,11,12,13,14,15,16,17,18,19,20,21,22,23,24,25,26,27,28,29,30,31,32,33,">
    <rect width="5" height="160" class="splitjoinBody" s:generic="body"/>
    <s:alias val="$_split_"/>
    <g s:x="0" s:y="20" s:pid="in"/>
    <g transform="translate(4,10)" s:x="4" s:y="10" s:pid="out0">
      <text x="5" y="-4">0:6</text>
    </g>
    <g transform="translate(4,30)" s:x="4" s:y="10" s:pid="out0">
      <text x="5" y="-4">12:14</text>
    </g>
    <g transform="translate(4,50)" s:x="4" s:y="10" s:pid="out0">
      <text x="5" y="-4">30</text>
    </g>
    <g transform="translate(4,70)" s:x="4" s:y="10" s:pid="out0">
      <text x="5" y="-4">7:11</text>
    </g>
    <g transform="translate(4,90)" s:x="4" s:y="10" s:pid="out0">
      <text x="5" y="-4">15:19</text>
    </g>
    <g transform="translate(4,110)" s:x="4" s:y="10" s:pid="out0">
      <text x="5" y="-4">20:24</text>
    </g>
    <g transform="translate(4,130)" s:x="4" s:y="10" s:pid="out0">
      <text x="5" y="-4">25:31</text>
    </g>
    <g transform="translate(4,150)" s:x="4" s:y="10" s:pid="out0">
      <text x="5" y="-4">20:31</text>
    </g>
  </g>
  <line x1="87.5" x2="87.5" y1="881" y2="613" class="net_2,3,4,5,6,7,8"/>
  <line x1="87.5" x2="217" y1="613" y2="613" class="net_2,3,4,5,6,7,8"/>
  <line x1="217" x2="217" y1="613" y2="746.5" class="net_2,3,4,5,6,7,8"/>
  <line x1="217" x2="241.66666666666666" y1="746.5" y2="746.5" class="net_2,3,4,5,6,7,8"/>
  <line x1="87.5" x2="87.5" y1="881" y2="613" class="net_2,3,4,5,6,7,8"/>
  <line x1="87.5" x2="127" y1="613" y2="613" class="net_2,3,4,5,6,7,8"/>
  <line x1="127" x2="127" y1="613" y2="501" class="net_2,3,4,5,6,7,8"/>
  <circle cx="127" cy="613" r="2" style="fill:#000" class="net_2,3,4,5,6,7,8"/>
  <line x1="127" x2="161.66666666666666" y1="501" y2="501" class="net_2,3,4,5,6,7,8"/>
  <line x1="87.5" x2="87.5" y1="881" y2="613" class="net_2,3,4,5,6,7,8"/>
  <line x1="87.5" x2="127" y1="613" y2="613" class="net_2,3,4,5,6,7,8"/>
  <line x1="127" x2="127" y1="613" y2="836.5" class="net_2,3,4,5,6,7,8"/>
  <line x1="127" x2="718" y1="836.5" y2="836.5" class="net_2,3,4,5,6,7,8"/>
  <line x1="187" x2="207" y1="644" y2="644" class="net_95,96,97,98,99,100,101"/>
  <line x1="207" x2="207" y1="644" y2="761.5" class="net_95,96,97,98,99,100,101"/>
  <line x1="207" x2="241.66666666666666" y1="761.5" y2="761.5" class="net_95,96,97,98,99,100,101"/>
  <line x1="88" x2="147" y1="901.5" y2="901.5" class="net_14,15,16"/>
  <line x1="147" x2="147" y1="901.5" y2="806.5" class="net_14,15,16"/>
  <circle cx="147" cy="901.5" r="2" style="fill:#000" class="net_14,15,16"/>
  <circle cx="147" cy="806.5" r="2" style="fill:#000" class="net_14,15,16"/>
  <line x1="147" x2="157" y1="806.5" y2="806.5" class="net_14,15,16"/>
  <line x1="88" x2="147" y1="901.5" y2="901.5" class="net_14,15,16"/>
  <line x1="147" x2="147" y1="901.5" y2="694" class="net_14,15,16"/>
  <circle cx="147" cy="694" r="2" style="fill:#000" class="net_14,15,16"/>
  <line x1="147" x2="161.66666666666666" y1="694" y2="694" class="net_14,15,16"/>
  <line x1="88" x2="147" y1="901.5" y2="901.5" class="net_14,15,16"/>
  <line x1="147" x2="147" y1="901.5" y2="531" class="net_14,15,16"/>
  <line x1="147" x2="504" y1="531" y2="531" class="net_14,15,16"/>
  <line x1="504" x2="504" y1="531" y2="572" class="net_14,15,16"/>
  <line x1="504" x2="603" y1="572" y2="572" class="net_14,15,16"/>
  <line x1="88" x2="718" y1="901.5" y2="901.5" class="net_14,15,16"/>
  <line x1="107" x2="117" y1="593" y2="593" class="net_102,103,104"/>
  <line x1="117" x2="117" y1="593" y2="709" class="net_102,103,104"/>
  <line x1="117" x2="161.66666666666666" y1="709" y2="709" class="net_102,103,104"/>
  <line x1="107" x2="161.66666666666666" y1="516" y2="516" class="net_105,106,107,108,109,110,111"/>
  <line x1="263.66666666666663" x2="277" y1="754" y2="754" class="net_81"/>
  <line x1="277" x2="277" y1="754" y2="799" class="net_81"/>
  <line x1="277" x2="302" y1="799" y2="799" class="net_81"/>
  <line x1="267" x2="302" y1="814" y2="814" class="net_85"/>
  <line x1="183.66666666666666" x2="227" y1="508.5" y2="508.5" class="net_84"/>
  <line x1="227" x2="227" y1="508.5" y2="686.5" class="net_84"/>
  <line x1="227" x2="237" y1="686.5" y2="686.5" class="net_84"/>
  <line x1="183.66666666666666" x2="237" y1="701.5" y2="701.5" class="net_83"/>
  <line x1="183.66666666666666" x2="197" y1="701.5" y2="701.5" class="net_83"/>
  <line x1="197" x2="197" y1="701.5" y2="821.5" class="net_83"/>
  <circle cx="197" cy="701.5" r="2" style="fill:#000" class="net_83"/>
  <line x1="197" x2="240" y1="821.5" y2="821.5" class="net_83"/>
  <line x1="182" x2="240" y1="806.5" y2="806.5" class="net_82"/>
  <line x1="325.3333333333333" x2="342" y1="572" y2="572" class="net_88"/>
  <line x1="342" x2="342" y1="572" y2="582" class="net_88"/>
  <line x1="342" x2="409.6666666666667" y1="582" y2="582" class="net_88"/>
  <line x1="88" x2="137" y1="921.5" y2="921.5" class="net_32"/>
  <line x1="137" x2="137" y1="921.5" y2="602" class="net_32"/>
  <line x1="137" x2="409.6666666666667" y1="602" y2="602" class="net_32"/>
  <line x1="88" x2="137" y1="921.5" y2="921.5" class="net_32"/>
  <line x1="137" x2="137" y1="921.5" y2="602" class="net_32"/>
  <line x1="137" x2="277" y1="602" y2="602" class="net_32"/>
  <line x1="277" x2="277" y1="602" y2="582" class="net_32"/>
  <circle cx="277" cy="602" r="2" style="fill:#000" class="net_32"/>
  <line x1="277" x2="305.3333333333333" y1="582" y2="582" class="net_32"/>
  <line x1="332" x2="419.6666666666667" y1="806.5" y2="806.5" class="net_86"/>
  <line x1="419.6666666666667" x2="419.6666666666667" y1="806.5" y2="607" class="net_86"/>
  <line x1="267" x2="305.3333333333333" y1="562" y2="562" class="net_112"/>
  <line x1="267" x2="315.3333333333333" y1="694" y2="694" class="net_87"/>
  <line x1="315.3333333333333" x2="315.3333333333333" y1="694" y2="587" class="net_87"/>
  <line x1="429" x2="544" y1="217" y2="217" class="net_90,91"/>
  <line x1="544" x2="544" y1="217" y2="552" class="net_90,91"/>
  <line x1="544" x2="603" y1="552" y2="552" class="net_90,91"/>
  <line x1="429.6666666666667" x2="603" y1="592" y2="592" class="net_89"/>
  <line x1="40" x2="52" y1="891.5" y2="891.5" class="net_2,3,4,5,6,7,8,9,10,11,12,13,14,15,16,17,18,19,20,21,22,23,24,25,26,27,28,29,30,31,32,33"/>
  <line x1="52" x2="52" y1="891.5" y2="217" class="net_2,3,4,5,6,7,8,9,10,11,12,13,14,15,16,17,18,19,20,21,22,23,24,25,26,27,28,29,30,31,32,33"/>
  <circle cx="52" cy="891.5" r="2" style="fill:#000" class="net_2,3,4,5,6,7,8,9,10,11,12,13,14,15,16,17,18,19,20,21,22,23,24,25,26,27,28,29,30,31,32,33"/>
  <line x1="52" x2="398" y1="217" y2="217" class="net_2,3,4,5,6,7,8,9,10,11,12,13,14,15,16,17,18,19,20,21,22,23,24,25,26,27,28,29,30,31,32,33"/>
  <line x1="40" x2="83" y1="891.5" y2="891.5" class="net_2,3,4,5,6,7,8,9,10,11,12,13,14,15,16,17,18,19,20,21,22,23,24,25,26,27,28,29,30,31,32,33"/>
  <line x1="88" x2="147" y1="941.5" y2="941.5" class="net_9,10,11,12,13"/>
  <line x1="147" x2="147" y1="941.5" y2="966.5" class="net_9,10,11,12,13"/>
  <line x1="147" x2="718" y1="966.5" y2="966.5" class="net_9,10,11,12,13"/>
  <line x1="88" x2="137" y1="961.5" y2="961.5" class="net_17,18,19,20,21"/>
  <line x1="137" x2="137" y1="961.5" y2="1031.5" class="net_17,18,19,20,21"/>
  <line x1="137" x2="718" y1="1031.5" y2="1031.5" class="net_17,18,19,20,21"/>
  <line x1="88" x2="127" y1="981.5" y2="981.5" class="net_22,23,24,25,26"/>
  <line x1="127" x2="127" y1="981.5" y2="1096.5" class="net_22,23,24,25,26"/>
  <line x1="127" x2="718" y1="1096.5" y2="1096.5" class="net_22,23,24,25,26"/>
  <line x1="88" x2="117" y1="1001.5" y2="1001.5" class="net_27,28,29,30,31,32,33"/>
  <line x1="117" x2="117" y1="1001.5" y2="1161.5" class="net_27,28,29,30,31,32,33"/>
  <line x1="117" x2="718" y1="1161.5" y2="1161.5" class="net_27,28,29,30,31,32,33"/>
  <line x1="618" x2="718" y1="1226.5" y2="1226.5" class="net_22,23,24,25,26,27,28,29,30,31,32,33,113,114,115,116,117,118,119,120"/>
  <line x1="634" x2="718" y1="552" y2="552" class="net_34,35,36,37"/>
  <line x1="429" x2="504" y1="257" y2="257" class="net_38,39,40,41,42,43,44,45,46,47,48,49,50,51,52,53,54,55,56,57,58,59,60,61,62,63,64,65,66,67,68,69"/>
  <line x1="504" x2="504" y1="257" y2="97" class="net_38,39,40,41,42,43,44,45,46,47,48,49,50,51,52,53,54,55,56,57,58,59,60,61,62,63,64,65,66,67,68,69"/>
  <line x1="504" x2="718" y1="97" y2="97" class="net_38,39,40,41,42,43,44,45,46,47,48,49,50,51,52,53,54,55,56,57,58,59,60,61,62,63,64,65,66,67,68,69"/>
  <line x1="429" x2="514" y1="417" y2="417" class="net_70"/>
  <line x1="514" x2="514" y1="417" y2="617" class="net_70"/>
  <line x1="514" x2="718" y1="617" y2="617" class="net_70"/>
  <line x1="429" x2="718" y1="357" y2="357" class="net_71"/>
  <line x1="429" x2="534" y1="377" y2="377" class="net_72"/>
  <line x1="534" x2="534" y1="377" y2="422" class="net_72"/>
  <line x1="534" x2="718" y1="422" y2="422" class="net_72"/>
  <line x1="429" x2="494" y1="237" y2="237" class="net_73"/>
  <line x1="494" x2="494" y1="237" y2="32" class="net_73"/>
  <line x1="494" x2="718" y1="32" y2="32" class="net_73"/>
  <line x1="429" x2="524" y1="397" y2="397" class="net_74,75"/>
  <line x1="524" x2="524" y1="397" y2="487" class="net_74,75"/>
  <line x1="524" x2="718" y1="487" y2="487" class="net_74,75"/>
  <line x1="429" x2="494" y1="437" y2="437" class="net_76,77"/>
  <line x1="494" x2="494" y1="437" y2="682" class="net_76,77"/>
  <line x1="494" x2="718" y1="682" y2="682" class="net_76,77"/>
  <line x1="429" x2="514" y1="297" y2="297" class="net_78"/>
  <line x1="514" x2="514" y1="297" y2="162" class="net_78"/>
  <line x1="514" x2="718" y1="162" y2="162" class="net_78"/>
  <line x1="429" x2="524" y1="317" y2="317" class="net_79"/>
  <line x1="524" x2="524" y1="317" y2="227" class="net_79"/>
  <line x1="524" x2="718" y1="227" y2="227" class="net_79"/>
  <line x1="429" x2="534" y1="337" y2="337" class="net_80"/>
  <line x1="534" x2="534" y1="337" y2="292" class="net_80"/>
  <line x1="534" x2="718" y1="292" y2="292" class="net_80"/>
  <line x1="87.5" x2="87.5" y1="1022" y2="1205.5" class="net_22,23,24,25,26,27,28,29,30,31,32,33"/>
  <line x1="87.5" x2="494" y1="1205.5" y2="1205.5" class="net_22,23,24,25,26,27,28,29,30,31,32,33"/>
  <line x1="494" x2="494" y1="1205.5" y2="1216.5" class="net_22,23,24,25,26,27,28,29,30,31,32,33"/>
  <line x1="494" x2="612" y1="1216.5" y2="1216.5" class="net_22,23,24,25,26,27,28,29,30,31,32,33"/>
  <line x1="428" x2="612" y1="1236.5" y2="1236.5" class="net_113,114,115,116,117,118,119,120"/>
</svg>
