<svg xmlns="http://www.w3.org/2000/svg" xmlns:xlink="http://www.w3.org/1999/xlink" xmlns:s="https://github.com/nturley/netlistsvg" width="590" height="1013">
  <style>svg {
    stroke:#000;
    fill:none;
  }
  text {
    fill:#000;
    stroke:none;
    font-size:10px;
    font-weight: bold;
    font-family: "Courier New", monospace;
  }
  .nodelabel {
    text-anchor: middle;
  }
  .inputPortLabel {
    text-anchor: end;
  }
  .splitjoinBody {
    fill:#000;
  }</style>
  <g s:type="mux" transform="translate(180.33333333333331,851.5)" s:width="20" s:height="40" id="cell_$procmux$202">
    <s:alias val="$pmux"/>
    <s:alias val="$mux"/>
    <s:alias val="$_MUX_"/>
    <path d="M0,0 L20,10 L20,30 L0,40 Z" class="cell_$procmux$202"/>
    <g s:x="0" s:y="10" s:pid="A"/>
    <g s:x="0" s:y="30" s:pid="B"/>
    <g s:x="10" s:y="35" s:pid="S"/>
    <g s:x="20" s:y="20" s:pid="Y"/>
  </g>
  <g s:type="mux" transform="translate(267,219)" s:width="20" s:height="40" id="cell_$procmux$205">
    <s:alias val="$pmux"/>
    <s:alias val="$mux"/>
    <s:alias val="$_MUX_"/>
    <path d="M0,0 L20,10 L20,30 L0,40 Z" class="cell_$procmux$205"/>
    <g s:x="0" s:y="10" s:pid="A"/>
    <g s:x="0" s:y="30" s:pid="B"/>
    <g s:x="10" s:y="35" s:pid="S"/>
    <g s:x="20" s:y="20" s:pid="Y"/>
  </g>
  <g s:type="mux" transform="translate(267,159)" s:width="20" s:height="40" id="cell_$procmux$208">
    <s:alias val="$pmux"/>
    <s:alias val="$mux"/>
    <s:alias val="$_MUX_"/>
    <path d="M0,0 L20,10 L20,30 L0,40 Z" class="cell_$procmux$208"/>
    <g s:x="0" s:y="10" s:pid="A"/>
    <g s:x="0" s:y="30" s:pid="B"/>
    <g s:x="10" s:y="35" s:pid="S"/>
    <g s:x="20" s:y="20" s:pid="Y"/>
  </g>
  <g s:type="generic" transform="translate(415,171)" s:width="30" s:height="40" id="cell_mem">
    <text x="15" y="-4" class="nodelabel cell_mem" s:attribute="ref">$mem_v2</text>
    <rect width="30" height="180" s:generic="body" class="cell_mem"/>
    <g transform="translate(0,10)" s:x="0" s:y="10" s:pid="in0" id="port_mem~RD_ADDR">
      <text x="-3" y="-4" class="inputPortLabel cell_mem">RD_ADDR</text>
    </g>
    <g transform="translate(0,30)" s:x="0" s:y="10" s:pid="in0" id="port_mem~RD_ARST">
      <text x="-3" y="-4" class="inputPortLabel cell_mem">RD_ARST</text>
    </g>
    <g transform="translate(0,50)" s:x="0" s:y="10" s:pid="in0" id="port_mem~RD_CLK">
      <text x="-3" y="-4" class="inputPortLabel cell_mem">RD_CLK</text>
    </g>
    <g transform="translate(0,70)" s:x="0" s:y="10" s:pid="in0" id="port_mem~RD_EN">
      <text x="-3" y="-4" class="inputPortLabel cell_mem">RD_EN</text>
    </g>
    <g transform="translate(0,90)" s:x="0" s:y="10" s:pid="in0" id="port_mem~RD_SRST">
      <text x="-3" y="-4" class="inputPortLabel cell_mem">RD_SRST</text>
    </g>
    <g transform="translate(0,110)" s:x="0" s:y="10" s:pid="in0" id="port_mem~WR_ADDR">
      <text x="-3" y="-4" class="inputPortLabel cell_mem">WR_ADDR</text>
    </g>
    <g transform="translate(0,130)" s:x="0" s:y="10" s:pid="in0" id="port_mem~WR_CLK">
      <text x="-3" y="-4" class="inputPortLabel cell_mem">WR_CLK</text>
    </g>
    <g transform="translate(0,150)" s:x="0" s:y="10" s:pid="in0" id="port_mem~WR_DATA">
      <text x="-3" y="-4" class="inputPortLabel cell_mem">WR_DATA</text>
    </g>
    <g transform="translate(0,170)" s:x="0" s:y="10" s:pid="in0" id="port_mem~WR_EN">
      <text x="-3" y="-4" class="inputPortLabel cell_mem">WR_EN</text>
    </g>
    <g transform="translate(30,10)" s:x="30" s:y="10" s:pid="out0" id="port_mem~RD_DATA">
      <text x="5" y="-4" style="fill:#000; stroke:none" class="cell_mem">RD_DATA</text>
    </g>
  </g>
  <g s:type="inputExt" transform="translate(262,118)" s:width="30" s:height="20" id="cell_clk">
    <text x="15" y="-4" class="nodelabel cell_clk" s:attribute="ref">clk</text>
    <s:alias val="$_inputExt_"/>
    <path d="M0,0 L0,20 L15,20 L30,10 L15,0 Z" class="cell_clk"/>
    <g s:x="28" s:y="10" s:pid="Y"/>
  </g>
  <g s:type="inputExt" transform="translate(97,259)" s:width="30" s:height="20" id="cell_we">
    <text x="15" y="-4" class="nodelabel cell_we" s:attribute="ref">we</text>
    <s:alias val="$_inputExt_"/>
    <path d="M0,0 L0,20 L15,20 L30,10 L15,0 Z" class="cell_we"/>
    <g s:x="28" s:y="10" s:pid="Y"/>
  </g>
  <g s:type="inputExt" transform="translate(12,22)" s:width="30" s:height="20" id="cell_re">
    <text x="15" y="-4" class="nodelabel cell_re" s:attribute="ref">re</text>
    <s:alias val="$_inputExt_"/>
    <path d="M0,0 L0,20 L15,20 L30,10 L15,0 Z" class="cell_re"/>
    <g s:x="28" s:y="10" s:pid="Y"/>
  </g>
  <g s:type="inputExt" transform="translate(167,67)" s:width="30" s:height="20" id="cell_addr">
    <text x="15" y="-4" class="nodelabel cell_addr" s:attribute="ref">addr</text>
    <s:alias val="$_inputExt_"/>
    <path d="M0,0 L0,20 L15,20 L30,10 L15,0 Z" class="cell_addr"/>
    <g s:x="28" s:y="10" s:pid="Y"/>
  </g>
  <g s:type="inputExt" transform="translate(167,239)" s:width="30" s:height="20" id="cell_write_data">
    <text x="15" y="-4" class="nodelabel cell_write_data" s:attribute="ref">write_data</text>
    <s:alias val="$_inputExt_"/>
    <path d="M0,0 L0,20 L15,20 L30,10 L15,0 Z" class="cell_write_data"/>
    <g s:x="28" s:y="10" s:pid="Y"/>
  </g>
  <g s:type="outputExt" transform="translate(524,171.5)" s:width="30" s:height="20" id="cell_read_data">
    <text x="15" y="-4" class="nodelabel cell_read_data" s:attribute="ref">read_data</text>
    <s:alias val="$_outputExt_"/>
    <path d="M30,0 L30,20 L15,20 L0,10 L15,0 Z" class="cell_read_data"/>
    <g s:x="0" s:y="10" s:pid="A"/>
  </g>
  <g s:type="constant" transform="translate(97,22)" s:width="30" s:height="20" id="cell_0">
    <text x="15" y="-4" class="nodelabel cell_0" s:attribute="ref">0</text>
    <s:alias val="$_constant_"/>
    <rect width="30" height="20" class="cell_0"/>
    <g s:x="30" s:y="10" s:pid="Y"/>
  </g>
  <g s:type="constant" transform="translate(97,87)" s:width="30" s:height="20" id="cell_1">
    <text x="15" y="-4" class="nodelabel cell_1" s:attribute="ref">1</text>
    <s:alias val="$_constant_"/>
    <rect width="30" height="20" class="cell_1"/>
    <g s:x="30" s:y="10" s:pid="Y"/>
  </g>
  <g s:type="join" transform="translate(79,12)" s:width="4" s:height="40" id="cell_$join$,x,x,x,x,x,x,x,x,x,x,x,x,x,x,x,x,x,x,x,x,x,x,x,x,x,x,x,x,x,x,x,x,">
    <rect width="5" height="40" class="splitjoinBody" s:generic="body"/>
    <s:alias val="$_join_"/>
    <g s:x="5" s:y="20" s:pid="out"/>
    <g transform="translate(0,10)" s:x="0" s:y="10" s:pid="in0">
      <text x="-3" y="-4" class="inputPortLabel">0:10</text>
    </g>
  </g>
  <g s:type="join" transform="translate(263.03999999999996,321)" s:width="4" s:height="40" id="cell_$join$,80,80,80,80,80,80,80,80,80,80,80,80,80,80,80,80,80,80,80,80,80,80,80,80,80,80,80,80,80,80,80,80,">
    <rect width="5" height="640" class="splitjoinBody" s:generic="body"/>
    <s:alias val="$_join_"/>
    <g s:x="5" s:y="20" s:pid="out"/>
    <g transform="translate(0,10)" s:x="0" s:y="10" s:pid="in0">
      <text x="-3" y="-4" class="inputPortLabel">0</text>
    </g>
    <g transform="translate(0,30)" s:x="0" s:y="10" s:pid="in0">
      <text x="-3" y="-4" class="inputPortLabel">1</text>
    </g>
    <g transform="translate(0,50)" s:x="0" s:y="10" s:pid="in0">
      <text x="-3" y="-4" class="inputPortLabel">2</text>
    </g>
    <g transform="translate(0,70)" s:x="0" s:y="10" s:pid="in0">
      <text x="-3" y="-4" class="inputPortLabel">3</text>
    </g>
    <g transform="translate(0,90)" s:x="0" s:y="10" s:pid="in0">
      <text x="-3" y="-4" class="inputPortLabel">4</text>
    </g>
    <g transform="translate(0,110)" s:x="0" s:y="10" s:pid="in0">
      <text x="-3" y="-4" class="inputPortLabel">5</text>
    </g>
    <g transform="translate(0,130)" s:x="0" s:y="10" s:pid="in0">
      <text x="-3" y="-4" class="inputPortLabel">6</text>
    </g>
    <g transform="translate(0,150)" s:x="0" s:y="10" s:pid="in0">
      <text x="-3" y="-4" class="inputPortLabel">7</text>
    </g>
    <g transform="translate(0,170)" s:x="0" s:y="10" s:pid="in0">
      <text x="-3" y="-4" class="inputPortLabel">8</text>
    </g>
    <g transform="translate(0,190)" s:x="0" s:y="10" s:pid="in0">
      <text x="-3" y="-4" class="inputPortLabel">9</text>
    </g>
    <g transform="translate(0,210)" s:x="0" s:y="10" s:pid="in0">
      <text x="-3" y="-4" class="inputPortLabel">10</text>
    </g>
    <g transform="translate(0,230)" s:x="0" s:y="10" s:pid="in0">
      <text x="-3" y="-4" class="inputPortLabel">11</text>
    </g>
    <g transform="translate(0,250)" s:x="0" s:y="10" s:pid="in0">
      <text x="-3" y="-4" class="inputPortLabel">12</text>
    </g>
    <g transform="translate(0,270)" s:x="0" s:y="10" s:pid="in0">
      <text x="-3" y="-4" class="inputPortLabel">13</text>
    </g>
    <g transform="translate(0,290)" s:x="0" s:y="10" s:pid="in0">
      <text x="-3" y="-4" class="inputPortLabel">14</text>
    </g>
    <g transform="translate(0,310)" s:x="0" s:y="10" s:pid="in0">
      <text x="-3" y="-4" class="inputPortLabel">15</text>
    </g>
    <g transform="translate(0,330)" s:x="0" s:y="10" s:pid="in0">
      <text x="-3" y="-4" class="inputPortLabel">16</text>
    </g>
    <g transform="translate(0,350)" s:x="0" s:y="10" s:pid="in0">
      <text x="-3" y="-4" class="inputPortLabel">17</text>
    </g>
    <g transform="translate(0,370)" s:x="0" s:y="10" s:pid="in0">
      <text x="-3" y="-4" class="inputPortLabel">18</text>
    </g>
    <g transform="translate(0,390)" s:x="0" s:y="10" s:pid="in0">
      <text x="-3" y="-4" class="inputPortLabel">19</text>
    </g>
    <g transform="translate(0,410)" s:x="0" s:y="10" s:pid="in0">
      <text x="-3" y="-4" class="inputPortLabel">20</text>
    </g>
    <g transform="translate(0,430)" s:x="0" s:y="10" s:pid="in0">
      <text x="-3" y="-4" class="inputPortLabel">21</text>
    </g>
    <g transform="translate(0,450)" s:x="0" s:y="10" s:pid="in0">
      <text x="-3" y="-4" class="inputPortLabel">22</text>
    </g>
    <g transform="translate(0,470)" s:x="0" s:y="10" s:pid="in0">
      <text x="-3" y="-4" class="inputPortLabel">23</text>
    </g>
    <g transform="translate(0,490)" s:x="0" s:y="10" s:pid="in0">
      <text x="-3" y="-4" class="inputPortLabel">24</text>
    </g>
    <g transform="translate(0,510)" s:x="0" s:y="10" s:pid="in0">
      <text x="-3" y="-4" class="inputPortLabel">25</text>
    </g>
    <g transform="translate(0,530)" s:x="0" s:y="10" s:pid="in0">
      <text x="-3" y="-4" class="inputPortLabel">26</text>
    </g>
    <g transform="translate(0,550)" s:x="0" s:y="10" s:pid="in0">
      <text x="-3" y="-4" class="inputPortLabel">27</text>
    </g>
    <g transform="translate(0,570)" s:x="0" s:y="10" s:pid="in0">
      <text x="-3" y="-4" class="inputPortLabel">28</text>
    </g>
    <g transform="translate(0,590)" s:x="0" s:y="10" s:pid="in0">
      <text x="-3" y="-4" class="inputPortLabel">29</text>
    </g>
    <g transform="translate(0,610)" s:x="0" s:y="10" s:pid="in0">
      <text x="-3" y="-4" class="inputPortLabel">30</text>
    </g>
    <g transform="translate(0,630)" s:x="0" s:y="10" s:pid="in0">
      <text x="-3" y="-4" class="inputPortLabel">31</text>
    </g>
  </g>
  <line x1="127" x2="157" y1="32" y2="32" class="net_124"/>
  <line x1="157" x2="157" y1="32" y2="861.5" class="net_124"/>
  <line x1="157" x2="180.33333333333331" y1="861.5" y2="861.5" class="net_124"/>
  <line x1="127" x2="157" y1="32" y2="32" class="net_124"/>
  <line x1="157" x2="157" y1="32" y2="46" class="net_124"/>
  <line x1="157" x2="352" y1="46" y2="46" class="net_124"/>
  <line x1="352" x2="352" y1="46" y2="201.5" class="net_124"/>
  <circle cx="157" cy="46" r="2" style="fill:#000" class="net_124"/>
  <line x1="352" x2="415" y1="201.5" y2="201.5" class="net_124"/>
  <line x1="127" x2="157" y1="32" y2="32" class="net_124"/>
  <line x1="157" x2="157" y1="32" y2="148" class="net_124"/>
  <line x1="157" x2="322" y1="148" y2="148" class="net_124"/>
  <line x1="322" x2="322" y1="148" y2="261.5" class="net_124"/>
  <circle cx="157" cy="148" r="2" style="fill:#000" class="net_124"/>
  <line x1="322" x2="415" y1="261.5" y2="261.5" class="net_124"/>
  <line x1="127" x2="137" y1="97" y2="97" class="net_125"/>
  <line x1="137" x2="137" y1="97" y2="881.5" class="net_125"/>
  <circle cx="137" cy="97" r="2" style="fill:#000" class="net_125"/>
  <line x1="137" x2="180.33333333333331" y1="881.5" y2="881.5" class="net_125"/>
  <line x1="127" x2="342" y1="97" y2="97" class="net_125"/>
  <line x1="342" x2="342" y1="97" y2="241.5" class="net_125"/>
  <line x1="342" x2="415" y1="241.5" y2="241.5" class="net_125"/>
  <line x1="125" x2="147" y1="269" y2="269" class="net_3"/>
  <line x1="147" x2="147" y1="269" y2="901.5" class="net_3"/>
  <line x1="147" x2="190.33333333333331" y1="901.5" y2="901.5" class="net_3"/>
  <circle cx="147" cy="269" r="2" style="fill:#000" class="net_3"/>
  <line x1="190.33333333333331" x2="190.33333333333331" y1="901.5" y2="886.5" class="net_3"/>
  <line x1="125" x2="277" y1="269" y2="269" class="net_3"/>
  <line x1="277" x2="277" y1="269" y2="254" class="net_3"/>
  <line x1="125" x2="147" y1="269" y2="269" class="net_3"/>
  <line x1="147" x2="147" y1="269" y2="209" class="net_3"/>
  <line x1="147" x2="277" y1="209" y2="209" class="net_3"/>
  <line x1="277" x2="277" y1="209" y2="194" class="net_3"/>
  <line x1="195" x2="267" y1="249" y2="249" class="net_16,17,18,19,20,21,22,23,24,25,26,27,28,29,30,31,32,33,34,35,36,37,38,39,40,41,42,43,44,45,46,47"/>
  <line x1="195" x2="237" y1="77" y2="77" class="net_5,6,7,8,9,10,11,12,13,14,15"/>
  <line x1="237" x2="237" y1="77" y2="189" class="net_5,6,7,8,9,10,11,12,13,14,15"/>
  <circle cx="237" cy="77" r="2" style="fill:#000" class="net_5,6,7,8,9,10,11,12,13,14,15"/>
  <line x1="237" x2="267" y1="189" y2="189" class="net_5,6,7,8,9,10,11,12,13,14,15"/>
  <line x1="195" x2="237" y1="77" y2="77" class="net_5,6,7,8,9,10,11,12,13,14,15"/>
  <line x1="237" x2="237" y1="77" y2="35" class="net_5,6,7,8,9,10,11,12,13,14,15"/>
  <line x1="237" x2="362" y1="35" y2="35" class="net_5,6,7,8,9,10,11,12,13,14,15"/>
  <line x1="362" x2="362" y1="35" y2="181.5" class="net_5,6,7,8,9,10,11,12,13,14,15"/>
  <line x1="362" x2="415" y1="181.5" y2="181.5" class="net_5,6,7,8,9,10,11,12,13,14,15"/>
  <line x1="290" x2="332" y1="128" y2="128" class="net_2"/>
  <line x1="332" x2="332" y1="128" y2="221.5" class="net_2"/>
  <circle cx="332" cy="221.5" r="2" style="fill:#000" class="net_2"/>
  <line x1="332" x2="415" y1="221.5" y2="221.5" class="net_2"/>
  <line x1="290" x2="332" y1="128" y2="128" class="net_2"/>
  <line x1="332" x2="332" y1="128" y2="301.5" class="net_2"/>
  <line x1="332" x2="415" y1="301.5" y2="301.5" class="net_2"/>
  <line x1="287" x2="312" y1="179" y2="179" class="net_113,114,115,116,117,118,119,120,121,122,123"/>
  <line x1="312" x2="312" y1="179" y2="281.5" class="net_113,114,115,116,117,118,119,120,121,122,123"/>
  <line x1="312" x2="415" y1="281.5" y2="281.5" class="net_113,114,115,116,117,118,119,120,121,122,123"/>
  <line x1="287" x2="302" y1="239" y2="239" class="net_81,82,83,84,85,86,87,88,89,90,91,92,93,94,95,96,97,98,99,100,101,102,103,104,105,106,107,108,109,110,111,112"/>
  <line x1="302" x2="302" y1="239" y2="321.5" class="net_81,82,83,84,85,86,87,88,89,90,91,92,93,94,95,96,97,98,99,100,101,102,103,104,105,106,107,108,109,110,111,112"/>
  <line x1="302" x2="415" y1="321.5" y2="321.5" class="net_81,82,83,84,85,86,87,88,89,90,91,92,93,94,95,96,97,98,99,100,101,102,103,104,105,106,107,108,109,110,111,112"/>
  <line x1="269.03999999999996" x2="415" y1="341.5" y2="341.5" class="net_80,80,80,80,80,80,80,80,80,80,80,80,80,80,80,80,80,80,80,80,80,80,80,80,80,80,80,80,80,80,80,80"/>
  <line x1="446" x2="524" y1="181.5" y2="181.5" class="net_48,49,50,51,52,53,54,55,56,57,58,59,60,61,62,63,64,65,66,67,68,69,70,71,72,73,74,75,76,77,78,79"/>
  <line x1="200.33333333333331" x2="237" y1="871.5" y2="871.5" class="net_80"/>
  <line x1="237" x2="237" y1="871.5" y2="309" class="net_80"/>
  <line x1="237" x2="263.53999999999996" y1="309" y2="309" class="net_80"/>
  <circle cx="237" cy="871.5" r="2" style="fill:#000" class="net_80"/>
  <circle cx="237" cy="309" r="2" style="fill:#000" class="net_80"/>
  <line x1="263.53999999999996" x2="263.53999999999996" y1="309" y2="331" class="net_80"/>
  <line x1="200.33333333333331" x2="237" y1="871.5" y2="871.5" class="net_80"/>
  <line x1="237" x2="237" y1="871.5" y2="299" class="net_80"/>
  <line x1="237" x2="263.53999999999996" y1="299" y2="299" class="net_80"/>
  <circle cx="237" cy="299" r="2" style="fill:#000" class="net_80"/>
  <line x1="263.53999999999996" x2="263.53999999999996" y1="299" y2="351" class="net_80"/>
  <line x1="200.33333333333331" x2="237" y1="871.5" y2="871.5" class="net_80"/>
  <line x1="237" x2="237" y1="871.5" y2="289" class="net_80"/>
  <line x1="237" x2="263.53999999999996" y1="289" y2="289" class="net_80"/>
  <circle cx="237" cy="289" r="2" style="fill:#000" class="net_80"/>
  <line x1="263.53999999999996" x2="263.53999999999996" y1="289" y2="371" class="net_80"/>
  <line x1="200.33333333333331" x2="237" y1="871.5" y2="871.5" class="net_80"/>
  <line x1="237" x2="237" y1="871.5" y2="279" class="net_80"/>
  <line x1="237" x2="263.53999999999996" y1="279" y2="279" class="net_80"/>
  <line x1="263.53999999999996" x2="263.53999999999996" y1="279" y2="391" class="net_80"/>
  <line x1="200.33333333333331" x2="237" y1="871.5" y2="871.5" class="net_80"/>
  <line x1="237" x2="237" y1="871.5" y2="411.5" class="net_80"/>
  <circle cx="237" cy="411.5" r="2" style="fill:#000" class="net_80"/>
  <line x1="237" x2="263.03999999999996" y1="411.5" y2="411.5" class="net_80"/>
  <line x1="200.33333333333331" x2="237" y1="871.5" y2="871.5" class="net_80"/>
  <line x1="237" x2="237" y1="871.5" y2="431.5" class="net_80"/>
  <circle cx="237" cy="431.5" r="2" style="fill:#000" class="net_80"/>
  <line x1="237" x2="263.03999999999996" y1="431.5" y2="431.5" class="net_80"/>
  <line x1="200.33333333333331" x2="237" y1="871.5" y2="871.5" class="net_80"/>
  <line x1="237" x2="237" y1="871.5" y2="451.5" class="net_80"/>
  <circle cx="237" cy="451.5" r="2" style="fill:#000" class="net_80"/>
  <line x1="237" x2="263.03999999999996" y1="451.5" y2="451.5" class="net_80"/>
  <line x1="200.33333333333331" x2="237" y1="871.5" y2="871.5" class="net_80"/>
  <line x1="237" x2="237" y1="871.5" y2="471.5" class="net_80"/>
  <circle cx="237" cy="471.5" r="2" style="fill:#000" class="net_80"/>
  <line x1="237" x2="263.03999999999996" y1="471.5" y2="471.5" class="net_80"/>
  <line x1="200.33333333333331" x2="237" y1="871.5" y2="871.5" class="net_80"/>
  <line x1="237" x2="237" y1="871.5" y2="491.5" class="net_80"/>
  <circle cx="237" cy="491.5" r="2" style="fill:#000" class="net_80"/>
  <line x1="237" x2="263.03999999999996" y1="491.5" y2="491.5" class="net_80"/>
  <line x1="200.33333333333331" x2="237" y1="871.5" y2="871.5" class="net_80"/>
  <line x1="237" x2="237" y1="871.5" y2="511.5" class="net_80"/>
  <circle cx="237" cy="511.5" r="2" style="fill:#000" class="net_80"/>
  <line x1="237" x2="263.03999999999996" y1="511.5" y2="511.5" class="net_80"/>
  <line x1="200.33333333333331" x2="237" y1="871.5" y2="871.5" class="net_80"/>
  <line x1="237" x2="237" y1="871.5" y2="531.5" class="net_80"/>
  <circle cx="237" cy="531.5" r="2" style="fill:#000" class="net_80"/>
  <line x1="237" x2="263.03999999999996" y1="531.5" y2="531.5" class="net_80"/>
  <line x1="200.33333333333331" x2="237" y1="871.5" y2="871.5" class="net_80"/>
  <line x1="237" x2="237" y1="871.5" y2="551.5" class="net_80"/>
  <circle cx="237" cy="551.5" r="2" style="fill:#000" class="net_80"/>
  <line x1="237" x2="263.03999999999996" y1="551.5" y2="551.5" class="net_80"/>
  <line x1="200.33333333333331" x2="237" y1="871.5" y2="871.5" class="net_80"/>
  <line x1="237" x2="237" y1="871.5" y2="571.5" class="net_80"/>
  <circle cx="237" cy="571.5" r="2" style="fill:#000" class="net_80"/>
  <line x1="237" x2="263.03999999999996" y1="571.5" y2="571.5" class="net_80"/>
  <line x1="200.33333333333331" x2="237" y1="871.5" y2="871.5" class="net_80"/>
  <line x1="237" x2="237" y1="871.5" y2="591.5" class="net_80"/>
  <circle cx="237" cy="591.5" r="2" style="fill:#000" class="net_80"/>
  <line x1="237" x2="263.03999999999996" y1="591.5" y2="591.5" class="net_80"/>
  <line x1="200.33333333333331" x2="237" y1="871.5" y2="871.5" class="net_80"/>
  <line x1="237" x2="237" y1="871.5" y2="611.5" class="net_80"/>
  <circle cx="237" cy="611.5" r="2" style="fill:#000" class="net_80"/>
  <line x1="237" x2="263.03999999999996" y1="611.5" y2="611.5" class="net_80"/>
  <line x1="200.33333333333331" x2="237" y1="871.5" y2="871.5" class="net_80"/>
  <line x1="237" x2="237" y1="871.5" y2="631.5" class="net_80"/>
  <circle cx="237" cy="631.5" r="2" style="fill:#000" class="net_80"/>
  <line x1="237" x2="263.03999999999996" y1="631.5" y2="631.5" class="net_80"/>
  <line x1="200.33333333333331" x2="237" y1="871.5" y2="871.5" class="net_80"/>
  <line x1="237" x2="237" y1="871.5" y2="651.5" class="net_80"/>
  <circle cx="237" cy="651.5" r="2" style="fill:#000" class="net_80"/>
  <line x1="237" x2="263.03999999999996" y1="651.5" y2="651.5" class="net_80"/>
  <line x1="200.33333333333331" x2="237" y1="871.5" y2="871.5" class="net_80"/>
  <line x1="237" x2="237" y1="871.5" y2="671.5" class="net_80"/>
  <circle cx="237" cy="671.5" r="2" style="fill:#000" class="net_80"/>
  <line x1="237" x2="263.03999999999996" y1="671.5" y2="671.5" class="net_80"/>
  <line x1="200.33333333333331" x2="237" y1="871.5" y2="871.5" class="net_80"/>
  <line x1="237" x2="237" y1="871.5" y2="691.5" class="net_80"/>
  <circle cx="237" cy="691.5" r="2" style="fill:#000" class="net_80"/>
  <line x1="237" x2="263.03999999999996" y1="691.5" y2="691.5" class="net_80"/>
  <line x1="200.33333333333331" x2="237" y1="871.5" y2="871.5" class="net_80"/>
  <line x1="237" x2="237" y1="871.5" y2="711.5" class="net_80"/>
  <circle cx="237" cy="711.5" r="2" style="fill:#000" class="net_80"/>
  <line x1="237" x2="263.03999999999996" y1="711.5" y2="711.5" class="net_80"/>
  <line x1="200.33333333333331" x2="237" y1="871.5" y2="871.5" class="net_80"/>
  <line x1="237" x2="237" y1="871.5" y2="731.5" class="net_80"/>
  <circle cx="237" cy="731.5" r="2" style="fill:#000" class="net_80"/>
  <line x1="237" x2="263.03999999999996" y1="731.5" y2="731.5" class="net_80"/>
  <line x1="200.33333333333331" x2="237" y1="871.5" y2="871.5" class="net_80"/>
  <line x1="237" x2="237" y1="871.5" y2="751.5" class="net_80"/>
  <circle cx="237" cy="751.5" r="2" style="fill:#000" class="net_80"/>
  <line x1="237" x2="263.03999999999996" y1="751.5" y2="751.5" class="net_80"/>
  <line x1="200.33333333333331" x2="237" y1="871.5" y2="871.5" class="net_80"/>
  <line x1="237" x2="237" y1="871.5" y2="771.5" class="net_80"/>
  <circle cx="237" cy="771.5" r="2" style="fill:#000" class="net_80"/>
  <line x1="237" x2="263.03999999999996" y1="771.5" y2="771.5" class="net_80"/>
  <line x1="200.33333333333331" x2="237" y1="871.5" y2="871.5" class="net_80"/>
  <line x1="237" x2="237" y1="871.5" y2="791.5" class="net_80"/>
  <circle cx="237" cy="791.5" r="2" style="fill:#000" class="net_80"/>
  <line x1="237" x2="263.03999999999996" y1="791.5" y2="791.5" class="net_80"/>
  <line x1="200.33333333333331" x2="237" y1="871.5" y2="871.5" class="net_80"/>
  <line x1="237" x2="237" y1="871.5" y2="811.5" class="net_80"/>
  <circle cx="237" cy="811.5" r="2" style="fill:#000" class="net_80"/>
  <line x1="237" x2="263.03999999999996" y1="811.5" y2="811.5" class="net_80"/>
  <line x1="200.33333333333331" x2="237" y1="871.5" y2="871.5" class="net_80"/>
  <line x1="237" x2="237" y1="871.5" y2="831.5" class="net_80"/>
  <circle cx="237" cy="831.5" r="2" style="fill:#000" class="net_80"/>
  <line x1="237" x2="263.03999999999996" y1="831.5" y2="831.5" class="net_80"/>
  <line x1="200.33333333333331" x2="237" y1="871.5" y2="871.5" class="net_80"/>
  <line x1="237" x2="237" y1="871.5" y2="851.5" class="net_80"/>
  <circle cx="237" cy="851.5" r="2" style="fill:#000" class="net_80"/>
  <line x1="237" x2="263.03999999999996" y1="851.5" y2="851.5" class="net_80"/>
  <line x1="200.33333333333331" x2="263.03999999999996" y1="871.5" y2="871.5" class="net_80"/>
  <line x1="200.33333333333331" x2="237" y1="871.5" y2="871.5" class="net_80"/>
  <line x1="237" x2="237" y1="871.5" y2="1001" class="net_80"/>
  <line x1="237" x2="263.53999999999996" y1="1001" y2="1001" class="net_80"/>
  <line x1="263.53999999999996" x2="263.53999999999996" y1="1001" y2="892" class="net_80"/>
  <line x1="200.33333333333331" x2="237" y1="871.5" y2="871.5" class="net_80"/>
  <line x1="237" x2="237" y1="871.5" y2="991" class="net_80"/>
  <line x1="237" x2="263.53999999999996" y1="991" y2="991" class="net_80"/>
  <circle cx="237" cy="991" r="2" style="fill:#000" class="net_80"/>
  <line x1="263.53999999999996" x2="263.53999999999996" y1="991" y2="912" class="net_80"/>
  <line x1="200.33333333333331" x2="237" y1="871.5" y2="871.5" class="net_80"/>
  <line x1="237" x2="237" y1="871.5" y2="981" class="net_80"/>
  <line x1="237" x2="263.53999999999996" y1="981" y2="981" class="net_80"/>
  <circle cx="237" cy="981" r="2" style="fill:#000" class="net_80"/>
  <line x1="263.53999999999996" x2="263.53999999999996" y1="981" y2="932" class="net_80"/>
  <line x1="200.33333333333331" x2="237" y1="871.5" y2="871.5" class="net_80"/>
  <line x1="237" x2="237" y1="871.5" y2="971" class="net_80"/>
  <line x1="237" x2="263.53999999999996" y1="971" y2="971" class="net_80"/>
  <circle cx="237" cy="971" r="2" style="fill:#000" class="net_80"/>
  <line x1="263.53999999999996" x2="263.53999999999996" y1="971" y2="952" class="net_80"/>
</svg>
