<svg xmlns="http://www.w3.org/2000/svg" xmlns:xlink="http://www.w3.org/1999/xlink" xmlns:s="https://github.com/nturley/netlistsvg" width="674" height="798.5">
  <style>svg {
    stroke:#000;
    fill:none;
  }
  text {
    fill:#000;
    stroke:none;
    font-size:10px;
    font-weight: bold;
    font-family: "Courier New", monospace;
  }
  .nodelabel {
    text-anchor: middle;
  }
  .inputPortLabel {
    text-anchor: end;
  }
  .splitjoinBody {
    fill:#000;
  }</style>
  <g s:type="eq" transform="translate(143.66666666666666,756.5)" s:width="25" s:height="25" id="cell_$eq$src/leaf/decoder.v:23$72">
    <s:alias val="$eq"/>
    <circle r="12.5" cx="12.5" cy="12.5" class="cell_$eq$src/leaf/decoder.v:23$72"/>
    <line x1="7.5" x2="17.5" y1="10" y2="10" class="cell_$eq$src/leaf/decoder.v:23$72"/>
    <line x1="7.5" x2="17.5" y1="15" y2="15" class="cell_$eq$src/leaf/decoder.v:23$72"/>
    <g s:x="3" s:y="5" s:pid="A"/>
    <g s:x="3" s:y="20" s:pid="B"/>
    <g s:x="25" s:y="12.5" s:pid="Y"/>
  </g>
  <g s:type="eq" transform="translate(143.66666666666666,626.5)" s:width="25" s:height="25" id="cell_$eq$src/leaf/decoder.v:24$73">
    <s:alias val="$eq"/>
    <circle r="12.5" cx="12.5" cy="12.5" class="cell_$eq$src/leaf/decoder.v:24$73"/>
    <line x1="7.5" x2="17.5" y1="10" y2="10" class="cell_$eq$src/leaf/decoder.v:24$73"/>
    <line x1="7.5" x2="17.5" y1="15" y2="15" class="cell_$eq$src/leaf/decoder.v:24$73"/>
    <g s:x="3" s:y="5" s:pid="A"/>
    <g s:x="3" s:y="20" s:pid="B"/>
    <g s:x="25" s:y="12.5" s:pid="Y"/>
  </g>
  <g s:type="eq" transform="translate(538.6666666666666,19.5)" s:width="25" s:height="25" id="cell_$eq$src/leaf/decoder.v:25$74">
    <s:alias val="$eq"/>
    <circle r="12.5" cx="12.5" cy="12.5" class="cell_$eq$src/leaf/decoder.v:25$74"/>
    <line x1="7.5" x2="17.5" y1="10" y2="10" class="cell_$eq$src/leaf/decoder.v:25$74"/>
    <line x1="7.5" x2="17.5" y1="15" y2="15" class="cell_$eq$src/leaf/decoder.v:25$74"/>
    <g s:x="3" s:y="5" s:pid="A"/>
    <g s:x="3" s:y="20" s:pid="B"/>
    <g s:x="25" s:y="12.5" s:pid="Y"/>
  </g>
  <g s:type="eq" transform="translate(408.6666666666667,526.5)" s:width="25" s:height="25" id="cell_$eq$src/leaf/decoder.v:26$75">
    <s:alias val="$eq"/>
    <circle r="12.5" cx="12.5" cy="12.5" class="cell_$eq$src/leaf/decoder.v:26$75"/>
    <line x1="7.5" x2="17.5" y1="10" y2="10" class="cell_$eq$src/leaf/decoder.v:26$75"/>
    <line x1="7.5" x2="17.5" y1="15" y2="15" class="cell_$eq$src/leaf/decoder.v:26$75"/>
    <g s:x="3" s:y="5" s:pid="A"/>
    <g s:x="3" s:y="20" s:pid="B"/>
    <g s:x="25" s:y="12.5" s:pid="Y"/>
  </g>
  <g s:type="not" transform="translate(407,701.5)" s:width="30" s:height="20" id="cell_$eq$src/leaf/decoder.v:26$76">
    <s:alias val="$_NOT_"/>
    <s:alias val="$not"/>
    <s:alias val="$logic_not"/>
    <path d="M0,0 L0,20 L20,10 Z" class="cell_$eq$src/leaf/decoder.v:26$76"/>
    <circle cx="23" cy="10" r="3" class="cell_$eq$src/leaf/decoder.v:26$76"/>
    <g s:x="0" s:y="10" s:pid="A"/>
    <g s:x="25" s:y="10" s:pid="Y"/>
  </g>
  <g s:type="eq" transform="translate(408.6666666666667,369)" s:width="25" s:height="25" id="cell_$eq$src/leaf/decoder.v:27$78">
    <s:alias val="$eq"/>
    <circle r="12.5" cx="12.5" cy="12.5" class="cell_$eq$src/leaf/decoder.v:27$78"/>
    <line x1="7.5" x2="17.5" y1="10" y2="10" class="cell_$eq$src/leaf/decoder.v:27$78"/>
    <line x1="7.5" x2="17.5" y1="15" y2="15" class="cell_$eq$src/leaf/decoder.v:27$78"/>
    <g s:x="3" s:y="5" s:pid="A"/>
    <g s:x="3" s:y="20" s:pid="B"/>
    <g s:x="25" s:y="12.5" s:pid="Y"/>
  </g>
  <g s:type="eq" transform="translate(343.6666666666667,496.5)" s:width="25" s:height="25" id="cell_$eq$src/leaf/decoder.v:28$79">
    <s:alias val="$eq"/>
    <circle r="12.5" cx="12.5" cy="12.5" class="cell_$eq$src/leaf/decoder.v:28$79"/>
    <line x1="7.5" x2="17.5" y1="10" y2="10" class="cell_$eq$src/leaf/decoder.v:28$79"/>
    <line x1="7.5" x2="17.5" y1="15" y2="15" class="cell_$eq$src/leaf/decoder.v:28$79"/>
    <g s:x="3" s:y="5" s:pid="A"/>
    <g s:x="3" s:y="20" s:pid="B"/>
    <g s:x="25" s:y="12.5" s:pid="Y"/>
  </g>
  <g s:type="eq" transform="translate(273.6666666666667,304)" s:width="25" s:height="25" id="cell_$eq$src/leaf/decoder.v:29$80">
    <s:alias val="$eq"/>
    <circle r="12.5" cx="12.5" cy="12.5" class="cell_$eq$src/leaf/decoder.v:29$80"/>
    <line x1="7.5" x2="17.5" y1="10" y2="10" class="cell_$eq$src/leaf/decoder.v:29$80"/>
    <line x1="7.5" x2="17.5" y1="15" y2="15" class="cell_$eq$src/leaf/decoder.v:29$80"/>
    <g s:x="3" s:y="5" s:pid="A"/>
    <g s:x="3" s:y="20" s:pid="B"/>
    <g s:x="25" s:y="12.5" s:pid="Y"/>
  </g>
  <g s:type="eq" transform="translate(208.66666666666666,174)" s:width="25" s:height="25" id="cell_$eq$src/leaf/decoder.v:30$81">
    <s:alias val="$eq"/>
    <circle r="12.5" cx="12.5" cy="12.5" class="cell_$eq$src/leaf/decoder.v:30$81"/>
    <line x1="7.5" x2="17.5" y1="10" y2="10" class="cell_$eq$src/leaf/decoder.v:30$81"/>
    <line x1="7.5" x2="17.5" y1="15" y2="15" class="cell_$eq$src/leaf/decoder.v:30$81"/>
    <g s:x="3" s:y="5" s:pid="A"/>
    <g s:x="3" s:y="20" s:pid="B"/>
    <g s:x="25" s:y="12.5" s:pid="Y"/>
  </g>
  <g s:type="eq" transform="translate(538.6666666666666,84.5)" s:width="25" s:height="25" id="cell_$eq$src/leaf/decoder.v:31$82">
    <s:alias val="$eq"/>
    <circle r="12.5" cx="12.5" cy="12.5" class="cell_$eq$src/leaf/decoder.v:31$82"/>
    <line x1="7.5" x2="17.5" y1="10" y2="10" class="cell_$eq$src/leaf/decoder.v:31$82"/>
    <line x1="7.5" x2="17.5" y1="15" y2="15" class="cell_$eq$src/leaf/decoder.v:31$82"/>
    <g s:x="3" s:y="5" s:pid="A"/>
    <g s:x="3" s:y="20" s:pid="B"/>
    <g s:x="25" s:y="12.5" s:pid="Y"/>
  </g>
  <g s:type="eq" transform="translate(538.6666666666666,239)" s:width="25" s:height="25" id="cell_$eq$src/leaf/decoder.v:32$83">
    <s:alias val="$eq"/>
    <circle r="12.5" cx="12.5" cy="12.5" class="cell_$eq$src/leaf/decoder.v:32$83"/>
    <line x1="7.5" x2="17.5" y1="10" y2="10" class="cell_$eq$src/leaf/decoder.v:32$83"/>
    <line x1="7.5" x2="17.5" y1="15" y2="15" class="cell_$eq$src/leaf/decoder.v:32$83"/>
    <g s:x="3" s:y="5" s:pid="A"/>
    <g s:x="3" s:y="20" s:pid="B"/>
    <g s:x="25" s:y="12.5" s:pid="Y"/>
  </g>
  <g s:type="and" transform="translate(472,691.5)" s:width="30" s:height="25" id="cell_$logic_and$src/leaf/decoder.v:26$77">
    <s:alias val="$and"/>
    <s:alias val="$logic_and"/>
    <s:alias val="$_AND_"/>
    <path d="M0,0 L0,25 L15,25 A15 12.5 0 0 0 15,0 Z" class="cell_$logic_and$src/leaf/decoder.v:26$77"/>
    <g s:x="0" s:y="5" s:pid="A"/>
    <g s:x="0" s:y="20" s:pid="B"/>
    <g s:x="30" s:y="12.5" s:pid="Y"/>
  </g>
  <g s:type="or" transform="translate(207,650)" s:width="30" s:height="25" id="cell_$logic_or$src/leaf/decoder.v:34$84">
    <s:alias val="$or"/>
    <s:alias val="$logic_or"/>
    <s:alias val="$_OR_"/>
    <path d="M0,25 L0,25 L15,25 A15 12.5 0 0 0 15,0 L0,0" class="cell_$logic_or$src/leaf/decoder.v:34$84"/>
    <path d="M0,0 A30 25 0 0 1 0,25" class="cell_$logic_or$src/leaf/decoder.v:34$84"/>
    <g s:x="3" s:y="5" s:pid="A"/>
    <g s:x="3" s:y="20" s:pid="B"/>
    <g s:x="30" s:y="12.5" s:pid="Y"/>
  </g>
  <g s:type="or" transform="translate(272,429)" s:width="30" s:height="25" id="cell_$logic_or$src/leaf/decoder.v:34$85">
    <s:alias val="$or"/>
    <s:alias val="$logic_or"/>
    <s:alias val="$_OR_"/>
    <path d="M0,25 L0,25 L15,25 A15 12.5 0 0 0 15,0 L0,0" class="cell_$logic_or$src/leaf/decoder.v:34$85"/>
    <path d="M0,0 A30 25 0 0 1 0,25" class="cell_$logic_or$src/leaf/decoder.v:34$85"/>
    <g s:x="3" s:y="5" s:pid="A"/>
    <g s:x="3" s:y="20" s:pid="B"/>
    <g s:x="30" s:y="12.5" s:pid="Y"/>
  </g>
  <g s:type="or" transform="translate(342,436.5)" s:width="30" s:height="25" id="cell_$logic_or$src/leaf/decoder.v:34$86">
    <s:alias val="$or"/>
    <s:alias val="$logic_or"/>
    <s:alias val="$_OR_"/>
    <path d="M0,25 L0,25 L15,25 A15 12.5 0 0 0 15,0 L0,0" class="cell_$logic_or$src/leaf/decoder.v:34$86"/>
    <path d="M0,0 A30 25 0 0 1 0,25" class="cell_$logic_or$src/leaf/decoder.v:34$86"/>
    <g s:x="3" s:y="5" s:pid="A"/>
    <g s:x="3" s:y="20" s:pid="B"/>
    <g s:x="30" s:y="12.5" s:pid="Y"/>
  </g>
  <g s:type="or" transform="translate(407,444)" s:width="30" s:height="25" id="cell_$logic_or$src/leaf/decoder.v:34$87">
    <s:alias val="$or"/>
    <s:alias val="$logic_or"/>
    <s:alias val="$_OR_"/>
    <path d="M0,25 L0,25 L15,25 A15 12.5 0 0 0 15,0 L0,0" class="cell_$logic_or$src/leaf/decoder.v:34$87"/>
    <path d="M0,0 A30 25 0 0 1 0,25" class="cell_$logic_or$src/leaf/decoder.v:34$87"/>
    <g s:x="3" s:y="5" s:pid="A"/>
    <g s:x="3" s:y="20" s:pid="B"/>
    <g s:x="30" s:y="12.5" s:pid="Y"/>
  </g>
  <g s:type="or" transform="translate(472,451.5)" s:width="30" s:height="25" id="cell_$logic_or$src/leaf/decoder.v:34$88">
    <s:alias val="$or"/>
    <s:alias val="$logic_or"/>
    <s:alias val="$_OR_"/>
    <path d="M0,25 L0,25 L15,25 A15 12.5 0 0 0 15,0 L0,0" class="cell_$logic_or$src/leaf/decoder.v:34$88"/>
    <path d="M0,0 A30 25 0 0 1 0,25" class="cell_$logic_or$src/leaf/decoder.v:34$88"/>
    <g s:x="3" s:y="5" s:pid="A"/>
    <g s:x="3" s:y="20" s:pid="B"/>
    <g s:x="30" s:y="12.5" s:pid="Y"/>
  </g>
  <g s:type="or" transform="translate(537,561.5)" s:width="30" s:height="25" id="cell_$logic_or$src/leaf/decoder.v:34$89">
    <s:alias val="$or"/>
    <s:alias val="$logic_or"/>
    <s:alias val="$_OR_"/>
    <path d="M0,25 L0,25 L15,25 A15 12.5 0 0 0 15,0 L0,0" class="cell_$logic_or$src/leaf/decoder.v:34$89"/>
    <path d="M0,0 A30 25 0 0 1 0,25" class="cell_$logic_or$src/leaf/decoder.v:34$89"/>
    <g s:x="3" s:y="5" s:pid="A"/>
    <g s:x="3" s:y="20" s:pid="B"/>
    <g s:x="30" s:y="12.5" s:pid="Y"/>
  </g>
  <g s:type="inputExt" transform="translate(12,24.5)" s:width="30" s:height="20" id="cell_instr">
    <text x="15" y="-4" class="nodelabel cell_instr" s:attribute="ref">instr</text>
    <s:alias val="$_inputExt_"/>
    <path d="M0,0 L0,20 L15,20 L30,10 L15,0 Z" class="cell_instr"/>
    <g s:x="28" s:y="10" s:pid="Y"/>
  </g>
  <g s:type="outputExt" transform="translate(602,759)" s:width="30" s:height="20" id="cell_is_alu_reg">
    <text x="15" y="-4" class="nodelabel cell_is_alu_reg" s:attribute="ref">is_alu_reg</text>
    <s:alias val="$_outputExt_"/>
    <path d="M30,0 L30,20 L15,20 L0,10 L15,0 Z" class="cell_is_alu_reg"/>
    <g s:x="0" s:y="10" s:pid="A"/>
  </g>
  <g s:type="outputExt" transform="translate(602,564)" s:width="30" s:height="20" id="cell_reg_write">
    <text x="15" y="-4" class="nodelabel cell_reg_write" s:attribute="ref">reg_write</text>
    <s:alias val="$_outputExt_"/>
    <path d="M30,0 L30,20 L15,20 L0,10 L15,0 Z" class="cell_reg_write"/>
    <g s:x="0" s:y="10" s:pid="A"/>
  </g>
  <g s:type="outputExt" transform="translate(602,371.5)" s:width="30" s:height="20" id="cell_is_jal">
    <text x="15" y="-4" class="nodelabel cell_is_jal" s:attribute="ref">is_jal</text>
    <s:alias val="$_outputExt_"/>
    <path d="M30,0 L30,20 L15,20 L0,10 L15,0 Z" class="cell_is_jal"/>
    <g s:x="0" s:y="10" s:pid="A"/>
  </g>
  <g s:type="outputExt" transform="translate(602,694)" s:width="30" s:height="20" id="cell_is_jalr">
    <text x="15" y="-4" class="nodelabel cell_is_jalr" s:attribute="ref">is_jalr</text>
    <s:alias val="$_outputExt_"/>
    <path d="M30,0 L30,20 L15,20 L0,10 L15,0 Z" class="cell_is_jalr"/>
    <g s:x="0" s:y="10" s:pid="A"/>
  </g>
  <g s:type="outputExt" transform="translate(602,22)" s:width="30" s:height="20" id="cell_is_branch">
    <text x="15" y="-4" class="nodelabel cell_is_branch" s:attribute="ref">is_branch</text>
    <s:alias val="$_outputExt_"/>
    <path d="M30,0 L30,20 L15,20 L0,10 L15,0 Z" class="cell_is_branch"/>
    <g s:x="0" s:y="10" s:pid="A"/>
  </g>
  <g s:type="outputExt" transform="translate(602,306.5)" s:width="30" s:height="20" id="cell_is_lui">
    <text x="15" y="-4" class="nodelabel cell_is_lui" s:attribute="ref">is_lui</text>
    <s:alias val="$_outputExt_"/>
    <path d="M30,0 L30,20 L15,20 L0,10 L15,0 Z" class="cell_is_lui"/>
    <g s:x="0" s:y="10" s:pid="A"/>
  </g>
  <g s:type="outputExt" transform="translate(602,499)" s:width="30" s:height="20" id="cell_is_auipc">
    <text x="15" y="-4" class="nodelabel cell_is_auipc" s:attribute="ref">is_auipc</text>
    <s:alias val="$_outputExt_"/>
    <path d="M30,0 L30,20 L15,20 L0,10 L15,0 Z" class="cell_is_auipc"/>
    <g s:x="0" s:y="10" s:pid="A"/>
  </g>
  <g s:type="outputExt" transform="translate(602,629)" s:width="30" s:height="20" id="cell_is_alu_imm">
    <text x="15" y="-4" class="nodelabel cell_is_alu_imm" s:attribute="ref">is_alu_imm</text>
    <s:alias val="$_outputExt_"/>
    <path d="M30,0 L30,20 L15,20 L0,10 L15,0 Z" class="cell_is_alu_imm"/>
    <g s:x="0" s:y="10" s:pid="A"/>
  </g>
  <g s:type="outputExt" transform="translate(602,176.5)" s:width="30" s:height="20" id="cell_is_load">
    <text x="15" y="-4" class="nodelabel cell_is_load" s:attribute="ref">is_load</text>
    <s:alias val="$_outputExt_"/>
    <path d="M30,0 L30,20 L15,20 L0,10 L15,0 Z" class="cell_is_load"/>
    <g s:x="0" s:y="10" s:pid="A"/>
  </g>
  <g s:type="outputExt" transform="translate(602,87)" s:width="30" s:height="20" id="cell_is_store">
    <text x="15" y="-4" class="nodelabel cell_is_store" s:attribute="ref">is_store</text>
    <s:alias val="$_outputExt_"/>
    <path d="M30,0 L30,20 L15,20 L0,10 L15,0 Z" class="cell_is_store"/>
    <g s:x="0" s:y="10" s:pid="A"/>
  </g>
  <g s:type="outputExt" transform="translate(602,241.5)" s:width="30" s:height="20" id="cell_is_system">
    <text x="15" y="-4" class="nodelabel cell_is_system" s:attribute="ref">is_system</text>
    <s:alias val="$_outputExt_"/>
    <path d="M30,0 L30,20 L15,20 L0,10 L15,0 Z" class="cell_is_system"/>
    <g s:x="0" s:y="10" s:pid="A"/>
  </g>
  <g s:type="constant" transform="translate(77,766.5)" s:width="30" s:height="20" id="cell_0110011">
    <text x="15" y="-4" class="nodelabel cell_0110011" s:attribute="ref">0x33</text>
    <s:alias val="$_constant_"/>
    <rect width="30" height="20" class="cell_0110011"/>
    <g s:x="30" s:y="10" s:pid="Y"/>
  </g>
  <g s:type="constant" transform="translate(77,636.5)" s:width="30" s:height="20" id="cell_0010011">
    <text x="15" y="-4" class="nodelabel cell_0010011" s:attribute="ref">0x13</text>
    <s:alias val="$_constant_"/>
    <rect width="30" height="20" class="cell_0010011"/>
    <g s:x="30" s:y="10" s:pid="Y"/>
  </g>
  <g s:type="constant" transform="translate(472,145.5)" s:width="30" s:height="20" id="cell_1100011">
    <text x="15" y="-4" class="nodelabel cell_1100011" s:attribute="ref">0x63</text>
    <s:alias val="$_constant_"/>
    <rect width="30" height="20" class="cell_1100011"/>
    <g s:x="30" s:y="10" s:pid="Y"/>
  </g>
  <g s:type="constant" transform="translate(342,552.5)" s:width="30" s:height="20" id="cell_1100111">
    <text x="15" y="-4" class="nodelabel cell_1100111" s:attribute="ref">0x67</text>
    <s:alias val="$_constant_"/>
    <rect width="30" height="20" class="cell_1100111"/>
    <g s:x="30" s:y="10" s:pid="Y"/>
  </g>
  <g s:type="constant" transform="translate(342,379)" s:width="30" s:height="20" id="cell_1101111">
    <text x="15" y="-4" class="nodelabel cell_1101111" s:attribute="ref">0x6f</text>
    <s:alias val="$_constant_"/>
    <rect width="30" height="20" class="cell_1101111"/>
    <g s:x="30" s:y="10" s:pid="Y"/>
  </g>
  <g s:type="constant" transform="translate(272,374)" s:width="30" s:height="20" id="cell_0010111">
    <text x="15" y="-4" class="nodelabel cell_0010111" s:attribute="ref">0x17</text>
    <s:alias val="$_constant_"/>
    <rect width="30" height="20" class="cell_0010111"/>
    <g s:x="30" s:y="10" s:pid="Y"/>
  </g>
  <g s:type="constant" transform="translate(207,314)" s:width="30" s:height="20" id="cell_0110111">
    <text x="15" y="-4" class="nodelabel cell_0110111" s:attribute="ref">0x37</text>
    <s:alias val="$_constant_"/>
    <rect width="30" height="20" class="cell_0110111"/>
    <g s:x="30" s:y="10" s:pid="Y"/>
  </g>
  <g s:type="constant" transform="translate(142,45.5)" s:width="30" s:height="20" id="cell_0000011">
    <text x="15" y="-4" class="nodelabel cell_0000011" s:attribute="ref">0x3</text>
    <s:alias val="$_constant_"/>
    <rect width="30" height="20" class="cell_0000011"/>
    <g s:x="30" s:y="10" s:pid="Y"/>
  </g>
  <g s:type="constant" transform="translate(472,94.5)" s:width="30" s:height="20" id="cell_0100011">
    <text x="15" y="-4" class="nodelabel cell_0100011" s:attribute="ref">0x23</text>
    <s:alias val="$_constant_"/>
    <rect width="30" height="20" class="cell_0100011"/>
    <g s:x="30" s:y="10" s:pid="Y"/>
  </g>
  <g s:type="constant" transform="translate(472,249)" s:width="30" s:height="20" id="cell_1110011">
    <text x="15" y="-4" class="nodelabel cell_1110011" s:attribute="ref">0x73</text>
    <s:alias val="$_constant_"/>
    <rect width="30" height="20" class="cell_1110011"/>
    <g s:x="30" s:y="10" s:pid="Y"/>
  </g>
  <g s:type="split" transform="translate(83,14)" s:width="5" s:height="40" id="cell_$split$,2,3,4,5,6,7,8,9,10,11,12,13,14,15,16,17,18,19,20,21,22,23,24,25,26,27,28,29,30,31,32,33,">
    <rect width="5" height="40" class="splitjoinBody" s:generic="body"/>
    <s:alias val="$_split_"/>
    <g s:x="0" s:y="20" s:pid="in"/>
    <g transform="translate(4,10)" s:x="4" s:y="10" s:pid="out0">
      <text x="5" y="-4">0:6</text>
    </g>
    <g transform="translate(4,30)" s:x="4" s:y="10" s:pid="out0">
      <text x="5" y="-4">12:14</text>
    </g>
  </g>
  <line x1="88" x2="127" y1="24.5" y2="24.5" class="net_2,3,4,5,6,7,8"/>
  <line x1="127" x2="127" y1="24.5" y2="761.5" class="net_2,3,4,5,6,7,8"/>
  <circle cx="127" cy="24.5" r="2" style="fill:#000" class="net_2,3,4,5,6,7,8"/>
  <line x1="127" x2="146.66666666666666" y1="761.5" y2="761.5" class="net_2,3,4,5,6,7,8"/>
  <line x1="88" x2="127" y1="24.5" y2="24.5" class="net_2,3,4,5,6,7,8"/>
  <line x1="127" x2="127" y1="24.5" y2="631.5" class="net_2,3,4,5,6,7,8"/>
  <circle cx="127" cy="631.5" r="2" style="fill:#000" class="net_2,3,4,5,6,7,8"/>
  <line x1="127" x2="146.66666666666666" y1="631.5" y2="631.5" class="net_2,3,4,5,6,7,8"/>
  <line x1="88" x2="541.6666666666666" y1="24.5" y2="24.5" class="net_2,3,4,5,6,7,8"/>
  <line x1="88" x2="127" y1="24.5" y2="24.5" class="net_2,3,4,5,6,7,8"/>
  <line x1="127" x2="127" y1="24.5" y2="209" class="net_2,3,4,5,6,7,8"/>
  <line x1="127" x2="192" y1="209" y2="209" class="net_2,3,4,5,6,7,8"/>
  <line x1="192" x2="192" y1="209" y2="501.5" class="net_2,3,4,5,6,7,8"/>
  <line x1="192" x2="312" y1="501.5" y2="501.5" class="net_2,3,4,5,6,7,8"/>
  <line x1="312" x2="312" y1="501.5" y2="531.5" class="net_2,3,4,5,6,7,8"/>
  <circle cx="127" cy="209" r="2" style="fill:#000" class="net_2,3,4,5,6,7,8"/>
  <circle cx="312" cy="501.5" r="2" style="fill:#000" class="net_2,3,4,5,6,7,8"/>
  <line x1="312" x2="411.6666666666667" y1="531.5" y2="531.5" class="net_2,3,4,5,6,7,8"/>
  <line x1="88" x2="127" y1="24.5" y2="24.5" class="net_2,3,4,5,6,7,8"/>
  <line x1="127" x2="127" y1="24.5" y2="209" class="net_2,3,4,5,6,7,8"/>
  <line x1="127" x2="382" y1="209" y2="209" class="net_2,3,4,5,6,7,8"/>
  <line x1="382" x2="382" y1="209" y2="374" class="net_2,3,4,5,6,7,8"/>
  <line x1="382" x2="411.6666666666667" y1="374" y2="374" class="net_2,3,4,5,6,7,8"/>
  <line x1="88" x2="127" y1="24.5" y2="24.5" class="net_2,3,4,5,6,7,8"/>
  <line x1="127" x2="127" y1="24.5" y2="209" class="net_2,3,4,5,6,7,8"/>
  <line x1="127" x2="192" y1="209" y2="209" class="net_2,3,4,5,6,7,8"/>
  <line x1="192" x2="192" y1="209" y2="501.5" class="net_2,3,4,5,6,7,8"/>
  <line x1="192" x2="346.6666666666667" y1="501.5" y2="501.5" class="net_2,3,4,5,6,7,8"/>
  <line x1="88" x2="192" y1="24.5" y2="24.5" class="net_2,3,4,5,6,7,8"/>
  <line x1="192" x2="192" y1="24.5" y2="209" class="net_2,3,4,5,6,7,8"/>
  <line x1="192" x2="257" y1="209" y2="209" class="net_2,3,4,5,6,7,8"/>
  <line x1="257" x2="257" y1="209" y2="309" class="net_2,3,4,5,6,7,8"/>
  <circle cx="192" cy="209" r="2" style="fill:#000" class="net_2,3,4,5,6,7,8"/>
  <circle cx="257" cy="209" r="2" style="fill:#000" class="net_2,3,4,5,6,7,8"/>
  <line x1="257" x2="276.6666666666667" y1="309" y2="309" class="net_2,3,4,5,6,7,8"/>
  <line x1="88" x2="192" y1="24.5" y2="24.5" class="net_2,3,4,5,6,7,8"/>
  <line x1="192" x2="192" y1="24.5" y2="179" class="net_2,3,4,5,6,7,8"/>
  <circle cx="192" cy="24.5" r="2" style="fill:#000" class="net_2,3,4,5,6,7,8"/>
  <circle cx="192" cy="179" r="2" style="fill:#000" class="net_2,3,4,5,6,7,8"/>
  <line x1="192" x2="211.66666666666666" y1="179" y2="179" class="net_2,3,4,5,6,7,8"/>
  <line x1="88" x2="447" y1="24.5" y2="24.5" class="net_2,3,4,5,6,7,8"/>
  <line x1="447" x2="447" y1="24.5" y2="124.5" class="net_2,3,4,5,6,7,8"/>
  <line x1="447" x2="522" y1="124.5" y2="124.5" class="net_2,3,4,5,6,7,8"/>
  <line x1="522" x2="522" y1="124.5" y2="89.5" class="net_2,3,4,5,6,7,8"/>
  <circle cx="447" cy="24.5" r="2" style="fill:#000" class="net_2,3,4,5,6,7,8"/>
  <circle cx="447" cy="124.5" r="2" style="fill:#000" class="net_2,3,4,5,6,7,8"/>
  <line x1="522" x2="541.6666666666666" y1="89.5" y2="89.5" class="net_2,3,4,5,6,7,8"/>
  <line x1="88" x2="447" y1="24.5" y2="24.5" class="net_2,3,4,5,6,7,8"/>
  <line x1="447" x2="447" y1="24.5" y2="175.5" class="net_2,3,4,5,6,7,8"/>
  <line x1="447" x2="512" y1="175.5" y2="175.5" class="net_2,3,4,5,6,7,8"/>
  <line x1="512" x2="512" y1="175.5" y2="244" class="net_2,3,4,5,6,7,8"/>
  <line x1="512" x2="541.6666666666666" y1="244" y2="244" class="net_2,3,4,5,6,7,8"/>
  <line x1="107" x2="146.66666666666666" y1="776.5" y2="776.5" class="net_52,53,54,55,56,57,58"/>
  <line x1="107" x2="146.66666666666666" y1="646.5" y2="646.5" class="net_59,60,61,62,63,64,65"/>
  <line x1="502" x2="512" y1="155.5" y2="155.5" class="net_66,67,68,69,70,71,72"/>
  <line x1="512" x2="512" y1="155.5" y2="39.5" class="net_66,67,68,69,70,71,72"/>
  <line x1="512" x2="541.6666666666666" y1="39.5" y2="39.5" class="net_66,67,68,69,70,71,72"/>
  <line x1="372" x2="382" y1="562.5" y2="562.5" class="net_73,74,75,76,77,78,79"/>
  <line x1="382" x2="382" y1="562.5" y2="546.5" class="net_73,74,75,76,77,78,79"/>
  <line x1="382" x2="411.6666666666667" y1="546.5" y2="546.5" class="net_73,74,75,76,77,78,79"/>
  <line x1="88" x2="117" y1="44.5" y2="44.5" class="net_14,15,16"/>
  <line x1="117" x2="117" y1="44.5" y2="711.5" class="net_14,15,16"/>
  <line x1="117" x2="407" y1="711.5" y2="711.5" class="net_14,15,16"/>
  <line x1="372" x2="411.6666666666667" y1="389" y2="389" class="net_80,81,82,83,84,85,86"/>
  <line x1="302" x2="322" y1="384" y2="384" class="net_87,88,89,90,91,92,93"/>
  <line x1="322" x2="322" y1="384" y2="516.5" class="net_87,88,89,90,91,92,93"/>
  <line x1="322" x2="346.6666666666667" y1="516.5" y2="516.5" class="net_87,88,89,90,91,92,93"/>
  <line x1="237" x2="276.6666666666667" y1="324" y2="324" class="net_94,95,96,97,98,99,100"/>
  <line x1="172" x2="182" y1="55.5" y2="55.5" class="net_101,102,103,104,105,106,107"/>
  <line x1="182" x2="182" y1="55.5" y2="194" class="net_101,102,103,104,105,106,107"/>
  <line x1="182" x2="211.66666666666666" y1="194" y2="194" class="net_101,102,103,104,105,106,107"/>
  <line x1="502" x2="541.6666666666666" y1="104.5" y2="104.5" class="net_108,109,110,111,112,113,114"/>
  <line x1="502" x2="541.6666666666666" y1="259" y2="259" class="net_115,116,117,118,119,120,121"/>
  <line x1="433.6666666666667" x2="447" y1="539" y2="539" class="net_45"/>
  <line x1="447" x2="447" y1="539" y2="696.5" class="net_45"/>
  <line x1="447" x2="472" y1="696.5" y2="696.5" class="net_45"/>
  <line x1="432" x2="472" y1="711.5" y2="711.5" class="net_46"/>
  <line x1="168.66666666666666" x2="182" y1="769" y2="769" class="net_34"/>
  <line x1="182" x2="182" y1="769" y2="655" class="net_34"/>
  <circle cx="182" cy="769" r="2" style="fill:#000" class="net_34"/>
  <line x1="182" x2="210" y1="655" y2="655" class="net_34"/>
  <line x1="168.66666666666666" x2="602" y1="769" y2="769" class="net_34"/>
  <line x1="168.66666666666666" x2="192" y1="639" y2="639" class="net_41"/>
  <line x1="192" x2="192" y1="639" y2="670" class="net_41"/>
  <circle cx="192" cy="639" r="2" style="fill:#000" class="net_41"/>
  <line x1="192" x2="210" y1="670" y2="670" class="net_41"/>
  <line x1="168.66666666666666" x2="602" y1="639" y2="639" class="net_41"/>
  <line x1="237" x2="257" y1="662.5" y2="662.5" class="net_47"/>
  <line x1="257" x2="257" y1="662.5" y2="434" class="net_47"/>
  <line x1="257" x2="275" y1="434" y2="434" class="net_47"/>
  <line x1="233.66666666666666" x2="247" y1="186.5" y2="186.5" class="net_42"/>
  <line x1="247" x2="247" y1="186.5" y2="449" class="net_42"/>
  <circle cx="247" cy="186.5" r="2" style="fill:#000" class="net_42"/>
  <line x1="247" x2="275" y1="449" y2="449" class="net_42"/>
  <line x1="233.66666666666666" x2="602" y1="186.5" y2="186.5" class="net_42"/>
  <line x1="302" x2="345" y1="441.5" y2="441.5" class="net_48"/>
  <line x1="298.6666666666667" x2="332" y1="316.5" y2="316.5" class="net_39"/>
  <line x1="332" x2="332" y1="316.5" y2="456.5" class="net_39"/>
  <circle cx="332" cy="316.5" r="2" style="fill:#000" class="net_39"/>
  <line x1="332" x2="345" y1="456.5" y2="456.5" class="net_39"/>
  <line x1="298.6666666666667" x2="602" y1="316.5" y2="316.5" class="net_39"/>
  <line x1="372" x2="410" y1="449" y2="449" class="net_49"/>
  <line x1="368.6666666666667" x2="382" y1="509" y2="509" class="net_40"/>
  <line x1="382" x2="382" y1="509" y2="464" class="net_40"/>
  <circle cx="382" cy="509" r="2" style="fill:#000" class="net_40"/>
  <line x1="382" x2="410" y1="464" y2="464" class="net_40"/>
  <line x1="368.6666666666667" x2="602" y1="509" y2="509" class="net_40"/>
  <line x1="437" x2="475" y1="456.5" y2="456.5" class="net_50"/>
  <line x1="433.6666666666667" x2="447" y1="381.5" y2="381.5" class="net_36"/>
  <line x1="447" x2="447" y1="381.5" y2="471.5" class="net_36"/>
  <circle cx="447" cy="381.5" r="2" style="fill:#000" class="net_36"/>
  <line x1="447" x2="475" y1="471.5" y2="471.5" class="net_36"/>
  <line x1="433.6666666666667" x2="602" y1="381.5" y2="381.5" class="net_36"/>
  <line x1="502" x2="512" y1="464" y2="464" class="net_51"/>
  <line x1="512" x2="512" y1="464" y2="566.5" class="net_51"/>
  <line x1="512" x2="540" y1="566.5" y2="566.5" class="net_51"/>
  <line x1="502" x2="512" y1="704" y2="704" class="net_37"/>
  <line x1="512" x2="512" y1="704" y2="581.5" class="net_37"/>
  <circle cx="512" cy="704" r="2" style="fill:#000" class="net_37"/>
  <line x1="512" x2="540" y1="581.5" y2="581.5" class="net_37"/>
  <line x1="502" x2="602" y1="704" y2="704" class="net_37"/>
  <line x1="567" x2="602" y1="574" y2="574" class="net_35"/>
  <line x1="563.6666666666666" x2="602" y1="32" y2="32" class="net_38"/>
  <line x1="563.6666666666666" x2="602" y1="97" y2="97" class="net_43"/>
  <line x1="563.6666666666666" x2="602" y1="251.5" y2="251.5" class="net_44"/>
  <line x1="40" x2="83" y1="34.5" y2="34.5" class="net_2,3,4,5,6,7,8,9,10,11,12,13,14,15,16,17,18,19,20,21,22,23,24,25,26,27,28,29,30,31,32,33"/>
</svg>
