<svg xmlns="http://www.w3.org/2000/svg" xmlns:xlink="http://www.w3.org/1999/xlink" xmlns:s="https://github.com/nturley/netlistsvg" width="714" height="1094">
  <style>svg {
    stroke:#000;
    fill:none;
  }
  text {
    fill:#000;
    stroke:none;
    font-size:10px;
    font-weight: bold;
    font-family: "Courier New", monospace;
  }
  .nodelabel {
    text-anchor: middle;
  }
  .inputPortLabel {
    text-anchor: end;
  }
  .splitjoinBody {
    fill:#000;
  }</style>
  <g s:type="or" transform="translate(431,972)" s:width="30" s:height="25" id="cell_$or$src/glue/decoder_glue.v:94$198">
    <s:alias val="$or"/>
    <s:alias val="$logic_or"/>
    <s:alias val="$_OR_"/>
    <path d="M0,25 L0,25 L15,25 A15 12.5 0 0 0 15,0 L0,0" class="cell_$or$src/glue/decoder_glue.v:94$198"/>
    <path d="M0,0 A30 25 0 0 1 0,25" class="cell_$or$src/glue/decoder_glue.v:94$198"/>
    <g s:x="3" s:y="5" s:pid="A"/>
    <g s:x="3" s:y="20" s:pid="B"/>
    <g s:x="30" s:y="12.5" s:pid="Y"/>
  </g>
  <g s:type="mux" transform="translate(542.6666666666666,857)" s:width="20" s:height="40" id="cell_$ternary$src/glue/decoder_glue.v:94$200">
    <s:alias val="$pmux"/>
    <s:alias val="$mux"/>
    <s:alias val="$_MUX_"/>
    <path d="M0,0 L20,10 L20,30 L0,40 Z" class="cell_$ternary$src/glue/decoder_glue.v:94$200"/>
    <g s:x="0" s:y="10" s:pid="A"/>
    <g s:x="0" s:y="30" s:pid="B"/>
    <g s:x="10" s:y="35" s:pid="S"/>
    <g s:x="20" s:y="20" s:pid="Y"/>
  </g>
  <g s:type="mux" transform="translate(434.3333333333333,847)" s:width="20" s:height="40" id="cell_$ternary$src/glue/decoder_glue.v:95$199">
    <s:alias val="$pmux"/>
    <s:alias val="$mux"/>
    <s:alias val="$_MUX_"/>
    <path d="M0,0 L20,10 L20,30 L0,40 Z" class="cell_$ternary$src/glue/decoder_glue.v:95$199"/>
    <g s:x="0" s:y="10" s:pid="A"/>
    <g s:x="0" s:y="30" s:pid="B"/>
    <g s:x="10" s:y="35" s:pid="S"/>
    <g s:x="20" s:y="20" s:pid="Y"/>
  </g>
  <g s:type="generic" transform="translate(275,391.5)" s:width="30" s:height="40" id="cell_u_ctl">
    <text x="15" y="-4" class="nodelabel cell_u_ctl" s:attribute="ref">$paramod\control\DATA_WIDTH=s32'00000000000000000000000000100000</text>
    <rect width="30" height="220" s:generic="body" class="cell_u_ctl"/>
    <g transform="translate(0,10)" s:x="0" s:y="10" s:pid="in0" id="port_u_ctl~ALUimm">
      <text x="-3" y="-4" class="inputPortLabel cell_u_ctl">ALUimm</text>
    </g>
    <g transform="translate(0,30)" s:x="0" s:y="10" s:pid="in0" id="port_u_ctl~ALUreg">
      <text x="-3" y="-4" class="inputPortLabel cell_u_ctl">ALUreg</text>
    </g>
    <g transform="translate(0,50)" s:x="0" s:y="10" s:pid="in0" id="port_u_ctl~AUIPC">
      <text x="-3" y="-4" class="inputPortLabel cell_u_ctl">AUIPC</text>
    </g>
    <g transform="translate(0,70)" s:x="0" s:y="10" s:pid="in0" id="port_u_ctl~Branch">
      <text x="-3" y="-4" class="inputPortLabel cell_u_ctl">Branch</text>
    </g>
    <g transform="translate(0,90)" s:x="0" s:y="10" s:pid="in0" id="port_u_ctl~JAL">
      <text x="-3" y="-4" class="inputPortLabel cell_u_ctl">JAL</text>
    </g>
    <g transform="translate(0,110)" s:x="0" s:y="10" s:pid="in0" id="port_u_ctl~JALR">
      <text x="-3" y="-4" class="inputPortLabel cell_u_ctl">JALR</text>
    </g>
    <g transform="translate(0,130)" s:x="0" s:y="10" s:pid="in0" id="port_u_ctl~LUI">
      <text x="-3" y="-4" class="inputPortLabel cell_u_ctl">LUI</text>
    </g>
    <g transform="translate(0,150)" s:x="0" s:y="10" s:pid="in0" id="port_u_ctl~Load">
      <text x="-3" y="-4" class="inputPortLabel cell_u_ctl">Load</text>
    </g>
    <g transform="translate(0,170)" s:x="0" s:y="10" s:pid="in0" id="port_u_ctl~SYSTEM">
      <text x="-3" y="-4" class="inputPortLabel cell_u_ctl">SYSTEM</text>
    </g>
    <g transform="translate(0,190)" s:x="0" s:y="10" s:pid="in0" id="port_u_ctl~Store">
      <text x="-3" y="-4" class="inputPortLabel cell_u_ctl">Store</text>
    </g>
    <g transform="translate(0,210)" s:x="0" s:y="10" s:pid="in0" id="port_u_ctl~instr">
      <text x="-3" y="-4" class="inputPortLabel cell_u_ctl">instr</text>
    </g>
    <g transform="translate(30,10)" s:x="30" s:y="10" s:pid="out0" id="port_u_ctl~ALUOp">
      <text x="5" y="-4" style="fill:#000; stroke:none" class="cell_u_ctl">ALUOp</text>
    </g>
    <g transform="translate(30,30)" s:x="30" s:y="10" s:pid="out0" id="port_u_ctl~ALUSrc">
      <text x="5" y="-4" style="fill:#000; stroke:none" class="cell_u_ctl">ALUSrc</text>
    </g>
    <g transform="translate(30,50)" s:x="30" s:y="10" s:pid="out0" id="port_u_ctl~BranchSig">
      <text x="5" y="-4" style="fill:#000; stroke:none" class="cell_u_ctl">BranchSig</text>
    </g>
    <g transform="translate(30,70)" s:x="30" s:y="10" s:pid="out0" id="port_u_ctl~ImmSrc">
      <text x="5" y="-4" style="fill:#000; stroke:none" class="cell_u_ctl">ImmSrc</text>
    </g>
    <g transform="translate(30,90)" s:x="30" s:y="10" s:pid="out0" id="port_u_ctl~Jump">
      <text x="5" y="-4" style="fill:#000; stroke:none" class="cell_u_ctl">Jump</text>
    </g>
    <g transform="translate(30,110)" s:x="30" s:y="10" s:pid="out0" id="port_u_ctl~MemRead">
      <text x="5" y="-4" style="fill:#000; stroke:none" class="cell_u_ctl">MemRead</text>
    </g>
    <g transform="translate(30,130)" s:x="30" s:y="10" s:pid="out0" id="port_u_ctl~MemWrite">
      <text x="5" y="-4" style="fill:#000; stroke:none" class="cell_u_ctl">MemWrite</text>
    </g>
    <g transform="translate(30,150)" s:x="30" s:y="10" s:pid="out0" id="port_u_ctl~MemtoReg">
      <text x="5" y="-4" style="fill:#000; stroke:none" class="cell_u_ctl">MemtoReg</text>
    </g>
  </g>
  <g s:type="generic" transform="translate(108,391.5)" s:width="30" s:height="40" id="cell_u_dec">
    <text x="15" y="-4" class="nodelabel cell_u_dec" s:attribute="ref">$paramod\decoder\DATA_WIDTH=s32'00000000000000000000000000100000</text>
    <rect width="30" height="220" s:generic="body" class="cell_u_dec"/>
    <g transform="translate(0,10)" s:x="0" s:y="10" s:pid="in0" id="port_u_dec~instr">
      <text x="-3" y="-4" class="inputPortLabel cell_u_dec">instr</text>
    </g>
    <g transform="translate(30,10)" s:x="30" s:y="10" s:pid="out0" id="port_u_dec~ALUimm">
      <text x="5" y="-4" style="fill:#000; stroke:none" class="cell_u_dec">ALUimm</text>
    </g>
    <g transform="translate(30,30)" s:x="30" s:y="10" s:pid="out0" id="port_u_dec~ALUreg">
      <text x="5" y="-4" style="fill:#000; stroke:none" class="cell_u_dec">ALUreg</text>
    </g>
    <g transform="translate(30,50)" s:x="30" s:y="10" s:pid="out0" id="port_u_dec~AUIPC">
      <text x="5" y="-4" style="fill:#000; stroke:none" class="cell_u_dec">AUIPC</text>
    </g>
    <g transform="translate(30,70)" s:x="30" s:y="10" s:pid="out0" id="port_u_dec~Branch">
      <text x="5" y="-4" style="fill:#000; stroke:none" class="cell_u_dec">Branch</text>
    </g>
    <g transform="translate(30,90)" s:x="30" s:y="10" s:pid="out0" id="port_u_dec~JAL">
      <text x="5" y="-4" style="fill:#000; stroke:none" class="cell_u_dec">JAL</text>
    </g>
    <g transform="translate(30,110)" s:x="30" s:y="10" s:pid="out0" id="port_u_dec~JALR">
      <text x="5" y="-4" style="fill:#000; stroke:none" class="cell_u_dec">JALR</text>
    </g>
    <g transform="translate(30,130)" s:x="30" s:y="10" s:pid="out0" id="port_u_dec~LUI">
      <text x="5" y="-4" style="fill:#000; stroke:none" class="cell_u_dec">LUI</text>
    </g>
    <g transform="translate(30,150)" s:x="30" s:y="10" s:pid="out0" id="port_u_dec~Load">
      <text x="5" y="-4" style="fill:#000; stroke:none" class="cell_u_dec">Load</text>
    </g>
    <g transform="translate(30,170)" s:x="30" s:y="10" s:pid="out0" id="port_u_dec~SYSTEM">
      <text x="5" y="-4" style="fill:#000; stroke:none" class="cell_u_dec">SYSTEM</text>
    </g>
    <g transform="translate(30,190)" s:x="30" s:y="10" s:pid="out0" id="port_u_dec~Store">
      <text x="5" y="-4" style="fill:#000; stroke:none" class="cell_u_dec">Store</text>
    </g>
    <g transform="translate(30,210)" s:x="30" s:y="10" s:pid="out0" id="port_u_dec~regWrite">
      <text x="5" y="-4" style="fill:#000; stroke:none" class="cell_u_dec">regWrite</text>
    </g>
  </g>
  <g s:type="generic" transform="translate(539,346.5)" s:width="30" s:height="40" id="cell_u_imm">
    <text x="15" y="-4" class="nodelabel cell_u_imm" s:attribute="ref">imm_gen</text>
    <rect width="30" height="40" s:generic="body" class="cell_u_imm"/>
    <g transform="translate(0,10)" s:x="0" s:y="10" s:pid="in0" id="port_u_imm~imm_sel">
      <text x="-3" y="-4" class="inputPortLabel cell_u_imm">imm_sel</text>
    </g>
    <g transform="translate(0,30)" s:x="0" s:y="10" s:pid="in0" id="port_u_imm~instr">
      <text x="-3" y="-4" class="inputPortLabel cell_u_imm">instr</text>
    </g>
    <g transform="translate(30,10)" s:x="30" s:y="10" s:pid="out0" id="port_u_imm~imm_out">
      <text x="5" y="-4" style="fill:#000; stroke:none" class="cell_u_imm">imm_out</text>
    </g>
  </g>
  <g s:type="inputExt" transform="translate(12,32)" s:width="30" s:height="20" id="cell_instr">
    <text x="15" y="-4" class="nodelabel cell_instr" s:attribute="ref">instr</text>
    <s:alias val="$_inputExt_"/>
    <path d="M0,0 L0,20 L15,20 L30,10 L15,0 Z" class="cell_instr"/>
    <g s:x="28" s:y="10" s:pid="Y"/>
  </g>
  <g s:type="outputExt" transform="translate(648,22)" s:width="30" s:height="20" id="cell_rd">
    <text x="15" y="-4" class="nodelabel cell_rd" s:attribute="ref">rd</text>
    <s:alias val="$_outputExt_"/>
    <path d="M30,0 L30,20 L15,20 L0,10 L15,0 Z" class="cell_rd"/>
    <g s:x="0" s:y="10" s:pid="A"/>
  </g>
  <g s:type="outputExt" transform="translate(648,87)" s:width="30" s:height="20" id="cell_rs1">
    <text x="15" y="-4" class="nodelabel cell_rs1" s:attribute="ref">rs1</text>
    <s:alias val="$_outputExt_"/>
    <path d="M30,0 L30,20 L15,20 L0,10 L15,0 Z" class="cell_rs1"/>
    <g s:x="0" s:y="10" s:pid="A"/>
  </g>
  <g s:type="outputExt" transform="translate(648,152)" s:width="30" s:height="20" id="cell_rs2">
    <text x="15" y="-4" class="nodelabel cell_rs2" s:attribute="ref">rs2</text>
    <s:alias val="$_outputExt_"/>
    <path d="M30,0 L30,20 L15,20 L0,10 L15,0 Z" class="cell_rs2"/>
    <g s:x="0" s:y="10" s:pid="A"/>
  </g>
  <g s:type="outputExt" transform="translate(648,347)" s:width="30" s:height="20" id="cell_imm">
    <text x="15" y="-4" class="nodelabel cell_imm" s:attribute="ref">imm</text>
    <s:alias val="$_outputExt_"/>
    <path d="M30,0 L30,20 L15,20 L0,10 L15,0 Z" class="cell_imm"/>
    <g s:x="0" s:y="10" s:pid="A"/>
  </g>
  <g s:type="outputExt" transform="translate(648,1062)" s:width="30" s:height="20" id="cell_regWrite">
    <text x="15" y="-4" class="nodelabel cell_regWrite" s:attribute="ref">regWrite</text>
    <s:alias val="$_outputExt_"/>
    <path d="M30,0 L30,20 L15,20 L0,10 L15,0 Z" class="cell_regWrite"/>
    <g s:x="0" s:y="10" s:pid="A"/>
  </g>
  <g s:type="outputExt" transform="translate(648,672)" s:width="30" s:height="20" id="cell_MemRead">
    <text x="15" y="-4" class="nodelabel cell_MemRead" s:attribute="ref">MemRead</text>
    <s:alias val="$_outputExt_"/>
    <path d="M30,0 L30,20 L15,20 L0,10 L15,0 Z" class="cell_MemRead"/>
    <g s:x="0" s:y="10" s:pid="A"/>
  </g>
  <g s:type="outputExt" transform="translate(648,737)" s:width="30" s:height="20" id="cell_MemWrite">
    <text x="15" y="-4" class="nodelabel cell_MemWrite" s:attribute="ref">MemWrite</text>
    <s:alias val="$_outputExt_"/>
    <path d="M30,0 L30,20 L15,20 L0,10 L15,0 Z" class="cell_MemWrite"/>
    <g s:x="0" s:y="10" s:pid="A"/>
  </g>
  <g s:type="outputExt" transform="translate(648,412)" s:width="30" s:height="20" id="cell_ALUSrc">
    <text x="15" y="-4" class="nodelabel cell_ALUSrc" s:attribute="ref">ALUSrc</text>
    <s:alias val="$_outputExt_"/>
    <path d="M30,0 L30,20 L15,20 L0,10 L15,0 Z" class="cell_ALUSrc"/>
    <g s:x="0" s:y="10" s:pid="A"/>
  </g>
  <g s:type="outputExt" transform="translate(648,477)" s:width="30" s:height="20" id="cell_BranchSig">
    <text x="15" y="-4" class="nodelabel cell_BranchSig" s:attribute="ref">BranchSig</text>
    <s:alias val="$_outputExt_"/>
    <path d="M30,0 L30,20 L15,20 L0,10 L15,0 Z" class="cell_BranchSig"/>
    <g s:x="0" s:y="10" s:pid="A"/>
  </g>
  <g s:type="outputExt" transform="translate(648,607)" s:width="30" s:height="20" id="cell_Jump">
    <text x="15" y="-4" class="nodelabel cell_Jump" s:attribute="ref">Jump</text>
    <s:alias val="$_outputExt_"/>
    <path d="M30,0 L30,20 L15,20 L0,10 L15,0 Z" class="cell_Jump"/>
    <g s:x="0" s:y="10" s:pid="A"/>
  </g>
  <g s:type="outputExt" transform="translate(648,282)" s:width="30" s:height="20" id="cell_ALUOp">
    <text x="15" y="-4" class="nodelabel cell_ALUOp" s:attribute="ref">ALUOp</text>
    <s:alias val="$_outputExt_"/>
    <path d="M30,0 L30,20 L15,20 L0,10 L15,0 Z" class="cell_ALUOp"/>
    <g s:x="0" s:y="10" s:pid="A"/>
  </g>
  <g s:type="outputExt" transform="translate(648,542)" s:width="30" s:height="20" id="cell_ImmSrc">
    <text x="15" y="-4" class="nodelabel cell_ImmSrc" s:attribute="ref">ImmSrc</text>
    <s:alias val="$_outputExt_"/>
    <path d="M30,0 L30,20 L15,20 L0,10 L15,0 Z" class="cell_ImmSrc"/>
    <g s:x="0" s:y="10" s:pid="A"/>
  </g>
  <g s:type="outputExt" transform="translate(648,867)" s:width="30" s:height="20" id="cell_wb_sel">
    <text x="15" y="-4" class="nodelabel cell_wb_sel" s:attribute="ref">wb_sel</text>
    <s:alias val="$_outputExt_"/>
    <path d="M30,0 L30,20 L15,20 L0,10 L15,0 Z" class="cell_wb_sel"/>
    <g s:x="0" s:y="10" s:pid="A"/>
  </g>
  <g s:type="outputExt" transform="translate(648,802)" s:width="30" s:height="20" id="cell_JAL">
    <text x="15" y="-4" class="nodelabel cell_JAL" s:attribute="ref">JAL</text>
    <s:alias val="$_outputExt_"/>
    <path d="M30,0 L30,20 L15,20 L0,10 L15,0 Z" class="cell_JAL"/>
    <g s:x="0" s:y="10" s:pid="A"/>
  </g>
  <g s:type="outputExt" transform="translate(648,997)" s:width="30" s:height="20" id="cell_JALR">
    <text x="15" y="-4" class="nodelabel cell_JALR" s:attribute="ref">JALR</text>
    <s:alias val="$_outputExt_"/>
    <path d="M30,0 L30,20 L15,20 L0,10 L15,0 Z" class="cell_JALR"/>
    <g s:x="0" s:y="10" s:pid="A"/>
  </g>
  <g s:type="outputExt" transform="translate(648,217)" s:width="30" s:height="20" id="cell_Branch">
    <text x="15" y="-4" class="nodelabel cell_Branch" s:attribute="ref">Branch</text>
    <s:alias val="$_outputExt_"/>
    <path d="M30,0 L30,20 L15,20 L0,10 L15,0 Z" class="cell_Branch"/>
    <g s:x="0" s:y="10" s:pid="A"/>
  </g>
  <g s:type="constant" transform="translate(431,917)" s:width="30" s:height="20" id="cell_10">
    <text x="15" y="-4" class="nodelabel cell_10" s:attribute="ref">10</text>
    <s:alias val="$_constant_"/>
    <rect width="30" height="20" class="cell_10"/>
    <g s:x="30" s:y="10" s:pid="Y"/>
  </g>
  <g s:type="constant" transform="translate(275,847)" s:width="30" s:height="20" id="cell_00">
    <text x="15" y="-4" class="nodelabel cell_00" s:attribute="ref">00</text>
    <s:alias val="$_constant_"/>
    <rect width="30" height="20" class="cell_00"/>
    <g s:x="30" s:y="10" s:pid="Y"/>
  </g>
  <g s:type="constant" transform="translate(275,912)" s:width="30" s:height="20" id="cell_01">
    <text x="15" y="-4" class="nodelabel cell_01" s:attribute="ref">01</text>
    <s:alias val="$_constant_"/>
    <rect width="30" height="20" class="cell_01"/>
    <g s:x="30" s:y="10" s:pid="Y"/>
  </g>
  <g s:type="split" transform="translate(558,21.5)" s:width="5" s:height="40" id="cell_$split$,2,3,4,5,6,7,8,9,10,11,12,13,14,15,16,17,18,19,20,21,22,23,24,25,26,27,28,29,30,31,32,33,">
    <rect width="5" height="60" class="splitjoinBody" s:generic="body"/>
    <s:alias val="$_split_"/>
    <g s:x="0" s:y="20" s:pid="in"/>
    <g transform="translate(4,10)" s:x="4" s:y="10" s:pid="out0">
      <text x="5" y="-4">7:11</text>
    </g>
    <g transform="translate(4,30)" s:x="4" s:y="10" s:pid="out0">
      <text x="5" y="-4">15:19</text>
    </g>
    <g transform="translate(4,50)" s:x="4" s:y="10" s:pid="out0">
      <text x="5" y="-4">20:24</text>
    </g>
  </g>
  <line x1="139" x2="228" y1="482" y2="482" class="net_79"/>
  <line x1="228" x2="228" y1="482" y2="977" class="net_79"/>
  <circle cx="228" cy="482" r="2" style="fill:#000" class="net_79"/>
  <line x1="228" x2="434" y1="977" y2="977" class="net_79"/>
  <line x1="139" x2="275" y1="482" y2="482" class="net_79"/>
  <line x1="139" x2="228" y1="482" y2="482" class="net_79"/>
  <line x1="228" x2="228" y1="482" y2="812" class="net_79"/>
  <circle cx="228" cy="812" r="2" style="fill:#000" class="net_79"/>
  <line x1="228" x2="648" y1="812" y2="812" class="net_79"/>
  <line x1="139" x2="208" y1="502" y2="502" class="net_80"/>
  <line x1="208" x2="208" y1="502" y2="1007" class="net_80"/>
  <line x1="208" x2="371" y1="1007" y2="1007" class="net_80"/>
  <line x1="371" x2="371" y1="1007" y2="992" class="net_80"/>
  <circle cx="208" cy="502" r="2" style="fill:#000" class="net_80"/>
  <circle cx="371" cy="1007" r="2" style="fill:#000" class="net_80"/>
  <line x1="371" x2="434" y1="992" y2="992" class="net_80"/>
  <line x1="139" x2="275" y1="502" y2="502" class="net_80"/>
  <line x1="139" x2="208" y1="502" y2="502" class="net_80"/>
  <line x1="208" x2="208" y1="502" y2="1007" class="net_80"/>
  <line x1="208" x2="648" y1="1007" y2="1007" class="net_80"/>
  <line x1="454.3333333333333" x2="542.6666666666666" y1="867" y2="867" class="net_83,84"/>
  <line x1="461" x2="471" y1="927" y2="927" class="net_93,94"/>
  <line x1="471" x2="471" y1="927" y2="887" class="net_93,94"/>
  <line x1="471" x2="542.6666666666666" y1="887" y2="887" class="net_93,94"/>
  <line x1="461" x2="552.6666666666666" y1="984.5" y2="984.5" class="net_82"/>
  <line x1="552.6666666666666" x2="552.6666666666666" y1="984.5" y2="892" class="net_82"/>
  <line x1="305" x2="434.3333333333333" y1="857" y2="857" class="net_95,96"/>
  <line x1="305" x2="381" y1="922" y2="922" class="net_97,98"/>
  <line x1="381" x2="381" y1="922" y2="877" class="net_97,98"/>
  <line x1="381" x2="434.3333333333333" y1="877" y2="877" class="net_97,98"/>
  <line x1="306" x2="371" y1="542" y2="542" class="net_85"/>
  <line x1="371" x2="371" y1="542" y2="897" class="net_85"/>
  <line x1="371" x2="444.3333333333333" y1="897" y2="897" class="net_85"/>
  <line x1="444.3333333333333" x2="444.3333333333333" y1="897" y2="882" class="net_85"/>
  <line x1="139" x2="275" y1="402" y2="402" class="net_86"/>
  <line x1="139" x2="275" y1="422" y2="422" class="net_87"/>
  <line x1="139" x2="275" y1="442" y2="442" class="net_88"/>
  <line x1="139" x2="275" y1="462" y2="462" class="net_81"/>
  <line x1="139" x2="198" y1="462" y2="462" class="net_81"/>
  <line x1="198" x2="198" y1="462" y2="227" class="net_81"/>
  <circle cx="198" cy="462" r="2" style="fill:#000" class="net_81"/>
  <line x1="198" x2="648" y1="227" y2="227" class="net_81"/>
  <line x1="139" x2="275" y1="522" y2="522" class="net_89"/>
  <line x1="139" x2="275" y1="542" y2="542" class="net_90"/>
  <line x1="139" x2="275" y1="562" y2="562" class="net_91"/>
  <line x1="139" x2="275" y1="582" y2="582" class="net_92"/>
  <line x1="40" x2="52" y1="42" y2="42" class="net_2,3,4,5,6,7,8,9,10,11,12,13,14,15,16,17,18,19,20,21,22,23,24,25,26,27,28,29,30,31,32,33"/>
  <line x1="52" x2="52" y1="42" y2="624.5" class="net_2,3,4,5,6,7,8,9,10,11,12,13,14,15,16,17,18,19,20,21,22,23,24,25,26,27,28,29,30,31,32,33"/>
  <line x1="52" x2="218" y1="624.5" y2="624.5" class="net_2,3,4,5,6,7,8,9,10,11,12,13,14,15,16,17,18,19,20,21,22,23,24,25,26,27,28,29,30,31,32,33"/>
  <line x1="218" x2="218" y1="624.5" y2="602" class="net_2,3,4,5,6,7,8,9,10,11,12,13,14,15,16,17,18,19,20,21,22,23,24,25,26,27,28,29,30,31,32,33"/>
  <circle cx="52" cy="42" r="2" style="fill:#000" class="net_2,3,4,5,6,7,8,9,10,11,12,13,14,15,16,17,18,19,20,21,22,23,24,25,26,27,28,29,30,31,32,33"/>
  <line x1="218" x2="275" y1="602" y2="602" class="net_2,3,4,5,6,7,8,9,10,11,12,13,14,15,16,17,18,19,20,21,22,23,24,25,26,27,28,29,30,31,32,33"/>
  <line x1="40" x2="52" y1="42" y2="42" class="net_2,3,4,5,6,7,8,9,10,11,12,13,14,15,16,17,18,19,20,21,22,23,24,25,26,27,28,29,30,31,32,33"/>
  <line x1="52" x2="52" y1="42" y2="402" class="net_2,3,4,5,6,7,8,9,10,11,12,13,14,15,16,17,18,19,20,21,22,23,24,25,26,27,28,29,30,31,32,33"/>
  <circle cx="52" cy="402" r="2" style="fill:#000" class="net_2,3,4,5,6,7,8,9,10,11,12,13,14,15,16,17,18,19,20,21,22,23,24,25,26,27,28,29,30,31,32,33"/>
  <line x1="52" x2="108" y1="402" y2="402" class="net_2,3,4,5,6,7,8,9,10,11,12,13,14,15,16,17,18,19,20,21,22,23,24,25,26,27,28,29,30,31,32,33"/>
  <line x1="40" x2="208" y1="42" y2="42" class="net_2,3,4,5,6,7,8,9,10,11,12,13,14,15,16,17,18,19,20,21,22,23,24,25,26,27,28,29,30,31,32,33"/>
  <line x1="208" x2="208" y1="42" y2="368" class="net_2,3,4,5,6,7,8,9,10,11,12,13,14,15,16,17,18,19,20,21,22,23,24,25,26,27,28,29,30,31,32,33"/>
  <line x1="208" x2="471" y1="368" y2="368" class="net_2,3,4,5,6,7,8,9,10,11,12,13,14,15,16,17,18,19,20,21,22,23,24,25,26,27,28,29,30,31,32,33"/>
  <line x1="471" x2="471" y1="368" y2="377" class="net_2,3,4,5,6,7,8,9,10,11,12,13,14,15,16,17,18,19,20,21,22,23,24,25,26,27,28,29,30,31,32,33"/>
  <circle cx="208" cy="42" r="2" style="fill:#000" class="net_2,3,4,5,6,7,8,9,10,11,12,13,14,15,16,17,18,19,20,21,22,23,24,25,26,27,28,29,30,31,32,33"/>
  <line x1="471" x2="539" y1="377" y2="377" class="net_2,3,4,5,6,7,8,9,10,11,12,13,14,15,16,17,18,19,20,21,22,23,24,25,26,27,28,29,30,31,32,33"/>
  <line x1="40" x2="558" y1="42" y2="42" class="net_2,3,4,5,6,7,8,9,10,11,12,13,14,15,16,17,18,19,20,21,22,23,24,25,26,27,28,29,30,31,32,33"/>
  <line x1="306" x2="411" y1="462" y2="462" class="net_74,75,76"/>
  <line x1="411" x2="411" y1="462" y2="357" class="net_74,75,76"/>
  <circle cx="411" cy="462" r="2" style="fill:#000" class="net_74,75,76"/>
  <line x1="411" x2="539" y1="357" y2="357" class="net_74,75,76"/>
  <line x1="306" x2="411" y1="462" y2="462" class="net_74,75,76"/>
  <line x1="411" x2="411" y1="462" y2="552" class="net_74,75,76"/>
  <line x1="411" x2="648" y1="552" y2="552" class="net_74,75,76"/>
  <line x1="563" x2="648" y1="32" y2="32" class="net_9,10,11,12,13"/>
  <line x1="563" x2="633" y1="52" y2="52" class="net_17,18,19,20,21"/>
  <line x1="633" x2="633" y1="52" y2="97" class="net_17,18,19,20,21"/>
  <line x1="633" x2="648" y1="97" y2="97" class="net_17,18,19,20,21"/>
  <line x1="563" x2="623" y1="72" y2="72" class="net_22,23,24,25,26"/>
  <line x1="623" x2="623" y1="72" y2="162" class="net_22,23,24,25,26"/>
  <line x1="623" x2="648" y1="162" y2="162" class="net_22,23,24,25,26"/>
  <line x1="570" x2="648" y1="357" y2="357" class="net_34,35,36,37,38,39,40,41,42,43,44,45,46,47,48,49,50,51,52,53,54,55,56,57,58,59,60,61,62,63,64,65"/>
  <line x1="139" x2="198" y1="602" y2="602" class="net_66"/>
  <line x1="198" x2="198" y1="602" y2="1072" class="net_66"/>
  <line x1="198" x2="648" y1="1072" y2="1072" class="net_66"/>
  <line x1="306" x2="391" y1="502" y2="502" class="net_67"/>
  <line x1="391" x2="391" y1="502" y2="682" class="net_67"/>
  <line x1="391" x2="648" y1="682" y2="682" class="net_67"/>
  <line x1="306" x2="381" y1="522" y2="522" class="net_68"/>
  <line x1="381" x2="381" y1="522" y2="747" class="net_68"/>
  <line x1="381" x2="648" y1="747" y2="747" class="net_68"/>
  <line x1="306" x2="648" y1="422" y2="422" class="net_69"/>
  <line x1="306" x2="421" y1="442" y2="442" class="net_70"/>
  <line x1="421" x2="421" y1="442" y2="487" class="net_70"/>
  <line x1="421" x2="648" y1="487" y2="487" class="net_70"/>
  <line x1="306" x2="401" y1="482" y2="482" class="net_71"/>
  <line x1="401" x2="401" y1="482" y2="617" class="net_71"/>
  <line x1="401" x2="648" y1="617" y2="617" class="net_71"/>
  <line x1="306" x2="371" y1="402" y2="402" class="net_72,73"/>
  <line x1="371" x2="371" y1="402" y2="292" class="net_72,73"/>
  <line x1="371" x2="648" y1="292" y2="292" class="net_72,73"/>
  <line x1="562.6666666666666" x2="648" y1="877" y2="877" class="net_77,78"/>
</svg>
