<svg xmlns="http://www.w3.org/2000/svg" xmlns:xlink="http://www.w3.org/1999/xlink" xmlns:s="https://github.com/nturley/netlistsvg" width="707" height="1356">
  <style>svg {
    stroke:#000;
    fill:none;
  }
  text {
    fill:#000;
    stroke:none;
    font-size:10px;
    font-weight: bold;
    font-family: "Courier New", monospace;
  }
  .nodelabel {
    text-anchor: middle;
  }
  .inputPortLabel {
    text-anchor: end;
  }
  .splitjoinBody {
    fill:#000;
  }</style>
  <g s:type="generic" transform="translate(331,591.5)" s:width="30" s:height="40" id="cell_u_ctl">
    <text x="15" y="-4" class="nodelabel cell_u_ctl" s:attribute="ref">$paramod\control\DATA_WIDTH=s32'00000000000000000000000000100000</text>
    <rect width="30" height="220" s:generic="body" class="cell_u_ctl"/>
    <g transform="translate(0,10)" s:x="0" s:y="10" s:pid="in0" id="port_u_ctl~instr">
      <text x="-3" y="-4" class="inputPortLabel cell_u_ctl">instr</text>
    </g>
    <g transform="translate(0,30)" s:x="0" s:y="10" s:pid="in0" id="port_u_ctl~is_alu_imm">
      <text x="-3" y="-4" class="inputPortLabel cell_u_ctl">is_alu_imm</text>
    </g>
    <g transform="translate(0,50)" s:x="0" s:y="10" s:pid="in0" id="port_u_ctl~is_alu_reg">
      <text x="-3" y="-4" class="inputPortLabel cell_u_ctl">is_alu_reg</text>
    </g>
    <g transform="translate(0,70)" s:x="0" s:y="10" s:pid="in0" id="port_u_ctl~is_auipc">
      <text x="-3" y="-4" class="inputPortLabel cell_u_ctl">is_auipc</text>
    </g>
    <g transform="translate(0,90)" s:x="0" s:y="10" s:pid="in0" id="port_u_ctl~is_branch">
      <text x="-3" y="-4" class="inputPortLabel cell_u_ctl">is_branch</text>
    </g>
    <g transform="translate(0,110)" s:x="0" s:y="10" s:pid="in0" id="port_u_ctl~is_jal">
      <text x="-3" y="-4" class="inputPortLabel cell_u_ctl">is_jal</text>
    </g>
    <g transform="translate(0,130)" s:x="0" s:y="10" s:pid="in0" id="port_u_ctl~is_jalr">
      <text x="-3" y="-4" class="inputPortLabel cell_u_ctl">is_jalr</text>
    </g>
    <g transform="translate(0,150)" s:x="0" s:y="10" s:pid="in0" id="port_u_ctl~is_load">
      <text x="-3" y="-4" class="inputPortLabel cell_u_ctl">is_load</text>
    </g>
    <g transform="translate(0,170)" s:x="0" s:y="10" s:pid="in0" id="port_u_ctl~is_lui">
      <text x="-3" y="-4" class="inputPortLabel cell_u_ctl">is_lui</text>
    </g>
    <g transform="translate(0,190)" s:x="0" s:y="10" s:pid="in0" id="port_u_ctl~is_store">
      <text x="-3" y="-4" class="inputPortLabel cell_u_ctl">is_store</text>
    </g>
    <g transform="translate(0,210)" s:x="0" s:y="10" s:pid="in0" id="port_u_ctl~is_system">
      <text x="-3" y="-4" class="inputPortLabel cell_u_ctl">is_system</text>
    </g>
    <g transform="translate(30,10)" s:x="30" s:y="10" s:pid="out0" id="port_u_ctl~alu_op">
      <text x="5" y="-4" style="fill:#000; stroke:none" class="cell_u_ctl">alu_op</text>
    </g>
    <g transform="translate(30,30)" s:x="30" s:y="10" s:pid="out0" id="port_u_ctl~alu_src">
      <text x="5" y="-4" style="fill:#000; stroke:none" class="cell_u_ctl">alu_src</text>
    </g>
    <g transform="translate(30,50)" s:x="30" s:y="10" s:pid="out0" id="port_u_ctl~branch_sig">
      <text x="5" y="-4" style="fill:#000; stroke:none" class="cell_u_ctl">branch_sig</text>
    </g>
    <g transform="translate(30,70)" s:x="30" s:y="10" s:pid="out0" id="port_u_ctl~imm_sel">
      <text x="5" y="-4" style="fill:#000; stroke:none" class="cell_u_ctl">imm_sel</text>
    </g>
    <g transform="translate(30,90)" s:x="30" s:y="10" s:pid="out0" id="port_u_ctl~jump">
      <text x="5" y="-4" style="fill:#000; stroke:none" class="cell_u_ctl">jump</text>
    </g>
    <g transform="translate(30,110)" s:x="30" s:y="10" s:pid="out0" id="port_u_ctl~mem_read">
      <text x="5" y="-4" style="fill:#000; stroke:none" class="cell_u_ctl">mem_read</text>
    </g>
    <g transform="translate(30,130)" s:x="30" s:y="10" s:pid="out0" id="port_u_ctl~mem_write">
      <text x="5" y="-4" style="fill:#000; stroke:none" class="cell_u_ctl">mem_write</text>
    </g>
    <g transform="translate(30,150)" s:x="30" s:y="10" s:pid="out0" id="port_u_ctl~op1_sel">
      <text x="5" y="-4" style="fill:#000; stroke:none" class="cell_u_ctl">op1_sel</text>
    </g>
    <g transform="translate(30,170)" s:x="30" s:y="10" s:pid="out0" id="port_u_ctl~wb_sel">
      <text x="5" y="-4" style="fill:#000; stroke:none" class="cell_u_ctl">wb_sel</text>
    </g>
  </g>
  <g s:type="generic" transform="translate(108,623)" s:width="30" s:height="40" id="cell_u_dec">
    <text x="15" y="-4" class="nodelabel cell_u_dec" s:attribute="ref">$paramod\decoder\DATA_WIDTH=s32'00000000000000000000000000100000</text>
    <rect width="30" height="220" s:generic="body" class="cell_u_dec"/>
    <g transform="translate(0,10)" s:x="0" s:y="10" s:pid="in0" id="port_u_dec~instr">
      <text x="-3" y="-4" class="inputPortLabel cell_u_dec">instr</text>
    </g>
    <g transform="translate(30,10)" s:x="30" s:y="10" s:pid="out0" id="port_u_dec~is_alu_imm">
      <text x="5" y="-4" style="fill:#000; stroke:none" class="cell_u_dec">is_alu_imm</text>
    </g>
    <g transform="translate(30,30)" s:x="30" s:y="10" s:pid="out0" id="port_u_dec~is_alu_reg">
      <text x="5" y="-4" style="fill:#000; stroke:none" class="cell_u_dec">is_alu_reg</text>
    </g>
    <g transform="translate(30,50)" s:x="30" s:y="10" s:pid="out0" id="port_u_dec~is_auipc">
      <text x="5" y="-4" style="fill:#000; stroke:none" class="cell_u_dec">is_auipc</text>
    </g>
    <g transform="translate(30,70)" s:x="30" s:y="10" s:pid="out0" id="port_u_dec~is_branch">
      <text x="5" y="-4" style="fill:#000; stroke:none" class="cell_u_dec">is_branch</text>
    </g>
    <g transform="translate(30,90)" s:x="30" s:y="10" s:pid="out0" id="port_u_dec~is_jal">
      <text x="5" y="-4" style="fill:#000; stroke:none" class="cell_u_dec">is_jal</text>
    </g>
    <g transform="translate(30,110)" s:x="30" s:y="10" s:pid="out0" id="port_u_dec~is_jalr">
      <text x="5" y="-4" style="fill:#000; stroke:none" class="cell_u_dec">is_jalr</text>
    </g>
    <g transform="translate(30,130)" s:x="30" s:y="10" s:pid="out0" id="port_u_dec~is_load">
      <text x="5" y="-4" style="fill:#000; stroke:none" class="cell_u_dec">is_load</text>
    </g>
    <g transform="translate(30,150)" s:x="30" s:y="10" s:pid="out0" id="port_u_dec~is_lui">
      <text x="5" y="-4" style="fill:#000; stroke:none" class="cell_u_dec">is_lui</text>
    </g>
    <g transform="translate(30,170)" s:x="30" s:y="10" s:pid="out0" id="port_u_dec~is_store">
      <text x="5" y="-4" style="fill:#000; stroke:none" class="cell_u_dec">is_store</text>
    </g>
    <g transform="translate(30,190)" s:x="30" s:y="10" s:pid="out0" id="port_u_dec~is_system">
      <text x="5" y="-4" style="fill:#000; stroke:none" class="cell_u_dec">is_system</text>
    </g>
    <g transform="translate(30,210)" s:x="30" s:y="10" s:pid="out0" id="port_u_dec~reg_write">
      <text x="5" y="-4" style="fill:#000; stroke:none" class="cell_u_dec">reg_write</text>
    </g>
  </g>
  <g s:type="generic" transform="translate(526,996.5)" s:width="30" s:height="40" id="cell_u_imm">
    <text x="15" y="-4" class="nodelabel cell_u_imm" s:attribute="ref">imm_gen</text>
    <rect width="30" height="40" s:generic="body" class="cell_u_imm"/>
    <g transform="translate(0,10)" s:x="0" s:y="10" s:pid="in0" id="port_u_imm~imm_sel">
      <text x="-3" y="-4" class="inputPortLabel cell_u_imm">imm_sel</text>
    </g>
    <g transform="translate(0,30)" s:x="0" s:y="10" s:pid="in0" id="port_u_imm~instr">
      <text x="-3" y="-4" class="inputPortLabel cell_u_imm">instr</text>
    </g>
    <g transform="translate(30,10)" s:x="30" s:y="10" s:pid="out0" id="port_u_imm~imm_out">
      <text x="5" y="-4" style="fill:#000; stroke:none" class="cell_u_imm">imm_out</text>
    </g>
  </g>
  <g s:type="inputExt" transform="translate(12,623.5)" s:width="30" s:height="20" id="cell_instr">
    <text x="15" y="-4" class="nodelabel cell_instr" s:attribute="ref">instr</text>
    <s:alias val="$_inputExt_"/>
    <path d="M0,0 L0,20 L15,20 L30,10 L15,0 Z" class="cell_instr"/>
    <g s:x="28" s:y="10" s:pid="Y"/>
  </g>
  <g s:type="outputExt" transform="translate(635,997)" s:width="30" s:height="20" id="cell_imm_out">
    <text x="15" y="-4" class="nodelabel cell_imm_out" s:attribute="ref">imm_out</text>
    <s:alias val="$_outputExt_"/>
    <path d="M30,0 L30,20 L15,20 L0,10 L15,0 Z" class="cell_imm_out"/>
    <g s:x="0" s:y="10" s:pid="A"/>
  </g>
  <g s:type="outputExt" transform="translate(635,1322)" s:width="30" s:height="20" id="cell_reg_write">
    <text x="15" y="-4" class="nodelabel cell_reg_write" s:attribute="ref">reg_write</text>
    <s:alias val="$_outputExt_"/>
    <path d="M30,0 L30,20 L15,20 L0,10 L15,0 Z" class="cell_reg_write"/>
    <g s:x="0" s:y="10" s:pid="A"/>
  </g>
  <g s:type="outputExt" transform="translate(635,737)" s:width="30" s:height="20" id="cell_mem_read">
    <text x="15" y="-4" class="nodelabel cell_mem_read" s:attribute="ref">mem_read</text>
    <s:alias val="$_outputExt_"/>
    <path d="M30,0 L30,20 L15,20 L0,10 L15,0 Z" class="cell_mem_read"/>
    <g s:x="0" s:y="10" s:pid="A"/>
  </g>
  <g s:type="outputExt" transform="translate(635,802)" s:width="30" s:height="20" id="cell_mem_write">
    <text x="15" y="-4" class="nodelabel cell_mem_write" s:attribute="ref">mem_write</text>
    <s:alias val="$_outputExt_"/>
    <path d="M30,0 L30,20 L15,20 L0,10 L15,0 Z" class="cell_mem_write"/>
    <g s:x="0" s:y="10" s:pid="A"/>
  </g>
  <g s:type="outputExt" transform="translate(635,477)" s:width="30" s:height="20" id="cell_alu_src">
    <text x="15" y="-4" class="nodelabel cell_alu_src" s:attribute="ref">alu_src</text>
    <s:alias val="$_outputExt_"/>
    <path d="M30,0 L30,20 L15,20 L0,10 L15,0 Z" class="cell_alu_src"/>
    <g s:x="0" s:y="10" s:pid="A"/>
  </g>
  <g s:type="outputExt" transform="translate(635,867)" s:width="30" s:height="20" id="cell_op1_sel">
    <text x="15" y="-4" class="nodelabel cell_op1_sel" s:attribute="ref">op1_sel</text>
    <s:alias val="$_outputExt_"/>
    <path d="M30,0 L30,20 L15,20 L0,10 L15,0 Z" class="cell_op1_sel"/>
    <g s:x="0" s:y="10" s:pid="A"/>
  </g>
  <g s:type="outputExt" transform="translate(635,932)" s:width="30" s:height="20" id="cell_wb_sel">
    <text x="15" y="-4" class="nodelabel cell_wb_sel" s:attribute="ref">wb_sel</text>
    <s:alias val="$_outputExt_"/>
    <path d="M30,0 L30,20 L15,20 L0,10 L15,0 Z" class="cell_wb_sel"/>
    <g s:x="0" s:y="10" s:pid="A"/>
  </g>
  <g s:type="outputExt" transform="translate(635,542)" s:width="30" s:height="20" id="cell_branch_sig">
    <text x="15" y="-4" class="nodelabel cell_branch_sig" s:attribute="ref">branch_sig</text>
    <s:alias val="$_outputExt_"/>
    <path d="M30,0 L30,20 L15,20 L0,10 L15,0 Z" class="cell_branch_sig"/>
    <g s:x="0" s:y="10" s:pid="A"/>
  </g>
  <g s:type="outputExt" transform="translate(635,672)" s:width="30" s:height="20" id="cell_jump">
    <text x="15" y="-4" class="nodelabel cell_jump" s:attribute="ref">jump</text>
    <s:alias val="$_outputExt_"/>
    <path d="M30,0 L30,20 L15,20 L0,10 L15,0 Z" class="cell_jump"/>
    <g s:x="0" s:y="10" s:pid="A"/>
  </g>
  <g s:type="outputExt" transform="translate(635,412)" s:width="30" s:height="20" id="cell_alu_op">
    <text x="15" y="-4" class="nodelabel cell_alu_op" s:attribute="ref">alu_op</text>
    <s:alias val="$_outputExt_"/>
    <path d="M30,0 L30,20 L15,20 L0,10 L15,0 Z" class="cell_alu_op"/>
    <g s:x="0" s:y="10" s:pid="A"/>
  </g>
  <g s:type="outputExt" transform="translate(635,607)" s:width="30" s:height="20" id="cell_imm_sel">
    <text x="15" y="-4" class="nodelabel cell_imm_sel" s:attribute="ref">imm_sel</text>
    <s:alias val="$_outputExt_"/>
    <path d="M30,0 L30,20 L15,20 L0,10 L15,0 Z" class="cell_imm_sel"/>
    <g s:x="0" s:y="10" s:pid="A"/>
  </g>
  <g s:type="outputExt" transform="translate(635,282)" s:width="30" s:height="20" id="cell_is_jal">
    <text x="15" y="-4" class="nodelabel cell_is_jal" s:attribute="ref">is_jal</text>
    <s:alias val="$_outputExt_"/>
    <path d="M30,0 L30,20 L15,20 L0,10 L15,0 Z" class="cell_is_jal"/>
    <g s:x="0" s:y="10" s:pid="A"/>
  </g>
  <g s:type="outputExt" transform="translate(635,347)" s:width="30" s:height="20" id="cell_is_jalr">
    <text x="15" y="-4" class="nodelabel cell_is_jalr" s:attribute="ref">is_jalr</text>
    <s:alias val="$_outputExt_"/>
    <path d="M30,0 L30,20 L15,20 L0,10 L15,0 Z" class="cell_is_jalr"/>
    <g s:x="0" s:y="10" s:pid="A"/>
  </g>
  <g s:type="outputExt" transform="translate(635,217)" s:width="30" s:height="20" id="cell_is_branch">
    <text x="15" y="-4" class="nodelabel cell_is_branch" s:attribute="ref">is_branch</text>
    <s:alias val="$_outputExt_"/>
    <path d="M30,0 L30,20 L15,20 L0,10 L15,0 Z" class="cell_is_branch"/>
    <g s:x="0" s:y="10" s:pid="A"/>
  </g>
  <g s:type="outputExt" transform="translate(635,1127)" s:width="30" s:height="20" id="cell_is_lui">
    <text x="15" y="-4" class="nodelabel cell_is_lui" s:attribute="ref">is_lui</text>
    <s:alias val="$_outputExt_"/>
    <path d="M30,0 L30,20 L15,20 L0,10 L15,0 Z" class="cell_is_lui"/>
    <g s:x="0" s:y="10" s:pid="A"/>
  </g>
  <g s:type="outputExt" transform="translate(635,152)" s:width="30" s:height="20" id="cell_is_auipc">
    <text x="15" y="-4" class="nodelabel cell_is_auipc" s:attribute="ref">is_auipc</text>
    <s:alias val="$_outputExt_"/>
    <path d="M30,0 L30,20 L15,20 L0,10 L15,0 Z" class="cell_is_auipc"/>
    <g s:x="0" s:y="10" s:pid="A"/>
  </g>
  <g s:type="outputExt" transform="translate(635,87)" s:width="30" s:height="20" id="cell_is_alu_reg">
    <text x="15" y="-4" class="nodelabel cell_is_alu_reg" s:attribute="ref">is_alu_reg</text>
    <s:alias val="$_outputExt_"/>
    <path d="M30,0 L30,20 L15,20 L0,10 L15,0 Z" class="cell_is_alu_reg"/>
    <g s:x="0" s:y="10" s:pid="A"/>
  </g>
  <g s:type="outputExt" transform="translate(635,22)" s:width="30" s:height="20" id="cell_is_alu_imm">
    <text x="15" y="-4" class="nodelabel cell_is_alu_imm" s:attribute="ref">is_alu_imm</text>
    <s:alias val="$_outputExt_"/>
    <path d="M30,0 L30,20 L15,20 L0,10 L15,0 Z" class="cell_is_alu_imm"/>
    <g s:x="0" s:y="10" s:pid="A"/>
  </g>
  <g s:type="outputExt" transform="translate(635,1062)" s:width="30" s:height="20" id="cell_is_load">
    <text x="15" y="-4" class="nodelabel cell_is_load" s:attribute="ref">is_load</text>
    <s:alias val="$_outputExt_"/>
    <path d="M30,0 L30,20 L15,20 L0,10 L15,0 Z" class="cell_is_load"/>
    <g s:x="0" s:y="10" s:pid="A"/>
  </g>
  <g s:type="outputExt" transform="translate(635,1192)" s:width="30" s:height="20" id="cell_is_store">
    <text x="15" y="-4" class="nodelabel cell_is_store" s:attribute="ref">is_store</text>
    <s:alias val="$_outputExt_"/>
    <path d="M30,0 L30,20 L15,20 L0,10 L15,0 Z" class="cell_is_store"/>
    <g s:x="0" s:y="10" s:pid="A"/>
  </g>
  <g s:type="outputExt" transform="translate(635,1257)" s:width="30" s:height="20" id="cell_is_system">
    <text x="15" y="-4" class="nodelabel cell_is_system" s:attribute="ref">is_system</text>
    <s:alias val="$_outputExt_"/>
    <path d="M30,0 L30,20 L15,20 L0,10 L15,0 Z" class="cell_is_system"/>
    <g s:x="0" s:y="10" s:pid="A"/>
  </g>
  <line x1="40" x2="52" y1="633.5" y2="633.5" class="net_2,3,4,5,6,7,8,9,10,11,12,13,14,15,16,17,18,19,20,21,22,23,24,25,26,27,28,29,30,31,32,33"/>
  <line x1="52" x2="52" y1="633.5" y2="602" class="net_2,3,4,5,6,7,8,9,10,11,12,13,14,15,16,17,18,19,20,21,22,23,24,25,26,27,28,29,30,31,32,33"/>
  <circle cx="52" cy="633.5" r="2" style="fill:#000" class="net_2,3,4,5,6,7,8,9,10,11,12,13,14,15,16,17,18,19,20,21,22,23,24,25,26,27,28,29,30,31,32,33"/>
  <line x1="52" x2="331" y1="602" y2="602" class="net_2,3,4,5,6,7,8,9,10,11,12,13,14,15,16,17,18,19,20,21,22,23,24,25,26,27,28,29,30,31,32,33"/>
  <line x1="40" x2="108" y1="633.5" y2="633.5" class="net_2,3,4,5,6,7,8,9,10,11,12,13,14,15,16,17,18,19,20,21,22,23,24,25,26,27,28,29,30,31,32,33"/>
  <line x1="40" x2="52" y1="633.5" y2="633.5" class="net_2,3,4,5,6,7,8,9,10,11,12,13,14,15,16,17,18,19,20,21,22,23,24,25,26,27,28,29,30,31,32,33"/>
  <line x1="52" x2="52" y1="633.5" y2="1343" class="net_2,3,4,5,6,7,8,9,10,11,12,13,14,15,16,17,18,19,20,21,22,23,24,25,26,27,28,29,30,31,32,33"/>
  <line x1="52" x2="433" y1="1343" y2="1343" class="net_2,3,4,5,6,7,8,9,10,11,12,13,14,15,16,17,18,19,20,21,22,23,24,25,26,27,28,29,30,31,32,33"/>
  <line x1="433" x2="433" y1="1343" y2="1027" class="net_2,3,4,5,6,7,8,9,10,11,12,13,14,15,16,17,18,19,20,21,22,23,24,25,26,27,28,29,30,31,32,33"/>
  <line x1="433" x2="526" y1="1027" y2="1027" class="net_2,3,4,5,6,7,8,9,10,11,12,13,14,15,16,17,18,19,20,21,22,23,24,25,26,27,28,29,30,31,32,33"/>
  <line x1="139" x2="210" y1="633.5" y2="633.5" class="net_87"/>
  <line x1="210" x2="210" y1="633.5" y2="622" class="net_87"/>
  <circle cx="210" cy="622" r="2" style="fill:#000" class="net_87"/>
  <line x1="210" x2="331" y1="622" y2="622" class="net_87"/>
  <line x1="139" x2="210" y1="633.5" y2="633.5" class="net_87"/>
  <line x1="210" x2="210" y1="633.5" y2="32" class="net_87"/>
  <line x1="210" x2="635" y1="32" y2="32" class="net_87"/>
  <line x1="139" x2="220" y1="653.5" y2="653.5" class="net_86"/>
  <line x1="220" x2="220" y1="653.5" y2="642" class="net_86"/>
  <circle cx="220" cy="642" r="2" style="fill:#000" class="net_86"/>
  <line x1="220" x2="331" y1="642" y2="642" class="net_86"/>
  <line x1="139" x2="220" y1="653.5" y2="653.5" class="net_86"/>
  <line x1="220" x2="220" y1="653.5" y2="97" class="net_86"/>
  <line x1="220" x2="635" y1="97" y2="97" class="net_86"/>
  <line x1="139" x2="230" y1="673.5" y2="673.5" class="net_85"/>
  <line x1="230" x2="230" y1="673.5" y2="662" class="net_85"/>
  <circle cx="230" cy="662" r="2" style="fill:#000" class="net_85"/>
  <line x1="230" x2="331" y1="662" y2="662" class="net_85"/>
  <line x1="139" x2="230" y1="673.5" y2="673.5" class="net_85"/>
  <line x1="230" x2="230" y1="673.5" y2="162" class="net_85"/>
  <line x1="230" x2="635" y1="162" y2="162" class="net_85"/>
  <line x1="139" x2="240" y1="693.5" y2="693.5" class="net_83"/>
  <line x1="240" x2="240" y1="693.5" y2="682" class="net_83"/>
  <circle cx="240" cy="682" r="2" style="fill:#000" class="net_83"/>
  <line x1="240" x2="331" y1="682" y2="682" class="net_83"/>
  <line x1="139" x2="240" y1="693.5" y2="693.5" class="net_83"/>
  <line x1="240" x2="240" y1="693.5" y2="227" class="net_83"/>
  <line x1="240" x2="635" y1="227" y2="227" class="net_83"/>
  <line x1="139" x2="250" y1="713.5" y2="713.5" class="net_81"/>
  <line x1="250" x2="250" y1="713.5" y2="702" class="net_81"/>
  <circle cx="250" cy="702" r="2" style="fill:#000" class="net_81"/>
  <line x1="250" x2="331" y1="702" y2="702" class="net_81"/>
  <line x1="139" x2="250" y1="713.5" y2="713.5" class="net_81"/>
  <line x1="250" x2="250" y1="713.5" y2="292" class="net_81"/>
  <line x1="250" x2="635" y1="292" y2="292" class="net_81"/>
  <line x1="139" x2="260" y1="733.5" y2="733.5" class="net_82"/>
  <line x1="260" x2="260" y1="733.5" y2="722" class="net_82"/>
  <circle cx="260" cy="722" r="2" style="fill:#000" class="net_82"/>
  <line x1="260" x2="331" y1="722" y2="722" class="net_82"/>
  <line x1="139" x2="260" y1="733.5" y2="733.5" class="net_82"/>
  <line x1="260" x2="260" y1="733.5" y2="357" class="net_82"/>
  <line x1="260" x2="635" y1="357" y2="357" class="net_82"/>
  <line x1="139" x2="250" y1="753.5" y2="753.5" class="net_88"/>
  <line x1="250" x2="250" y1="753.5" y2="742" class="net_88"/>
  <circle cx="250" cy="753.5" r="2" style="fill:#000" class="net_88"/>
  <line x1="250" x2="331" y1="742" y2="742" class="net_88"/>
  <line x1="139" x2="250" y1="753.5" y2="753.5" class="net_88"/>
  <line x1="250" x2="250" y1="753.5" y2="1072" class="net_88"/>
  <line x1="250" x2="635" y1="1072" y2="1072" class="net_88"/>
  <line x1="139" x2="240" y1="773.5" y2="773.5" class="net_84"/>
  <line x1="240" x2="240" y1="773.5" y2="762" class="net_84"/>
  <circle cx="240" cy="773.5" r="2" style="fill:#000" class="net_84"/>
  <line x1="240" x2="331" y1="762" y2="762" class="net_84"/>
  <line x1="139" x2="240" y1="773.5" y2="773.5" class="net_84"/>
  <line x1="240" x2="240" y1="773.5" y2="1137" class="net_84"/>
  <line x1="240" x2="635" y1="1137" y2="1137" class="net_84"/>
  <line x1="139" x2="230" y1="793.5" y2="793.5" class="net_89"/>
  <line x1="230" x2="230" y1="793.5" y2="782" class="net_89"/>
  <circle cx="230" cy="793.5" r="2" style="fill:#000" class="net_89"/>
  <line x1="230" x2="331" y1="782" y2="782" class="net_89"/>
  <line x1="139" x2="230" y1="793.5" y2="793.5" class="net_89"/>
  <line x1="230" x2="230" y1="793.5" y2="1202" class="net_89"/>
  <line x1="230" x2="635" y1="1202" y2="1202" class="net_89"/>
  <line x1="139" x2="220" y1="813.5" y2="813.5" class="net_90"/>
  <line x1="220" x2="220" y1="813.5" y2="802" class="net_90"/>
  <circle cx="220" cy="813.5" r="2" style="fill:#000" class="net_90"/>
  <line x1="220" x2="331" y1="802" y2="802" class="net_90"/>
  <line x1="139" x2="220" y1="813.5" y2="813.5" class="net_90"/>
  <line x1="220" x2="220" y1="813.5" y2="1267" class="net_90"/>
  <line x1="220" x2="635" y1="1267" y2="1267" class="net_90"/>
  <line x1="362" x2="473" y1="662" y2="662" class="net_78,79,80"/>
  <line x1="473" x2="473" y1="662" y2="1007" class="net_78,79,80"/>
  <circle cx="473" cy="662" r="2" style="fill:#000" class="net_78,79,80"/>
  <line x1="473" x2="526" y1="1007" y2="1007" class="net_78,79,80"/>
  <line x1="362" x2="473" y1="662" y2="662" class="net_78,79,80"/>
  <line x1="473" x2="473" y1="662" y2="617" class="net_78,79,80"/>
  <line x1="473" x2="635" y1="617" y2="617" class="net_78,79,80"/>
  <line x1="557" x2="635" y1="1007" y2="1007" class="net_34,35,36,37,38,39,40,41,42,43,44,45,46,47,48,49,50,51,52,53,54,55,56,57,58,59,60,61,62,63,64,65"/>
  <line x1="139" x2="210" y1="833.5" y2="833.5" class="net_66"/>
  <line x1="210" x2="210" y1="833.5" y2="1332" class="net_66"/>
  <line x1="210" x2="635" y1="1332" y2="1332" class="net_66"/>
  <line x1="362" x2="463" y1="702" y2="702" class="net_67"/>
  <line x1="463" x2="463" y1="702" y2="747" class="net_67"/>
  <line x1="463" x2="635" y1="747" y2="747" class="net_67"/>
  <line x1="362" x2="453" y1="722" y2="722" class="net_68"/>
  <line x1="453" x2="453" y1="722" y2="812" class="net_68"/>
  <line x1="453" x2="635" y1="812" y2="812" class="net_68"/>
  <line x1="362" x2="443" y1="622" y2="622" class="net_69"/>
  <line x1="443" x2="443" y1="622" y2="487" class="net_69"/>
  <line x1="443" x2="635" y1="487" y2="487" class="net_69"/>
  <line x1="362" x2="443" y1="742" y2="742" class="net_70,71"/>
  <line x1="443" x2="443" y1="742" y2="877" class="net_70,71"/>
  <line x1="443" x2="635" y1="877" y2="877" class="net_70,71"/>
  <line x1="362" x2="433" y1="762" y2="762" class="net_72,73"/>
  <line x1="433" x2="433" y1="762" y2="942" class="net_72,73"/>
  <line x1="433" x2="635" y1="942" y2="942" class="net_72,73"/>
  <line x1="362" x2="453" y1="642" y2="642" class="net_74"/>
  <line x1="453" x2="453" y1="642" y2="552" class="net_74"/>
  <line x1="453" x2="635" y1="552" y2="552" class="net_74"/>
  <line x1="362" x2="635" y1="682" y2="682" class="net_75"/>
  <line x1="362" x2="433" y1="602" y2="602" class="net_76,77"/>
  <line x1="433" x2="433" y1="602" y2="422" class="net_76,77"/>
  <line x1="433" x2="635" y1="422" y2="422" class="net_76,77"/>
</svg>
