<svg xmlns="http://www.w3.org/2000/svg" xmlns:xlink="http://www.w3.org/1999/xlink" xmlns:s="https://github.com/nturley/netlistsvg" width="389" height="239.5">
  <style>svg {
    stroke:#000;
    fill:none;
  }
  text {
    fill:#000;
    stroke:none;
    font-size:10px;
    font-weight: bold;
    font-family: "Courier New", monospace;
  }
  .nodelabel {
    text-anchor: middle;
  }
  .inputPortLabel {
    text-anchor: end;
  }
  .splitjoinBody {
    fill:#000;
  }</style>
  <g s:type="generic" transform="translate(125,42)" s:width="30" s:height="40" id="cell_mem">
    <text x="15" y="-4" class="nodelabel cell_mem" s:attribute="ref">$mem_v2</text>
    <rect width="30" height="180" s:generic="body" class="cell_mem"/>
    <g transform="translate(0,10)" s:x="0" s:y="10" s:pid="in0" id="port_mem~RD_ADDR">
      <text x="-3" y="-4" class="inputPortLabel cell_mem">RD_ADDR</text>
    </g>
    <g transform="translate(0,30)" s:x="0" s:y="10" s:pid="in0" id="port_mem~RD_ARST">
      <text x="-3" y="-4" class="inputPortLabel cell_mem">RD_ARST</text>
    </g>
    <g transform="translate(0,50)" s:x="0" s:y="10" s:pid="in0" id="port_mem~RD_CLK">
      <text x="-3" y="-4" class="inputPortLabel cell_mem">RD_CLK</text>
    </g>
    <g transform="translate(0,70)" s:x="0" s:y="10" s:pid="in0" id="port_mem~RD_EN">
      <text x="-3" y="-4" class="inputPortLabel cell_mem">RD_EN</text>
    </g>
    <g transform="translate(0,90)" s:x="0" s:y="10" s:pid="in0" id="port_mem~RD_SRST">
      <text x="-3" y="-4" class="inputPortLabel cell_mem">RD_SRST</text>
    </g>
    <g transform="translate(0,110)" s:x="0" s:y="10" s:pid="in0" id="port_mem~WR_ADDR">
      <text x="-3" y="-4" class="inputPortLabel cell_mem">WR_ADDR</text>
    </g>
    <g transform="translate(0,130)" s:x="0" s:y="10" s:pid="in0" id="port_mem~WR_CLK">
      <text x="-3" y="-4" class="inputPortLabel cell_mem">WR_CLK</text>
    </g>
    <g transform="translate(0,150)" s:x="0" s:y="10" s:pid="in0" id="port_mem~WR_DATA">
      <text x="-3" y="-4" class="inputPortLabel cell_mem">WR_DATA</text>
    </g>
    <g transform="translate(0,170)" s:x="0" s:y="10" s:pid="in0" id="port_mem~WR_EN">
      <text x="-3" y="-4" class="inputPortLabel cell_mem">WR_EN</text>
    </g>
    <g transform="translate(30,10)" s:x="30" s:y="10" s:pid="out0" id="port_mem~RD_DATA">
      <text x="5" y="-4" style="fill:#000; stroke:none" class="cell_mem">RD_DATA</text>
    </g>
  </g>
  <g s:type="inputExt" transform="translate(12,42.5)" s:width="30" s:height="20" id="cell_addr">
    <text x="15" y="-4" class="nodelabel cell_addr" s:attribute="ref">addr</text>
    <s:alias val="$_inputExt_"/>
    <path d="M0,0 L0,20 L15,20 L30,10 L15,0 Z" class="cell_addr"/>
    <g s:x="28" s:y="10" s:pid="Y"/>
  </g>
  <g s:type="outputExt" transform="translate(347,22.5)" s:width="30" s:height="20" id="cell_instr">
    <text x="15" y="-4" class="nodelabel cell_instr" s:attribute="ref">instr</text>
    <s:alias val="$_outputExt_"/>
    <path d="M30,0 L30,20 L15,20 L0,10 L15,0 Z" class="cell_instr"/>
    <g s:x="0" s:y="10" s:pid="A"/>
  </g>
  <g s:type="constant" transform="translate(12,107.5)" s:width="30" s:height="20" id="cell_0">
    <text x="15" y="-4" class="nodelabel cell_0" s:attribute="ref">0</text>
    <s:alias val="$_constant_"/>
    <rect width="30" height="20" class="cell_0"/>
    <g s:x="30" s:y="10" s:pid="Y"/>
  </g>
  <g s:type="constant" transform="translate(12,172.5)" s:width="30" s:height="20" id="cell_1">
    <text x="15" y="-4" class="nodelabel cell_1" s:attribute="ref">1</text>
    <s:alias val="$_constant_"/>
    <rect width="30" height="20" class="cell_1"/>
    <g s:x="30" s:y="10" s:pid="Y"/>
  </g>
  <g s:type="constant" transform="translate(234,117)" s:width="30" s:height="20" id="cell_001">
    <text x="15" y="-4" class="nodelabel cell_001" s:attribute="ref">001</text>
    <s:alias val="$_constant_"/>
    <rect width="30" height="20" class="cell_001"/>
    <g s:x="30" s:y="10" s:pid="Y"/>
  </g>
  <g s:type="constant" transform="translate(234,182)" s:width="30" s:height="20" id="cell_00000000000000000000000000">
    <text x="15" y="-4" class="nodelabel cell_00000000000000000000000000" s:attribute="ref">0x0</text>
    <s:alias val="$_constant_"/>
    <rect width="30" height="20" class="cell_00000000000000000000000000"/>
    <g s:x="30" s:y="10" s:pid="Y"/>
  </g>
  <g s:type="join" transform="translate(306,12)" s:width="4" s:height="40" id="cell_$join$,13,19,20,21,14,15,22,23,24,25,26,27,28,29,30,31,32,33,34,35,36,37,38,39,40,41,42,43,44,45,46,47,">
    <rect width="5" height="80" class="splitjoinBody" s:generic="body"/>
    <s:alias val="$_join_"/>
    <g s:x="5" s:y="20" s:pid="out"/>
    <g transform="translate(0,10)" s:x="0" s:y="10" s:pid="in0">
      <text x="-3" y="-4" class="inputPortLabel">0</text>
    </g>
    <g transform="translate(0,30)" s:x="0" s:y="10" s:pid="in0">
      <text x="-3" y="-4" class="inputPortLabel">1:3</text>
    </g>
    <g transform="translate(0,50)" s:x="0" s:y="10" s:pid="in0">
      <text x="-3" y="-4" class="inputPortLabel">4:5</text>
    </g>
    <g transform="translate(0,70)" s:x="0" s:y="10" s:pid="in0">
      <text x="-3" y="-4" class="inputPortLabel">6:31</text>
    </g>
  </g>
  <g s:type="split" transform="translate(248.33333333333334,32)" s:width="5" s:height="40" id="cell_$split$,13,14,15,">
    <rect width="5" height="40" class="splitjoinBody" s:generic="body"/>
    <s:alias val="$_split_"/>
    <g s:x="0" s:y="20" s:pid="in"/>
    <g transform="translate(4,10)" s:x="4" s:y="10" s:pid="out0">
      <text x="5" y="-4">0</text>
    </g>
    <g transform="translate(4,30)" s:x="4" s:y="10" s:pid="out0">
      <text x="5" y="-4">1:2</text>
    </g>
  </g>
  <line x1="40" x2="125" y1="52.5" y2="52.5" class="net_2,3,4,5,6,7,8,9,10,11,12"/>
  <line x1="42" x2="52" y1="117.5" y2="117.5" class="net_16"/>
  <line x1="52" x2="52" y1="117.5" y2="72.5" class="net_16"/>
  <circle cx="52" cy="117.5" r="2" style="fill:#000" class="net_16"/>
  <line x1="52" x2="125" y1="72.5" y2="72.5" class="net_16"/>
  <line x1="42" x2="52" y1="117.5" y2="117.5" class="net_16"/>
  <line x1="52" x2="52" y1="117.5" y2="132.5" class="net_16"/>
  <line x1="52" x2="125" y1="132.5" y2="132.5" class="net_16"/>
  <line x1="42" x2="62" y1="182.5" y2="182.5" class="net_17"/>
  <line x1="62" x2="62" y1="182.5" y2="112.5" class="net_17"/>
  <line x1="62" x2="125" y1="112.5" y2="112.5" class="net_17"/>
  <line x1="72" x2="72" y1="227.5" y2="152.5" class="net_"/>
  <line x1="72" x2="125" y1="152.5" y2="152.5" class="net_"/>
  <line x1="72" x2="72" y1="227.5" y2="172.5" class="net_"/>
  <circle cx="72" cy="172.5" r="2" style="fill:#000" class="net_"/>
  <line x1="72" x2="125" y1="172.5" y2="172.5" class="net_"/>
  <line x1="72" x2="72" y1="227.5" y2="192.5" class="net_"/>
  <circle cx="72" cy="192.5" r="2" style="fill:#000" class="net_"/>
  <line x1="72" x2="125" y1="192.5" y2="192.5" class="net_"/>
  <line x1="72" x2="72" y1="227.5" y2="212.5" class="net_"/>
  <circle cx="72" cy="212.5" r="2" style="fill:#000" class="net_"/>
  <line x1="72" x2="125" y1="212.5" y2="212.5" class="net_"/>
  <line x1="312" x2="347" y1="32.5" y2="32.5" class="net_13,19,20,21,14,15,22,23,24,25,26,27,28,29,30,31,32,33,34,35,36,37,38,39,40,41,42,43,44,45,46,47"/>
  <line x1="253.33333333333334" x2="274" y1="42.5" y2="42.5" class="net_13"/>
  <line x1="274" x2="274" y1="42.5" y2="22.5" class="net_13"/>
  <line x1="274" x2="306" y1="22.5" y2="22.5" class="net_13"/>
  <line x1="264" x2="284" y1="127" y2="127" class="net_19,20,21"/>
  <line x1="284" x2="284" y1="127" y2="42.5" class="net_19,20,21"/>
  <line x1="284" x2="306" y1="42.5" y2="42.5" class="net_19,20,21"/>
  <line x1="253.33333333333334" x2="306" y1="62.5" y2="62.5" class="net_14,15"/>
  <line x1="264" x2="306.5" y1="192" y2="192" class="net_22,23,24,25,26,27,28,29,30,31,32,33,34,35,36,37,38,39,40,41,42,43,44,45,46,47"/>
  <line x1="306.5" x2="306.5" y1="192" y2="83" class="net_22,23,24,25,26,27,28,29,30,31,32,33,34,35,36,37,38,39,40,41,42,43,44,45,46,47"/>
  <line x1="156" x2="248.33333333333334" y1="52.5" y2="52.5" class="net_13,14,15"/>
</svg>
