<svg xmlns="http://www.w3.org/2000/svg" xmlns:xlink="http://www.w3.org/1999/xlink" xmlns:s="https://github.com/nturley/netlistsvg" width="549" height="574">
  <style>svg {
    stroke:#000;
    fill:none;
  }
  text {
    fill:#000;
    stroke:none;
    font-size:10px;
    font-weight: bold;
    font-family: "Courier New", monospace;
  }
  .nodelabel {
    text-anchor: middle;
  }
  .inputPortLabel {
    text-anchor: end;
  }
  .splitjoinBody {
    fill:#000;
  }</style>
  <g s:type="and" transform="translate(240.66666666666666,27)" s:width="30" s:height="25" id="cell_$logic_and$src/leaf/wb_mux.v:32$195">
    <s:alias val="$and"/>
    <s:alias val="$logic_and"/>
    <s:alias val="$_AND_"/>
    <path d="M0,0 L0,25 L15,25 A15 12.5 0 0 0 15,0 Z" class="cell_$logic_and$src/leaf/wb_mux.v:32$195"/>
    <g s:x="0" s:y="5" s:pid="A"/>
    <g s:x="0" s:y="20" s:pid="B"/>
    <g s:x="30" s:y="12.5" s:pid="Y"/>
  </g>
  <g s:type="and" transform="translate(400,34.5)" s:width="30" s:height="25" id="cell_$logic_and$src/leaf/wb_mux.v:32$197">
    <s:alias val="$and"/>
    <s:alias val="$logic_and"/>
    <s:alias val="$_AND_"/>
    <path d="M0,0 L0,25 L15,25 A15 12.5 0 0 0 15,0 Z" class="cell_$logic_and$src/leaf/wb_mux.v:32$197"/>
    <g s:x="0" s:y="5" s:pid="A"/>
    <g s:x="0" s:y="20" s:pid="B"/>
    <g s:x="30" s:y="12.5" s:pid="Y"/>
  </g>
  <g s:type="not" transform="translate(107,77)" s:width="30" s:height="20" id="cell_$logic_not$src/leaf/wb_mux.v:32$194">
    <s:alias val="$_NOT_"/>
    <s:alias val="$not"/>
    <s:alias val="$logic_not"/>
    <path d="M0,0 L0,20 L20,10 Z" class="cell_$logic_not$src/leaf/wb_mux.v:32$194"/>
    <circle cx="23" cy="10" r="3" class="cell_$logic_not$src/leaf/wb_mux.v:32$194"/>
    <g s:x="0" s:y="10" s:pid="A"/>
    <g s:x="25" s:y="10" s:pid="Y"/>
  </g>
  <g s:type="generic" transform="translate(197,141.5)" s:width="30" s:height="40" id="cell_$ne$src/leaf/wb_mux.v:32$196">
    <text x="15" y="-4" class="nodelabel cell_$ne$src/leaf/wb_mux.v:32$196" s:attribute="ref">$reduce_bool</text>
    <rect width="30" height="20" s:generic="body" class="cell_$ne$src/leaf/wb_mux.v:32$196"/>
    <g transform="translate(0,10)" s:x="0" s:y="10" s:pid="in0" id="port_$ne$src/leaf/wb_mux.v:32$196~A">
      <text x="-3" y="-4" class="inputPortLabel cell_$ne$src/leaf/wb_mux.v:32$196">A</text>
    </g>
    <g transform="translate(30,10)" s:x="30" s:y="10" s:pid="out0" id="port_$ne$src/leaf/wb_mux.v:32$196~Y">
      <text x="5" y="-4" style="fill:#000; stroke:none" class="cell_$ne$src/leaf/wb_mux.v:32$196">Y</text>
    </g>
  </g>
  <g s:type="mux" transform="translate(244,206.5)" s:width="20" s:height="40" id="cell_$procmux$202">
    <s:alias val="$pmux"/>
    <s:alias val="$mux"/>
    <s:alias val="$_MUX_"/>
    <path d="M0,0 L20,10 L20,30 L0,40 Z" class="cell_$procmux$202"/>
    <g s:x="0" s:y="10" s:pid="A"/>
    <g s:x="0" s:y="30" s:pid="B"/>
    <g s:x="10" s:y="35" s:pid="S"/>
    <g s:x="20" s:y="20" s:pid="Y"/>
  </g>
  <g s:type="eq" transform="translate(94.66666666666667,402)" s:width="25" s:height="25" id="cell_$procmux$203_CMP0">
    <s:alias val="$eq"/>
    <circle r="12.5" cx="12.5" cy="12.5" class="cell_$procmux$203_CMP0"/>
    <line x1="7.5" x2="17.5" y1="10" y2="10" class="cell_$procmux$203_CMP0"/>
    <line x1="7.5" x2="17.5" y1="15" y2="15" class="cell_$procmux$203_CMP0"/>
    <g s:x="3" s:y="5" s:pid="A"/>
    <g s:x="3" s:y="20" s:pid="B"/>
    <g s:x="25" s:y="12.5" s:pid="Y"/>
  </g>
  <g s:type="eq" transform="translate(94.66666666666667,482)" s:width="25" s:height="25" id="cell_$procmux$204_CMP0">
    <s:alias val="$eq"/>
    <circle r="12.5" cx="12.5" cy="12.5" class="cell_$procmux$204_CMP0"/>
    <line x1="7.5" x2="17.5" y1="10" y2="10" class="cell_$procmux$204_CMP0"/>
    <line x1="7.5" x2="17.5" y1="15" y2="15" class="cell_$procmux$204_CMP0"/>
    <g s:x="3" s:y="5" s:pid="A"/>
    <g s:x="3" s:y="20" s:pid="B"/>
    <g s:x="25" s:y="12.5" s:pid="Y"/>
  </g>
  <g s:type="not" transform="translate(98,542)" s:width="30" s:height="20" id="cell_$procmux$205_CMP0">
    <s:alias val="$_NOT_"/>
    <s:alias val="$not"/>
    <s:alias val="$logic_not"/>
    <path d="M0,0 L0,20 L20,10 Z" class="cell_$procmux$205_CMP0"/>
    <circle cx="23" cy="10" r="3" class="cell_$procmux$205_CMP0"/>
    <g s:x="0" s:y="10" s:pid="A"/>
    <g s:x="25" s:y="10" s:pid="Y"/>
  </g>
  <g s:type="inputExt" transform="translate(83,347)" s:width="30" s:height="20" id="cell_alu_result">
    <text x="15" y="-4" class="nodelabel cell_alu_result" s:attribute="ref">alu_result</text>
    <s:alias val="$_inputExt_"/>
    <path d="M0,0 L0,20 L15,20 L30,10 L15,0 Z" class="cell_alu_result"/>
    <g s:x="28" s:y="10" s:pid="Y"/>
  </g>
  <g s:type="inputExt" transform="translate(83,282)" s:width="30" s:height="20" id="cell_load_rdata">
    <text x="15" y="-4" class="nodelabel cell_load_rdata" s:attribute="ref">load_rdata</text>
    <s:alias val="$_inputExt_"/>
    <path d="M0,0 L0,20 L15,20 L30,10 L15,0 Z" class="cell_load_rdata"/>
    <g s:x="28" s:y="10" s:pid="Y"/>
  </g>
  <g s:type="inputExt" transform="translate(83,217)" s:width="30" s:height="20" id="cell_pc_plus4">
    <text x="15" y="-4" class="nodelabel cell_pc_plus4" s:attribute="ref">pc_plus4</text>
    <s:alias val="$_inputExt_"/>
    <path d="M0,0 L0,20 L15,20 L30,10 L15,0 Z" class="cell_pc_plus4"/>
    <g s:x="28" s:y="10" s:pid="Y"/>
  </g>
  <g s:type="inputExt" transform="translate(12,477)" s:width="30" s:height="20" id="cell_wb_sel">
    <text x="15" y="-4" class="nodelabel cell_wb_sel" s:attribute="ref">wb_sel</text>
    <s:alias val="$_inputExt_"/>
    <path d="M0,0 L0,20 L15,20 L30,10 L15,0 Z" class="cell_wb_sel"/>
    <g s:x="28" s:y="10" s:pid="Y"/>
  </g>
  <g s:type="inputExt" transform="translate(89,22)" s:width="30" s:height="20" id="cell_regwrite_in">
    <text x="15" y="-4" class="nodelabel cell_regwrite_in" s:attribute="ref">regwrite_in</text>
    <s:alias val="$_inputExt_"/>
    <path d="M0,0 L0,20 L15,20 L30,10 L15,0 Z" class="cell_regwrite_in"/>
    <g s:x="28" s:y="10" s:pid="Y"/>
  </g>
  <g s:type="inputExt" transform="translate(12,77)" s:width="30" s:height="20" id="cell_kill_wb">
    <text x="15" y="-4" class="nodelabel cell_kill_wb" s:attribute="ref">kill_wb</text>
    <s:alias val="$_inputExt_"/>
    <path d="M0,0 L0,20 L15,20 L30,10 L15,0 Z" class="cell_kill_wb"/>
    <g s:x="28" s:y="10" s:pid="Y"/>
  </g>
  <g s:type="inputExt" transform="translate(89,142)" s:width="30" s:height="20" id="cell_rd_in">
    <text x="15" y="-4" class="nodelabel cell_rd_in" s:attribute="ref">rd_in</text>
    <s:alias val="$_inputExt_"/>
    <path d="M0,0 L0,20 L15,20 L30,10 L15,0 Z" class="cell_rd_in"/>
    <g s:x="28" s:y="10" s:pid="Y"/>
  </g>
  <g s:type="outputExt" transform="translate(299,216.5)" s:width="30" s:height="20" id="cell_rd_wdata">
    <text x="15" y="-4" class="nodelabel cell_rd_wdata" s:attribute="ref">rd_wdata</text>
    <s:alias val="$_outputExt_"/>
    <path d="M30,0 L30,20 L15,20 L0,10 L15,0 Z" class="cell_rd_wdata"/>
    <g s:x="0" s:y="10" s:pid="A"/>
  </g>
  <g s:type="outputExt" transform="translate(465,37)" s:width="30" s:height="20" id="cell_regwrite_out">
    <text x="15" y="-4" class="nodelabel cell_regwrite_out" s:attribute="ref">regwrite_out</text>
    <s:alias val="$_outputExt_"/>
    <path d="M30,0 L30,20 L15,20 L0,10 L15,0 Z" class="cell_regwrite_out"/>
    <g s:x="0" s:y="10" s:pid="A"/>
  </g>
  <g s:type="outputExt" transform="translate(465,164.5)" s:width="30" s:height="20" id="cell_rd_out">
    <text x="15" y="-4" class="nodelabel cell_rd_out" s:attribute="ref">rd_out</text>
    <s:alias val="$_outputExt_"/>
    <path d="M30,0 L30,20 L15,20 L0,10 L15,0 Z" class="cell_rd_out"/>
    <g s:x="0" s:y="10" s:pid="A"/>
  </g>
  <g s:type="constant" transform="translate(178,206.5)" s:width="30" s:height="20" id="cell_00000000000000000000000000000000">
    <text x="15" y="-4" class="nodelabel cell_00000000000000000000000000000000" s:attribute="ref">0x0</text>
    <s:alias val="$_constant_"/>
    <rect width="30" height="20" class="cell_00000000000000000000000000000000"/>
    <g s:x="30" s:y="10" s:pid="Y"/>
  </g>
  <g s:type="constant" transform="translate(12,412)" s:width="30" s:height="20" id="cell_10">
    <text x="15" y="-4" class="nodelabel cell_10" s:attribute="ref">10</text>
    <s:alias val="$_constant_"/>
    <rect width="30" height="20" class="cell_10"/>
    <g s:x="30" s:y="10" s:pid="Y"/>
  </g>
  <g s:type="constant" transform="translate(12,542)" s:width="30" s:height="20" id="cell_01">
    <text x="15" y="-4" class="nodelabel cell_01" s:attribute="ref">01</text>
    <s:alias val="$_constant_"/>
    <rect width="30" height="20" class="cell_01"/>
    <g s:x="30" s:y="10" s:pid="Y"/>
  </g>
  <g s:type="join" transform="translate(203,261.5)" s:width="4" s:height="40" id="cell_$join$,66,67,68,69,70,71,72,73,74,75,76,77,78,79,80,81,82,83,84,85,86,87,88,89,90,91,92,93,94,95,96,97,34,35,36,37,38,39,40,41,42,43,44,45,46,47,48,49,50,51,52,53,54,55,56,57,58,59,60,61,62,63,64,65,2,3,4,5,6,7,8,9,10,11,12,13,14,15,16,17,18,19,20,21,22,23,24,25,26,27,28,29,30,31,32,33,">
    <rect width="5" height="60" class="splitjoinBody" s:generic="body"/>
    <s:alias val="$_join_"/>
    <g s:x="5" s:y="20" s:pid="out"/>
    <g transform="translate(0,10)" s:x="0" s:y="10" s:pid="in0">
      <text x="-3" y="-4" class="inputPortLabel">0:31</text>
    </g>
    <g transform="translate(0,30)" s:x="0" s:y="10" s:pid="in0">
      <text x="-3" y="-4" class="inputPortLabel">32:63</text>
    </g>
    <g transform="translate(0,50)" s:x="0" s:y="10" s:pid="in0">
      <text x="-3" y="-4" class="inputPortLabel">64:95</text>
    </g>
  </g>
  <g s:type="join" transform="translate(197.25,464)" s:width="4" s:height="40" id="cell_$join$,143,144,145,">
    <rect width="5" height="60" class="splitjoinBody" s:generic="body"/>
    <s:alias val="$_join_"/>
    <g s:x="5" s:y="20" s:pid="out"/>
    <g transform="translate(0,10)" s:x="0" s:y="10" s:pid="in0">
      <text x="-3" y="-4" class="inputPortLabel">0</text>
    </g>
    <g transform="translate(0,30)" s:x="0" s:y="10" s:pid="in0">
      <text x="-3" y="-4" class="inputPortLabel">1</text>
    </g>
    <g transform="translate(0,50)" s:x="0" s:y="10" s:pid="in0">
      <text x="-3" y="-4" class="inputPortLabel">2</text>
    </g>
  </g>
  <line x1="117" x2="240.66666666666666" y1="32" y2="32" class="net_100"/>
  <line x1="132" x2="165" y1="87" y2="87" class="net_140"/>
  <line x1="165" x2="165" y1="87" y2="47" class="net_140"/>
  <line x1="165" x2="240.66666666666666" y1="47" y2="47" class="net_140"/>
  <line x1="270.66666666666663" x2="400" y1="39.5" y2="39.5" class="net_141"/>
  <line x1="228" x2="375" y1="152" y2="152" class="net_142"/>
  <line x1="375" x2="375" y1="152" y2="54.5" class="net_142"/>
  <line x1="375" x2="400" y1="54.5" y2="54.5" class="net_142"/>
  <line x1="40" x2="107" y1="87" y2="87" class="net_101"/>
  <line x1="117" x2="197" y1="152" y2="152" class="net_102,103,104,105,106"/>
  <line x1="117" x2="165" y1="152" y2="152" class="net_102,103,104,105,106"/>
  <line x1="165" x2="165" y1="152" y2="174.5" class="net_102,103,104,105,106"/>
  <circle cx="165" cy="152" r="2" style="fill:#000" class="net_102,103,104,105,106"/>
  <line x1="165" x2="465" y1="174.5" y2="174.5" class="net_102,103,104,105,106"/>
  <line x1="208" x2="244" y1="216.5" y2="216.5" class="net_146,147,148,149,150,151,152,153,154,155,156,157,158,159,160,161,162,163,164,165,166,167,168,169,170,171,172,173,174,175,176,177"/>
  <line x1="209" x2="219" y1="282" y2="282" class="net_66,67,68,69,70,71,72,73,74,75,76,77,78,79,80,81,82,83,84,85,86,87,88,89,90,91,92,93,94,95,96,97,34,35,36,37,38,39,40,41,42,43,44,45,46,47,48,49,50,51,52,53,54,55,56,57,58,59,60,61,62,63,64,65,2,3,4,5,6,7,8,9,10,11,12,13,14,15,16,17,18,19,20,21,22,23,24,25,26,27,28,29,30,31,32,33"/>
  <line x1="219" x2="219" y1="282" y2="236.5" class="net_66,67,68,69,70,71,72,73,74,75,76,77,78,79,80,81,82,83,84,85,86,87,88,89,90,91,92,93,94,95,96,97,34,35,36,37,38,39,40,41,42,43,44,45,46,47,48,49,50,51,52,53,54,55,56,57,58,59,60,61,62,63,64,65,2,3,4,5,6,7,8,9,10,11,12,13,14,15,16,17,18,19,20,21,22,23,24,25,26,27,28,29,30,31,32,33"/>
  <line x1="219" x2="244" y1="236.5" y2="236.5" class="net_66,67,68,69,70,71,72,73,74,75,76,77,78,79,80,81,82,83,84,85,86,87,88,89,90,91,92,93,94,95,96,97,34,35,36,37,38,39,40,41,42,43,44,45,46,47,48,49,50,51,52,53,54,55,56,57,58,59,60,61,62,63,64,65,2,3,4,5,6,7,8,9,10,11,12,13,14,15,16,17,18,19,20,21,22,23,24,25,26,27,28,29,30,31,32,33"/>
  <line x1="203.25" x2="254" y1="484.5" y2="484.5" class="net_143,144,145"/>
  <line x1="254" x2="254" y1="484.5" y2="241.5" class="net_143,144,145"/>
  <line x1="40" x2="68" y1="487" y2="487" class="net_98,99"/>
  <line x1="68" x2="68" y1="487" y2="407" class="net_98,99"/>
  <circle cx="68" cy="487" r="2" style="fill:#000" class="net_98,99"/>
  <line x1="68" x2="97.66666666666667" y1="407" y2="407" class="net_98,99"/>
  <line x1="40" x2="97.66666666666667" y1="487" y2="487" class="net_98,99"/>
  <line x1="40" x2="68" y1="487" y2="487" class="net_98,99"/>
  <line x1="68" x2="68" y1="487" y2="552" class="net_98,99"/>
  <line x1="68" x2="98" y1="552" y2="552" class="net_98,99"/>
  <line x1="42" x2="97.66666666666667" y1="422" y2="422" class="net_178,179"/>
  <line x1="42" x2="58" y1="552" y2="552" class="net_180,181"/>
  <line x1="58" x2="58" y1="552" y2="502" class="net_180,181"/>
  <line x1="58" x2="97.66666666666667" y1="502" y2="502" class="net_180,181"/>
  <line x1="264" x2="299" y1="226.5" y2="226.5" class="net_107,108,109,110,111,112,113,114,115,116,117,118,119,120,121,122,123,124,125,126,127,128,129,130,131,132,133,134,135,136,137,138"/>
  <line x1="430" x2="465" y1="47" y2="47" class="net_139"/>
  <line x1="111" x2="153" y1="227" y2="227" class="net_66,67,68,69,70,71,72,73,74,75,76,77,78,79,80,81,82,83,84,85,86,87,88,89,90,91,92,93,94,95,96,97"/>
  <line x1="153" x2="153" y1="227" y2="272" class="net_66,67,68,69,70,71,72,73,74,75,76,77,78,79,80,81,82,83,84,85,86,87,88,89,90,91,92,93,94,95,96,97"/>
  <line x1="153" x2="203" y1="272" y2="272" class="net_66,67,68,69,70,71,72,73,74,75,76,77,78,79,80,81,82,83,84,85,86,87,88,89,90,91,92,93,94,95,96,97"/>
  <line x1="111" x2="203" y1="292" y2="292" class="net_34,35,36,37,38,39,40,41,42,43,44,45,46,47,48,49,50,51,52,53,54,55,56,57,58,59,60,61,62,63,64,65"/>
  <line x1="111" x2="153" y1="357" y2="357" class="net_2,3,4,5,6,7,8,9,10,11,12,13,14,15,16,17,18,19,20,21,22,23,24,25,26,27,28,29,30,31,32,33"/>
  <line x1="153" x2="153" y1="357" y2="312" class="net_2,3,4,5,6,7,8,9,10,11,12,13,14,15,16,17,18,19,20,21,22,23,24,25,26,27,28,29,30,31,32,33"/>
  <line x1="153" x2="203" y1="312" y2="312" class="net_2,3,4,5,6,7,8,9,10,11,12,13,14,15,16,17,18,19,20,21,22,23,24,25,26,27,28,29,30,31,32,33"/>
  <line x1="119.66666666666667" x2="153" y1="414.5" y2="414.5" class="net_143"/>
  <line x1="153" x2="153" y1="414.5" y2="474.5" class="net_143"/>
  <line x1="153" x2="197.25" y1="474.5" y2="474.5" class="net_143"/>
  <line x1="119.66666666666667" x2="197.25" y1="494.5" y2="494.5" class="net_144"/>
  <line x1="123" x2="153" y1="552" y2="552" class="net_145"/>
  <line x1="153" x2="153" y1="552" y2="514.5" class="net_145"/>
  <line x1="153" x2="197.25" y1="514.5" y2="514.5" class="net_145"/>
</svg>
