<svg xmlns="http://www.w3.org/2000/svg" xmlns:xlink="http://www.w3.org/1999/xlink" xmlns:s="https://github.com/nturley/netlistsvg" width="492" height="1125">
  <style>svg {
    stroke:#000;
    fill:none;
  }
  text {
    fill:#000;
    stroke:none;
    font-size:10px;
    font-weight: bold;
    font-family: "Courier New", monospace;
  }
  .nodelabel {
    text-anchor: middle;
  }
  .inputPortLabel {
    text-anchor: end;
  }
  .splitjoinBody {
    fill:#000;
  }</style>
  <g s:type="mux" transform="translate(259.5,153)" s:width="20" s:height="40" id="cell_$procmux$227">
    <s:alias val="$pmux"/>
    <s:alias val="$mux"/>
    <s:alias val="$_MUX_"/>
    <path d="M0,0 L20,10 L20,30 L0,40 Z" class="cell_$procmux$227"/>
    <g s:x="0" s:y="10" s:pid="A"/>
    <g s:x="0" s:y="30" s:pid="B"/>
    <g s:x="10" s:y="35" s:pid="S"/>
    <g s:x="20" s:y="20" s:pid="Y"/>
  </g>
  <g s:type="eq" transform="translate(113.66666666666667,418)" s:width="25" s:height="25" id="cell_$procmux$228_CMP0">
    <s:alias val="$eq"/>
    <circle r="12.5" cx="12.5" cy="12.5" class="cell_$procmux$228_CMP0"/>
    <line x1="7.5" x2="17.5" y1="10" y2="10" class="cell_$procmux$228_CMP0"/>
    <line x1="7.5" x2="17.5" y1="15" y2="15" class="cell_$procmux$228_CMP0"/>
    <g s:x="3" s:y="5" s:pid="A"/>
    <g s:x="3" s:y="20" s:pid="B"/>
    <g s:x="25" s:y="12.5" s:pid="Y"/>
  </g>
  <g s:type="eq" transform="translate(113.66666666666667,483)" s:width="25" s:height="25" id="cell_$procmux$229_CMP0">
    <s:alias val="$eq"/>
    <circle r="12.5" cx="12.5" cy="12.5" class="cell_$procmux$229_CMP0"/>
    <line x1="7.5" x2="17.5" y1="10" y2="10" class="cell_$procmux$229_CMP0"/>
    <line x1="7.5" x2="17.5" y1="15" y2="15" class="cell_$procmux$229_CMP0"/>
    <g s:x="3" s:y="5" s:pid="A"/>
    <g s:x="3" s:y="20" s:pid="B"/>
    <g s:x="25" s:y="12.5" s:pid="Y"/>
  </g>
  <g s:type="eq" transform="translate(113.66666666666667,548)" s:width="25" s:height="25" id="cell_$procmux$230_CMP0">
    <s:alias val="$eq"/>
    <circle r="12.5" cx="12.5" cy="12.5" class="cell_$procmux$230_CMP0"/>
    <line x1="7.5" x2="17.5" y1="10" y2="10" class="cell_$procmux$230_CMP0"/>
    <line x1="7.5" x2="17.5" y1="15" y2="15" class="cell_$procmux$230_CMP0"/>
    <g s:x="3" s:y="5" s:pid="A"/>
    <g s:x="3" s:y="20" s:pid="B"/>
    <g s:x="25" s:y="12.5" s:pid="Y"/>
  </g>
  <g s:type="eq" transform="translate(113.66666666666667,628)" s:width="25" s:height="25" id="cell_$procmux$231_CMP0">
    <s:alias val="$eq"/>
    <circle r="12.5" cx="12.5" cy="12.5" class="cell_$procmux$231_CMP0"/>
    <line x1="7.5" x2="17.5" y1="10" y2="10" class="cell_$procmux$231_CMP0"/>
    <line x1="7.5" x2="17.5" y1="15" y2="15" class="cell_$procmux$231_CMP0"/>
    <g s:x="3" s:y="5" s:pid="A"/>
    <g s:x="3" s:y="20" s:pid="B"/>
    <g s:x="25" s:y="12.5" s:pid="Y"/>
  </g>
  <g s:type="eq" transform="translate(113.66666666666667,743)" s:width="25" s:height="25" id="cell_$procmux$232_CMP0">
    <s:alias val="$eq"/>
    <circle r="12.5" cx="12.5" cy="12.5" class="cell_$procmux$232_CMP0"/>
    <line x1="7.5" x2="17.5" y1="10" y2="10" class="cell_$procmux$232_CMP0"/>
    <line x1="7.5" x2="17.5" y1="15" y2="15" class="cell_$procmux$232_CMP0"/>
    <g s:x="3" s:y="5" s:pid="A"/>
    <g s:x="3" s:y="20" s:pid="B"/>
    <g s:x="25" s:y="12.5" s:pid="Y"/>
  </g>
  <g s:type="eq" transform="translate(113.66666666666667,808)" s:width="25" s:height="25" id="cell_$procmux$233_CMP0">
    <s:alias val="$eq"/>
    <circle r="12.5" cx="12.5" cy="12.5" class="cell_$procmux$233_CMP0"/>
    <line x1="7.5" x2="17.5" y1="10" y2="10" class="cell_$procmux$233_CMP0"/>
    <line x1="7.5" x2="17.5" y1="15" y2="15" class="cell_$procmux$233_CMP0"/>
    <g s:x="3" s:y="5" s:pid="A"/>
    <g s:x="3" s:y="20" s:pid="B"/>
    <g s:x="25" s:y="12.5" s:pid="Y"/>
  </g>
  <g s:type="eq" transform="translate(113.66666666666667,873)" s:width="25" s:height="25" id="cell_$procmux$234_CMP0">
    <s:alias val="$eq"/>
    <circle r="12.5" cx="12.5" cy="12.5" class="cell_$procmux$234_CMP0"/>
    <line x1="7.5" x2="17.5" y1="10" y2="10" class="cell_$procmux$234_CMP0"/>
    <line x1="7.5" x2="17.5" y1="15" y2="15" class="cell_$procmux$234_CMP0"/>
    <g s:x="3" s:y="5" s:pid="A"/>
    <g s:x="3" s:y="20" s:pid="B"/>
    <g s:x="25" s:y="12.5" s:pid="Y"/>
  </g>
  <g s:type="not" transform="translate(113,933)" s:width="30" s:height="20" id="cell_$procmux$235_CMP0">
    <s:alias val="$_NOT_"/>
    <s:alias val="$not"/>
    <s:alias val="$logic_not"/>
    <path d="M0,0 L0,20 L20,10 Z" class="cell_$procmux$235_CMP0"/>
    <circle cx="23" cy="10" r="3" class="cell_$procmux$235_CMP0"/>
    <g s:x="0" s:y="10" s:pid="A"/>
    <g s:x="25" s:y="10" s:pid="Y"/>
  </g>
  <g s:type="eq" transform="translate(257,968)" s:width="25" s:height="25" id="cell_$procmux$237_CMP0">
    <s:alias val="$eq"/>
    <circle r="12.5" cx="12.5" cy="12.5" class="cell_$procmux$237_CMP0"/>
    <line x1="7.5" x2="17.5" y1="10" y2="10" class="cell_$procmux$237_CMP0"/>
    <line x1="7.5" x2="17.5" y1="15" y2="15" class="cell_$procmux$237_CMP0"/>
    <g s:x="3" s:y="5" s:pid="A"/>
    <g s:x="3" s:y="20" s:pid="B"/>
    <g s:x="25" s:y="12.5" s:pid="Y"/>
  </g>
  <g s:type="mux" transform="translate(377,87)" s:width="20" s:height="40" id="cell_$procmux$239">
    <s:alias val="$pmux"/>
    <s:alias val="$mux"/>
    <s:alias val="$_MUX_"/>
    <path d="M0,0 L20,10 L20,30 L0,40 Z" class="cell_$procmux$239"/>
    <g s:x="0" s:y="10" s:pid="A"/>
    <g s:x="0" s:y="30" s:pid="B"/>
    <g s:x="10" s:y="35" s:pid="S"/>
    <g s:x="20" s:y="20" s:pid="Y"/>
  </g>
  <g s:type="eq" transform="translate(257,1083)" s:width="25" s:height="25" id="cell_$procmux$241_CMP0">
    <s:alias val="$eq"/>
    <circle r="12.5" cx="12.5" cy="12.5" class="cell_$procmux$241_CMP0"/>
    <line x1="7.5" x2="17.5" y1="10" y2="10" class="cell_$procmux$241_CMP0"/>
    <line x1="7.5" x2="17.5" y1="15" y2="15" class="cell_$procmux$241_CMP0"/>
    <g s:x="3" s:y="5" s:pid="A"/>
    <g s:x="3" s:y="20" s:pid="B"/>
    <g s:x="25" s:y="12.5" s:pid="Y"/>
  </g>
  <g s:type="mux" transform="translate(115.33333333333333,343)" s:width="20" s:height="40" id="cell_$ternary$src/leaf/alu_control.v:18$35">
    <s:alias val="$pmux"/>
    <s:alias val="$mux"/>
    <s:alias val="$_MUX_"/>
    <path d="M0,0 L20,10 L20,30 L0,40 Z" class="cell_$ternary$src/leaf/alu_control.v:18$35"/>
    <g s:x="0" s:y="10" s:pid="A"/>
    <g s:x="0" s:y="30" s:pid="B"/>
    <g s:x="10" s:y="35" s:pid="S"/>
    <g s:x="20" s:y="20" s:pid="Y"/>
  </g>
  <g s:type="mux" transform="translate(115.33333333333333,173)" s:width="20" s:height="40" id="cell_$ternary$src/leaf/alu_control.v:23$36">
    <s:alias val="$pmux"/>
    <s:alias val="$mux"/>
    <s:alias val="$_MUX_"/>
    <path d="M0,0 L20,10 L20,30 L0,40 Z" class="cell_$ternary$src/leaf/alu_control.v:23$36"/>
    <g s:x="0" s:y="10" s:pid="A"/>
    <g s:x="0" s:y="30" s:pid="B"/>
    <g s:x="10" s:y="35" s:pid="S"/>
    <g s:x="20" s:y="20" s:pid="Y"/>
  </g>
  <g s:type="inputExt" transform="translate(186,963)" s:width="30" s:height="20" id="cell_alu_op">
    <text x="15" y="-4" class="nodelabel cell_alu_op" s:attribute="ref">alu_op</text>
    <s:alias val="$_inputExt_"/>
    <path d="M0,0 L0,20 L15,20 L30,10 L15,0 Z" class="cell_alu_op"/>
    <g s:x="28" s:y="10" s:pid="Y"/>
  </g>
  <g s:type="inputExt" transform="translate(12,623)" s:width="30" s:height="20" id="cell_funct3">
    <text x="15" y="-4" class="nodelabel cell_funct3" s:attribute="ref">funct3</text>
    <s:alias val="$_inputExt_"/>
    <path d="M0,0 L0,20 L15,20 L30,10 L15,0 Z" class="cell_funct3"/>
    <g s:x="28" s:y="10" s:pid="Y"/>
  </g>
  <g s:type="inputExt" transform="translate(12,258)" s:width="30" s:height="20" id="cell_funct7_5">
    <text x="15" y="-4" class="nodelabel cell_funct7_5" s:attribute="ref">funct7_5</text>
    <s:alias val="$_inputExt_"/>
    <path d="M0,0 L0,20 L15,20 L30,10 L15,0 Z" class="cell_funct7_5"/>
    <g s:x="28" s:y="10" s:pid="Y"/>
  </g>
  <g s:type="outputExt" transform="translate(432,97)" s:width="30" s:height="20" id="cell_alu_ctrl">
    <text x="15" y="-4" class="nodelabel cell_alu_ctrl" s:attribute="ref">alu_ctrl</text>
    <s:alias val="$_outputExt_"/>
    <path d="M30,0 L30,20 L15,20 L0,10 L15,0 Z" class="cell_alu_ctrl"/>
    <g s:x="0" s:y="10" s:pid="A"/>
  </g>
  <g s:type="constant" transform="translate(110,118)" s:width="30" s:height="20" id="cell_10001001">
    <text x="15" y="-4" class="nodelabel cell_10001001" s:attribute="ref">0x89</text>
    <s:alias val="$_constant_"/>
    <rect width="30" height="20" class="cell_10001001"/>
    <g s:x="30" s:y="10" s:pid="Y"/>
  </g>
  <g s:type="constant" transform="translate(110,288)" s:width="30" s:height="20" id="cell_0010001101000101">
    <text x="15" y="-4" class="nodelabel cell_0010001101000101" s:attribute="ref">0x2345</text>
    <s:alias val="$_constant_"/>
    <rect width="30" height="20" class="cell_0010001101000101"/>
    <g s:x="30" s:y="10" s:pid="Y"/>
  </g>
  <g s:type="constant" transform="translate(12,428)" s:width="30" s:height="20" id="cell_111">
    <text x="15" y="-4" class="nodelabel cell_111" s:attribute="ref">111</text>
    <s:alias val="$_constant_"/>
    <rect width="30" height="20" class="cell_111"/>
    <g s:x="30" s:y="10" s:pid="Y"/>
  </g>
  <g s:type="constant" transform="translate(12,493)" s:width="30" s:height="20" id="cell_110">
    <text x="15" y="-4" class="nodelabel cell_110" s:attribute="ref">110</text>
    <s:alias val="$_constant_"/>
    <rect width="30" height="20" class="cell_110"/>
    <g s:x="30" s:y="10" s:pid="Y"/>
  </g>
  <g s:type="constant" transform="translate(12,558)" s:width="30" s:height="20" id="cell_101">
    <text x="15" y="-4" class="nodelabel cell_101" s:attribute="ref">101</text>
    <s:alias val="$_constant_"/>
    <rect width="30" height="20" class="cell_101"/>
    <g s:x="30" s:y="10" s:pid="Y"/>
  </g>
  <g s:type="constant" transform="translate(12,688)" s:width="30" s:height="20" id="cell_100">
    <text x="15" y="-4" class="nodelabel cell_100" s:attribute="ref">100</text>
    <s:alias val="$_constant_"/>
    <rect width="30" height="20" class="cell_100"/>
    <g s:x="30" s:y="10" s:pid="Y"/>
  </g>
  <g s:type="constant" transform="translate(12,753)" s:width="30" s:height="20" id="cell_011">
    <text x="15" y="-4" class="nodelabel cell_011" s:attribute="ref">011</text>
    <s:alias val="$_constant_"/>
    <rect width="30" height="20" class="cell_011"/>
    <g s:x="30" s:y="10" s:pid="Y"/>
  </g>
  <g s:type="constant" transform="translate(12,818)" s:width="30" s:height="20" id="cell_010">
    <text x="15" y="-4" class="nodelabel cell_010" s:attribute="ref">010</text>
    <s:alias val="$_constant_"/>
    <rect width="30" height="20" class="cell_010"/>
    <g s:x="30" s:y="10" s:pid="Y"/>
  </g>
  <g s:type="constant" transform="translate(12,883)" s:width="30" s:height="20" id="cell_001">
    <text x="15" y="-4" class="nodelabel cell_001" s:attribute="ref">001</text>
    <s:alias val="$_constant_"/>
    <rect width="30" height="20" class="cell_001"/>
    <g s:x="30" s:y="10" s:pid="Y"/>
  </g>
  <g s:type="constant" transform="translate(186,1028)" s:width="30" s:height="20" id="cell_10">
    <text x="15" y="-4" class="nodelabel cell_10" s:attribute="ref">10</text>
    <s:alias val="$_constant_"/>
    <rect width="30" height="20" class="cell_10"/>
    <g s:x="30" s:y="10" s:pid="Y"/>
  </g>
  <g s:type="constant" transform="translate(12,87)" s:width="30" s:height="20" id="cell_0000">
    <text x="15" y="-4" class="nodelabel cell_0000" s:attribute="ref">0x0</text>
    <s:alias val="$_constant_"/>
    <rect width="30" height="20" class="cell_0000"/>
    <g s:x="30" s:y="10" s:pid="Y"/>
  </g>
  <g s:type="constant" transform="translate(12,363)" s:width="30" s:height="20" id="cell_0001">
    <text x="15" y="-4" class="nodelabel cell_0001" s:attribute="ref">0x1</text>
    <s:alias val="$_constant_"/>
    <rect width="30" height="20" class="cell_0001"/>
    <g s:x="30" s:y="10" s:pid="Y"/>
  </g>
  <g s:type="constant" transform="translate(186,1093)" s:width="30" s:height="20" id="cell_01">
    <text x="15" y="-4" class="nodelabel cell_01" s:attribute="ref">01</text>
    <s:alias val="$_constant_"/>
    <rect width="30" height="20" class="cell_01"/>
    <g s:x="30" s:y="10" s:pid="Y"/>
  </g>
  <g s:type="constant" transform="translate(12,22)" s:width="30" s:height="20" id="cell_0110">
    <text x="15" y="-4" class="nodelabel cell_0110" s:attribute="ref">0x6</text>
    <s:alias val="$_constant_"/>
    <rect width="30" height="20" class="cell_0110"/>
    <g s:x="30" s:y="10" s:pid="Y"/>
  </g>
  <g s:type="constant" transform="translate(12,193)" s:width="30" s:height="20" id="cell_0111">
    <text x="15" y="-4" class="nodelabel cell_0111" s:attribute="ref">0x7</text>
    <s:alias val="$_constant_"/>
    <rect width="30" height="20" class="cell_0111"/>
    <g s:x="30" s:y="10" s:pid="Y"/>
  </g>
  <g s:type="join" transform="translate(205,162.5)" s:width="4" s:height="40" id="cell_$join$,34,35,36,37,38,39,40,41,12,13,14,15,42,43,44,45,46,47,48,49,50,51,52,53,54,55,56,57,16,17,18,19,">
    <rect width="5" height="80" class="splitjoinBody" s:generic="body"/>
    <s:alias val="$_join_"/>
    <g s:x="5" s:y="20" s:pid="out"/>
    <g transform="translate(0,10)" s:x="0" s:y="10" s:pid="in0">
      <text x="-3" y="-4" class="inputPortLabel">0:7</text>
    </g>
    <g transform="translate(0,30)" s:x="0" s:y="10" s:pid="in0">
      <text x="-3" y="-4" class="inputPortLabel">8:11</text>
    </g>
    <g transform="translate(0,50)" s:x="0" s:y="10" s:pid="in0">
      <text x="-3" y="-4" class="inputPortLabel">12:27</text>
    </g>
    <g transform="translate(0,70)" s:x="0" s:y="10" s:pid="in0">
      <text x="-3" y="-4" class="inputPortLabel">28:31</text>
    </g>
  </g>
  <g s:type="join" transform="translate(204.14285714285714,570)" s:width="4" s:height="40" id="cell_$join$,20,21,22,23,24,25,26,27,">
    <rect width="5" height="160" class="splitjoinBody" s:generic="body"/>
    <s:alias val="$_join_"/>
    <g s:x="5" s:y="20" s:pid="out"/>
    <g transform="translate(0,10)" s:x="0" s:y="10" s:pid="in0">
      <text x="-3" y="-4" class="inputPortLabel">0</text>
    </g>
    <g transform="translate(0,30)" s:x="0" s:y="10" s:pid="in0">
      <text x="-3" y="-4" class="inputPortLabel">1</text>
    </g>
    <g transform="translate(0,50)" s:x="0" s:y="10" s:pid="in0">
      <text x="-3" y="-4" class="inputPortLabel">2</text>
    </g>
    <g transform="translate(0,70)" s:x="0" s:y="10" s:pid="in0">
      <text x="-3" y="-4" class="inputPortLabel">3</text>
    </g>
    <g transform="translate(0,90)" s:x="0" s:y="10" s:pid="in0">
      <text x="-3" y="-4" class="inputPortLabel">4</text>
    </g>
    <g transform="translate(0,110)" s:x="0" s:y="10" s:pid="in0">
      <text x="-3" y="-4" class="inputPortLabel">5</text>
    </g>
    <g transform="translate(0,130)" s:x="0" s:y="10" s:pid="in0">
      <text x="-3" y="-4" class="inputPortLabel">6</text>
    </g>
    <g transform="translate(0,150)" s:x="0" s:y="10" s:pid="in0">
      <text x="-3" y="-4" class="inputPortLabel">7</text>
    </g>
  </g>
  <g s:type="join" transform="translate(336,162.5)" s:width="4" s:height="40" id="cell_$join$,28,29,30,31,85,86,87,88,">
    <rect width="5" height="40" class="splitjoinBody" s:generic="body"/>
    <s:alias val="$_join_"/>
    <g s:x="5" s:y="20" s:pid="out"/>
    <g transform="translate(0,10)" s:x="0" s:y="10" s:pid="in0">
      <text x="-3" y="-4" class="inputPortLabel">0:3</text>
    </g>
    <g transform="translate(0,30)" s:x="0" s:y="10" s:pid="in0">
      <text x="-3" y="-4" class="inputPortLabel">4:7</text>
    </g>
  </g>
  <g s:type="join" transform="translate(330.3333333333333,970)" s:width="4" s:height="40" id="cell_$join$,32,33,">
    <rect width="5" height="40" class="splitjoinBody" s:generic="body"/>
    <s:alias val="$_join_"/>
    <g s:x="5" s:y="20" s:pid="out"/>
    <g transform="translate(0,10)" s:x="0" s:y="10" s:pid="in0">
      <text x="-3" y="-4" class="inputPortLabel">0</text>
    </g>
    <g transform="translate(0,30)" s:x="0" s:y="10" s:pid="in0">
      <text x="-3" y="-4" class="inputPortLabel">1</text>
    </g>
  </g>
  <line x1="211" x2="259.5" y1="183" y2="183" class="net_34,35,36,37,38,39,40,41,12,13,14,15,42,43,44,45,46,47,48,49,50,51,52,53,54,55,56,57,16,17,18,19"/>
  <line x1="210.14285714285714" x2="269.5" y1="590.5" y2="590.5" class="net_20,21,22,23,24,25,26,27"/>
  <line x1="269.5" x2="269.5" y1="590.5" y2="188" class="net_20,21,22,23,24,25,26,27"/>
  <line x1="40" x2="80" y1="633" y2="633" class="net_4,5,6"/>
  <line x1="80" x2="80" y1="633" y2="423" class="net_4,5,6"/>
  <circle cx="80" cy="633" r="2" style="fill:#000" class="net_4,5,6"/>
  <line x1="80" x2="116.66666666666667" y1="423" y2="423" class="net_4,5,6"/>
  <line x1="40" x2="80" y1="633" y2="633" class="net_4,5,6"/>
  <line x1="80" x2="80" y1="633" y2="488" class="net_4,5,6"/>
  <circle cx="80" cy="488" r="2" style="fill:#000" class="net_4,5,6"/>
  <line x1="80" x2="116.66666666666667" y1="488" y2="488" class="net_4,5,6"/>
  <line x1="40" x2="80" y1="633" y2="633" class="net_4,5,6"/>
  <line x1="80" x2="80" y1="633" y2="553" class="net_4,5,6"/>
  <circle cx="80" cy="553" r="2" style="fill:#000" class="net_4,5,6"/>
  <line x1="80" x2="116.66666666666667" y1="553" y2="553" class="net_4,5,6"/>
  <line x1="40" x2="116.66666666666667" y1="633" y2="633" class="net_4,5,6"/>
  <line x1="40" x2="80" y1="633" y2="633" class="net_4,5,6"/>
  <line x1="80" x2="80" y1="633" y2="748" class="net_4,5,6"/>
  <circle cx="80" cy="748" r="2" style="fill:#000" class="net_4,5,6"/>
  <line x1="80" x2="116.66666666666667" y1="748" y2="748" class="net_4,5,6"/>
  <line x1="40" x2="80" y1="633" y2="633" class="net_4,5,6"/>
  <line x1="80" x2="80" y1="633" y2="813" class="net_4,5,6"/>
  <circle cx="80" cy="813" r="2" style="fill:#000" class="net_4,5,6"/>
  <line x1="80" x2="116.66666666666667" y1="813" y2="813" class="net_4,5,6"/>
  <line x1="40" x2="80" y1="633" y2="633" class="net_4,5,6"/>
  <line x1="80" x2="80" y1="633" y2="878" class="net_4,5,6"/>
  <circle cx="80" cy="878" r="2" style="fill:#000" class="net_4,5,6"/>
  <line x1="80" x2="116.66666666666667" y1="878" y2="878" class="net_4,5,6"/>
  <line x1="40" x2="80" y1="633" y2="633" class="net_4,5,6"/>
  <line x1="80" x2="80" y1="633" y2="943" class="net_4,5,6"/>
  <line x1="80" x2="113" y1="943" y2="943" class="net_4,5,6"/>
  <line x1="42" x2="116.66666666666667" y1="438" y2="438" class="net_58,59,60"/>
  <line x1="42" x2="116.66666666666667" y1="503" y2="503" class="net_61,62,63"/>
  <line x1="42" x2="116.66666666666667" y1="568" y2="568" class="net_64,65,66"/>
  <line x1="42" x2="70" y1="698" y2="698" class="net_67,68,69"/>
  <line x1="70" x2="70" y1="698" y2="648" class="net_67,68,69"/>
  <line x1="70" x2="116.66666666666667" y1="648" y2="648" class="net_67,68,69"/>
  <line x1="42" x2="116.66666666666667" y1="763" y2="763" class="net_70,71,72"/>
  <line x1="42" x2="116.66666666666667" y1="828" y2="828" class="net_73,74,75"/>
  <line x1="42" x2="116.66666666666667" y1="893" y2="893" class="net_76,77,78"/>
  <line x1="214" x2="260" y1="973" y2="973" class="net_2,3"/>
  <line x1="214" x2="242" y1="973" y2="973" class="net_2,3"/>
  <line x1="242" x2="242" y1="973" y2="1088" class="net_2,3"/>
  <circle cx="242" cy="973" r="2" style="fill:#000" class="net_2,3"/>
  <line x1="242" x2="260" y1="1088" y2="1088" class="net_2,3"/>
  <line x1="216" x2="232" y1="1038" y2="1038" class="net_79,80"/>
  <line x1="232" x2="232" y1="1038" y2="988" class="net_79,80"/>
  <line x1="232" x2="260" y1="988" y2="988" class="net_79,80"/>
  <line x1="42" x2="377" y1="97" y2="97" class="net_81,82,83,84"/>
  <line x1="42" x2="90" y1="97" y2="97" class="net_81,82,83,84"/>
  <line x1="90" x2="90" y1="97" y2="353" class="net_81,82,83,84"/>
  <circle cx="90" cy="97" r="2" style="fill:#000" class="net_81,82,83,84"/>
  <line x1="90" x2="115.33333333333333" y1="353" y2="353" class="net_81,82,83,84"/>
  <line x1="342" x2="352" y1="183" y2="183" class="net_28,29,30,31,85,86,87,88"/>
  <line x1="352" x2="352" y1="183" y2="117" class="net_28,29,30,31,85,86,87,88"/>
  <line x1="352" x2="377" y1="117" y2="117" class="net_28,29,30,31,85,86,87,88"/>
  <line x1="336.3333333333333" x2="387" y1="990.5" y2="990.5" class="net_32,33"/>
  <line x1="387" x2="387" y1="990.5" y2="122" class="net_32,33"/>
  <line x1="216" x2="260" y1="1103" y2="1103" class="net_89,90"/>
  <line x1="42" x2="115.33333333333333" y1="373" y2="373" class="net_85,86,87,88"/>
  <line x1="42" x2="70" y1="373" y2="373" class="net_85,86,87,88"/>
  <line x1="70" x2="70" y1="373" y2="403" class="net_85,86,87,88"/>
  <line x1="70" x2="292" y1="403" y2="403" class="net_85,86,87,88"/>
  <line x1="292" x2="292" y1="403" y2="193" class="net_85,86,87,88"/>
  <circle cx="70" cy="373" r="2" style="fill:#000" class="net_85,86,87,88"/>
  <line x1="292" x2="336" y1="193" y2="193" class="net_85,86,87,88"/>
  <line x1="40" x2="80" y1="268" y2="268" class="net_7"/>
  <line x1="80" x2="80" y1="268" y2="393" class="net_7"/>
  <line x1="80" x2="125.33333333333333" y1="393" y2="393" class="net_7"/>
  <circle cx="80" cy="268" r="2" style="fill:#000" class="net_7"/>
  <line x1="125.33333333333333" x2="125.33333333333333" y1="393" y2="378" class="net_7"/>
  <line x1="40" x2="125.33333333333333" y1="268" y2="268" class="net_7"/>
  <line x1="125.33333333333333" x2="125.33333333333333" y1="268" y2="208" class="net_7"/>
  <line x1="42" x2="100" y1="32" y2="32" class="net_99,100,101,102"/>
  <line x1="100" x2="100" y1="32" y2="183" class="net_99,100,101,102"/>
  <line x1="100" x2="115.33333333333333" y1="183" y2="183" class="net_99,100,101,102"/>
  <line x1="42" x2="115.33333333333333" y1="203" y2="203" class="net_103,104,105,106"/>
  <line x1="397" x2="432" y1="107" y2="107" class="net_8,9,10,11"/>
  <line x1="140" x2="156" y1="128" y2="128" class="net_34,35,36,37,38,39,40,41"/>
  <line x1="156" x2="156" y1="128" y2="173" class="net_34,35,36,37,38,39,40,41"/>
  <line x1="156" x2="205" y1="173" y2="173" class="net_34,35,36,37,38,39,40,41"/>
  <line x1="135.33333333333331" x2="205" y1="193" y2="193" class="net_12,13,14,15"/>
  <line x1="140" x2="156" y1="298" y2="298" class="net_42,43,44,45,46,47,48,49,50,51,52,53,54,55,56,57"/>
  <line x1="156" x2="156" y1="298" y2="213" class="net_42,43,44,45,46,47,48,49,50,51,52,53,54,55,56,57"/>
  <line x1="156" x2="205" y1="213" y2="213" class="net_42,43,44,45,46,47,48,49,50,51,52,53,54,55,56,57"/>
  <line x1="135.33333333333331" x2="205.5" y1="363" y2="363" class="net_16,17,18,19"/>
  <line x1="205.5" x2="205.5" y1="363" y2="233.5" class="net_16,17,18,19"/>
  <line x1="138.66666666666669" x2="204.64285714285714" y1="430.5" y2="430.5" class="net_20"/>
  <line x1="204.64285714285714" x2="204.64285714285714" y1="430.5" y2="580" class="net_20"/>
  <line x1="138.66666666666669" x2="166" y1="495.5" y2="495.5" class="net_21"/>
  <line x1="166" x2="166" y1="495.5" y2="600.5" class="net_21"/>
  <line x1="166" x2="204.14285714285714" y1="600.5" y2="600.5" class="net_21"/>
  <line x1="138.66666666666669" x2="156" y1="560.5" y2="560.5" class="net_22"/>
  <line x1="156" x2="156" y1="560.5" y2="620.5" class="net_22"/>
  <line x1="156" x2="204.14285714285714" y1="620.5" y2="620.5" class="net_22"/>
  <line x1="138.66666666666669" x2="204.14285714285714" y1="640.5" y2="640.5" class="net_23"/>
  <line x1="138.66666666666669" x2="156" y1="755.5" y2="755.5" class="net_24"/>
  <line x1="156" x2="156" y1="755.5" y2="660.5" class="net_24"/>
  <line x1="156" x2="204.14285714285714" y1="660.5" y2="660.5" class="net_24"/>
  <line x1="138.66666666666669" x2="166" y1="820.5" y2="820.5" class="net_25"/>
  <line x1="166" x2="166" y1="820.5" y2="680.5" class="net_25"/>
  <line x1="166" x2="204.14285714285714" y1="680.5" y2="680.5" class="net_25"/>
  <line x1="138.66666666666669" x2="176" y1="885.5" y2="885.5" class="net_26"/>
  <line x1="176" x2="176" y1="885.5" y2="700.5" class="net_26"/>
  <line x1="176" x2="204.14285714285714" y1="700.5" y2="700.5" class="net_26"/>
  <line x1="138" x2="204.64285714285714" y1="943" y2="943" class="net_27"/>
  <line x1="204.64285714285714" x2="204.64285714285714" y1="943" y2="721" class="net_27"/>
  <line x1="279.5" x2="336" y1="173" y2="173" class="net_28,29,30,31"/>
  <line x1="282" x2="330.3333333333333" y1="980.5" y2="980.5" class="net_32"/>
  <line x1="282" x2="292" y1="1095.5" y2="1095.5" class="net_33"/>
  <line x1="292" x2="292" y1="1095.5" y2="1000.5" class="net_33"/>
  <line x1="292" x2="330.3333333333333" y1="1000.5" y2="1000.5" class="net_33"/>
</svg>
