<svg xmlns="http://www.w3.org/2000/svg" xmlns:xlink="http://www.w3.org/1999/xlink" xmlns:s="https://github.com/nturley/netlistsvg" width="608" height="1038">
  <style>svg {
    stroke:#000;
    fill:none;
  }
  text {
    fill:#000;
    stroke:none;
    font-size:10px;
    font-weight: bold;
    font-family: "Courier New", monospace;
  }
  .nodelabel {
    text-anchor: middle;
  }
  .inputPortLabel {
    text-anchor: end;
  }
  .splitjoinBody {
    fill:#000;
  }</style>
  <g s:type="mux" transform="translate(187.33333333333331,876.5)" s:width="20" s:height="40" id="cell_$procmux$227">
    <s:alias val="$pmux"/>
    <s:alias val="$mux"/>
    <s:alias val="$_MUX_"/>
    <path d="M0,0 L20,10 L20,30 L0,40 Z" class="cell_$procmux$227"/>
    <g s:x="0" s:y="10" s:pid="A"/>
    <g s:x="0" s:y="30" s:pid="B"/>
    <g s:x="10" s:y="35" s:pid="S"/>
    <g s:x="20" s:y="20" s:pid="Y"/>
  </g>
  <g s:type="mux" transform="translate(254,244)" s:width="20" s:height="40" id="cell_$procmux$230">
    <s:alias val="$pmux"/>
    <s:alias val="$mux"/>
    <s:alias val="$_MUX_"/>
    <path d="M0,0 L20,10 L20,30 L0,40 Z" class="cell_$procmux$230"/>
    <g s:x="0" s:y="10" s:pid="A"/>
    <g s:x="0" s:y="30" s:pid="B"/>
    <g s:x="10" s:y="35" s:pid="S"/>
    <g s:x="20" s:y="20" s:pid="Y"/>
  </g>
  <g s:type="mux" transform="translate(254,119)" s:width="20" s:height="40" id="cell_$procmux$233">
    <s:alias val="$pmux"/>
    <s:alias val="$mux"/>
    <s:alias val="$_MUX_"/>
    <path d="M0,0 L20,10 L20,30 L0,40 Z" class="cell_$procmux$233"/>
    <g s:x="0" s:y="10" s:pid="A"/>
    <g s:x="0" s:y="30" s:pid="B"/>
    <g s:x="10" s:y="35" s:pid="S"/>
    <g s:x="20" s:y="20" s:pid="Y"/>
  </g>
  <g s:type="mux" transform="translate(511,176.5)" s:width="20" s:height="40" id="cell_$ternary$src/leaf/data_mem.v:27$70">
    <s:alias val="$pmux"/>
    <s:alias val="$mux"/>
    <s:alias val="$_MUX_"/>
    <path d="M0,0 L20,10 L20,30 L0,40 Z" class="cell_$ternary$src/leaf/data_mem.v:27$70"/>
    <g s:x="0" s:y="10" s:pid="A"/>
    <g s:x="0" s:y="30" s:pid="B"/>
    <g s:x="10" s:y="35" s:pid="S"/>
    <g s:x="20" s:y="20" s:pid="Y"/>
  </g>
  <g s:type="generic" transform="translate(402,196)" s:width="30" s:height="40" id="cell_mem">
    <text x="15" y="-4" class="nodelabel cell_mem" s:attribute="ref">$mem_v2</text>
    <rect width="30" height="180" s:generic="body" class="cell_mem"/>
    <g transform="translate(0,10)" s:x="0" s:y="10" s:pid="in0" id="port_mem~RD_ADDR">
      <text x="-3" y="-4" class="inputPortLabel cell_mem">RD_ADDR</text>
    </g>
    <g transform="translate(0,30)" s:x="0" s:y="10" s:pid="in0" id="port_mem~RD_ARST">
      <text x="-3" y="-4" class="inputPortLabel cell_mem">RD_ARST</text>
    </g>
    <g transform="translate(0,50)" s:x="0" s:y="10" s:pid="in0" id="port_mem~RD_CLK">
      <text x="-3" y="-4" class="inputPortLabel cell_mem">RD_CLK</text>
    </g>
    <g transform="translate(0,70)" s:x="0" s:y="10" s:pid="in0" id="port_mem~RD_EN">
      <text x="-3" y="-4" class="inputPortLabel cell_mem">RD_EN</text>
    </g>
    <g transform="translate(0,90)" s:x="0" s:y="10" s:pid="in0" id="port_mem~RD_SRST">
      <text x="-3" y="-4" class="inputPortLabel cell_mem">RD_SRST</text>
    </g>
    <g transform="translate(0,110)" s:x="0" s:y="10" s:pid="in0" id="port_mem~WR_ADDR">
      <text x="-3" y="-4" class="inputPortLabel cell_mem">WR_ADDR</text>
    </g>
    <g transform="translate(0,130)" s:x="0" s:y="10" s:pid="in0" id="port_mem~WR_CLK">
      <text x="-3" y="-4" class="inputPortLabel cell_mem">WR_CLK</text>
    </g>
    <g transform="translate(0,150)" s:x="0" s:y="10" s:pid="in0" id="port_mem~WR_DATA">
      <text x="-3" y="-4" class="inputPortLabel cell_mem">WR_DATA</text>
    </g>
    <g transform="translate(0,170)" s:x="0" s:y="10" s:pid="in0" id="port_mem~WR_EN">
      <text x="-3" y="-4" class="inputPortLabel cell_mem">WR_EN</text>
    </g>
    <g transform="translate(30,10)" s:x="30" s:y="10" s:pid="out0" id="port_mem~RD_DATA">
      <text x="5" y="-4" style="fill:#000; stroke:none" class="cell_mem">RD_DATA</text>
    </g>
  </g>
  <g s:type="inputExt" transform="translate(249,189)" s:width="30" s:height="20" id="cell_clk">
    <text x="15" y="-4" class="nodelabel cell_clk" s:attribute="ref">clk</text>
    <s:alias val="$_inputExt_"/>
    <path d="M0,0 L0,20 L15,20 L30,10 L15,0 Z" class="cell_clk"/>
    <g s:x="28" s:y="10" s:pid="Y"/>
  </g>
  <g s:type="inputExt" transform="translate(90,284)" s:width="30" s:height="20" id="cell_mem_write">
    <text x="15" y="-4" class="nodelabel cell_mem_write" s:attribute="ref">mem_write</text>
    <s:alias val="$_inputExt_"/>
    <path d="M0,0 L0,20 L15,20 L30,10 L15,0 Z" class="cell_mem_write"/>
    <g s:x="28" s:y="10" s:pid="Y"/>
  </g>
  <g s:type="inputExt" transform="translate(402,424)" s:width="30" s:height="20" id="cell_mem_read">
    <text x="15" y="-4" class="nodelabel cell_mem_read" s:attribute="ref">mem_read</text>
    <s:alias val="$_inputExt_"/>
    <path d="M0,0 L0,20 L15,20 L30,10 L15,0 Z" class="cell_mem_read"/>
    <g s:x="28" s:y="10" s:pid="Y"/>
  </g>
  <g s:type="inputExt" transform="translate(184,67)" s:width="30" s:height="20" id="cell_addr">
    <text x="15" y="-4" class="nodelabel cell_addr" s:attribute="ref">addr</text>
    <s:alias val="$_inputExt_"/>
    <path d="M0,0 L0,20 L15,20 L30,10 L15,0 Z" class="cell_addr"/>
    <g s:x="28" s:y="10" s:pid="Y"/>
  </g>
  <g s:type="inputExt" transform="translate(184,264)" s:width="30" s:height="20" id="cell_wdata">
    <text x="15" y="-4" class="nodelabel cell_wdata" s:attribute="ref">wdata</text>
    <s:alias val="$_inputExt_"/>
    <path d="M0,0 L0,20 L15,20 L30,10 L15,0 Z" class="cell_wdata"/>
    <g s:x="28" s:y="10" s:pid="Y"/>
  </g>
  <g s:type="outputExt" transform="translate(566,186.5)" s:width="30" s:height="20" id="cell_rdata">
    <text x="15" y="-4" class="nodelabel cell_rdata" s:attribute="ref">rdata</text>
    <s:alias val="$_outputExt_"/>
    <path d="M30,0 L30,20 L15,20 L0,10 L15,0 Z" class="cell_rdata"/>
    <g s:x="0" s:y="10" s:pid="A"/>
  </g>
  <g s:type="constant" transform="translate(90,22)" s:width="30" s:height="20" id="cell_0">
    <text x="15" y="-4" class="nodelabel cell_0" s:attribute="ref">0</text>
    <s:alias val="$_constant_"/>
    <rect width="30" height="20" class="cell_0"/>
    <g s:x="30" s:y="10" s:pid="Y"/>
  </g>
  <g s:type="constant" transform="translate(90,87)" s:width="30" s:height="20" id="cell_1">
    <text x="15" y="-4" class="nodelabel cell_1" s:attribute="ref">1</text>
    <s:alias val="$_constant_"/>
    <rect width="30" height="20" class="cell_1"/>
    <g s:x="30" s:y="10" s:pid="Y"/>
  </g>
  <g s:type="constant" transform="translate(402,131)" s:width="30" s:height="20" id="cell_00000000000000000000000000000000">
    <text x="15" y="-4" class="nodelabel cell_00000000000000000000000000000000" s:attribute="ref">0x0</text>
    <s:alias val="$_constant_"/>
    <rect width="30" height="20" class="cell_00000000000000000000000000000000"/>
    <g s:x="30" s:y="10" s:pid="Y"/>
  </g>
  <g s:type="join" transform="translate(72,12)" s:width="4" s:height="40" id="cell_$join$,x,x,x,x,x,x,x,x,x,x,x,x,x,x,x,x,x,x,x,x,x,x,x,x,x,x,x,x,x,x,x,x,">
    <rect width="5" height="40" class="splitjoinBody" s:generic="body"/>
    <s:alias val="$_join_"/>
    <g s:x="5" s:y="20" s:pid="out"/>
    <g transform="translate(0,10)" s:x="0" s:y="10" s:pid="in0">
      <text x="-3" y="-4" class="inputPortLabel">0:10</text>
    </g>
  </g>
  <g s:type="join" transform="translate(250.04,346)" s:width="4" s:height="40" id="cell_$join$,80,80,80,80,80,80,80,80,80,80,80,80,80,80,80,80,80,80,80,80,80,80,80,80,80,80,80,80,80,80,80,80,">
    <rect width="5" height="640" class="splitjoinBody" s:generic="body"/>
    <s:alias val="$_join_"/>
    <g s:x="5" s:y="20" s:pid="out"/>
    <g transform="translate(0,10)" s:x="0" s:y="10" s:pid="in0">
      <text x="-3" y="-4" class="inputPortLabel">0</text>
    </g>
    <g transform="translate(0,30)" s:x="0" s:y="10" s:pid="in0">
      <text x="-3" y="-4" class="inputPortLabel">1</text>
    </g>
    <g transform="translate(0,50)" s:x="0" s:y="10" s:pid="in0">
      <text x="-3" y="-4" class="inputPortLabel">2</text>
    </g>
    <g transform="translate(0,70)" s:x="0" s:y="10" s:pid="in0">
      <text x="-3" y="-4" class="inputPortLabel">3</text>
    </g>
    <g transform="translate(0,90)" s:x="0" s:y="10" s:pid="in0">
      <text x="-3" y="-4" class="inputPortLabel">4</text>
    </g>
    <g transform="translate(0,110)" s:x="0" s:y="10" s:pid="in0">
      <text x="-3" y="-4" class="inputPortLabel">5</text>
    </g>
    <g transform="translate(0,130)" s:x="0" s:y="10" s:pid="in0">
      <text x="-3" y="-4" class="inputPortLabel">6</text>
    </g>
    <g transform="translate(0,150)" s:x="0" s:y="10" s:pid="in0">
      <text x="-3" y="-4" class="inputPortLabel">7</text>
    </g>
    <g transform="translate(0,170)" s:x="0" s:y="10" s:pid="in0">
      <text x="-3" y="-4" class="inputPortLabel">8</text>
    </g>
    <g transform="translate(0,190)" s:x="0" s:y="10" s:pid="in0">
      <text x="-3" y="-4" class="inputPortLabel">9</text>
    </g>
    <g transform="translate(0,210)" s:x="0" s:y="10" s:pid="in0">
      <text x="-3" y="-4" class="inputPortLabel">10</text>
    </g>
    <g transform="translate(0,230)" s:x="0" s:y="10" s:pid="in0">
      <text x="-3" y="-4" class="inputPortLabel">11</text>
    </g>
    <g transform="translate(0,250)" s:x="0" s:y="10" s:pid="in0">
      <text x="-3" y="-4" class="inputPortLabel">12</text>
    </g>
    <g transform="translate(0,270)" s:x="0" s:y="10" s:pid="in0">
      <text x="-3" y="-4" class="inputPortLabel">13</text>
    </g>
    <g transform="translate(0,290)" s:x="0" s:y="10" s:pid="in0">
      <text x="-3" y="-4" class="inputPortLabel">14</text>
    </g>
    <g transform="translate(0,310)" s:x="0" s:y="10" s:pid="in0">
      <text x="-3" y="-4" class="inputPortLabel">15</text>
    </g>
    <g transform="translate(0,330)" s:x="0" s:y="10" s:pid="in0">
      <text x="-3" y="-4" class="inputPortLabel">16</text>
    </g>
    <g transform="translate(0,350)" s:x="0" s:y="10" s:pid="in0">
      <text x="-3" y="-4" class="inputPortLabel">17</text>
    </g>
    <g transform="translate(0,370)" s:x="0" s:y="10" s:pid="in0">
      <text x="-3" y="-4" class="inputPortLabel">18</text>
    </g>
    <g transform="translate(0,390)" s:x="0" s:y="10" s:pid="in0">
      <text x="-3" y="-4" class="inputPortLabel">19</text>
    </g>
    <g transform="translate(0,410)" s:x="0" s:y="10" s:pid="in0">
      <text x="-3" y="-4" class="inputPortLabel">20</text>
    </g>
    <g transform="translate(0,430)" s:x="0" s:y="10" s:pid="in0">
      <text x="-3" y="-4" class="inputPortLabel">21</text>
    </g>
    <g transform="translate(0,450)" s:x="0" s:y="10" s:pid="in0">
      <text x="-3" y="-4" class="inputPortLabel">22</text>
    </g>
    <g transform="translate(0,470)" s:x="0" s:y="10" s:pid="in0">
      <text x="-3" y="-4" class="inputPortLabel">23</text>
    </g>
    <g transform="translate(0,490)" s:x="0" s:y="10" s:pid="in0">
      <text x="-3" y="-4" class="inputPortLabel">24</text>
    </g>
    <g transform="translate(0,510)" s:x="0" s:y="10" s:pid="in0">
      <text x="-3" y="-4" class="inputPortLabel">25</text>
    </g>
    <g transform="translate(0,530)" s:x="0" s:y="10" s:pid="in0">
      <text x="-3" y="-4" class="inputPortLabel">26</text>
    </g>
    <g transform="translate(0,550)" s:x="0" s:y="10" s:pid="in0">
      <text x="-3" y="-4" class="inputPortLabel">27</text>
    </g>
    <g transform="translate(0,570)" s:x="0" s:y="10" s:pid="in0">
      <text x="-3" y="-4" class="inputPortLabel">28</text>
    </g>
    <g transform="translate(0,590)" s:x="0" s:y="10" s:pid="in0">
      <text x="-3" y="-4" class="inputPortLabel">29</text>
    </g>
    <g transform="translate(0,610)" s:x="0" s:y="10" s:pid="in0">
      <text x="-3" y="-4" class="inputPortLabel">30</text>
    </g>
    <g transform="translate(0,630)" s:x="0" s:y="10" s:pid="in0">
      <text x="-3" y="-4" class="inputPortLabel">31</text>
    </g>
  </g>
  <g s:type="split" transform="translate(60,87)" s:width="5" s:height="40" id="cell_$split$,x,x,x,x,x,x,x,x,x,x,x,">
    <rect width="5" height="20" class="splitjoinBody" s:generic="body"/>
    <s:alias val="$_split_"/>
    <g s:x="0" s:y="20" s:pid="in"/>
    <g transform="translate(4,10)" s:x="4" s:y="10" s:pid="out0">
      <text x="5" y="-4">0</text>
    </g>
  </g>
  <line x1="120" x2="174" y1="32" y2="32" class="net_156"/>
  <line x1="174" x2="174" y1="32" y2="886.5" class="net_156"/>
  <line x1="174" x2="187.33333333333331" y1="886.5" y2="886.5" class="net_156"/>
  <line x1="120" x2="174" y1="32" y2="32" class="net_156"/>
  <line x1="174" x2="174" y1="32" y2="46" class="net_156"/>
  <line x1="174" x2="339" y1="46" y2="46" class="net_156"/>
  <line x1="339" x2="339" y1="46" y2="226.5" class="net_156"/>
  <circle cx="174" cy="46" r="2" style="fill:#000" class="net_156"/>
  <line x1="339" x2="402" y1="226.5" y2="226.5" class="net_156"/>
  <line x1="120" x2="174" y1="32" y2="32" class="net_156"/>
  <line x1="174" x2="174" y1="32" y2="108" class="net_156"/>
  <line x1="174" x2="319" y1="108" y2="108" class="net_156"/>
  <line x1="319" x2="319" y1="108" y2="286.5" class="net_156"/>
  <circle cx="174" cy="108" r="2" style="fill:#000" class="net_156"/>
  <line x1="319" x2="402" y1="286.5" y2="286.5" class="net_156"/>
  <line x1="120" x2="154" y1="97" y2="97" class="net_157"/>
  <line x1="154" x2="154" y1="97" y2="906.5" class="net_157"/>
  <circle cx="154" cy="97" r="2" style="fill:#000" class="net_157"/>
  <line x1="154" x2="187.33333333333331" y1="906.5" y2="906.5" class="net_157"/>
  <line x1="120" x2="329" y1="97" y2="97" class="net_157"/>
  <line x1="329" x2="329" y1="97" y2="266.5" class="net_157"/>
  <line x1="329" x2="402" y1="266.5" y2="266.5" class="net_157"/>
  <line x1="118" x2="164" y1="294" y2="294" class="net_3"/>
  <line x1="164" x2="164" y1="294" y2="926.5" class="net_3"/>
  <line x1="164" x2="197.33333333333331" y1="926.5" y2="926.5" class="net_3"/>
  <circle cx="164" cy="294" r="2" style="fill:#000" class="net_3"/>
  <line x1="197.33333333333331" x2="197.33333333333331" y1="926.5" y2="911.5" class="net_3"/>
  <line x1="118" x2="264" y1="294" y2="294" class="net_3"/>
  <line x1="264" x2="264" y1="294" y2="279" class="net_3"/>
  <line x1="118" x2="164" y1="294" y2="294" class="net_3"/>
  <line x1="164" x2="164" y1="294" y2="169" class="net_3"/>
  <line x1="164" x2="264" y1="169" y2="169" class="net_3"/>
  <line x1="264" x2="264" y1="169" y2="154" class="net_3"/>
  <line x1="212" x2="254" y1="274" y2="274" class="net_16,17,18,19,20,21,22,23,24,25,26,27,28,29,30,31,32,33,34,35,36,37,38,39,40,41,42,43,44,45,46,47"/>
  <line x1="212" x2="224" y1="77" y2="77" class="net_5,6,7,8,9,10,11,12,13,14,15"/>
  <line x1="224" x2="224" y1="77" y2="149" class="net_5,6,7,8,9,10,11,12,13,14,15"/>
  <circle cx="224" cy="77" r="2" style="fill:#000" class="net_5,6,7,8,9,10,11,12,13,14,15"/>
  <line x1="224" x2="254" y1="149" y2="149" class="net_5,6,7,8,9,10,11,12,13,14,15"/>
  <line x1="212" x2="224" y1="77" y2="77" class="net_5,6,7,8,9,10,11,12,13,14,15"/>
  <line x1="224" x2="224" y1="77" y2="35" class="net_5,6,7,8,9,10,11,12,13,14,15"/>
  <line x1="224" x2="349" y1="35" y2="35" class="net_5,6,7,8,9,10,11,12,13,14,15"/>
  <line x1="349" x2="349" y1="35" y2="206.5" class="net_5,6,7,8,9,10,11,12,13,14,15"/>
  <line x1="349" x2="402" y1="206.5" y2="206.5" class="net_5,6,7,8,9,10,11,12,13,14,15"/>
  <line x1="432" x2="486" y1="141" y2="141" class="net_158,159,160,161,162,163,164,165,166,167,168,169,170,171,172,173,174,175,176,177,178,179,180,181,182,183,184,185,186,187,188,189"/>
  <line x1="486" x2="486" y1="141" y2="186.5" class="net_158,159,160,161,162,163,164,165,166,167,168,169,170,171,172,173,174,175,176,177,178,179,180,181,182,183,184,185,186,187,188,189"/>
  <line x1="486" x2="511" y1="186.5" y2="186.5" class="net_158,159,160,161,162,163,164,165,166,167,168,169,170,171,172,173,174,175,176,177,178,179,180,181,182,183,184,185,186,187,188,189"/>
  <line x1="433" x2="511" y1="206.5" y2="206.5" class="net_124,125,126,127,128,129,130,131,132,133,134,135,136,137,138,139,140,141,142,143,144,145,146,147,148,149,150,151,152,153,154,155"/>
  <line x1="430" x2="521" y1="434" y2="434" class="net_4"/>
  <line x1="521" x2="521" y1="434" y2="211.5" class="net_4"/>
  <line x1="274" x2="309" y1="139" y2="139" class="net_113,114,115,116,117,118,119,120,121,122,123"/>
  <line x1="309" x2="309" y1="139" y2="306.5" class="net_113,114,115,116,117,118,119,120,121,122,123"/>
  <line x1="309" x2="402" y1="306.5" y2="306.5" class="net_113,114,115,116,117,118,119,120,121,122,123"/>
  <line x1="277" x2="299" y1="199" y2="199" class="net_2"/>
  <line x1="299" x2="299" y1="199" y2="326.5" class="net_2"/>
  <line x1="299" x2="402" y1="326.5" y2="326.5" class="net_2"/>
  <line x1="274" x2="289" y1="264" y2="264" class="net_81,82,83,84,85,86,87,88,89,90,91,92,93,94,95,96,97,98,99,100,101,102,103,104,105,106,107,108,109,110,111,112"/>
  <line x1="289" x2="289" y1="264" y2="346.5" class="net_81,82,83,84,85,86,87,88,89,90,91,92,93,94,95,96,97,98,99,100,101,102,103,104,105,106,107,108,109,110,111,112"/>
  <line x1="289" x2="402" y1="346.5" y2="346.5" class="net_81,82,83,84,85,86,87,88,89,90,91,92,93,94,95,96,97,98,99,100,101,102,103,104,105,106,107,108,109,110,111,112"/>
  <line x1="256.03999999999996" x2="402" y1="366.5" y2="366.5" class="net_80,80,80,80,80,80,80,80,80,80,80,80,80,80,80,80,80,80,80,80,80,80,80,80,80,80,80,80,80,80,80,80"/>
  <line x1="531" x2="566" y1="196.5" y2="196.5" class="net_48,49,50,51,52,53,54,55,56,57,58,59,60,61,62,63,64,65,66,67,68,69,70,71,72,73,74,75,76,77,78,79"/>
  <line x1="22" x2="72" y1="22.5" y2="22.5" class="net_NaN,NaN,NaN,NaN,NaN,NaN,NaN,NaN,NaN,NaN,NaN"/>
  <line x1="22" x2="22" y1="22.5" y2="120" class="net_NaN,NaN,NaN,NaN,NaN,NaN,NaN,NaN,NaN,NaN,NaN"/>
  <line x1="22" x2="60.5" y1="120" y2="120" class="net_NaN,NaN,NaN,NaN,NaN,NaN,NaN,NaN,NaN,NaN,NaN"/>
  <line x1="60.5" x2="60.5" y1="120" y2="108" class="net_NaN,NaN,NaN,NaN,NaN,NaN,NaN,NaN,NaN,NaN,NaN"/>
  <line x1="207.33333333333331" x2="224" y1="896.5" y2="896.5" class="net_80"/>
  <line x1="224" x2="224" y1="896.5" y2="334" class="net_80"/>
  <line x1="224" x2="250.54" y1="334" y2="334" class="net_80"/>
  <circle cx="224" cy="896.5" r="2" style="fill:#000" class="net_80"/>
  <circle cx="224" cy="334" r="2" style="fill:#000" class="net_80"/>
  <line x1="250.54" x2="250.54" y1="334" y2="356" class="net_80"/>
  <line x1="207.33333333333331" x2="224" y1="896.5" y2="896.5" class="net_80"/>
  <line x1="224" x2="224" y1="896.5" y2="324" class="net_80"/>
  <line x1="224" x2="250.54" y1="324" y2="324" class="net_80"/>
  <circle cx="224" cy="324" r="2" style="fill:#000" class="net_80"/>
  <line x1="250.54" x2="250.54" y1="324" y2="376" class="net_80"/>
  <line x1="207.33333333333331" x2="224" y1="896.5" y2="896.5" class="net_80"/>
  <line x1="224" x2="224" y1="896.5" y2="314" class="net_80"/>
  <line x1="224" x2="250.54" y1="314" y2="314" class="net_80"/>
  <circle cx="224" cy="314" r="2" style="fill:#000" class="net_80"/>
  <line x1="250.54" x2="250.54" y1="314" y2="396" class="net_80"/>
  <line x1="207.33333333333331" x2="224" y1="896.5" y2="896.5" class="net_80"/>
  <line x1="224" x2="224" y1="896.5" y2="304" class="net_80"/>
  <line x1="224" x2="250.54" y1="304" y2="304" class="net_80"/>
  <line x1="250.54" x2="250.54" y1="304" y2="416" class="net_80"/>
  <line x1="207.33333333333331" x2="224" y1="896.5" y2="896.5" class="net_80"/>
  <line x1="224" x2="224" y1="896.5" y2="436.5" class="net_80"/>
  <circle cx="224" cy="436.5" r="2" style="fill:#000" class="net_80"/>
  <line x1="224" x2="250.04" y1="436.5" y2="436.5" class="net_80"/>
  <line x1="207.33333333333331" x2="224" y1="896.5" y2="896.5" class="net_80"/>
  <line x1="224" x2="224" y1="896.5" y2="456.5" class="net_80"/>
  <circle cx="224" cy="456.5" r="2" style="fill:#000" class="net_80"/>
  <line x1="224" x2="250.04" y1="456.5" y2="456.5" class="net_80"/>
  <line x1="207.33333333333331" x2="224" y1="896.5" y2="896.5" class="net_80"/>
  <line x1="224" x2="224" y1="896.5" y2="476.5" class="net_80"/>
  <circle cx="224" cy="476.5" r="2" style="fill:#000" class="net_80"/>
  <line x1="224" x2="250.04" y1="476.5" y2="476.5" class="net_80"/>
  <line x1="207.33333333333331" x2="224" y1="896.5" y2="896.5" class="net_80"/>
  <line x1="224" x2="224" y1="896.5" y2="496.5" class="net_80"/>
  <circle cx="224" cy="496.5" r="2" style="fill:#000" class="net_80"/>
  <line x1="224" x2="250.04" y1="496.5" y2="496.5" class="net_80"/>
  <line x1="207.33333333333331" x2="224" y1="896.5" y2="896.5" class="net_80"/>
  <line x1="224" x2="224" y1="896.5" y2="516.5" class="net_80"/>
  <circle cx="224" cy="516.5" r="2" style="fill:#000" class="net_80"/>
  <line x1="224" x2="250.04" y1="516.5" y2="516.5" class="net_80"/>
  <line x1="207.33333333333331" x2="224" y1="896.5" y2="896.5" class="net_80"/>
  <line x1="224" x2="224" y1="896.5" y2="536.5" class="net_80"/>
  <circle cx="224" cy="536.5" r="2" style="fill:#000" class="net_80"/>
  <line x1="224" x2="250.04" y1="536.5" y2="536.5" class="net_80"/>
  <line x1="207.33333333333331" x2="224" y1="896.5" y2="896.5" class="net_80"/>
  <line x1="224" x2="224" y1="896.5" y2="556.5" class="net_80"/>
  <circle cx="224" cy="556.5" r="2" style="fill:#000" class="net_80"/>
  <line x1="224" x2="250.04" y1="556.5" y2="556.5" class="net_80"/>
  <line x1="207.33333333333331" x2="224" y1="896.5" y2="896.5" class="net_80"/>
  <line x1="224" x2="224" y1="896.5" y2="576.5" class="net_80"/>
  <circle cx="224" cy="576.5" r="2" style="fill:#000" class="net_80"/>
  <line x1="224" x2="250.04" y1="576.5" y2="576.5" class="net_80"/>
  <line x1="207.33333333333331" x2="224" y1="896.5" y2="896.5" class="net_80"/>
  <line x1="224" x2="224" y1="896.5" y2="596.5" class="net_80"/>
  <circle cx="224" cy="596.5" r="2" style="fill:#000" class="net_80"/>
  <line x1="224" x2="250.04" y1="596.5" y2="596.5" class="net_80"/>
  <line x1="207.33333333333331" x2="224" y1="896.5" y2="896.5" class="net_80"/>
  <line x1="224" x2="224" y1="896.5" y2="616.5" class="net_80"/>
  <circle cx="224" cy="616.5" r="2" style="fill:#000" class="net_80"/>
  <line x1="224" x2="250.04" y1="616.5" y2="616.5" class="net_80"/>
  <line x1="207.33333333333331" x2="224" y1="896.5" y2="896.5" class="net_80"/>
  <line x1="224" x2="224" y1="896.5" y2="636.5" class="net_80"/>
  <circle cx="224" cy="636.5" r="2" style="fill:#000" class="net_80"/>
  <line x1="224" x2="250.04" y1="636.5" y2="636.5" class="net_80"/>
  <line x1="207.33333333333331" x2="224" y1="896.5" y2="896.5" class="net_80"/>
  <line x1="224" x2="224" y1="896.5" y2="656.5" class="net_80"/>
  <circle cx="224" cy="656.5" r="2" style="fill:#000" class="net_80"/>
  <line x1="224" x2="250.04" y1="656.5" y2="656.5" class="net_80"/>
  <line x1="207.33333333333331" x2="224" y1="896.5" y2="896.5" class="net_80"/>
  <line x1="224" x2="224" y1="896.5" y2="676.5" class="net_80"/>
  <circle cx="224" cy="676.5" r="2" style="fill:#000" class="net_80"/>
  <line x1="224" x2="250.04" y1="676.5" y2="676.5" class="net_80"/>
  <line x1="207.33333333333331" x2="224" y1="896.5" y2="896.5" class="net_80"/>
  <line x1="224" x2="224" y1="896.5" y2="696.5" class="net_80"/>
  <circle cx="224" cy="696.5" r="2" style="fill:#000" class="net_80"/>
  <line x1="224" x2="250.04" y1="696.5" y2="696.5" class="net_80"/>
  <line x1="207.33333333333331" x2="224" y1="896.5" y2="896.5" class="net_80"/>
  <line x1="224" x2="224" y1="896.5" y2="716.5" class="net_80"/>
  <circle cx="224" cy="716.5" r="2" style="fill:#000" class="net_80"/>
  <line x1="224" x2="250.04" y1="716.5" y2="716.5" class="net_80"/>
  <line x1="207.33333333333331" x2="224" y1="896.5" y2="896.5" class="net_80"/>
  <line x1="224" x2="224" y1="896.5" y2="736.5" class="net_80"/>
  <circle cx="224" cy="736.5" r="2" style="fill:#000" class="net_80"/>
  <line x1="224" x2="250.04" y1="736.5" y2="736.5" class="net_80"/>
  <line x1="207.33333333333331" x2="224" y1="896.5" y2="896.5" class="net_80"/>
  <line x1="224" x2="224" y1="896.5" y2="756.5" class="net_80"/>
  <circle cx="224" cy="756.5" r="2" style="fill:#000" class="net_80"/>
  <line x1="224" x2="250.04" y1="756.5" y2="756.5" class="net_80"/>
  <line x1="207.33333333333331" x2="224" y1="896.5" y2="896.5" class="net_80"/>
  <line x1="224" x2="224" y1="896.5" y2="776.5" class="net_80"/>
  <circle cx="224" cy="776.5" r="2" style="fill:#000" class="net_80"/>
  <line x1="224" x2="250.04" y1="776.5" y2="776.5" class="net_80"/>
  <line x1="207.33333333333331" x2="224" y1="896.5" y2="896.5" class="net_80"/>
  <line x1="224" x2="224" y1="896.5" y2="796.5" class="net_80"/>
  <circle cx="224" cy="796.5" r="2" style="fill:#000" class="net_80"/>
  <line x1="224" x2="250.04" y1="796.5" y2="796.5" class="net_80"/>
  <line x1="207.33333333333331" x2="224" y1="896.5" y2="896.5" class="net_80"/>
  <line x1="224" x2="224" y1="896.5" y2="816.5" class="net_80"/>
  <circle cx="224" cy="816.5" r="2" style="fill:#000" class="net_80"/>
  <line x1="224" x2="250.04" y1="816.5" y2="816.5" class="net_80"/>
  <line x1="207.33333333333331" x2="224" y1="896.5" y2="896.5" class="net_80"/>
  <line x1="224" x2="224" y1="896.5" y2="836.5" class="net_80"/>
  <circle cx="224" cy="836.5" r="2" style="fill:#000" class="net_80"/>
  <line x1="224" x2="250.04" y1="836.5" y2="836.5" class="net_80"/>
  <line x1="207.33333333333331" x2="224" y1="896.5" y2="896.5" class="net_80"/>
  <line x1="224" x2="224" y1="896.5" y2="856.5" class="net_80"/>
  <circle cx="224" cy="856.5" r="2" style="fill:#000" class="net_80"/>
  <line x1="224" x2="250.04" y1="856.5" y2="856.5" class="net_80"/>
  <line x1="207.33333333333331" x2="224" y1="896.5" y2="896.5" class="net_80"/>
  <line x1="224" x2="224" y1="896.5" y2="876.5" class="net_80"/>
  <circle cx="224" cy="876.5" r="2" style="fill:#000" class="net_80"/>
  <line x1="224" x2="250.04" y1="876.5" y2="876.5" class="net_80"/>
  <line x1="207.33333333333331" x2="250.04" y1="896.5" y2="896.5" class="net_80"/>
  <line x1="207.33333333333331" x2="224" y1="896.5" y2="896.5" class="net_80"/>
  <line x1="224" x2="224" y1="896.5" y2="1026" class="net_80"/>
  <line x1="224" x2="250.54" y1="1026" y2="1026" class="net_80"/>
  <line x1="250.54" x2="250.54" y1="1026" y2="917" class="net_80"/>
  <line x1="207.33333333333331" x2="224" y1="896.5" y2="896.5" class="net_80"/>
  <line x1="224" x2="224" y1="896.5" y2="1016" class="net_80"/>
  <line x1="224" x2="250.54" y1="1016" y2="1016" class="net_80"/>
  <circle cx="224" cy="1016" r="2" style="fill:#000" class="net_80"/>
  <line x1="250.54" x2="250.54" y1="1016" y2="937" class="net_80"/>
  <line x1="207.33333333333331" x2="224" y1="896.5" y2="896.5" class="net_80"/>
  <line x1="224" x2="224" y1="896.5" y2="1006" class="net_80"/>
  <line x1="224" x2="250.54" y1="1006" y2="1006" class="net_80"/>
  <circle cx="224" cy="1006" r="2" style="fill:#000" class="net_80"/>
  <line x1="250.54" x2="250.54" y1="1006" y2="957" class="net_80"/>
  <line x1="207.33333333333331" x2="224" y1="896.5" y2="896.5" class="net_80"/>
  <line x1="224" x2="224" y1="896.5" y2="996" class="net_80"/>
  <line x1="224" x2="250.54" y1="996" y2="996" class="net_80"/>
  <circle cx="224" cy="996" r="2" style="fill:#000" class="net_80"/>
  <line x1="250.54" x2="250.54" y1="996" y2="977" class="net_80"/>
</svg>
