<svg xmlns="http://www.w3.org/2000/svg" xmlns:xlink="http://www.w3.org/1999/xlink" xmlns:s="https://github.com/nturley/netlistsvg" width="1487" height="1315.5">
  <style>svg {
    stroke:#000;
    fill:none;
  }
  text {
    fill:#000;
    stroke:none;
    font-size:10px;
    font-weight: bold;
    font-family: "Courier New", monospace;
  }
  .nodelabel {
    text-anchor: middle;
  }
  .inputPortLabel {
    text-anchor: end;
  }
  .splitjoinBody {
    fill:#000;
  }</style>
  <g s:type="add" transform="translate(880.6666666666666,54)" s:width="25" s:height="25" id="cell_$add$src/core/datapath.v:81$11">
    <s:alias val="$add"/>
    <circle r="12.5" cx="12.5" cy="12.5" class="cell_$add$src/core/datapath.v:81$11"/>
    <line x1="7.5" x2="17.5" y1="12.5" y2="12.5" class="cell_$add$src/core/datapath.v:81$11"/>
    <line x1="12.5" x2="12.5" y1="7.5" y2="17.5" class="cell_$add$src/core/datapath.v:81$11"/>
    <g s:x="3" s:y="5" s:pid="A"/>
    <g s:x="3" s:y="20" s:pid="B"/>
    <g s:x="25" s:y="12.5" s:pid="Y"/>
  </g>
  <g s:type="not" transform="translate(1172.5,765.5)" s:width="30" s:height="20" id="cell_$eq$src/core/datapath.v:134$17">
    <s:alias val="$_NOT_"/>
    <s:alias val="$not"/>
    <s:alias val="$logic_not"/>
    <path d="M0,0 L0,20 L20,10 Z" class="cell_$eq$src/core/datapath.v:134$17"/>
    <circle cx="23" cy="10" r="3" class="cell_$eq$src/core/datapath.v:134$17"/>
    <g s:x="0" s:y="10" s:pid="A"/>
    <g s:x="25" s:y="10" s:pid="Y"/>
  </g>
  <g s:type="eq" transform="translate(1014,541.5)" s:width="25" s:height="25" id="cell_$eq$src/core/datapath.v:135$18">
    <s:alias val="$eq"/>
    <circle r="12.5" cx="12.5" cy="12.5" class="cell_$eq$src/core/datapath.v:135$18"/>
    <line x1="7.5" x2="17.5" y1="10" y2="10" class="cell_$eq$src/core/datapath.v:135$18"/>
    <line x1="7.5" x2="17.5" y1="15" y2="15" class="cell_$eq$src/core/datapath.v:135$18"/>
    <g s:x="3" s:y="5" s:pid="A"/>
    <g s:x="3" s:y="20" s:pid="B"/>
    <g s:x="25" s:y="12.5" s:pid="Y"/>
  </g>
  <g s:type="eq" transform="translate(880.6666666666666,119)" s:width="25" s:height="25" id="cell_$eq$src/core/datapath.v:136$19">
    <s:alias val="$eq"/>
    <circle r="12.5" cx="12.5" cy="12.5" class="cell_$eq$src/core/datapath.v:136$19"/>
    <line x1="7.5" x2="17.5" y1="10" y2="10" class="cell_$eq$src/core/datapath.v:136$19"/>
    <line x1="7.5" x2="17.5" y1="15" y2="15" class="cell_$eq$src/core/datapath.v:136$19"/>
    <g s:x="3" s:y="5" s:pid="A"/>
    <g s:x="3" s:y="20" s:pid="B"/>
    <g s:x="25" s:y="12.5" s:pid="Y"/>
  </g>
  <g s:type="not" transform="translate(489.5,466.5)" s:width="30" s:height="20" id="cell_$eq$src/core/datapath.v:97$12">
    <s:alias val="$_NOT_"/>
    <s:alias val="$not"/>
    <s:alias val="$logic_not"/>
    <path d="M0,0 L0,20 L20,10 Z" class="cell_$eq$src/core/datapath.v:97$12"/>
    <circle cx="23" cy="10" r="3" class="cell_$eq$src/core/datapath.v:97$12"/>
    <g s:x="0" s:y="10" s:pid="A"/>
    <g s:x="25" s:y="10" s:pid="Y"/>
  </g>
  <g s:type="eq" transform="translate(283,441.5)" s:width="25" s:height="25" id="cell_$eq$src/core/datapath.v:97$13">
    <s:alias val="$eq"/>
    <circle r="12.5" cx="12.5" cy="12.5" class="cell_$eq$src/core/datapath.v:97$13"/>
    <line x1="7.5" x2="17.5" y1="10" y2="10" class="cell_$eq$src/core/datapath.v:97$13"/>
    <line x1="7.5" x2="17.5" y1="15" y2="15" class="cell_$eq$src/core/datapath.v:97$13"/>
    <g s:x="3" s:y="5" s:pid="A"/>
    <g s:x="3" s:y="20" s:pid="B"/>
    <g s:x="25" s:y="12.5" s:pid="Y"/>
  </g>
  <g s:type="mux" transform="translate(1381,724.5)" s:width="20" s:height="40" id="cell_$ternary$src/core/datapath.v:134$22">
    <s:alias val="$pmux"/>
    <s:alias val="$mux"/>
    <s:alias val="$_MUX_"/>
    <path d="M0,0 L20,10 L20,30 L0,40 Z" class="cell_$ternary$src/core/datapath.v:134$22"/>
    <g s:x="0" s:y="10" s:pid="A"/>
    <g s:x="0" s:y="30" s:pid="B"/>
    <g s:x="10" s:y="35" s:pid="S"/>
    <g s:x="20" s:y="20" s:pid="Y"/>
  </g>
  <g s:type="mux" transform="translate(1169.6666666666665,228)" s:width="20" s:height="40" id="cell_$ternary$src/core/datapath.v:135$21">
    <s:alias val="$pmux"/>
    <s:alias val="$mux"/>
    <s:alias val="$_MUX_"/>
    <path d="M0,0 L20,10 L20,30 L0,40 Z" class="cell_$ternary$src/core/datapath.v:135$21"/>
    <g s:x="0" s:y="10" s:pid="A"/>
    <g s:x="0" s:y="30" s:pid="B"/>
    <g s:x="10" s:y="35" s:pid="S"/>
    <g s:x="20" s:y="20" s:pid="Y"/>
  </g>
  <g s:type="mux" transform="translate(1015.6666666666666,36.5)" s:width="20" s:height="40" id="cell_$ternary$src/core/datapath.v:136$20">
    <s:alias val="$pmux"/>
    <s:alias val="$mux"/>
    <s:alias val="$_MUX_"/>
    <path d="M0,0 L20,10 L20,30 L0,40 Z" class="cell_$ternary$src/core/datapath.v:136$20"/>
    <g s:x="0" s:y="10" s:pid="A"/>
    <g s:x="0" s:y="30" s:pid="B"/>
    <g s:x="10" s:y="35" s:pid="S"/>
    <g s:x="20" s:y="20" s:pid="Y"/>
  </g>
  <g s:type="mux" transform="translate(493.6666666666667,404)" s:width="20" s:height="40" id="cell_$ternary$src/core/datapath.v:97$14">
    <s:alias val="$pmux"/>
    <s:alias val="$mux"/>
    <s:alias val="$_MUX_"/>
    <path d="M0,0 L20,10 L20,30 L0,40 Z" class="cell_$ternary$src/core/datapath.v:97$14"/>
    <g s:x="0" s:y="10" s:pid="A"/>
    <g s:x="0" s:y="30" s:pid="B"/>
    <g s:x="10" s:y="35" s:pid="S"/>
    <g s:x="20" s:y="20" s:pid="Y"/>
  </g>
  <g s:type="mux" transform="translate(621.3333333333333,414)" s:width="20" s:height="40" id="cell_$ternary$src/core/datapath.v:97$15">
    <s:alias val="$pmux"/>
    <s:alias val="$mux"/>
    <s:alias val="$_MUX_"/>
    <path d="M0,0 L20,10 L20,30 L0,40 Z" class="cell_$ternary$src/core/datapath.v:97$15"/>
    <g s:x="0" s:y="10" s:pid="A"/>
    <g s:x="0" s:y="30" s:pid="B"/>
    <g s:x="10" s:y="35" s:pid="S"/>
    <g s:x="20" s:y="20" s:pid="Y"/>
  </g>
  <g s:type="mux" transform="translate(621.3333333333333,491.5)" s:width="20" s:height="40" id="cell_$ternary$src/core/datapath.v:99$16">
    <s:alias val="$pmux"/>
    <s:alias val="$mux"/>
    <s:alias val="$_MUX_"/>
    <path d="M0,0 L20,10 L20,30 L0,40 Z" class="cell_$ternary$src/core/datapath.v:99$16"/>
    <g s:x="0" s:y="10" s:pid="A"/>
    <g s:x="0" s:y="30" s:pid="B"/>
    <g s:x="10" s:y="35" s:pid="S"/>
    <g s:x="20" s:y="20" s:pid="Y"/>
  </g>
  <g s:type="generic" transform="translate(744,461)" s:width="30" s:height="40" id="cell_u_alu">
    <text x="15" y="-4" class="nodelabel cell_u_alu" s:attribute="ref">alu</text>
    <rect width="30" height="60" s:generic="body" class="cell_u_alu"/>
    <g transform="translate(0,10)" s:x="0" s:y="10" s:pid="in0" id="port_u_alu~alu_ctrl">
      <text x="-3" y="-4" class="inputPortLabel cell_u_alu">alu_ctrl</text>
    </g>
    <g transform="translate(0,30)" s:x="0" s:y="10" s:pid="in0" id="port_u_alu~op_a">
      <text x="-3" y="-4" class="inputPortLabel cell_u_alu">op_a</text>
    </g>
    <g transform="translate(0,50)" s:x="0" s:y="10" s:pid="in0" id="port_u_alu~op_b">
      <text x="-3" y="-4" class="inputPortLabel cell_u_alu">op_b</text>
    </g>
    <g transform="translate(30,10)" s:x="30" s:y="10" s:pid="out0" id="port_u_alu~alu_result">
      <text x="5" y="-4" style="fill:#000; stroke:none" class="cell_u_alu">alu_result</text>
    </g>
    <g transform="translate(30,30)" s:x="30" s:y="10" s:pid="out0" id="port_u_alu~alu_zero">
      <text x="5" y="-4" style="fill:#000; stroke:none" class="cell_u_alu">alu_zero</text>
    </g>
  </g>
  <g s:type="generic" transform="translate(1154,941)" s:width="30" s:height="40" id="cell_u_branch_comp">
    <text x="15" y="-4" class="nodelabel cell_u_branch_comp" s:attribute="ref">branch_comp</text>
    <rect width="30" height="60" s:generic="body" class="cell_u_branch_comp"/>
    <g transform="translate(0,10)" s:x="0" s:y="10" s:pid="in0" id="port_u_branch_comp~funct3">
      <text x="-3" y="-4" class="inputPortLabel cell_u_branch_comp">funct3</text>
    </g>
    <g transform="translate(0,30)" s:x="0" s:y="10" s:pid="in0" id="port_u_branch_comp~op1">
      <text x="-3" y="-4" class="inputPortLabel cell_u_branch_comp">op1</text>
    </g>
    <g transform="translate(0,50)" s:x="0" s:y="10" s:pid="in0" id="port_u_branch_comp~op2">
      <text x="-3" y="-4" class="inputPortLabel cell_u_branch_comp">op2</text>
    </g>
    <g transform="translate(30,10)" s:x="30" s:y="10" s:pid="out0" id="port_u_branch_comp~branch_taken">
      <text x="5" y="-4" style="fill:#000; stroke:none" class="cell_u_branch_comp">branch_taken</text>
    </g>
  </g>
  <g s:type="generic" transform="translate(1020,247.5)" s:width="30" s:height="40" id="cell_u_dmem">
    <text x="15" y="-4" class="nodelabel cell_u_dmem" s:attribute="ref">$paramod$5adbbc0804f21378f0e533c5271e955118e8fbcf\data_mem</text>
    <rect width="30" height="100" s:generic="body" class="cell_u_dmem"/>
    <g transform="translate(0,10)" s:x="0" s:y="10" s:pid="in0" id="port_u_dmem~addr">
      <text x="-3" y="-4" class="inputPortLabel cell_u_dmem">addr</text>
    </g>
    <g transform="translate(0,30)" s:x="0" s:y="10" s:pid="in0" id="port_u_dmem~clk">
      <text x="-3" y="-4" class="inputPortLabel cell_u_dmem">clk</text>
    </g>
    <g transform="translate(0,50)" s:x="0" s:y="10" s:pid="in0" id="port_u_dmem~mem_read">
      <text x="-3" y="-4" class="inputPortLabel cell_u_dmem">mem_read</text>
    </g>
    <g transform="translate(0,70)" s:x="0" s:y="10" s:pid="in0" id="port_u_dmem~mem_write">
      <text x="-3" y="-4" class="inputPortLabel cell_u_dmem">mem_write</text>
    </g>
    <g transform="translate(0,90)" s:x="0" s:y="10" s:pid="in0" id="port_u_dmem~wdata">
      <text x="-3" y="-4" class="inputPortLabel cell_u_dmem">wdata</text>
    </g>
    <g transform="translate(30,10)" s:x="30" s:y="10" s:pid="out0" id="port_u_dmem~rdata">
      <text x="5" y="-4" style="fill:#000; stroke:none" class="cell_u_dmem">rdata</text>
    </g>
  </g>
  <g s:type="generic" transform="translate(1172.5,1269.5)" s:width="30" s:height="40" id="cell_u_imem">
    <text x="15" y="-4" class="nodelabel cell_u_imem" s:attribute="ref">$paramod$942d8f9c37af0e3735e0e2cefc9deed49cd87e62\instr_mem</text>
    <rect width="30" height="20" s:generic="body" class="cell_u_imem"/>
    <g transform="translate(0,10)" s:x="0" s:y="10" s:pid="in0" id="port_u_imem~addr">
      <text x="-3" y="-4" class="inputPortLabel cell_u_imem">addr</text>
    </g>
    <g transform="translate(30,10)" s:x="30" s:y="10" s:pid="out0" id="port_u_imem~instr">
      <text x="5" y="-4" style="fill:#000; stroke:none" class="cell_u_imem">instr</text>
    </g>
  </g>
  <g s:type="generic" transform="translate(1381,1084.5)" s:width="30" s:height="40" id="cell_u_next_pc">
    <text x="15" y="-4" class="nodelabel cell_u_next_pc" s:attribute="ref">next_pc</text>
    <rect width="30" height="140" s:generic="body" class="cell_u_next_pc"/>
    <g transform="translate(0,10)" s:x="0" s:y="10" s:pid="in0" id="port_u_next_pc~branch_taken">
      <text x="-3" y="-4" class="inputPortLabel cell_u_next_pc">branch_taken</text>
    </g>
    <g transform="translate(0,30)" s:x="0" s:y="10" s:pid="in0" id="port_u_next_pc~imm_out">
      <text x="-3" y="-4" class="inputPortLabel cell_u_next_pc">imm_out</text>
    </g>
    <g transform="translate(0,50)" s:x="0" s:y="10" s:pid="in0" id="port_u_next_pc~is_branch">
      <text x="-3" y="-4" class="inputPortLabel cell_u_next_pc">is_branch</text>
    </g>
    <g transform="translate(0,70)" s:x="0" s:y="10" s:pid="in0" id="port_u_next_pc~is_jal">
      <text x="-3" y="-4" class="inputPortLabel cell_u_next_pc">is_jal</text>
    </g>
    <g transform="translate(0,90)" s:x="0" s:y="10" s:pid="in0" id="port_u_next_pc~is_jalr">
      <text x="-3" y="-4" class="inputPortLabel cell_u_next_pc">is_jalr</text>
    </g>
    <g transform="translate(0,110)" s:x="0" s:y="10" s:pid="in0" id="port_u_next_pc~pc_current">
      <text x="-3" y="-4" class="inputPortLabel cell_u_next_pc">pc_current</text>
    </g>
    <g transform="translate(0,130)" s:x="0" s:y="10" s:pid="in0" id="port_u_next_pc~rs1_data">
      <text x="-3" y="-4" class="inputPortLabel cell_u_next_pc">rs1_data</text>
    </g>
    <g transform="translate(30,10)" s:x="30" s:y="10" s:pid="out0" id="port_u_next_pc~pc_next">
      <text x="5" y="-4" style="fill:#000; stroke:none" class="cell_u_next_pc">pc_next</text>
    </g>
  </g>
  <g s:type="generic" transform="translate(275,777.5)" s:width="30" s:height="40" id="cell_u_pc">
    <text x="15" y="-4" class="nodelabel cell_u_pc" s:attribute="ref">pc</text>
    <rect width="30" height="60" s:generic="body" class="cell_u_pc"/>
    <g transform="translate(0,10)" s:x="0" s:y="10" s:pid="in0" id="port_u_pc~clk">
      <text x="-3" y="-4" class="inputPortLabel cell_u_pc">clk</text>
    </g>
    <g transform="translate(0,30)" s:x="0" s:y="10" s:pid="in0" id="port_u_pc~next_pc">
      <text x="-3" y="-4" class="inputPortLabel cell_u_pc">next_pc</text>
    </g>
    <g transform="translate(0,50)" s:x="0" s:y="10" s:pid="in0" id="port_u_pc~reset">
      <text x="-3" y="-4" class="inputPortLabel cell_u_pc">reset</text>
    </g>
    <g transform="translate(30,10)" s:x="30" s:y="10" s:pid="out0" id="port_u_pc~current_pc">
      <text x="5" y="-4" style="fill:#000; stroke:none" class="cell_u_pc">current_pc</text>
    </g>
  </g>
  <g s:type="generic" transform="translate(492,816)" s:width="30" s:height="40" id="cell_u_rf">
    <text x="15" y="-4" class="nodelabel cell_u_rf" s:attribute="ref">regfile</text>
    <rect width="30" height="140" s:generic="body" class="cell_u_rf"/>
    <g transform="translate(0,10)" s:x="0" s:y="10" s:pid="in0" id="port_u_rf~clk">
      <text x="-3" y="-4" class="inputPortLabel cell_u_rf">clk</text>
    </g>
    <g transform="translate(0,30)" s:x="0" s:y="10" s:pid="in0" id="port_u_rf~rd">
      <text x="-3" y="-4" class="inputPortLabel cell_u_rf">rd</text>
    </g>
    <g transform="translate(0,50)" s:x="0" s:y="10" s:pid="in0" id="port_u_rf~rd_wdata">
      <text x="-3" y="-4" class="inputPortLabel cell_u_rf">rd_wdata</text>
    </g>
    <g transform="translate(0,70)" s:x="0" s:y="10" s:pid="in0" id="port_u_rf~reg_write">
      <text x="-3" y="-4" class="inputPortLabel cell_u_rf">reg_write</text>
    </g>
    <g transform="translate(0,90)" s:x="0" s:y="10" s:pid="in0" id="port_u_rf~reset">
      <text x="-3" y="-4" class="inputPortLabel cell_u_rf">reset</text>
    </g>
    <g transform="translate(0,110)" s:x="0" s:y="10" s:pid="in0" id="port_u_rf~rs1">
      <text x="-3" y="-4" class="inputPortLabel cell_u_rf">rs1</text>
    </g>
    <g transform="translate(0,130)" s:x="0" s:y="10" s:pid="in0" id="port_u_rf~rs2">
      <text x="-3" y="-4" class="inputPortLabel cell_u_rf">rs2</text>
    </g>
    <g transform="translate(30,10)" s:x="30" s:y="10" s:pid="out0" id="port_u_rf~rs1_data">
      <text x="5" y="-4" style="fill:#000; stroke:none" class="cell_u_rf">rs1_data</text>
    </g>
    <g transform="translate(30,30)" s:x="30" s:y="10" s:pid="out0" id="port_u_rf~rs2_data">
      <text x="5" y="-4" style="fill:#000; stroke:none" class="cell_u_rf">rs2_data</text>
    </g>
  </g>
  <g s:type="inputExt" transform="translate(150,616.5)" s:width="30" s:height="20" id="cell_clk">
    <text x="15" y="-4" class="nodelabel cell_clk" s:attribute="ref">clk</text>
    <s:alias val="$_inputExt_"/>
    <path d="M0,0 L0,20 L15,20 L30,10 L15,0 Z" class="cell_clk"/>
    <g s:x="28" s:y="10" s:pid="Y"/>
  </g>
  <g s:type="inputExt" transform="translate(150,840.5)" s:width="30" s:height="20" id="cell_reset">
    <text x="15" y="-4" class="nodelabel cell_reset" s:attribute="ref">reset</text>
    <s:alias val="$_inputExt_"/>
    <path d="M0,0 L0,20 L15,20 L30,10 L15,0 Z" class="cell_reset"/>
    <g s:x="28" s:y="10" s:pid="Y"/>
  </g>
  <g s:type="inputExt" transform="translate(54,22)" s:width="30" s:height="20" id="cell_opcode">
    <text x="15" y="-4" class="nodelabel cell_opcode" s:attribute="ref">opcode</text>
    <s:alias val="$_inputExt_"/>
    <path d="M0,0 L0,20 L15,20 L30,10 L15,0 Z" class="cell_opcode"/>
    <g s:x="28" s:y="10" s:pid="Y"/>
  </g>
  <g s:type="inputExt" transform="translate(275,647.5)" s:width="30" s:height="20" id="cell_rd">
    <text x="15" y="-4" class="nodelabel cell_rd" s:attribute="ref">rd</text>
    <s:alias val="$_inputExt_"/>
    <path d="M0,0 L0,20 L15,20 L30,10 L15,0 Z" class="cell_rd"/>
    <g s:x="28" s:y="10" s:pid="Y"/>
  </g>
  <g s:type="inputExt" transform="translate(1020,796.5)" s:width="30" s:height="20" id="cell_funct3">
    <text x="15" y="-4" class="nodelabel cell_funct3" s:attribute="ref">funct3</text>
    <s:alias val="$_inputExt_"/>
    <path d="M0,0 L0,20 L15,20 L30,10 L15,0 Z" class="cell_funct3"/>
    <g s:x="28" s:y="10" s:pid="Y"/>
  </g>
  <g s:type="inputExt" transform="translate(275,871.5)" s:width="30" s:height="20" id="cell_rs1">
    <text x="15" y="-4" class="nodelabel cell_rs1" s:attribute="ref">rs1</text>
    <s:alias val="$_inputExt_"/>
    <path d="M0,0 L0,20 L15,20 L30,10 L15,0 Z" class="cell_rs1"/>
    <g s:x="28" s:y="10" s:pid="Y"/>
  </g>
  <g s:type="inputExt" transform="translate(275,936.5)" s:width="30" s:height="20" id="cell_rs2">
    <text x="15" y="-4" class="nodelabel cell_rs2" s:attribute="ref">rs2</text>
    <s:alias val="$_inputExt_"/>
    <path d="M0,0 L0,20 L15,20 L30,10 L15,0 Z" class="cell_rs2"/>
    <g s:x="28" s:y="10" s:pid="Y"/>
  </g>
  <g s:type="inputExt" transform="translate(102,22)" s:width="30" s:height="20" id="cell_funct7">
    <text x="15" y="-4" class="nodelabel cell_funct7" s:attribute="ref">funct7</text>
    <s:alias val="$_inputExt_"/>
    <path d="M0,0 L0,20 L15,20 L30,10 L15,0 Z" class="cell_funct7"/>
    <g s:x="28" s:y="10" s:pid="Y"/>
  </g>
  <g s:type="inputExt" transform="translate(12,22)" s:width="30" s:height="20" id="cell_csr">
    <text x="15" y="-4" class="nodelabel cell_csr" s:attribute="ref">csr</text>
    <s:alias val="$_inputExt_"/>
    <path d="M0,0 L0,20 L15,20 L30,10 L15,0 Z" class="cell_csr"/>
    <g s:x="28" s:y="10" s:pid="Y"/>
  </g>
  <g s:type="inputExt" transform="translate(612,359)" s:width="30" s:height="20" id="cell_alu_ctrl">
    <text x="15" y="-4" class="nodelabel cell_alu_ctrl" s:attribute="ref">alu_ctrl</text>
    <s:alias val="$_inputExt_"/>
    <path d="M0,0 L0,20 L15,20 L30,10 L15,0 Z" class="cell_alu_ctrl"/>
    <g s:x="28" s:y="10" s:pid="Y"/>
  </g>
  <g s:type="inputExt" transform="translate(492,1004)" s:width="30" s:height="20" id="cell_imm_out">
    <text x="15" y="-4" class="nodelabel cell_imm_out" s:attribute="ref">imm_out</text>
    <s:alias val="$_inputExt_"/>
    <path d="M0,0 L0,20 L15,20 L30,10 L15,0 Z" class="cell_imm_out"/>
    <g s:x="28" s:y="10" s:pid="Y"/>
  </g>
  <g s:type="inputExt" transform="translate(275,712.5)" s:width="30" s:height="20" id="cell_reg_write">
    <text x="15" y="-4" class="nodelabel cell_reg_write" s:attribute="ref">reg_write</text>
    <s:alias val="$_inputExt_"/>
    <path d="M0,0 L0,20 L15,20 L30,10 L15,0 Z" class="cell_reg_write"/>
    <g s:x="28" s:y="10" s:pid="Y"/>
  </g>
  <g s:type="inputExt" transform="translate(871,243)" s:width="30" s:height="20" id="cell_mem_read">
    <text x="15" y="-4" class="nodelabel cell_mem_read" s:attribute="ref">mem_read</text>
    <s:alias val="$_inputExt_"/>
    <path d="M0,0 L0,20 L15,20 L30,10 L15,0 Z" class="cell_mem_read"/>
    <g s:x="28" s:y="10" s:pid="Y"/>
  </g>
  <g s:type="inputExt" transform="translate(871,308)" s:width="30" s:height="20" id="cell_mem_write">
    <text x="15" y="-4" class="nodelabel cell_mem_write" s:attribute="ref">mem_write</text>
    <s:alias val="$_inputExt_"/>
    <path d="M0,0 L0,20 L15,20 L30,10 L15,0 Z" class="cell_mem_write"/>
    <g s:x="28" s:y="10" s:pid="Y"/>
  </g>
  <g s:type="inputExt" transform="translate(492,531.5)" s:width="30" s:height="20" id="cell_alu_src">
    <text x="15" y="-4" class="nodelabel cell_alu_src" s:attribute="ref">alu_src</text>
    <s:alias val="$_inputExt_"/>
    <path d="M0,0 L0,20 L15,20 L30,10 L15,0 Z" class="cell_alu_src"/>
    <g s:x="28" s:y="10" s:pid="Y"/>
  </g>
  <g s:type="inputExt" transform="translate(150,466.5)" s:width="30" s:height="20" id="cell_op1_sel">
    <text x="15" y="-4" class="nodelabel cell_op1_sel" s:attribute="ref">op1_sel</text>
    <s:alias val="$_inputExt_"/>
    <path d="M0,0 L0,20 L15,20 L30,10 L15,0 Z" class="cell_op1_sel"/>
    <g s:x="28" s:y="10" s:pid="Y"/>
  </g>
  <g s:type="inputExt" transform="translate(744,396)" s:width="30" s:height="20" id="cell_wb_sel">
    <text x="15" y="-4" class="nodelabel cell_wb_sel" s:attribute="ref">wb_sel</text>
    <s:alias val="$_inputExt_"/>
    <path d="M0,0 L0,20 L15,20 L30,10 L15,0 Z" class="cell_wb_sel"/>
    <g s:x="28" s:y="10" s:pid="Y"/>
  </g>
  <g s:type="inputExt" transform="translate(1154,1035)" s:width="30" s:height="20" id="cell_is_branch">
    <text x="15" y="-4" class="nodelabel cell_is_branch" s:attribute="ref">is_branch</text>
    <s:alias val="$_inputExt_"/>
    <path d="M0,0 L0,20 L15,20 L30,10 L15,0 Z" class="cell_is_branch"/>
    <g s:x="28" s:y="10" s:pid="Y"/>
  </g>
  <g s:type="inputExt" transform="translate(1154,1100)" s:width="30" s:height="20" id="cell_is_jal">
    <text x="15" y="-4" class="nodelabel cell_is_jal" s:attribute="ref">is_jal</text>
    <s:alias val="$_inputExt_"/>
    <path d="M0,0 L0,20 L15,20 L30,10 L15,0 Z" class="cell_is_jal"/>
    <g s:x="28" s:y="10" s:pid="Y"/>
  </g>
  <g s:type="inputExt" transform="translate(1154,1165)" s:width="30" s:height="20" id="cell_is_jalr">
    <text x="15" y="-4" class="nodelabel cell_is_jalr" s:attribute="ref">is_jalr</text>
    <s:alias val="$_inputExt_"/>
    <path d="M0,0 L0,20 L15,20 L30,10 L15,0 Z" class="cell_is_jalr"/>
    <g s:x="28" s:y="10" s:pid="Y"/>
  </g>
  <g s:type="outputExt" transform="translate(1381,1270)" s:width="30" s:height="20" id="cell_instr">
    <text x="15" y="-4" class="nodelabel cell_instr" s:attribute="ref">instr</text>
    <s:alias val="$_outputExt_"/>
    <path d="M30,0 L30,20 L15,20 L0,10 L15,0 Z" class="cell_instr"/>
    <g s:x="0" s:y="10" s:pid="A"/>
  </g>
  <g s:type="constant" transform="translate(744,64)" s:width="30" s:height="20" id="cell_00000000000000000000000000000100">
    <text x="15" y="-4" class="nodelabel cell_00000000000000000000000000000100" s:attribute="ref">0x4</text>
    <s:alias val="$_constant_"/>
    <rect width="30" height="20" class="cell_00000000000000000000000000000100"/>
    <g s:x="30" s:y="10" s:pid="Y"/>
  </g>
  <g s:type="constant" transform="translate(150,551.5)" s:width="30" s:height="20" id="cell_01">
    <text x="15" y="-4" class="nodelabel cell_01" s:attribute="ref">01</text>
    <s:alias val="$_constant_"/>
    <rect width="30" height="20" class="cell_01"/>
    <g s:x="30" s:y="10" s:pid="Y"/>
  </g>
  <g s:type="constant" transform="translate(744,129)" s:width="30" s:height="20" id="cell_10">
    <text x="15" y="-4" class="nodelabel cell_10" s:attribute="ref">10</text>
    <s:alias val="$_constant_"/>
    <rect width="30" height="20" class="cell_10"/>
    <g s:x="30" s:y="10" s:pid="Y"/>
  </g>
  <g s:type="constant" transform="translate(275,22)" s:width="30" s:height="20" id="cell_00000000000000000000000000000000">
    <text x="15" y="-4" class="nodelabel cell_00000000000000000000000000000000" s:attribute="ref">0x0</text>
    <s:alias val="$_constant_"/>
    <rect width="30" height="20" class="cell_00000000000000000000000000000000"/>
    <g s:x="30" s:y="10" s:pid="Y"/>
  </g>
  <g s:type="split" transform="translate(895,179)" s:width="5" s:height="40" id="cell_$split$,236,237,238,239,240,241,242,243,244,245,246,247,248,249,250,251,252,253,254,255,256,257,258,259,260,261,262,263,264,265,266,267,">
    <rect width="5" height="20" class="splitjoinBody" s:generic="body"/>
    <s:alias val="$_split_"/>
    <g s:x="0" s:y="20" s:pid="in"/>
    <g transform="translate(4,10)" s:x="4" s:y="10" s:pid="out0">
      <text x="5" y="-4">2:12</text>
    </g>
  </g>
  <g s:type="split" transform="translate(1045,1269.5)" s:width="5" s:height="40" id="cell_$split$,135,136,137,138,139,140,141,142,143,144,145,146,147,148,149,150,151,152,153,154,155,156,157,158,159,160,161,162,163,164,165,166,">
    <rect width="5" height="20" class="splitjoinBody" s:generic="body"/>
    <s:alias val="$_split_"/>
    <g s:x="0" s:y="20" s:pid="in"/>
    <g transform="translate(4,10)" s:x="4" s:y="10" s:pid="out0">
      <text x="5" y="-4">2:12</text>
    </g>
  </g>
  <line x1="306" x2="377" y1="788" y2="788" class="net_135,136,137,138,139,140,141,142,143,144,145,146,147,148,149,150,151,152,153,154,155,156,157,158,159,160,161,162,163,164,165,166"/>
  <line x1="377" x2="377" y1="788" y2="43" class="net_135,136,137,138,139,140,141,142,143,144,145,146,147,148,149,150,151,152,153,154,155,156,157,158,159,160,161,162,163,164,165,166"/>
  <line x1="377" x2="846" y1="43" y2="43" class="net_135,136,137,138,139,140,141,142,143,144,145,146,147,148,149,150,151,152,153,154,155,156,157,158,159,160,161,162,163,164,165,166"/>
  <line x1="846" x2="846" y1="43" y2="59" class="net_135,136,137,138,139,140,141,142,143,144,145,146,147,148,149,150,151,152,153,154,155,156,157,158,159,160,161,162,163,164,165,166"/>
  <circle cx="377" cy="788" r="2" style="fill:#000" class="net_135,136,137,138,139,140,141,142,143,144,145,146,147,148,149,150,151,152,153,154,155,156,157,158,159,160,161,162,163,164,165,166"/>
  <line x1="846" x2="883.6666666666666" y1="59" y2="59" class="net_135,136,137,138,139,140,141,142,143,144,145,146,147,148,149,150,151,152,153,154,155,156,157,158,159,160,161,162,163,164,165,166"/>
  <line x1="306" x2="377" y1="788" y2="788" class="net_135,136,137,138,139,140,141,142,143,144,145,146,147,148,149,150,151,152,153,154,155,156,157,158,159,160,161,162,163,164,165,166"/>
  <line x1="377" x2="377" y1="788" y2="434" class="net_135,136,137,138,139,140,141,142,143,144,145,146,147,148,149,150,151,152,153,154,155,156,157,158,159,160,161,162,163,164,165,166"/>
  <circle cx="377" cy="434" r="2" style="fill:#000" class="net_135,136,137,138,139,140,141,142,143,144,145,146,147,148,149,150,151,152,153,154,155,156,157,158,159,160,161,162,163,164,165,166"/>
  <line x1="377" x2="493.6666666666667" y1="434" y2="434" class="net_135,136,137,138,139,140,141,142,143,144,145,146,147,148,149,150,151,152,153,154,155,156,157,158,159,160,161,162,163,164,165,166"/>
  <line x1="306" x2="377" y1="788" y2="788" class="net_135,136,137,138,139,140,141,142,143,144,145,146,147,148,149,150,151,152,153,154,155,156,157,158,159,160,161,162,163,164,165,166"/>
  <line x1="377" x2="377" y1="788" y2="1195" class="net_135,136,137,138,139,140,141,142,143,144,145,146,147,148,149,150,151,152,153,154,155,156,157,158,159,160,161,162,163,164,165,166"/>
  <circle cx="377" cy="1195" r="2" style="fill:#000" class="net_135,136,137,138,139,140,141,142,143,144,145,146,147,148,149,150,151,152,153,154,155,156,157,158,159,160,161,162,163,164,165,166"/>
  <line x1="377" x2="1381" y1="1195" y2="1195" class="net_135,136,137,138,139,140,141,142,143,144,145,146,147,148,149,150,151,152,153,154,155,156,157,158,159,160,161,162,163,164,165,166"/>
  <line x1="306" x2="377" y1="788" y2="788" class="net_135,136,137,138,139,140,141,142,143,144,145,146,147,148,149,150,151,152,153,154,155,156,157,158,159,160,161,162,163,164,165,166"/>
  <line x1="377" x2="377" y1="788" y2="1302.5" class="net_135,136,137,138,139,140,141,142,143,144,145,146,147,148,149,150,151,152,153,154,155,156,157,158,159,160,161,162,163,164,165,166"/>
  <line x1="377" x2="1045.5" y1="1302.5" y2="1302.5" class="net_135,136,137,138,139,140,141,142,143,144,145,146,147,148,149,150,151,152,153,154,155,156,157,158,159,160,161,162,163,164,165,166"/>
  <line x1="1045.5" x2="1045.5" y1="1302.5" y2="1290.5" class="net_135,136,137,138,139,140,141,142,143,144,145,146,147,148,149,150,151,152,153,154,155,156,157,158,159,160,161,162,163,164,165,166"/>
  <line x1="774" x2="883.6666666666666" y1="74" y2="74" class="net_558,559,560,561,562,563,564,565,566,567,568,569,570,571,572,573,574,575,576,577,578,579,580,581,582,583,584,585,586,587,588,589"/>
  <line x1="772" x2="846" y1="406" y2="406" class="net_98,99"/>
  <line x1="846" x2="846" y1="406" y2="775.5" class="net_98,99"/>
  <circle cx="846" cy="406" r="2" style="fill:#000" class="net_98,99"/>
  <line x1="846" x2="1172.5" y1="775.5" y2="775.5" class="net_98,99"/>
  <line x1="772" x2="935" y1="406" y2="406" class="net_98,99"/>
  <line x1="935" x2="935" y1="406" y2="546.5" class="net_98,99"/>
  <line x1="935" x2="1017" y1="546.5" y2="546.5" class="net_98,99"/>
  <line x1="772" x2="846" y1="406" y2="406" class="net_98,99"/>
  <line x1="846" x2="846" y1="406" y2="124" class="net_98,99"/>
  <line x1="846" x2="883.6666666666666" y1="124" y2="124" class="net_98,99"/>
  <line x1="180" x2="1017" y1="561.5" y2="561.5" class="net_590,591"/>
  <line x1="180" x2="222" y1="561.5" y2="561.5" class="net_590,591"/>
  <line x1="222" x2="222" y1="561.5" y2="461.5" class="net_590,591"/>
  <circle cx="222" cy="561.5" r="2" style="fill:#000" class="net_590,591"/>
  <line x1="222" x2="286" y1="461.5" y2="461.5" class="net_590,591"/>
  <line x1="774" x2="883.6666666666666" y1="139" y2="139" class="net_592,593"/>
  <line x1="178" x2="489.5" y1="476.5" y2="476.5" class="net_96,97"/>
  <line x1="178" x2="212" y1="476.5" y2="476.5" class="net_96,97"/>
  <line x1="212" x2="212" y1="476.5" y2="446.5" class="net_96,97"/>
  <circle cx="212" cy="476.5" r="2" style="fill:#000" class="net_96,97"/>
  <line x1="212" x2="286" y1="446.5" y2="446.5" class="net_96,97"/>
  <line x1="1189.6666666666665" x2="1268" y1="248" y2="248" class="net_204,205,206,207,208,209,210,211,212,213,214,215,216,217,218,219,220,221,222,223,224,225,226,227,228,229,230,231,232,233,234,235"/>
  <line x1="1268" x2="1268" y1="248" y2="734.5" class="net_204,205,206,207,208,209,210,211,212,213,214,215,216,217,218,219,220,221,222,223,224,225,226,227,228,229,230,231,232,233,234,235"/>
  <line x1="1268" x2="1381" y1="734.5" y2="734.5" class="net_204,205,206,207,208,209,210,211,212,213,214,215,216,217,218,219,220,221,222,223,224,225,226,227,228,229,230,231,232,233,234,235"/>
  <line x1="775" x2="856" y1="471.5" y2="471.5" class="net_236,237,238,239,240,241,242,243,244,245,246,247,248,249,250,251,252,253,254,255,256,257,258,259,260,261,262,263,264,265,266,267"/>
  <line x1="856" x2="856" y1="471.5" y2="754.5" class="net_236,237,238,239,240,241,242,243,244,245,246,247,248,249,250,251,252,253,254,255,256,257,258,259,260,261,262,263,264,265,266,267"/>
  <circle cx="856" cy="471.5" r="2" style="fill:#000" class="net_236,237,238,239,240,241,242,243,244,245,246,247,248,249,250,251,252,253,254,255,256,257,258,259,260,261,262,263,264,265,266,267"/>
  <line x1="856" x2="1381" y1="754.5" y2="754.5" class="net_236,237,238,239,240,241,242,243,244,245,246,247,248,249,250,251,252,253,254,255,256,257,258,259,260,261,262,263,264,265,266,267"/>
  <line x1="775" x2="856" y1="471.5" y2="471.5" class="net_236,237,238,239,240,241,242,243,244,245,246,247,248,249,250,251,252,253,254,255,256,257,258,259,260,261,262,263,264,265,266,267"/>
  <line x1="856" x2="856" y1="471.5" y2="223" class="net_236,237,238,239,240,241,242,243,244,245,246,247,248,249,250,251,252,253,254,255,256,257,258,259,260,261,262,263,264,265,266,267"/>
  <line x1="856" x2="895.5" y1="223" y2="223" class="net_236,237,238,239,240,241,242,243,244,245,246,247,248,249,250,251,252,253,254,255,256,257,258,259,260,261,262,263,264,265,266,267"/>
  <line x1="895.5" x2="895.5" y1="223" y2="200" class="net_236,237,238,239,240,241,242,243,244,245,246,247,248,249,250,251,252,253,254,255,256,257,258,259,260,261,262,263,264,265,266,267"/>
  <line x1="1197.5" x2="1391" y1="775.5" y2="775.5" class="net_199"/>
  <line x1="1391" x2="1391" y1="775.5" y2="759.5" class="net_199"/>
  <line x1="1035.6666666666665" x2="1092" y1="56.5" y2="56.5" class="net_300,301,302,303,304,305,306,307,308,309,310,311,312,313,314,315,316,317,318,319,320,321,322,323,324,325,326,327,328,329,330,331"/>
  <line x1="1092" x2="1092" y1="56.5" y2="238" class="net_300,301,302,303,304,305,306,307,308,309,310,311,312,313,314,315,316,317,318,319,320,321,322,323,324,325,326,327,328,329,330,331"/>
  <line x1="1092" x2="1169.6666666666665" y1="238" y2="238" class="net_300,301,302,303,304,305,306,307,308,309,310,311,312,313,314,315,316,317,318,319,320,321,322,323,324,325,326,327,328,329,330,331"/>
  <line x1="1051" x2="1169.6666666666665" y1="258" y2="258" class="net_332,333,334,335,336,337,338,339,340,341,342,343,344,345,346,347,348,349,350,351,352,353,354,355,356,357,358,359,360,361,362,363"/>
  <line x1="1039" x2="1179.6666666666665" y1="554" y2="554" class="net_200"/>
  <line x1="1179.6666666666665" x2="1179.6666666666665" y1="554" y2="263" class="net_200"/>
  <line x1="305" x2="935" y1="32" y2="32" class="net_596,597,598,599,600,601,602,603,604,605,606,607,608,609,610,611,612,613,614,615,616,617,618,619,620,621,622,623,624,625,626,627"/>
  <line x1="935" x2="935" y1="32" y2="46.5" class="net_596,597,598,599,600,601,602,603,604,605,606,607,608,609,610,611,612,613,614,615,616,617,618,619,620,621,622,623,624,625,626,627"/>
  <line x1="935" x2="1015.6666666666666" y1="46.5" y2="46.5" class="net_596,597,598,599,600,601,602,603,604,605,606,607,608,609,610,611,612,613,614,615,616,617,618,619,620,621,622,623,624,625,626,627"/>
  <line x1="305" x2="387" y1="32" y2="32" class="net_596,597,598,599,600,601,602,603,604,605,606,607,608,609,610,611,612,613,614,615,616,617,618,619,620,621,622,623,624,625,626,627"/>
  <line x1="387" x2="387" y1="32" y2="414" class="net_596,597,598,599,600,601,602,603,604,605,606,607,608,609,610,611,612,613,614,615,616,617,618,619,620,621,622,623,624,625,626,627"/>
  <circle cx="387" cy="32" r="2" style="fill:#000" class="net_596,597,598,599,600,601,602,603,604,605,606,607,608,609,610,611,612,613,614,615,616,617,618,619,620,621,622,623,624,625,626,627"/>
  <line x1="387" x2="493.6666666666667" y1="414" y2="414" class="net_596,597,598,599,600,601,602,603,604,605,606,607,608,609,610,611,612,613,614,615,616,617,618,619,620,621,622,623,624,625,626,627"/>
  <line x1="905.6666666666666" x2="1015.6666666666666" y1="66.5" y2="66.5" class="net_167,168,169,170,171,172,173,174,175,176,177,178,179,180,181,182,183,184,185,186,187,188,189,190,191,192,193,194,195,196,197,198"/>
  <line x1="905.6666666666666" x2="1025.6666666666665" y1="131.5" y2="131.5" class="net_201"/>
  <line x1="1025.6666666666665" x2="1025.6666666666665" y1="131.5" y2="71.5" class="net_201"/>
  <line x1="308" x2="503.6666666666667" y1="454" y2="454" class="net_203"/>
  <line x1="503.6666666666667" x2="503.6666666666667" y1="454" y2="439" class="net_203"/>
  <line x1="513.6666666666667" x2="621.3333333333333" y1="424" y2="424" class="net_364,365,366,367,368,369,370,371,372,373,374,375,376,377,378,379,380,381,382,383,384,385,386,387,388,389,390,391,392,393,394,395"/>
  <line x1="523" x2="582" y1="826.5" y2="826.5" class="net_396,397,398,399,400,401,402,403,404,405,406,407,408,409,410,411,412,413,414,415,416,417,418,419,420,421,422,423,424,425,426,427"/>
  <line x1="582" x2="582" y1="826.5" y2="444" class="net_396,397,398,399,400,401,402,403,404,405,406,407,408,409,410,411,412,413,414,415,416,417,418,419,420,421,422,423,424,425,426,427"/>
  <circle cx="582" cy="826.5" r="2" style="fill:#000" class="net_396,397,398,399,400,401,402,403,404,405,406,407,408,409,410,411,412,413,414,415,416,417,418,419,420,421,422,423,424,425,426,427"/>
  <line x1="582" x2="621.3333333333333" y1="444" y2="444" class="net_396,397,398,399,400,401,402,403,404,405,406,407,408,409,410,411,412,413,414,415,416,417,418,419,420,421,422,423,424,425,426,427"/>
  <line x1="523" x2="1092" y1="826.5" y2="826.5" class="net_396,397,398,399,400,401,402,403,404,405,406,407,408,409,410,411,412,413,414,415,416,417,418,419,420,421,422,423,424,425,426,427"/>
  <line x1="1092" x2="1092" y1="826.5" y2="971.5" class="net_396,397,398,399,400,401,402,403,404,405,406,407,408,409,410,411,412,413,414,415,416,417,418,419,420,421,422,423,424,425,426,427"/>
  <line x1="1092" x2="1154" y1="971.5" y2="971.5" class="net_396,397,398,399,400,401,402,403,404,405,406,407,408,409,410,411,412,413,414,415,416,417,418,419,420,421,422,423,424,425,426,427"/>
  <line x1="523" x2="582" y1="826.5" y2="826.5" class="net_396,397,398,399,400,401,402,403,404,405,406,407,408,409,410,411,412,413,414,415,416,417,418,419,420,421,422,423,424,425,426,427"/>
  <line x1="582" x2="582" y1="826.5" y2="1215" class="net_396,397,398,399,400,401,402,403,404,405,406,407,408,409,410,411,412,413,414,415,416,417,418,419,420,421,422,423,424,425,426,427"/>
  <line x1="582" x2="1381" y1="1215" y2="1215" class="net_396,397,398,399,400,401,402,403,404,405,406,407,408,409,410,411,412,413,414,415,416,417,418,419,420,421,422,423,424,425,426,427"/>
  <line x1="514.5" x2="631.3333333333333" y1="476.5" y2="476.5" class="net_202"/>
  <line x1="631.3333333333333" x2="631.3333333333333" y1="476.5" y2="449" class="net_202"/>
  <line x1="523" x2="592" y1="846.5" y2="846.5" class="net_460,461,462,463,464,465,466,467,468,469,470,471,472,473,474,475,476,477,478,479,480,481,482,483,484,485,486,487,488,489,490,491"/>
  <line x1="592" x2="592" y1="846.5" y2="501.5" class="net_460,461,462,463,464,465,466,467,468,469,470,471,472,473,474,475,476,477,478,479,480,481,482,483,484,485,486,487,488,489,490,491"/>
  <circle cx="592" cy="846.5" r="2" style="fill:#000" class="net_460,461,462,463,464,465,466,467,468,469,470,471,472,473,474,475,476,477,478,479,480,481,482,483,484,485,486,487,488,489,490,491"/>
  <circle cx="592" cy="501.5" r="2" style="fill:#000" class="net_460,461,462,463,464,465,466,467,468,469,470,471,472,473,474,475,476,477,478,479,480,481,482,483,484,485,486,487,488,489,490,491"/>
  <line x1="592" x2="621.3333333333333" y1="501.5" y2="501.5" class="net_460,461,462,463,464,465,466,467,468,469,470,471,472,473,474,475,476,477,478,479,480,481,482,483,484,485,486,487,488,489,490,491"/>
  <line x1="523" x2="592" y1="846.5" y2="846.5" class="net_460,461,462,463,464,465,466,467,468,469,470,471,472,473,474,475,476,477,478,479,480,481,482,483,484,485,486,487,488,489,490,491"/>
  <line x1="592" x2="592" y1="846.5" y2="991.5" class="net_460,461,462,463,464,465,466,467,468,469,470,471,472,473,474,475,476,477,478,479,480,481,482,483,484,485,486,487,488,489,490,491"/>
  <line x1="592" x2="1154" y1="991.5" y2="991.5" class="net_460,461,462,463,464,465,466,467,468,469,470,471,472,473,474,475,476,477,478,479,480,481,482,483,484,485,486,487,488,489,490,491"/>
  <line x1="523" x2="592" y1="846.5" y2="846.5" class="net_460,461,462,463,464,465,466,467,468,469,470,471,472,473,474,475,476,477,478,479,480,481,482,483,484,485,486,487,488,489,490,491"/>
  <line x1="592" x2="592" y1="846.5" y2="338" class="net_460,461,462,463,464,465,466,467,468,469,470,471,472,473,474,475,476,477,478,479,480,481,482,483,484,485,486,487,488,489,490,491"/>
  <line x1="592" x2="1020" y1="338" y2="338" class="net_460,461,462,463,464,465,466,467,468,469,470,471,472,473,474,475,476,477,478,479,480,481,482,483,484,485,486,487,488,489,490,491"/>
  <line x1="520" x2="602" y1="1014" y2="1014" class="net_60,61,62,63,64,65,66,67,68,69,70,71,72,73,74,75,76,77,78,79,80,81,82,83,84,85,86,87,88,89,90,91"/>
  <line x1="602" x2="602" y1="1014" y2="521.5" class="net_60,61,62,63,64,65,66,67,68,69,70,71,72,73,74,75,76,77,78,79,80,81,82,83,84,85,86,87,88,89,90,91"/>
  <circle cx="602" cy="1014" r="2" style="fill:#000" class="net_60,61,62,63,64,65,66,67,68,69,70,71,72,73,74,75,76,77,78,79,80,81,82,83,84,85,86,87,88,89,90,91"/>
  <line x1="602" x2="621.3333333333333" y1="521.5" y2="521.5" class="net_60,61,62,63,64,65,66,67,68,69,70,71,72,73,74,75,76,77,78,79,80,81,82,83,84,85,86,87,88,89,90,91"/>
  <line x1="520" x2="1288" y1="1014" y2="1014" class="net_60,61,62,63,64,65,66,67,68,69,70,71,72,73,74,75,76,77,78,79,80,81,82,83,84,85,86,87,88,89,90,91"/>
  <line x1="1288" x2="1288" y1="1014" y2="1115" class="net_60,61,62,63,64,65,66,67,68,69,70,71,72,73,74,75,76,77,78,79,80,81,82,83,84,85,86,87,88,89,90,91"/>
  <line x1="1288" x2="1381" y1="1115" y2="1115" class="net_60,61,62,63,64,65,66,67,68,69,70,71,72,73,74,75,76,77,78,79,80,81,82,83,84,85,86,87,88,89,90,91"/>
  <line x1="520" x2="631.3333333333333" y1="541.5" y2="541.5" class="net_95"/>
  <line x1="631.3333333333333" x2="631.3333333333333" y1="541.5" y2="526.5" class="net_95"/>
  <line x1="640" x2="680" y1="369" y2="369" class="net_56,57,58,59"/>
  <line x1="680" x2="680" y1="369" y2="471.5" class="net_56,57,58,59"/>
  <line x1="680" x2="744" y1="471.5" y2="471.5" class="net_56,57,58,59"/>
  <line x1="641.3333333333333" x2="670" y1="434" y2="434" class="net_428,429,430,431,432,433,434,435,436,437,438,439,440,441,442,443,444,445,446,447,448,449,450,451,452,453,454,455,456,457,458,459"/>
  <line x1="670" x2="670" y1="434" y2="491.5" class="net_428,429,430,431,432,433,434,435,436,437,438,439,440,441,442,443,444,445,446,447,448,449,450,451,452,453,454,455,456,457,458,459"/>
  <line x1="670" x2="744" y1="491.5" y2="491.5" class="net_428,429,430,431,432,433,434,435,436,437,438,439,440,441,442,443,444,445,446,447,448,449,450,451,452,453,454,455,456,457,458,459"/>
  <line x1="641.3333333333333" x2="744" y1="511.5" y2="511.5" class="net_492,493,494,495,496,497,498,499,500,501,502,503,504,505,506,507,508,509,510,511,512,513,514,515,516,517,518,519,520,521,522,523"/>
  <line x1="1048" x2="1102" y1="806.5" y2="806.5" class="net_16,17,18"/>
  <line x1="1102" x2="1102" y1="806.5" y2="951.5" class="net_16,17,18"/>
  <line x1="1102" x2="1154" y1="951.5" y2="951.5" class="net_16,17,18"/>
  <line x1="900" x2="955" y1="189.5" y2="189.5" class="net_238,239,240,241,242,243,244,245,246,247,248"/>
  <line x1="955" x2="955" y1="189.5" y2="258" class="net_238,239,240,241,242,243,244,245,246,247,248"/>
  <line x1="955" x2="1020" y1="258" y2="258" class="net_238,239,240,241,242,243,244,245,246,247,248"/>
  <line x1="178" x2="202" y1="626.5" y2="626.5" class="net_2"/>
  <line x1="202" x2="202" y1="626.5" y2="212" class="net_2"/>
  <line x1="202" x2="945" y1="212" y2="212" class="net_2"/>
  <line x1="945" x2="945" y1="212" y2="278" class="net_2"/>
  <circle cx="202" cy="626.5" r="2" style="fill:#000" class="net_2"/>
  <line x1="945" x2="1020" y1="278" y2="278" class="net_2"/>
  <line x1="178" x2="202" y1="626.5" y2="626.5" class="net_2"/>
  <line x1="202" x2="202" y1="626.5" y2="788" class="net_2"/>
  <line x1="202" x2="275" y1="788" y2="788" class="net_2"/>
  <line x1="178" x2="427" y1="626.5" y2="626.5" class="net_2"/>
  <line x1="427" x2="427" y1="626.5" y2="826.5" class="net_2"/>
  <line x1="427" x2="492" y1="826.5" y2="826.5" class="net_2"/>
  <line x1="899" x2="935" y1="253" y2="253" class="net_93"/>
  <line x1="935" x2="935" y1="253" y2="298" class="net_93"/>
  <line x1="935" x2="1020" y1="298" y2="298" class="net_93"/>
  <line x1="899" x2="1020" y1="318" y2="318" class="net_94"/>
  <line x1="1050" x2="1172.5" y1="1280" y2="1280" class="net_137,138,139,140,141,142,143,144,145,146,147"/>
  <line x1="1185" x2="1298" y1="951.5" y2="951.5" class="net_525"/>
  <line x1="1298" x2="1298" y1="951.5" y2="1095" class="net_525"/>
  <line x1="1298" x2="1381" y1="1095" y2="1095" class="net_525"/>
  <line x1="1182" x2="1278" y1="1045" y2="1045" class="net_100"/>
  <line x1="1278" x2="1278" y1="1045" y2="1135" class="net_100"/>
  <line x1="1278" x2="1381" y1="1135" y2="1135" class="net_100"/>
  <line x1="1182" x2="1268" y1="1110" y2="1110" class="net_101"/>
  <line x1="1268" x2="1268" y1="1110" y2="1155" class="net_101"/>
  <line x1="1268" x2="1381" y1="1155" y2="1155" class="net_101"/>
  <line x1="1182" x2="1381" y1="1175" y2="1175" class="net_102"/>
  <line x1="1412" x2="1465" y1="1095" y2="1095" class="net_526,527,528,529,530,531,532,533,534,535,536,537,538,539,540,541,542,543,544,545,546,547,548,549,550,551,552,553,554,555,556,557"/>
  <line x1="1465" x2="1465" y1="1095" y2="1237.5" class="net_526,527,528,529,530,531,532,533,534,535,536,537,538,539,540,541,542,543,544,545,546,547,548,549,550,551,552,553,554,555,556,557"/>
  <line x1="1465" x2="202" y1="1237.5" y2="1237.5" class="net_526,527,528,529,530,531,532,533,534,535,536,537,538,539,540,541,542,543,544,545,546,547,548,549,550,551,552,553,554,555,556,557"/>
  <line x1="202" x2="202" y1="1237.5" y2="808" class="net_526,527,528,529,530,531,532,533,534,535,536,537,538,539,540,541,542,543,544,545,546,547,548,549,550,551,552,553,554,555,556,557"/>
  <line x1="202" x2="275" y1="808" y2="808" class="net_526,527,528,529,530,531,532,533,534,535,536,537,538,539,540,541,542,543,544,545,546,547,548,549,550,551,552,553,554,555,556,557"/>
  <line x1="178" x2="212" y1="850.5" y2="850.5" class="net_3"/>
  <line x1="212" x2="212" y1="850.5" y2="828" class="net_3"/>
  <circle cx="212" cy="850.5" r="2" style="fill:#000" class="net_3"/>
  <line x1="212" x2="275" y1="828" y2="828" class="net_3"/>
  <line x1="178" x2="397" y1="850.5" y2="850.5" class="net_3"/>
  <line x1="397" x2="397" y1="850.5" y2="906.5" class="net_3"/>
  <line x1="397" x2="492" y1="906.5" y2="906.5" class="net_3"/>
  <line x1="303" x2="417" y1="657.5" y2="657.5" class="net_11,12,13,14,15"/>
  <line x1="417" x2="417" y1="657.5" y2="846.5" class="net_11,12,13,14,15"/>
  <line x1="417" x2="492" y1="846.5" y2="846.5" class="net_11,12,13,14,15"/>
  <line x1="1401" x2="1475" y1="744.5" y2="744.5" class="net_268,269,270,271,272,273,274,275,276,277,278,279,280,281,282,283,284,285,286,287,288,289,290,291,292,293,294,295,296,297,298,299"/>
  <line x1="1475" x2="1475" y1="744.5" y2="1248.5" class="net_268,269,270,271,272,273,274,275,276,277,278,279,280,281,282,283,284,285,286,287,288,289,290,291,292,293,294,295,296,297,298,299"/>
  <line x1="1475" x2="427" y1="1248.5" y2="1248.5" class="net_268,269,270,271,272,273,274,275,276,277,278,279,280,281,282,283,284,285,286,287,288,289,290,291,292,293,294,295,296,297,298,299"/>
  <line x1="427" x2="427" y1="1248.5" y2="866.5" class="net_268,269,270,271,272,273,274,275,276,277,278,279,280,281,282,283,284,285,286,287,288,289,290,291,292,293,294,295,296,297,298,299"/>
  <line x1="427" x2="492" y1="866.5" y2="866.5" class="net_268,269,270,271,272,273,274,275,276,277,278,279,280,281,282,283,284,285,286,287,288,289,290,291,292,293,294,295,296,297,298,299"/>
  <line x1="303" x2="407" y1="722.5" y2="722.5" class="net_92"/>
  <line x1="407" x2="407" y1="722.5" y2="886.5" class="net_92"/>
  <line x1="407" x2="492" y1="886.5" y2="886.5" class="net_92"/>
  <line x1="303" x2="387" y1="881.5" y2="881.5" class="net_19,20,21,22,23"/>
  <line x1="387" x2="387" y1="881.5" y2="926.5" class="net_19,20,21,22,23"/>
  <line x1="387" x2="492" y1="926.5" y2="926.5" class="net_19,20,21,22,23"/>
  <line x1="303" x2="492" y1="946.5" y2="946.5" class="net_24,25,26,27,28"/>
  <line x1="1203.5" x2="1381" y1="1280" y2="1280" class="net_103,104,105,106,107,108,109,110,111,112,113,114,115,116,117,118,119,120,121,122,123,124,125,126,127,128,129,130,131,132,133,134"/>
</svg>
