<svg xmlns="http://www.w3.org/2000/svg" xmlns:xlink="http://www.w3.org/1999/xlink" xmlns:s="https://github.com/nturley/netlistsvg" width="271" height="519">
  <style>svg {
    stroke:#000;
    fill:none;
  }
  text {
    fill:#000;
    stroke:none;
    font-size:10px;
    font-weight: bold;
    font-family: "Courier New", monospace;
  }
  .nodelabel {
    text-anchor: middle;
  }
  .inputPortLabel {
    text-anchor: end;
  }
  .splitjoinBody {
    fill:#000;
  }</style>
  <g s:type="inputExt" transform="translate(12,322)" s:width="30" s:height="20" id="cell_instr">
    <text x="15" y="-4" class="nodelabel cell_instr" s:attribute="ref">instr</text>
    <s:alias val="$_inputExt_"/>
    <path d="M0,0 L0,20 L15,20 L30,10 L15,0 Z" class="cell_instr"/>
    <g s:x="28" s:y="10" s:pid="Y"/>
  </g>
  <g s:type="outputExt" transform="translate(223,22)" s:width="30" s:height="20" id="cell_opcode">
    <text x="15" y="-4" class="nodelabel cell_opcode" s:attribute="ref">opcode</text>
    <s:alias val="$_outputExt_"/>
    <path d="M30,0 L30,20 L15,20 L0,10 L15,0 Z" class="cell_opcode"/>
    <g s:x="0" s:y="10" s:pid="A"/>
  </g>
  <g s:type="outputExt" transform="translate(223,87)" s:width="30" s:height="20" id="cell_rd">
    <text x="15" y="-4" class="nodelabel cell_rd" s:attribute="ref">rd</text>
    <s:alias val="$_outputExt_"/>
    <path d="M30,0 L30,20 L15,20 L0,10 L15,0 Z" class="cell_rd"/>
    <g s:x="0" s:y="10" s:pid="A"/>
  </g>
  <g s:type="outputExt" transform="translate(223,152)" s:width="30" s:height="20" id="cell_funct3">
    <text x="15" y="-4" class="nodelabel cell_funct3" s:attribute="ref">funct3</text>
    <s:alias val="$_outputExt_"/>
    <path d="M30,0 L30,20 L15,20 L0,10 L15,0 Z" class="cell_funct3"/>
    <g s:x="0" s:y="10" s:pid="A"/>
  </g>
  <g s:type="outputExt" transform="translate(223,217)" s:width="30" s:height="20" id="cell_rs1">
    <text x="15" y="-4" class="nodelabel cell_rs1" s:attribute="ref">rs1</text>
    <s:alias val="$_outputExt_"/>
    <path d="M30,0 L30,20 L15,20 L0,10 L15,0 Z" class="cell_rs1"/>
    <g s:x="0" s:y="10" s:pid="A"/>
  </g>
  <g s:type="outputExt" transform="translate(223,347)" s:width="30" s:height="20" id="cell_rs2">
    <text x="15" y="-4" class="nodelabel cell_rs2" s:attribute="ref">rs2</text>
    <s:alias val="$_outputExt_"/>
    <path d="M30,0 L30,20 L15,20 L0,10 L15,0 Z" class="cell_rs2"/>
    <g s:x="0" s:y="10" s:pid="A"/>
  </g>
  <g s:type="outputExt" transform="translate(223,412)" s:width="30" s:height="20" id="cell_funct7">
    <text x="15" y="-4" class="nodelabel cell_funct7" s:attribute="ref">funct7</text>
    <s:alias val="$_outputExt_"/>
    <path d="M30,0 L30,20 L15,20 L0,10 L15,0 Z" class="cell_funct7"/>
    <g s:x="0" s:y="10" s:pid="A"/>
  </g>
  <g s:type="outputExt" transform="translate(223,282)" s:width="30" s:height="20" id="cell_shamt">
    <text x="15" y="-4" class="nodelabel cell_shamt" s:attribute="ref">shamt</text>
    <s:alias val="$_outputExt_"/>
    <path d="M30,0 L30,20 L15,20 L0,10 L15,0 Z" class="cell_shamt"/>
    <g s:x="0" s:y="10" s:pid="A"/>
  </g>
  <g s:type="outputExt" transform="translate(223,477)" s:width="30" s:height="20" id="cell_csr">
    <text x="15" y="-4" class="nodelabel cell_csr" s:attribute="ref">csr</text>
    <s:alias val="$_outputExt_"/>
    <path d="M30,0 L30,20 L15,20 L0,10 L15,0 Z" class="cell_csr"/>
    <g s:x="0" s:y="10" s:pid="A"/>
  </g>
  <g s:type="constant" transform="translate(77,487)" s:width="30" s:height="20" id="cell_00000000">
    <text x="15" y="-4" class="nodelabel cell_00000000" s:attribute="ref">0x0</text>
    <s:alias val="$_constant_"/>
    <rect width="30" height="20" class="cell_00000000"/>
    <g s:x="30" s:y="10" s:pid="Y"/>
  </g>
  <g s:type="join" transform="translate(182,466.5)" s:width="4" s:height="40" id="cell_$join$,22,23,24,25,26,27,28,29,30,31,32,33,34,35,36,37,38,39,40,41,">
    <rect width="5" height="40" class="splitjoinBody" s:generic="body"/>
    <s:alias val="$_join_"/>
    <g s:x="5" s:y="20" s:pid="out"/>
    <g transform="translate(0,10)" s:x="0" s:y="10" s:pid="in0">
      <text x="-3" y="-4" class="inputPortLabel">0:11</text>
    </g>
    <g transform="translate(0,30)" s:x="0" s:y="10" s:pid="in0">
      <text x="-3" y="-4" class="inputPortLabel">12:19</text>
    </g>
  </g>
  <g s:type="split" transform="translate(83,311.5)" s:width="5" s:height="40" id="cell_$split$,2,3,4,5,6,7,8,9,10,11,12,13,14,15,16,17,18,19,20,21,22,23,24,25,26,27,28,29,30,31,32,33,">
    <rect width="5" height="140" class="splitjoinBody" s:generic="body"/>
    <s:alias val="$_split_"/>
    <g s:x="0" s:y="20" s:pid="in"/>
    <g transform="translate(4,10)" s:x="4" s:y="10" s:pid="out0">
      <text x="5" y="-4">0:6</text>
    </g>
    <g transform="translate(4,30)" s:x="4" s:y="10" s:pid="out0">
      <text x="5" y="-4">7:11</text>
    </g>
    <g transform="translate(4,50)" s:x="4" s:y="10" s:pid="out0">
      <text x="5" y="-4">12:14</text>
    </g>
    <g transform="translate(4,70)" s:x="4" s:y="10" s:pid="out0">
      <text x="5" y="-4">15:19</text>
    </g>
    <g transform="translate(4,90)" s:x="4" s:y="10" s:pid="out0">
      <text x="5" y="-4">20:24</text>
    </g>
    <g transform="translate(4,110)" s:x="4" s:y="10" s:pid="out0">
      <text x="5" y="-4">25:31</text>
    </g>
    <g transform="translate(4,130)" s:x="4" s:y="10" s:pid="out0">
      <text x="5" y="-4">20:31</text>
    </g>
  </g>
  <line x1="87.5" x2="87.5" y1="321.5" y2="32" class="net_2,3,4,5,6,7,8"/>
  <line x1="87.5" x2="223" y1="32" y2="32" class="net_2,3,4,5,6,7,8"/>
  <line x1="88" x2="117" y1="342" y2="342" class="net_9,10,11,12,13"/>
  <line x1="117" x2="117" y1="342" y2="97" class="net_9,10,11,12,13"/>
  <line x1="117" x2="223" y1="97" y2="97" class="net_9,10,11,12,13"/>
  <line x1="88" x2="127" y1="362" y2="362" class="net_14,15,16"/>
  <line x1="127" x2="127" y1="362" y2="162" class="net_14,15,16"/>
  <line x1="127" x2="223" y1="162" y2="162" class="net_14,15,16"/>
  <line x1="88" x2="137" y1="382" y2="382" class="net_17,18,19,20,21"/>
  <line x1="137" x2="137" y1="382" y2="227" class="net_17,18,19,20,21"/>
  <line x1="137" x2="223" y1="227" y2="227" class="net_17,18,19,20,21"/>
  <line x1="88" x2="147" y1="402" y2="402" class="net_22,23,24,25,26"/>
  <line x1="147" x2="147" y1="402" y2="357" class="net_22,23,24,25,26"/>
  <line x1="147" x2="223" y1="357" y2="357" class="net_22,23,24,25,26"/>
  <line x1="88" x2="147" y1="402" y2="402" class="net_22,23,24,25,26"/>
  <line x1="147" x2="147" y1="402" y2="357" class="net_22,23,24,25,26"/>
  <line x1="147" x2="198" y1="357" y2="357" class="net_22,23,24,25,26"/>
  <line x1="198" x2="198" y1="357" y2="292" class="net_22,23,24,25,26"/>
  <circle cx="198" cy="357" r="2" style="fill:#000" class="net_22,23,24,25,26"/>
  <line x1="198" x2="223" y1="292" y2="292" class="net_22,23,24,25,26"/>
  <line x1="88" x2="223" y1="422" y2="422" class="net_27,28,29,30,31,32,33"/>
  <line x1="188" x2="223" y1="487" y2="487" class="net_22,23,24,25,26,27,28,29,30,31,32,33,34,35,36,37,38,39,40,41"/>
  <line x1="87.5" x2="87.5" y1="442.5" y2="467" class="net_22,23,24,25,26,27,28,29,30,31,32,33"/>
  <line x1="87.5" x2="117" y1="467" y2="467" class="net_22,23,24,25,26,27,28,29,30,31,32,33"/>
  <line x1="117" x2="117" y1="467" y2="477" class="net_22,23,24,25,26,27,28,29,30,31,32,33"/>
  <line x1="117" x2="182" y1="477" y2="477" class="net_22,23,24,25,26,27,28,29,30,31,32,33"/>
  <line x1="107" x2="182" y1="497" y2="497" class="net_34,35,36,37,38,39,40,41"/>
  <line x1="40" x2="83" y1="332" y2="332" class="net_2,3,4,5,6,7,8,9,10,11,12,13,14,15,16,17,18,19,20,21,22,23,24,25,26,27,28,29,30,31,32,33"/>
</svg>
