<svg xmlns="http://www.w3.org/2000/svg" xmlns:xlink="http://www.w3.org/1999/xlink" xmlns:s="https://github.com/nturley/netlistsvg" width="434" height="436.5">
  <style>svg {
    stroke:#000;
    fill:none;
  }
  text {
    fill:#000;
    stroke:none;
    font-size:10px;
    font-weight: bold;
    font-family: "Courier New", monospace;
  }
  .nodelabel {
    text-anchor: middle;
  }
  .inputPortLabel {
    text-anchor: end;
  }
  .splitjoinBody {
    fill:#000;
  }</style>
  <g s:type="not" transform="translate(272,404.5)" s:width="30" s:height="20" id="cell_$eq$src/leaf/mux4.v:14$96">
    <s:alias val="$_NOT_"/>
    <s:alias val="$not"/>
    <s:alias val="$logic_not"/>
    <path d="M0,0 L0,20 L20,10 Z" class="cell_$eq$src/leaf/mux4.v:14$96"/>
    <circle cx="23" cy="10" r="3" class="cell_$eq$src/leaf/mux4.v:14$96"/>
    <g s:x="0" s:y="10" s:pid="A"/>
    <g s:x="25" s:y="10" s:pid="Y"/>
  </g>
  <g s:type="eq" transform="translate(208.66666666666666,317)" s:width="25" s:height="25" id="cell_$eq$src/leaf/mux4.v:15$97">
    <s:alias val="$eq"/>
    <circle r="12.5" cx="12.5" cy="12.5" class="cell_$eq$src/leaf/mux4.v:15$97"/>
    <line x1="7.5" x2="17.5" y1="10" y2="10" class="cell_$eq$src/leaf/mux4.v:15$97"/>
    <line x1="7.5" x2="17.5" y1="15" y2="15" class="cell_$eq$src/leaf/mux4.v:15$97"/>
    <g s:x="3" s:y="5" s:pid="A"/>
    <g s:x="3" s:y="20" s:pid="B"/>
    <g s:x="25" s:y="12.5" s:pid="Y"/>
  </g>
  <g s:type="eq" transform="translate(143.66666666666666,229.5)" s:width="25" s:height="25" id="cell_$eq$src/leaf/mux4.v:16$98">
    <s:alias val="$eq"/>
    <circle r="12.5" cx="12.5" cy="12.5" class="cell_$eq$src/leaf/mux4.v:16$98"/>
    <line x1="7.5" x2="17.5" y1="10" y2="10" class="cell_$eq$src/leaf/mux4.v:16$98"/>
    <line x1="7.5" x2="17.5" y1="15" y2="15" class="cell_$eq$src/leaf/mux4.v:16$98"/>
    <g s:x="3" s:y="5" s:pid="A"/>
    <g s:x="3" s:y="20" s:pid="B"/>
    <g s:x="25" s:y="12.5" s:pid="Y"/>
  </g>
  <g s:type="eq" transform="translate(78.66666666666667,142)" s:width="25" s:height="25" id="cell_$eq$src/leaf/mux4.v:17$99">
    <s:alias val="$eq"/>
    <circle r="12.5" cx="12.5" cy="12.5" class="cell_$eq$src/leaf/mux4.v:17$99"/>
    <line x1="7.5" x2="17.5" y1="10" y2="10" class="cell_$eq$src/leaf/mux4.v:17$99"/>
    <line x1="7.5" x2="17.5" y1="15" y2="15" class="cell_$eq$src/leaf/mux4.v:17$99"/>
    <g s:x="3" s:y="5" s:pid="A"/>
    <g s:x="3" s:y="20" s:pid="B"/>
    <g s:x="25" s:y="12.5" s:pid="Y"/>
  </g>
  <g s:type="mux" transform="translate(337,52)" s:width="20" s:height="40" id="cell_$ternary$src/leaf/mux4.v:14$103">
    <s:alias val="$pmux"/>
    <s:alias val="$mux"/>
    <s:alias val="$_MUX_"/>
    <path d="M0,0 L20,10 L20,30 L0,40 Z" class="cell_$ternary$src/leaf/mux4.v:14$103"/>
    <g s:x="0" s:y="10" s:pid="A"/>
    <g s:x="0" s:y="30" s:pid="B"/>
    <g s:x="10" s:y="35" s:pid="S"/>
    <g s:x="20" s:y="20" s:pid="Y"/>
  </g>
  <g s:type="mux" transform="translate(275.3333333333333,42)" s:width="20" s:height="40" id="cell_$ternary$src/leaf/mux4.v:15$102">
    <s:alias val="$pmux"/>
    <s:alias val="$mux"/>
    <s:alias val="$_MUX_"/>
    <path d="M0,0 L20,10 L20,30 L0,40 Z" class="cell_$ternary$src/leaf/mux4.v:15$102"/>
    <g s:x="0" s:y="10" s:pid="A"/>
    <g s:x="0" s:y="30" s:pid="B"/>
    <g s:x="10" s:y="35" s:pid="S"/>
    <g s:x="20" s:y="20" s:pid="Y"/>
  </g>
  <g s:type="mux" transform="translate(210.33333333333334,32)" s:width="20" s:height="40" id="cell_$ternary$src/leaf/mux4.v:16$101">
    <s:alias val="$pmux"/>
    <s:alias val="$mux"/>
    <s:alias val="$_MUX_"/>
    <path d="M0,0 L20,10 L20,30 L0,40 Z" class="cell_$ternary$src/leaf/mux4.v:16$101"/>
    <g s:x="0" s:y="10" s:pid="A"/>
    <g s:x="0" s:y="30" s:pid="B"/>
    <g s:x="10" s:y="35" s:pid="S"/>
    <g s:x="20" s:y="20" s:pid="Y"/>
  </g>
  <g s:type="mux" transform="translate(145.33333333333334,22)" s:width="20" s:height="40" id="cell_$ternary$src/leaf/mux4.v:17$100">
    <s:alias val="$pmux"/>
    <s:alias val="$mux"/>
    <s:alias val="$_MUX_"/>
    <path d="M0,0 L20,10 L20,30 L0,40 Z" class="cell_$ternary$src/leaf/mux4.v:17$100"/>
    <g s:x="0" s:y="10" s:pid="A"/>
    <g s:x="0" s:y="30" s:pid="B"/>
    <g s:x="10" s:y="35" s:pid="S"/>
    <g s:x="20" s:y="20" s:pid="Y"/>
  </g>
  <g s:type="inputExt" transform="translate(272,349.5)" s:width="30" s:height="20" id="cell_a">
    <text x="15" y="-4" class="nodelabel cell_a" s:attribute="ref">a</text>
    <s:alias val="$_inputExt_"/>
    <path d="M0,0 L0,20 L15,20 L30,10 L15,0 Z" class="cell_a"/>
    <g s:x="28" s:y="10" s:pid="Y"/>
  </g>
  <g s:type="inputExt" transform="translate(207,262)" s:width="30" s:height="20" id="cell_b">
    <text x="15" y="-4" class="nodelabel cell_b" s:attribute="ref">b</text>
    <s:alias val="$_inputExt_"/>
    <path d="M0,0 L0,20 L15,20 L30,10 L15,0 Z" class="cell_b"/>
    <g s:x="28" s:y="10" s:pid="Y"/>
  </g>
  <g s:type="inputExt" transform="translate(142,174.5)" s:width="30" s:height="20" id="cell_c">
    <text x="15" y="-4" class="nodelabel cell_c" s:attribute="ref">c</text>
    <s:alias val="$_inputExt_"/>
    <path d="M0,0 L0,20 L15,20 L30,10 L15,0 Z" class="cell_c"/>
    <g s:x="28" s:y="10" s:pid="Y"/>
  </g>
  <g s:type="inputExt" transform="translate(77,87)" s:width="30" s:height="20" id="cell_d">
    <text x="15" y="-4" class="nodelabel cell_d" s:attribute="ref">d</text>
    <s:alias val="$_inputExt_"/>
    <path d="M0,0 L0,20 L15,20 L30,10 L15,0 Z" class="cell_d"/>
    <g s:x="28" s:y="10" s:pid="Y"/>
  </g>
  <g s:type="inputExt" transform="translate(12,224.5)" s:width="30" s:height="20" id="cell_sel">
    <text x="15" y="-4" class="nodelabel cell_sel" s:attribute="ref">sel</text>
    <s:alias val="$_inputExt_"/>
    <path d="M0,0 L0,20 L15,20 L30,10 L15,0 Z" class="cell_sel"/>
    <g s:x="28" s:y="10" s:pid="Y"/>
  </g>
  <g s:type="outputExt" transform="translate(392,62)" s:width="30" s:height="20" id="cell_y">
    <text x="15" y="-4" class="nodelabel cell_y" s:attribute="ref">y</text>
    <s:alias val="$_outputExt_"/>
    <path d="M30,0 L30,20 L15,20 L0,10 L15,0 Z" class="cell_y"/>
    <g s:x="0" s:y="10" s:pid="A"/>
  </g>
  <g s:type="constant" transform="translate(142,343)" s:width="30" s:height="20" id="cell_01">
    <text x="15" y="-4" class="nodelabel cell_01" s:attribute="ref">01</text>
    <s:alias val="$_constant_"/>
    <rect width="30" height="20" class="cell_01"/>
    <g s:x="30" s:y="10" s:pid="Y"/>
  </g>
  <g s:type="constant" transform="translate(77,255.5)" s:width="30" s:height="20" id="cell_10">
    <text x="15" y="-4" class="nodelabel cell_10" s:attribute="ref">10</text>
    <s:alias val="$_constant_"/>
    <rect width="30" height="20" class="cell_10"/>
    <g s:x="30" s:y="10" s:pid="Y"/>
  </g>
  <g s:type="constant" transform="translate(12,152)" s:width="30" s:height="20" id="cell_11">
    <text x="15" y="-4" class="nodelabel cell_11" s:attribute="ref">11</text>
    <s:alias val="$_constant_"/>
    <rect width="30" height="20" class="cell_11"/>
    <g s:x="30" s:y="10" s:pid="Y"/>
  </g>
  <g s:type="constant" transform="translate(77,22)" s:width="30" s:height="20" id="cell_00000000000000000000000000000000">
    <text x="15" y="-4" class="nodelabel cell_00000000000000000000000000000000" s:attribute="ref">0x0</text>
    <s:alias val="$_constant_"/>
    <rect width="30" height="20" class="cell_00000000000000000000000000000000"/>
    <g s:x="30" s:y="10" s:pid="Y"/>
  </g>
  <line x1="40" x2="52" y1="234.5" y2="234.5" class="net_130,131"/>
  <line x1="52" x2="52" y1="234.5" y2="322" class="net_130,131"/>
  <line x1="52" x2="117" y1="322" y2="322" class="net_130,131"/>
  <line x1="117" x2="117" y1="322" y2="414.5" class="net_130,131"/>
  <circle cx="52" cy="234.5" r="2" style="fill:#000" class="net_130,131"/>
  <circle cx="117" cy="322" r="2" style="fill:#000" class="net_130,131"/>
  <line x1="117" x2="272" y1="414.5" y2="414.5" class="net_130,131"/>
  <line x1="40" x2="52" y1="234.5" y2="234.5" class="net_130,131"/>
  <line x1="52" x2="52" y1="234.5" y2="322" class="net_130,131"/>
  <line x1="52" x2="211.66666666666666" y1="322" y2="322" class="net_130,131"/>
  <line x1="40" x2="146.66666666666666" y1="234.5" y2="234.5" class="net_130,131"/>
  <line x1="40" x2="52" y1="234.5" y2="234.5" class="net_130,131"/>
  <line x1="52" x2="52" y1="234.5" y2="147" class="net_130,131"/>
  <line x1="52" x2="81.66666666666667" y1="147" y2="147" class="net_130,131"/>
  <line x1="172" x2="182" y1="353" y2="353" class="net_264,265"/>
  <line x1="182" x2="182" y1="353" y2="337" class="net_264,265"/>
  <line x1="182" x2="211.66666666666666" y1="337" y2="337" class="net_264,265"/>
  <line x1="107" x2="117" y1="265.5" y2="265.5" class="net_266,267"/>
  <line x1="117" x2="117" y1="265.5" y2="249.5" class="net_266,267"/>
  <line x1="117" x2="146.66666666666666" y1="249.5" y2="249.5" class="net_266,267"/>
  <line x1="42" x2="81.66666666666667" y1="162" y2="162" class="net_268,269"/>
  <line x1="295.3333333333333" x2="337" y1="62" y2="62" class="net_168,169,170,171,172,173,174,175,176,177,178,179,180,181,182,183,184,185,186,187,188,189,190,191,192,193,194,195,196,197,198,199"/>
  <line x1="300" x2="312" y1="359.5" y2="359.5" class="net_2,3,4,5,6,7,8,9,10,11,12,13,14,15,16,17,18,19,20,21,22,23,24,25,26,27,28,29,30,31,32,33"/>
  <line x1="312" x2="312" y1="359.5" y2="82" class="net_2,3,4,5,6,7,8,9,10,11,12,13,14,15,16,17,18,19,20,21,22,23,24,25,26,27,28,29,30,31,32,33"/>
  <line x1="312" x2="337" y1="82" y2="82" class="net_2,3,4,5,6,7,8,9,10,11,12,13,14,15,16,17,18,19,20,21,22,23,24,25,26,27,28,29,30,31,32,33"/>
  <line x1="297" x2="347" y1="414.5" y2="414.5" class="net_164"/>
  <line x1="347" x2="347" y1="414.5" y2="87" class="net_164"/>
  <line x1="230.33333333333334" x2="275.3333333333333" y1="52" y2="52" class="net_200,201,202,203,204,205,206,207,208,209,210,211,212,213,214,215,216,217,218,219,220,221,222,223,224,225,226,227,228,229,230,231"/>
  <line x1="235" x2="247" y1="272" y2="272" class="net_34,35,36,37,38,39,40,41,42,43,44,45,46,47,48,49,50,51,52,53,54,55,56,57,58,59,60,61,62,63,64,65"/>
  <line x1="247" x2="247" y1="272" y2="72" class="net_34,35,36,37,38,39,40,41,42,43,44,45,46,47,48,49,50,51,52,53,54,55,56,57,58,59,60,61,62,63,64,65"/>
  <line x1="247" x2="275.3333333333333" y1="72" y2="72" class="net_34,35,36,37,38,39,40,41,42,43,44,45,46,47,48,49,50,51,52,53,54,55,56,57,58,59,60,61,62,63,64,65"/>
  <line x1="233.66666666666666" x2="285.3333333333333" y1="329.5" y2="329.5" class="net_165"/>
  <line x1="285.3333333333333" x2="285.3333333333333" y1="329.5" y2="77" class="net_165"/>
  <line x1="165.33333333333334" x2="210.33333333333334" y1="42" y2="42" class="net_232,233,234,235,236,237,238,239,240,241,242,243,244,245,246,247,248,249,250,251,252,253,254,255,256,257,258,259,260,261,262,263"/>
  <line x1="170" x2="182" y1="184.5" y2="184.5" class="net_66,67,68,69,70,71,72,73,74,75,76,77,78,79,80,81,82,83,84,85,86,87,88,89,90,91,92,93,94,95,96,97"/>
  <line x1="182" x2="182" y1="184.5" y2="62" class="net_66,67,68,69,70,71,72,73,74,75,76,77,78,79,80,81,82,83,84,85,86,87,88,89,90,91,92,93,94,95,96,97"/>
  <line x1="182" x2="210.33333333333334" y1="62" y2="62" class="net_66,67,68,69,70,71,72,73,74,75,76,77,78,79,80,81,82,83,84,85,86,87,88,89,90,91,92,93,94,95,96,97"/>
  <line x1="168.66666666666666" x2="220.33333333333334" y1="242" y2="242" class="net_166"/>
  <line x1="220.33333333333334" x2="220.33333333333334" y1="242" y2="67" class="net_166"/>
  <line x1="107" x2="145.33333333333334" y1="32" y2="32" class="net_270,271,272,273,274,275,276,277,278,279,280,281,282,283,284,285,286,287,288,289,290,291,292,293,294,295,296,297,298,299,300,301"/>
  <line x1="105" x2="117" y1="97" y2="97" class="net_98,99,100,101,102,103,104,105,106,107,108,109,110,111,112,113,114,115,116,117,118,119,120,121,122,123,124,125,126,127,128,129"/>
  <line x1="117" x2="117" y1="97" y2="52" class="net_98,99,100,101,102,103,104,105,106,107,108,109,110,111,112,113,114,115,116,117,118,119,120,121,122,123,124,125,126,127,128,129"/>
  <line x1="117" x2="145.33333333333334" y1="52" y2="52" class="net_98,99,100,101,102,103,104,105,106,107,108,109,110,111,112,113,114,115,116,117,118,119,120,121,122,123,124,125,126,127,128,129"/>
  <line x1="103.66666666666667" x2="155.33333333333334" y1="154.5" y2="154.5" class="net_167"/>
  <line x1="155.33333333333334" x2="155.33333333333334" y1="154.5" y2="57" class="net_167"/>
  <line x1="357" x2="392" y1="72" y2="72" class="net_132,133,134,135,136,137,138,139,140,141,142,143,144,145,146,147,148,149,150,151,152,153,154,155,156,157,158,159,160,161,162,163"/>
</svg>
